<?xml version="1.0" standalone="no"?>
<!DOCTYPE svg PUBLIC "-//W3C//DTD SVG 1.1//EN" "http://www.w3.org/Graphics/SVG/1.1/DTD/svg11.dtd" >
<svg xmlns="http://www.w3.org/2000/svg" xmlns:xlink="http://www.w3.org/1999/xlink" version="1.1">
<metadata>
Created by FontForge 20190801 at Fri Jun  9 18:08:14 2017
 By Jimmy Wärting
Copyright \\\(C\\\)2016 Commercial Type.
</metadata>
<defs>
<font id="StyreneA-Regular" horiz-adv-x="600" >
  <font-face 
    font-family="Styrene A Regular"
    font-weight="400"
    font-stretch="normal"
    units-per-em="1000"
    panose-1="0 0 0 0 0 0 0 0 0 0"
    ascent="764"
    descent="-236"
    x-height="494"
    cap-height="710"
    bbox="-115 -325 1379 1201"
    underline-thickness="76"
    underline-position="-76"
    stemh="90"
    stemv="92"
    unicode-range="U+0020-FB02"
  />
<missing-glyph horiz-adv-x="500" 
 />
    <glyph glyph-name=".notdef" horiz-adv-x="500" 
 />
    <glyph glyph-name="space" unicode=" " horiz-adv-x="265" 
 />
    <glyph glyph-name="quotedbl" unicode="&#x22;" horiz-adv-x="469" 
d="M183 405h-81v305h81v-305zM367 405h-81v305h81v-305z" />
    <glyph glyph-name="numbersign" unicode="#" horiz-adv-x="741" 
d="M346 0l56 191h-163l-57 -191h-79l56 191h-129v71h150l58 196h-130v71h151l54 181h80l-54 -181h163l54 181h80l-54 -181h129v-71h-150l-58 -196h130v-71h-151l-57 -191h-79zM260 262h163l58 196h-163z" />
    <glyph glyph-name="dollar" unicode="$" horiz-adv-x="599" 
d="M524 191c0 -100 -67 -176 -183 -190v-124h-78v123c-121 14 -188 97 -188 207v6h94v-4c0 -81 54 -127 130 -127c84 0 130 45 130 109c0 63 -40 95 -103 114l-73 22c-111 33 -168 90 -168 202c0 102 75 171 178 184v116h78v-117c108 -14 170 -87 170 -198v-3h-92v3
c0 70 -45 117 -120 117c-72 0 -120 -38 -120 -102c0 -61 39 -94 103 -113l73 -22c108 -33 169 -89 169 -203z" />
    <glyph glyph-name="percent" unicode="%" horiz-adv-x="1014" 
d="M252 356c-103 0 -182 79 -182 183s79 183 182 183s182 -79 182 -183s-79 -183 -182 -183zM208 0l502 710h95l-503 -710h-94zM252 430c61 0 103 47 103 109s-42 109 -103 109s-103 -47 -103 -109s42 -109 103 -109zM762 -14c-103 0 -182 79 -182 183s79 183 182 183
s182 -79 182 -183s-79 -183 -182 -183zM762 60c61 0 103 47 103 109s-42 109 -103 109s-103 -47 -103 -109s42 -109 103 -109z" />
    <glyph glyph-name="ampersand" unicode="&#x26;" horiz-adv-x="780" 
d="M634 0l-123 119c-69 -77 -132 -131 -239 -131c-127 0 -214 72 -214 184c0 105 81 167 171 219c-52 53 -90 104 -90 168c0 92 76 163 185 163c112 0 182 -66 182 -162c0 -85 -73 -140 -137 -182l139 -138l135 154h109l-185 -212l183 -182h-116zM234 560
c0 -47 39 -87 83 -130c54 39 97 77 97 130s-38 85 -90 85s-90 -34 -90 -85zM154 175c0 -60 46 -103 118 -103c67 0 118 37 180 104l-166 160c-68 -44 -132 -87 -132 -161z" />
    <glyph glyph-name="quotesingle" unicode="'" horiz-adv-x="287" 
d="M185 405h-83v305h83v-305z" />
    <glyph glyph-name="parenleft" unicode="(" horiz-adv-x="356" 
d="M292 822c-49 -92 -121 -240 -121 -472s72 -382 121 -474h-83c-48 92 -119 248 -119 474s71 380 119 472h83z" />
    <glyph glyph-name="parenright" unicode=")" horiz-adv-x="356" 
d="M64 -124c49 92 121 242 121 474s-72 380 -121 472h83c48 -92 119 -246 119 -472s-71 -382 -119 -474h-83z" />
    <glyph glyph-name="asterisk" unicode="*" horiz-adv-x="479" 
d="M388 407l-52 -38l-96 124l-96 -124l-52 38l97 124l-141 47l21 61l136 -45v142h68v-143l137 46l21 -61l-140 -47z" />
    <glyph glyph-name="plus" unicode="+" horiz-adv-x="686" 
d="M602 276h-218v-226h-82v226h-218v78h218v226h82v-226h218v-78z" />
    <glyph glyph-name="comma" unicode="," horiz-adv-x="292" 
d="M140 -214h-74c36 60 74 133 76 214h-54v142h116v-134c0 -88 -34 -172 -64 -222z" />
    <glyph glyph-name="hyphen" unicode="-" horiz-adv-x="496" 
d="M84 252v86h328v-86h-328z" />
    <glyph glyph-name="period" unicode="." horiz-adv-x="292" 
d="M88 0v142h116v-142h-116z" />
    <glyph glyph-name="slash" unicode="/" horiz-adv-x="414" 
d="M36 -70l254 830h82l-254 -830h-82z" />
    <glyph glyph-name="zero" unicode="0" horiz-adv-x="692" 
d="M346 722c150 0 248 -96 248 -259v-216c0 -170 -101 -259 -248 -259s-248 89 -248 259v216c0 163 98 259 248 259zM346 76c101 0 152 73 152 172v214c0 99 -51 172 -152 172s-152 -73 -152 -172v-214c0 -99 51 -172 152 -172z" />
    <glyph glyph-name="one" unicode="1" horiz-adv-x="445" 
d="M323 713v-713h-97v600l-176 -102v92l201 123h72z" />
    <glyph glyph-name="two" unicode="2" horiz-adv-x="618" 
d="M574 88v-88h-499v60l240 237c77 77 121 129 121 206c0 78 -50 131 -132 131s-132 -58 -132 -139v-46h-95v47c0 130 86 226 227 226c142 0 229 -94 229 -219c0 -113 -68 -183 -155 -268l-150 -147h346z" />
    <glyph glyph-name="three" unicode="3" horiz-adv-x="642" 
d="M570 194c0 -122 -94 -206 -253 -206c-169 0 -243 104 -252 200h97c11 -55 58 -112 155 -112c94 0 155 46 155 124c0 79 -53 123 -145 123h-125v88h128c75 0 121 40 121 112c0 70 -56 112 -136 112c-84 0 -125 -48 -135 -107h-96c5 91 76 194 230 194
c149 0 233 -82 233 -195c0 -88 -57 -136 -99 -154c53 -15 122 -67 122 -179z" />
    <glyph glyph-name="four" unicode="4" horiz-adv-x="688" 
d="M650 219h-151v-219h-94v219h-360v53l348 438h106v-407h151v-84zM173 303h232v295z" />
    <glyph glyph-name="five" unicode="5" horiz-adv-x="651" 
d="M114 314v396h436v-88h-344v-206c28 28 75 52 144 52c122 0 227 -84 227 -234v-11c0 -138 -99 -235 -249 -235c-163 0 -241 100 -249 208h95c7 -47 44 -120 154 -120c91 0 153 61 153 147v10c0 90 -62 147 -153 147c-89 0 -123 -50 -134 -66h-80z" />
    <glyph glyph-name="six" unicode="6" horiz-adv-x="654" 
d="M582 230c0 -136 -95 -242 -256 -242c-162 0 -254 102 -254 242c0 108 52 181 115 263l166 217h115l-207 -263c24 13 55 21 94 21c132 0 227 -92 227 -238zM485 230c0 89 -55 156 -159 156c-96 0 -157 -67 -157 -156c0 -84 57 -154 157 -154c104 0 159 70 159 154z" />
    <glyph glyph-name="seven" unicode="7" horiz-adv-x="618" 
d="M563 637l-352 -637h-106l348 622h-388v88h498v-73z" />
    <glyph glyph-name="eight" unicode="8" horiz-adv-x="670" 
d="M590 192c0 -120 -93 -204 -244 -204h-27c-147 0 -239 84 -239 204c0 102 72 157 127 174c-51 15 -113 65 -113 160c0 112 81 196 228 196h26c148 0 228 -84 228 -196c0 -95 -62 -145 -113 -160c55 -17 127 -72 127 -174zM322 636c-79 0 -132 -45 -132 -114
s53 -114 132 -114h26c79 0 132 45 132 114s-53 114 -132 114h-26zM320 322c-84 0 -142 -49 -142 -124s58 -124 142 -124h30c85 0 142 49 142 124s-57 124 -142 124h-30z" />
    <glyph glyph-name="nine" unicode="9" horiz-adv-x="654" 
d="M467 217l-166 -217h-115l207 263c-24 -13 -55 -21 -94 -21c-132 0 -227 92 -227 238c0 136 95 242 256 242c162 0 254 -102 254 -242c0 -108 -52 -181 -115 -263zM169 480c0 -89 55 -156 159 -156c96 0 157 67 157 156c0 84 -57 154 -157 154c-104 0 -159 -70 -159 -154z
" />
    <glyph glyph-name="colon" unicode=":" horiz-adv-x="302" 
d="M93 0v142h116v-142h-116zM93 343v142h116v-142h-116z" />
    <glyph glyph-name="semicolon" unicode=";" horiz-adv-x="302" 
d="M93 343v142h116v-142h-116zM145 -214h-74c36 60 74 133 76 214h-54v142h116v-134c0 -88 -34 -172 -64 -222z" />
    <glyph glyph-name="less" unicode="&#x3c;" horiz-adv-x="639" 
d="M545 147v-87l-461 201v69l461 201v-89l-352 -148z" />
    <glyph glyph-name="equal" unicode="=" horiz-adv-x="704" 
d="M616 370h-528v77h528v-77zM616 166h-528v77h528v-77z" />
    <glyph glyph-name="greater" unicode="&#x3e;" horiz-adv-x="639" 
d="M555 261l-461 -201v89l352 148l-352 147v87l461 -201v-69z" />
    <glyph glyph-name="question" unicode="?" horiz-adv-x="544" 
d="M257 232h-92v8c0 60 12 83 76 127l72 50c44 31 79 66 79 120c0 62 -42 103 -112 103c-71 0 -113 -50 -113 -118v-32h-89v35c0 120 78 197 202 197c129 0 205 -72 205 -185c0 -88 -45 -138 -122 -190l-72 -49c-27 -19 -34 -36 -34 -66zM153 0v142h116v-142h-116z" />
    <glyph glyph-name="at" unicode="@" horiz-adv-x="1055" 
d="M948 -8c-43 -65 -166 -171 -393 -171c-310 0 -486 202 -486 459c0 270 200 468 479 468c289 0 438 -185 438 -387c0 -169 -92 -296 -222 -296c-73 0 -110 32 -120 71c-22 -35 -71 -71 -145 -71c-116 0 -202 77 -202 210c0 126 86 229 223 229c86 0 132 -45 149 -81l14 76
h84l-51 -288c-8 -46 5 -74 50 -74c66 0 139 73 139 225c0 182 -130 314 -357 314c-229 0 -397 -158 -397 -398c0 -226 158 -384 404 -384c167 0 259 66 297 98h96zM527 422c-84 0 -138 -64 -138 -149c0 -75 42 -126 120 -126c84 0 138 64 138 149c0 75 -41 126 -120 126z
" />
    <glyph glyph-name="A" unicode="A" horiz-adv-x="800" 
d="M665 0l-79 171h-378l-79 -171h-96l328 714h77l329 -714h-102zM248 259h298l-149 324z" />
    <glyph glyph-name="B" unicode="B" horiz-adv-x="784" 
d="M110 0v710h348c154 0 238 -70 238 -192c0 -77 -57 -128 -114 -145c70 -18 129 -78 129 -169c0 -125 -83 -204 -246 -204h-355zM456 621h-250v-210h250c93 0 140 37 140 105c0 71 -46 105 -140 105zM463 322h-257v-233h257c103 0 150 44 150 117c0 74 -48 116 -150 116z
" />
    <glyph glyph-name="C" unicode="C" horiz-adv-x="809" 
d="M420 -12c-203 0 -351 161 -351 367c0 205 149 367 351 367c207 0 304 -135 327 -220h-101c-25 50 -98 129 -226 129c-152 0 -250 -127 -250 -276s98 -276 250 -276c144 0 205 84 228 130h99c-21 -80 -111 -221 -327 -221z" />
    <glyph glyph-name="D" unicode="D" horiz-adv-x="832" 
d="M110 0v710h280c228 0 372 -139 372 -355c0 -212 -143 -355 -372 -355h-280zM390 621h-183v-532h183c168 0 272 104 272 266c0 167 -104 266 -272 266z" />
    <glyph glyph-name="E" unicode="E" horiz-adv-x="749" 
d="M110 0v710h556v-90h-460v-198h275v-90h-275v-242h500v-90h-596z" />
    <glyph glyph-name="F" unicode="F" horiz-adv-x="724" 
d="M110 0v710h576v-91h-479v-197h279v-91h-279v-331h-97z" />
    <glyph glyph-name="G" unicode="G" horiz-adv-x="847" 
d="M758 98c-54 -52 -151 -110 -310 -110c-227 0 -379 152 -379 368c0 210 151 366 360 366c197 0 284 -110 310 -183h-101c-25 32 -86 93 -209 93c-161 0 -260 -121 -260 -276c0 -167 113 -278 279 -278c108 0 181 30 218 58v175h-280v87h372v-300z" />
    <glyph glyph-name="H" unicode="H" horiz-adv-x="850" 
d="M643 0v313h-436v-313h-97v710h97v-307h436v307h97v-710h-97z" />
    <glyph glyph-name="I" unicode="I" horiz-adv-x="319" 
d="M111 0v710h97v-710h-97z" />
    <glyph glyph-name="J" unicode="J" horiz-adv-x="663" 
d="M556 223c0 -154 -96 -234 -235 -234c-136 0 -232 79 -232 234v189h96v-189c0 -87 52 -142 136 -142c88 0 138 55 138 142v487h97v-487z" />
    <glyph glyph-name="K" unicode="K" horiz-adv-x="780" 
d="M632 0l-425 330v-330h-97v710h97v-328l409 328h137l-435 -348l453 -362h-139z" />
    <glyph glyph-name="L" unicode="L" horiz-adv-x="704" 
d="M666 91v-91h-556v710h97v-619h459z" />
    <glyph glyph-name="M" unicode="M" horiz-adv-x="1009" 
d="M260 710l247 -576l247 576h145v-710h-92v626l-271 -630h-67l-269 626v-622h-90v710h150z" />
    <glyph glyph-name="N" unicode="N" horiz-adv-x="860" 
d="M750 710v-715h-69l-478 601v-596h-93v710h118l429 -544v544h93z" />
    <glyph glyph-name="O" unicode="O" horiz-adv-x="872" 
d="M436 -12c-212 0 -367 158 -367 367c0 207 157 367 367 367c209 0 367 -160 367 -367s-158 -367 -367 -367zM436 78c160 0 267 124 267 277c0 151 -107 277 -267 277s-267 -125 -267 -277c0 -155 107 -277 267 -277z" />
    <glyph glyph-name="P" unicode="P" horiz-adv-x="778" 
d="M110 0v710h369c157 0 239 -75 239 -205c0 -125 -82 -209 -239 -209h-272v-296h-97zM482 620h-275v-234h275c91 0 136 49 136 117c0 74 -45 117 -136 117z" />
    <glyph glyph-name="Q" unicode="Q" horiz-adv-x="872" 
d="M803 355c0 -156 -90 -285 -223 -340l184 -167h-132l-160 142c-12 -1 -24 -2 -36 -2c-210 0 -367 160 -367 367s157 367 367 367c209 0 367 -160 367 -367zM436 78c160 0 267 124 267 277c0 151 -107 277 -267 277s-267 -125 -267 -277c0 -155 107 -277 267 -277z" />
    <glyph glyph-name="R" unicode="R" horiz-adv-x="803" 
d="M110 0v710h377c153 0 234 -69 234 -201c0 -94 -51 -159 -145 -183l172 -326h-103l-170 316h-268v-316h-97zM484 620h-277v-215h277c91 0 137 32 137 104c0 77 -46 111 -137 111z" />
    <glyph glyph-name="S" unicode="S" horiz-adv-x="752" 
d="M346 633c-114 0 -172 -42 -172 -105c0 -58 49 -91 136 -102l139 -16c120 -14 233 -63 233 -211c0 -115 -94 -212 -289 -212c-220 0 -309 112 -341 216h104c23 -54 86 -127 237 -127c123 0 192 50 192 118c0 83 -59 110 -144 120l-140 15c-127 14 -224 75 -224 199
c0 116 106 194 269 194c212 0 296 -104 319 -193h-101c-24 47 -83 104 -218 104z" />
    <glyph glyph-name="T" unicode="T" horiz-adv-x="767" 
d="M40 620v90h687v-90h-295v-620h-97v620h-295z" />
    <glyph glyph-name="U" unicode="U" horiz-adv-x="841" 
d="M421 81c138 0 217 92 217 227v402h96v-410c0 -172 -109 -312 -313 -312c-212 0 -314 138 -314 312v410h97v-402c0 -135 77 -227 217 -227z" />
    <glyph glyph-name="V" unicode="V" horiz-adv-x="797" 
d="M759 710l-312 -713h-91l-318 713h110l256 -587l256 587h99z" />
    <glyph glyph-name="W" unicode="W" horiz-adv-x="1129" 
d="M765 -4l-199 562l-200 -562h-79l-244 714h105l184 -557l196 561h81l197 -566l186 562h94l-237 -714h-84z" />
    <glyph glyph-name="X" unicode="X" horiz-adv-x="813" 
d="M657 0l-254 292l-253 -292h-116l310 360l-304 350h128l239 -278l240 278h119l-300 -346l313 -364h-122z" />
    <glyph glyph-name="Y" unicode="Y" horiz-adv-x="765" 
d="M434 302v-302h-97v300l-322 410h123l250 -321l249 321h113z" />
    <glyph glyph-name="Z" unicode="Z" horiz-adv-x="782" 
d="M737 90v-90h-682v57l482 563h-472v90h622v-57l-486 -563h536z" />
    <glyph glyph-name="bracketleft" unicode="[" horiz-adv-x="381" 
d="M110 -124v946h246v-68h-168v-810h168v-68h-246z" />
    <glyph glyph-name="backslash" unicode="\" horiz-adv-x="414" 
d="M378 -70h-81l-255 830h82z" />
    <glyph glyph-name="bracketright" unicode="]" horiz-adv-x="381" 
d="M25 754v68h246v-946h-246v68h168v810h-168z" />
    <glyph glyph-name="asciicircum" unicode="^" horiz-adv-x="585" 
d="M442 263l-151 333l-152 -333h-89l205 453h73l207 -453h-93z" />
    <glyph glyph-name="underscore" unicode="_" horiz-adv-x="624" 
d="M44 -152v76h536v-76h-536z" />
    <glyph glyph-name="grave" unicode="`" 
d="M404 579h-93l-115 183h100z" />
    <glyph glyph-name="a" unicode="a" horiz-adv-x="659" 
d="M474 85c-12 -25 -63 -97 -175 -97c-130 0 -241 96 -241 259c0 161 111 259 241 259c108 0 163 -68 175 -94v82h91v-494h-91v85zM476 247c0 99 -64 175 -160 175c-99 0 -164 -76 -164 -175c0 -98 65 -175 164 -175c96 0 160 77 160 175z" />
    <glyph glyph-name="b" unicode="b" horiz-adv-x="665" 
d="M184 80v-80h-90v736h90v-326c11 25 69 96 180 96c132 0 243 -97 243 -259c0 -163 -111 -259 -243 -259c-110 0 -168 69 -180 92zM182 247c0 -99 66 -175 166 -175s166 76 166 175c0 100 -66 175 -166 175s-166 -75 -166 -175z" />
    <glyph glyph-name="c" unicode="c" horiz-adv-x="594" 
d="M451 340c-8 16 -46 82 -144 82c-91 0 -156 -78 -156 -175s65 -175 157 -175c100 0 137 65 145 82h90c-6 -34 -58 -166 -235 -166c-141 0 -251 113 -251 259s109 259 250 259c178 0 229 -129 236 -166h-92z" />
    <glyph glyph-name="d" unicode="d" horiz-adv-x="667" 
d="M482 85c-12 -24 -68 -97 -180 -97c-132 0 -244 96 -244 259c0 162 112 259 244 259c111 0 168 -68 180 -94v324h91v-736h-91v85zM484 247c0 100 -66 175 -165 175c-101 0 -167 -75 -167 -175s66 -175 167 -175c99 0 165 75 165 175z" />
    <glyph glyph-name="e" unicode="e" horiz-adv-x="612" 
d="M308 506c145 0 252 -108 252 -270h-411c5 -92 71 -164 168 -164c100 0 138 53 147 69h90c-7 -42 -71 -153 -237 -153c-152 0 -260 114 -260 259c0 150 106 259 251 259zM308 428c-79 0 -134 -45 -153 -116h304c-22 74 -77 116 -151 116z" />
    <glyph glyph-name="f" unicode="f" horiz-adv-x="489" 
d="M459 412h-192v-412h-91v412h-146v82h146v78c0 105 55 164 176 164h199v-82h-189c-66 0 -95 -33 -95 -95v-65h192v-82z" />
    <glyph glyph-name="g" unicode="g" horiz-adv-x="667" 
d="M482 84c-12 -26 -68 -97 -180 -97c-132 0 -244 96 -244 259s112 260 244 260c111 0 168 -69 180 -95v83h91v-494c0 -139 -90 -236 -259 -236c-191 0 -245 125 -252 156h100c7 -12 43 -72 152 -72c107 0 168 56 168 152v84zM484 246c0 100 -66 176 -165 176
c-101 0 -167 -76 -167 -176c0 -97 66 -175 167 -175c99 0 165 78 165 175z" />
    <glyph glyph-name="h" unicode="h" horiz-adv-x="652" 
d="M185 267v-267h-91v736h91v-333c20 40 76 102 168 102c125 0 211 -94 211 -221v-284h-92v267c0 93 -56 154 -141 154c-88 0 -146 -64 -146 -154z" />
    <glyph glyph-name="i" unicode="i" horiz-adv-x="281" 
d="M93 589v143h95v-143h-95zM95 0v494h91v-494h-91z" />
    <glyph glyph-name="j" unicode="j" horiz-adv-x="281" 
d="M93 589v143h95v-143h-95zM186 -53c0 -112 -55 -171 -168 -171h-133v85h118c63 0 92 33 92 96v537h91v-547z" />
    <glyph glyph-name="k" unicode="k" horiz-adv-x="591" 
d="M454 0l-272 228v-228h-88v736h88v-451l258 209h130l-292 -233l305 -261h-129z" />
    <glyph glyph-name="l" unicode="l" horiz-adv-x="283" 
d="M96 0v736h91v-736h-91z" />
    <glyph glyph-name="m" unicode="m" horiz-adv-x="1019" 
d="M185 267v-267h-91v494h91v-91c19 40 75 102 166 102c88 0 155 -47 187 -120c21 48 77 120 182 120c126 0 211 -94 211 -221v-284h-92v267c0 92 -53 154 -137 154c-87 0 -144 -65 -144 -154v-267h-92v267c0 92 -53 154 -137 154c-87 0 -144 -65 -144 -154z" />
    <glyph glyph-name="n" unicode="n" horiz-adv-x="652" 
d="M185 267v-267h-91v494h91v-91c20 40 76 102 168 102c125 0 211 -94 211 -221v-284h-92v267c0 93 -56 154 -141 154c-88 0 -146 -64 -146 -154z" />
    <glyph glyph-name="o" unicode="o" horiz-adv-x="634" 
d="M317 506c147 0 260 -112 260 -259s-113 -259 -260 -259c-148 0 -260 112 -260 259s112 259 260 259zM317 72c99 0 166 77 166 175s-67 175 -166 175s-166 -78 -166 -175s67 -175 166 -175z" />
    <glyph glyph-name="p" unicode="p" horiz-adv-x="665" 
d="M184 80v-304h-90v718h90v-85c12 25 69 97 180 97c132 0 243 -97 243 -259c0 -164 -111 -259 -243 -259c-110 0 -168 69 -180 92zM182 247c0 -98 66 -175 166 -175s166 77 166 175c0 99 -66 175 -166 175s-166 -76 -166 -175z" />
    <glyph glyph-name="q" unicode="q" horiz-adv-x="667" 
d="M482 85c-12 -24 -68 -97 -180 -97c-132 0 -244 95 -244 259c0 162 112 259 244 259c110 0 168 -70 180 -94v82h91v-717h-91v308zM484 247c0 99 -67 175 -165 175c-101 0 -167 -76 -167 -175c0 -98 66 -175 167 -175c98 0 165 77 165 175z" />
    <glyph glyph-name="r" unicode="r" horiz-adv-x="514" 
d="M185 279v-279h-91v494h91v-91c14 36 56 95 172 95h124v-91h-126c-127 0 -170 -40 -170 -128z" />
    <glyph glyph-name="s" unicode="s" horiz-adv-x="565" 
d="M331 205l-106 12c-95 11 -162 57 -162 147c0 87 82 144 203 144c166 0 222 -86 237 -136h-97c-10 13 -49 58 -140 58c-74 0 -113 -27 -113 -63c0 -35 26 -57 84 -64c39 -5 63 -7 106 -12c116 -14 167 -66 167 -156c0 -83 -76 -149 -216 -149c-174 0 -236 106 -246 152h97
c6 -15 44 -72 149 -72c84 0 125 30 125 69c0 38 -22 62 -88 70z" />
    <glyph glyph-name="t" unicode="t" horiz-adv-x="516" 
d="M466 84v-84h-117c-117 0 -173 55 -173 165v247h-146v82h146v216h91v-216h199v-82h-199v-226c0 -72 24 -102 102 -102h97z" />
    <glyph glyph-name="u" unicode="u" horiz-adv-x="639" 
d="M320 -11c-142 0 -232 93 -232 220v285h91v-268c0 -91 51 -152 140 -152s140 61 140 152v268h92v-285c0 -127 -89 -220 -231 -220z" />
    <glyph glyph-name="v" unicode="v" horiz-adv-x="581" 
d="M558 494l-229 -503h-73l-233 503h102l170 -381l169 381h94z" />
    <glyph glyph-name="w" unicode="w" horiz-adv-x="869" 
d="M582 -4l-146 373l-146 -373h-73l-189 498h98l134 -365l142 369h76l141 -365l132 361h90l-187 -498h-72z" />
    <glyph glyph-name="x" unicode="x" horiz-adv-x="602" 
d="M467 0l-166 185l-167 -185h-110l222 246l-223 248h118l162 -183l165 183h111l-221 -245l221 -249h-112z" />
    <glyph glyph-name="y" unicode="y" horiz-adv-x="581" 
d="M558 494l-324 -718h-93l106 235l-224 483h103l169 -376l169 376h94z" />
    <glyph glyph-name="z" unicode="z" horiz-adv-x="606" 
d="M562 81v-81h-506v53l329 360h-321v81h462v-51l-334 -362h370z" />
    <glyph glyph-name="braceleft" unicode="{" horiz-adv-x="401" 
d="M376 -56v-68h-107c-104 0 -161 52 -147 159l25 193c8 59 -22 86 -80 86h-23v70h23c56 0 88 25 80 86l-25 193c-14 107 43 159 147 159h107v-68h-89c-64 0 -96 -29 -88 -88l25 -189c11 -81 -29 -118 -81 -128c52 -10 92 -47 81 -128l-25 -189c-8 -59 24 -88 88 -88h89z
" />
    <glyph glyph-name="bar" unicode="|" horiz-adv-x="323" 
d="M120 -116v938h83v-938h-83z" />
    <glyph glyph-name="braceright" unicode="}" horiz-adv-x="403" 
d="M279 35c14 -107 -43 -159 -147 -159h-107v68h89c64 0 96 29 88 88l-25 189c-11 81 29 118 81 128c-52 10 -92 47 -81 128l25 189c8 59 -24 88 -88 88h-89v68h107c104 0 161 -52 147 -159l-25 -193c-8 -61 24 -86 80 -86h25v-70h-25c-58 0 -88 -27 -80 -86z" />
    <glyph glyph-name="asciitilde" unicode="~" horiz-adv-x="718" 
d="M429 356c17 -24 37 -53 65 -53c32 0 46 26 46 63v191h88v-191c0 -91 -44 -151 -130 -151c-64 0 -99 36 -138 93l-71 102c-21 30 -37 53 -65 53c-32 0 -46 -26 -46 -63v-187h-88v187c0 91 44 151 130 151c64 0 98 -35 139 -94z" />
    <glyph glyph-name="uni00A0" unicode="&#xa0;" horiz-adv-x="265" 
 />
    <glyph glyph-name="exclamdown" unicode="&#xa1;" horiz-adv-x="336" 
d="M110 353v141h116v-141h-116zM124 -216v478h88v-478h-88z" />
    <glyph glyph-name="cent" unicode="&#xa2;" horiz-adv-x="573" 
d="M512 147c-6 -29 -44 -139 -177 -157v-110h-76v111c-112 20 -192 122 -192 256c0 135 80 238 192 257v111h76v-111c130 -17 168 -124 174 -155h-90c-9 18 -42 74 -122 74c-81 0 -136 -76 -136 -176c0 -99 55 -176 137 -176c87 0 117 58 126 76h88z" />
    <glyph glyph-name="sterling" unicode="&#xa3;" horiz-adv-x="706" 
d="M658 88v-88h-598v88h117v186h-117v88h117v149c0 136 82 211 207 211c129 0 207 -73 207 -211v-38h-92v36c0 81 -43 126 -115 126c-70 0 -111 -45 -111 -126v-147h224v-88h-224v-186h385z" />
    <glyph glyph-name="yen" unicode="&#xa5;" horiz-adv-x="704" 
d="M608 149h-204v-149h-97v149h-204v78h204v91h-204v78h202l-245 314h117l180 -233l179 233h108l-240 -314h204v-78h-204v-91h204v-78z" />
    <glyph glyph-name="brokenbar" unicode="&#xa6;" horiz-adv-x="323" 
d="M120 417v405h83v-405h-83zM120 -116v418h83v-418h-83z" />
    <glyph glyph-name="section" unicode="&#xa7;" horiz-adv-x="687" 
d="M538 -48c0 -121 -77 -188 -193 -188c-120 0 -193 67 -193 188v47h89v-45c0 -70 40 -110 104 -110s103 40 103 110v18c0 55 -22 90 -81 102l-152 31c-99 20 -148 79 -148 166c0 77 55 127 127 136c-37 36 -45 87 -45 134v20c0 120 77 188 193 188c120 0 193 -67 193 -188
v-47h-89v45c0 70 -40 110 -104 110s-103 -40 -103 -110v-18c0 -55 22 -90 81 -102l152 -31c101 -21 148 -77 148 -166c0 -72 -47 -124 -124 -138c31 -33 42 -81 42 -132v-20zM285 357c-78 16 -128 -16 -128 -79c0 -47 32 -79 81 -89l164 -33c78 -16 128 18 128 79
c0 48 -32 79 -81 89z" />
    <glyph glyph-name="dieresis" unicode="&#xa8;" 
d="M160 589v139h92v-139h-92zM348 589v139h92v-139h-92z" />
    <glyph glyph-name="copyright" unicode="&#xa9;" horiz-adv-x="884" 
d="M442 -12c-212 0 -367 158 -367 367c0 207 157 367 367 367c209 0 367 -160 367 -367s-158 -367 -367 -367zM442 56c176 0 293 133 293 299c0 164 -117 299 -293 299s-293 -134 -293 -299c0 -167 118 -299 293 -299zM340 357c0 -66 40 -121 106 -121c55 0 80 33 90 49h86
c-10 -44 -56 -127 -176 -127c-111 0 -194 87 -194 199c0 111 83 199 194 199c112 0 162 -80 173 -123h-88c-9 12 -36 45 -85 45c-66 0 -106 -55 -106 -121z" />
    <glyph glyph-name="ordfeminine" unicode="&#xaa;" horiz-adv-x="555" 
d="M375 353c-10 -23 -44 -77 -125 -77c-102 0 -180 83 -180 222c0 140 78 223 180 223c82 0 115 -57 125 -77v66h88v-424h-88v67zM376 498c0 82 -39 144 -107 144c-70 0 -108 -62 -108 -144c0 -81 38 -143 108 -143c68 0 107 62 107 143z" />
    <glyph glyph-name="guillemotleft" unicode="&#xab;" horiz-adv-x="551" 
d="M265 453l-111 -177l111 -179h-91l-109 178l110 178h90zM481 453l-111 -177l111 -179h-91l-109 178l110 178h90z" />
    <glyph glyph-name="registered" unicode="&#xae;" horiz-adv-x="582" 
d="M291 246c-137 0 -238 103 -238 238c0 134 102 238 238 238c135 0 238 -104 238 -238s-103 -238 -238 -238zM291 298c110 0 183 82 183 186c0 103 -73 186 -183 186s-183 -83 -183 -186c0 -104 74 -186 183 -186zM191 368v235h127c61 0 90 -29 90 -77
c0 -31 -13 -53 -39 -65l41 -93h-62l-37 84h-59v-84h-61zM316 550h-64v-48h64c21 0 31 7 31 24c0 16 -10 24 -31 24z" />
    <glyph glyph-name="macron" unicode="&#xaf;" horiz-adv-x="500" 
d="M403 621h-306v78h306v-78z" />
    <glyph glyph-name="degree" unicode="&#xb0;" horiz-adv-x="554" 
d="M277 348c-106 0 -187 81 -187 187s81 187 187 187s187 -81 187 -187s-81 -187 -187 -187zM277 422c64 0 108 49 108 113s-44 113 -108 113s-108 -49 -108 -113s43 -113 108 -113z" />
    <glyph glyph-name="acute" unicode="&#xb4;" 
d="M196 579l108 183h100l-115 -183h-93z" />
    <glyph glyph-name="paragraph" unicode="&#xb6;" horiz-adv-x="661" 
d="M45 529c0 108 80 181 194 181h312v-710h-84v629h-108v-629h-84v348h-36c-114 0 -194 73 -194 181z" />
    <glyph glyph-name="periodcentered" unicode="&#xb7;" horiz-adv-x="292" 
d="M88 305v142h116v-142h-116z" />
    <glyph glyph-name="cedilla" unicode="&#xb8;" 
d="M342 -156c0 21 -13 34 -41 34h-86v122h80v-55h14c86 0 120 -42 120 -101c0 -60 -34 -109 -117 -109h-137v74h126c28 0 41 13 41 35z" />
    <glyph glyph-name="ordmasculine" unicode="&#xba;" horiz-adv-x="542" 
d="M271 723c122 0 203 -95 203 -224c0 -128 -81 -223 -203 -223s-203 95 -203 223c0 129 81 224 203 224zM271 354c74 0 113 64 113 145s-39 145 -113 145s-113 -64 -113 -145s39 -145 113 -145z" />
    <glyph glyph-name="guillemotright" unicode="&#xbb;" horiz-adv-x="551" 
d="M486 275l-110 -178h-90l111 177l-111 179h91zM270 275l-110 -178h-90l111 177l-111 179h91z" />
    <glyph glyph-name="onequarter" unicode="&#xbc;" horiz-adv-x="935" 
d="M896 112h-84v-112h-81v112h-214v60l193 254h102v-244h84v-70zM604 182h127v170zM254 0h-92l433 710h92zM233 703v-428h-85v332l-105 -59v79l126 76h64z" />
    <glyph glyph-name="onehalf" unicode="&#xbd;" horiz-adv-x="932" 
d="M253 0h-92l433 710h92zM893 75v-75h-322v55l151 143c38 37 59 62 59 98s-24 61 -65 61s-66 -28 -66 -69v-23h-81v24c0 83 54 144 147 144c95 0 150 -55 150 -134c0 -66 -37 -106 -92 -156l-74 -68h193zM233 703v-428h-85v332l-105 -59v79l126 76h64z" />
    <glyph glyph-name="threequarters" unicode="&#xbe;" horiz-adv-x="1032" 
d="M993 112h-84v-112h-81v112h-214v60l193 254h102v-244h84v-70zM701 182h127v170zM351 0h-92l433 710h92zM372 395c0 -75 -60 -127 -161 -127c-111 0 -157 70 -162 128h85c5 -24 27 -53 77 -53c46 0 75 22 75 58s-24 56 -65 56h-79v74h76c35 0 55 18 55 50
c0 34 -26 54 -65 54c-44 0 -62 -27 -66 -50h-84c2 58 49 123 150 123c95 0 150 -47 150 -120c0 -49 -31 -77 -56 -88c31 -10 70 -40 70 -105z" />
    <glyph glyph-name="questiondown" unicode="&#xbf;" horiz-adv-x="544" 
d="M287 262h92v-8c0 -60 -12 -83 -76 -127l-72 -50c-44 -31 -79 -66 -79 -120c0 -62 42 -103 112 -103c71 0 113 50 113 118v32h89v-35c0 -120 -78 -197 -202 -197c-129 0 -205 72 -205 185c0 88 45 138 122 190l72 49c27 19 34 36 34 66zM391 494v-142h-116v142h116z" />
    <glyph glyph-name="Agrave" unicode="&#xc0;" horiz-adv-x="800" 
d="M665 0l-79 171h-378l-79 -171h-96l328 714h77l329 -714h-102zM248 259h298l-149 324zM450 778h-102l-120 150h110z" />
    <glyph glyph-name="Aacute" unicode="&#xc1;" horiz-adv-x="800" 
d="M665 0l-79 171h-378l-79 -171h-96l328 714h77l329 -714h-102zM248 259h298l-149 324zM349 778l112 150h110l-120 -150h-102z" />
    <glyph glyph-name="Acircumflex" unicode="&#xc2;" horiz-adv-x="800" 
d="M665 0l-79 171h-378l-79 -171h-96l328 714h77l329 -714h-102zM248 259h298l-149 324zM480 775l-80 89l-81 -89h-98l139 156h78l136 -156h-94z" />
    <glyph glyph-name="Atilde" unicode="&#xc3;" horiz-adv-x="800" 
d="M665 0l-79 171h-378l-79 -171h-96l328 714h77l329 -714h-102zM248 259h298l-149 324zM395 816l-38 22c-14 8 -28 15 -38 15c-12 0 -17 -9 -17 -24v-56h-73v66c0 57 24 94 77 94c35 0 62 -18 97 -38l38 -22c14 -8 27 -15 37 -15c12 0 18 9 18 24v56h73v-66
c0 -57 -25 -94 -78 -94c-36 0 -61 18 -96 38z" />
    <glyph glyph-name="Adieresis" unicode="&#xc4;" horiz-adv-x="800" 
d="M665 0l-79 171h-378l-79 -171h-96l328 714h77l329 -714h-102zM248 259h298l-149 324zM251 778v139h92v-139h-92zM455 778v139h92v-139h-92z" />
    <glyph glyph-name="Aring" unicode="&#xc5;" horiz-adv-x="800" 
d="M665 0l-79 171h-378l-79 -171h-96l328 714h77l329 -714h-102zM248 259h298l-149 324zM399 768c-75 0 -131 57 -131 127c0 71 57 127 131 127s131 -56 131 -127c0 -70 -56 -127 -131 -127zM399 830c38 0 64 29 64 65c0 37 -26 65 -64 65s-64 -28 -64 -65
c0 -36 26 -65 64 -65z" />
    <glyph glyph-name="AE" unicode="&#xc6;" horiz-adv-x="1160" 
d="M1117 90v-90h-575v183h-305l-127 -183h-110l497 710h580v-90h-439v-198h254v-90h-254v-242h479zM297 269h245v354z" />
    <glyph glyph-name="Ccedilla" unicode="&#xc7;" horiz-adv-x="809" 
d="M475 -156c0 21 -13 34 -41 34h-86v117c-165 33 -279 179 -279 360c0 205 149 367 351 367c207 0 304 -135 327 -220h-101c-25 50 -98 129 -226 129c-152 0 -250 -127 -250 -276s98 -276 250 -276c144 0 205 84 228 130h99c-21 -79 -109 -217 -319 -221v-43h14
c86 0 120 -42 120 -101c0 -60 -34 -109 -117 -109h-137v74h126c28 0 41 13 41 35z" />
    <glyph glyph-name="Egrave" unicode="&#xc8;" horiz-adv-x="749" 
d="M110 0v710h556v-90h-460v-198h275v-90h-275v-242h500v-90h-596zM450 778h-102l-120 150h110z" />
    <glyph glyph-name="Eacute" unicode="&#xc9;" horiz-adv-x="749" 
d="M110 0v710h556v-90h-460v-198h275v-90h-275v-242h500v-90h-596zM337 778l112 150h110l-120 -150h-102z" />
    <glyph glyph-name="Ecircumflex" unicode="&#xca;" horiz-adv-x="749" 
d="M110 0v710h556v-90h-460v-198h275v-90h-275v-242h500v-90h-596zM480 775l-80 89l-81 -89h-98l139 156h78l136 -156h-94z" />
    <glyph glyph-name="Edieresis" unicode="&#xcb;" horiz-adv-x="749" 
d="M110 0v710h556v-90h-460v-198h275v-90h-275v-242h500v-90h-596zM251 778v139h92v-139h-92zM455 778v139h92v-139h-92z" />
    <glyph glyph-name="Igrave" unicode="&#xcc;" horiz-adv-x="319" 
d="M111 0v710h97v-710h-97zM210 778h-102l-120 150h110z" />
    <glyph glyph-name="Iacute" unicode="&#xcd;" horiz-adv-x="319" 
d="M111 0v710h97v-710h-97zM109 778l112 150h110l-120 -150h-102z" />
    <glyph glyph-name="Icircumflex" unicode="&#xce;" horiz-adv-x="319" 
d="M111 0v710h97v-710h-97zM240 775l-80 89l-81 -89h-98l139 156h78l136 -156h-94z" />
    <glyph glyph-name="Idieresis" unicode="&#xcf;" horiz-adv-x="319" 
d="M111 0v710h97v-710h-97zM11 778v139h92v-139h-92zM215 778v139h92v-139h-92z" />
    <glyph glyph-name="Eth" unicode="&#xd0;" horiz-adv-x="852" 
d="M12 314v88h118v308h280c228 0 372 -139 372 -355c0 -212 -143 -355 -372 -355h-280v314h-118zM410 621h-183v-219h241v-88h-241v-225h183c168 0 272 104 272 266c0 167 -104 266 -272 266z" />
    <glyph glyph-name="Ntilde" unicode="&#xd1;" horiz-adv-x="860" 
d="M750 710v-715h-69l-478 601v-596h-93v710h118l429 -544v544h93zM438 816l-38 22c-14 8 -28 15 -38 15c-12 0 -17 -9 -17 -24v-56h-73v66c0 57 24 94 77 94c35 0 62 -18 97 -38l38 -22c14 -8 27 -15 37 -15c12 0 18 9 18 24v56h73v-66c0 -57 -25 -94 -78 -94
c-36 0 -61 18 -96 38z" />
    <glyph glyph-name="Ograve" unicode="&#xd2;" horiz-adv-x="872" 
d="M436 -12c-212 0 -367 158 -367 367c0 207 157 367 367 367c209 0 367 -160 367 -367s-158 -367 -367 -367zM436 78c160 0 267 124 267 277c0 151 -107 277 -267 277s-267 -125 -267 -277c0 -155 107 -277 267 -277zM487 778h-102l-120 150h110z" />
    <glyph glyph-name="Oacute" unicode="&#xd3;" horiz-adv-x="872" 
d="M436 -12c-212 0 -367 158 -367 367c0 207 157 367 367 367c209 0 367 -160 367 -367s-158 -367 -367 -367zM436 78c160 0 267 124 267 277c0 151 -107 277 -267 277s-267 -125 -267 -277c0 -155 107 -277 267 -277zM386 778l112 150h110l-120 -150h-102z" />
    <glyph glyph-name="Ocircumflex" unicode="&#xd4;" horiz-adv-x="872" 
d="M436 -12c-212 0 -367 158 -367 367c0 207 157 367 367 367c209 0 367 -160 367 -367s-158 -367 -367 -367zM436 78c160 0 267 124 267 277c0 151 -107 277 -267 277s-267 -125 -267 -277c0 -155 107 -277 267 -277zM517 775l-80 89l-81 -89h-98l139 156h78l136 -156h-94z
" />
    <glyph glyph-name="Otilde" unicode="&#xd5;" horiz-adv-x="872" 
d="M436 -12c-212 0 -367 158 -367 367c0 207 157 367 367 367c209 0 367 -160 367 -367s-158 -367 -367 -367zM436 78c160 0 267 124 267 277c0 151 -107 277 -267 277s-267 -125 -267 -277c0 -155 107 -277 267 -277zM432 816l-38 22c-14 8 -28 15 -38 15
c-12 0 -17 -9 -17 -24v-56h-73v66c0 57 24 94 77 94c35 0 62 -18 97 -38l38 -22c14 -8 27 -15 37 -15c12 0 18 9 18 24v56h73v-66c0 -57 -25 -94 -78 -94c-36 0 -61 18 -96 38z" />
    <glyph glyph-name="Odieresis" unicode="&#xd6;" horiz-adv-x="872" 
d="M436 -12c-212 0 -367 158 -367 367c0 207 157 367 367 367c209 0 367 -160 367 -367s-158 -367 -367 -367zM436 78c160 0 267 124 267 277c0 151 -107 277 -267 277s-267 -125 -267 -277c0 -155 107 -277 267 -277zM288 778v139h92v-139h-92zM492 778v139h92v-139h-92z
" />
    <glyph glyph-name="multiply" unicode="&#xd7;" horiz-adv-x="640" 
d="M556 113l-56 -54l-182 181l-180 -181l-54 54l180 181l-180 179l58 58l179 -181l180 181l54 -54l-180 -181z" />
    <glyph glyph-name="Oslash" unicode="&#xd8;" horiz-adv-x="872" 
d="M803 355c0 -207 -158 -367 -367 -367c-82 0 -157 25 -217 68l-50 -56h-110l100 110c-56 65 -90 150 -90 245c0 207 157 367 367 367c81 0 154 -25 214 -68l50 56h113l-101 -111c57 -65 91 -150 91 -244zM169 355c0 -67 19 -127 54 -174l366 406c-42 28 -94 45 -153 45
c-160 0 -267 -125 -267 -277zM703 355c0 66 -19 126 -54 174l-368 -405c43 -29 95 -46 155 -46c160 0 267 124 267 277z" />
    <glyph glyph-name="Ugrave" unicode="&#xd9;" horiz-adv-x="841" 
d="M421 81c138 0 217 92 217 227v402h96v-410c0 -172 -109 -312 -313 -312c-212 0 -314 138 -314 312v410h97v-402c0 -135 77 -227 217 -227zM486 778h-102l-120 150h110z" />
    <glyph glyph-name="Uacute" unicode="&#xda;" horiz-adv-x="841" 
d="M421 81c138 0 217 92 217 227v402h96v-410c0 -172 -109 -312 -313 -312c-212 0 -314 138 -314 312v410h97v-402c0 -135 77 -227 217 -227zM356 778l112 150h110l-120 -150h-102z" />
    <glyph glyph-name="Ucircumflex" unicode="&#xdb;" horiz-adv-x="841" 
d="M421 81c138 0 217 92 217 227v402h96v-410c0 -172 -109 -312 -313 -312c-212 0 -314 138 -314 312v410h97v-402c0 -135 77 -227 217 -227zM502 775l-80 89l-81 -89h-98l139 156h78l136 -156h-94z" />
    <glyph glyph-name="Udieresis" unicode="&#xdc;" horiz-adv-x="841" 
d="M421 81c138 0 217 92 217 227v402h96v-410c0 -172 -109 -312 -313 -312c-212 0 -314 138 -314 312v410h97v-402c0 -135 77 -227 217 -227zM273 778v139h92v-139h-92zM477 778v139h92v-139h-92z" />
    <glyph glyph-name="Yacute" unicode="&#xdd;" horiz-adv-x="765" 
d="M434 302v-302h-97v300l-322 410h123l250 -321l249 321h113zM329 778l112 150h110l-120 -150h-102z" />
    <glyph glyph-name="Thorn" unicode="&#xde;" horiz-adv-x="778" 
d="M486 164h-279v-164h-97v710h97v-146h279c152 0 232 -72 232 -198c0 -121 -80 -202 -232 -202zM489 474h-282v-220h282c86 0 129 46 129 110c0 70 -43 110 -129 110z" />
    <glyph glyph-name="germandbls" unicode="&#xdf;" horiz-adv-x="648" 
d="M186 528v-528h-92v534c0 136 85 214 225 214c138 0 227 -73 227 -195c0 -86 -48 -133 -94 -147c77 -19 139 -88 139 -187c0 -132 -83 -219 -232 -219h-81v83h64c101 0 155 52 155 136s-54 136 -155 136h-64v81h49c76 0 125 39 125 114c0 73 -55 114 -133 114
c-81 0 -133 -46 -133 -136z" />
    <glyph glyph-name="agrave" unicode="&#xe0;" horiz-adv-x="659" 
d="M474 85c-12 -25 -63 -97 -175 -97c-130 0 -241 96 -241 259c0 161 111 259 241 259c108 0 163 -68 175 -94v82h91v-494h-91v85zM476 247c0 99 -64 175 -160 175c-99 0 -164 -76 -164 -175c0 -98 65 -175 164 -175c96 0 160 77 160 175zM361 579h-93l-115 183h100z" />
    <glyph glyph-name="aacute" unicode="&#xe1;" horiz-adv-x="659" 
d="M474 85c-12 -25 -63 -97 -175 -97c-130 0 -241 96 -241 259c0 161 111 259 241 259c108 0 163 -68 175 -94v82h91v-494h-91v85zM476 247c0 99 -64 175 -160 175c-99 0 -164 -76 -164 -175c0 -98 65 -175 164 -175c96 0 160 77 160 175zM260 579l108 183h100l-115 -183
h-93z" />
    <glyph glyph-name="acircumflex" unicode="&#xe2;" horiz-adv-x="659" 
d="M474 85c-12 -25 -63 -97 -175 -97c-130 0 -241 96 -241 259c0 161 111 259 241 259c108 0 163 -68 175 -94v82h91v-494h-91v85zM476 247c0 99 -64 175 -160 175c-99 0 -164 -76 -164 -175c0 -98 65 -175 164 -175c96 0 160 77 160 175zM390 576l-74 114l-74 -114h-90
l126 193h76l123 -193h-87z" />
    <glyph glyph-name="atilde" unicode="&#xe3;" horiz-adv-x="659" 
d="M474 85c-12 -25 -63 -97 -175 -97c-130 0 -241 96 -241 259c0 161 111 259 241 259c108 0 163 -68 175 -94v82h91v-494h-91v85zM476 247c0 99 -64 175 -160 175c-99 0 -164 -76 -164 -175c0 -98 65 -175 164 -175c96 0 160 77 160 175zM227 575h-72v76c0 57 25 94 79 94
c38 0 60 -17 91 -43l29 -24c13 -11 23 -18 34 -18c12 0 17 9 17 23v67h72v-76c0 -57 -25 -94 -79 -94c-38 0 -60 17 -91 43l-29 24c-13 11 -23 18 -34 18c-12 0 -17 -9 -17 -23v-67z" />
    <glyph glyph-name="adieresis" unicode="&#xe4;" horiz-adv-x="659" 
d="M474 85c-12 -25 -63 -97 -175 -97c-130 0 -241 96 -241 259c0 161 111 259 241 259c108 0 163 -68 175 -94v82h91v-494h-91v85zM476 247c0 99 -64 175 -160 175c-99 0 -164 -76 -164 -175c0 -98 65 -175 164 -175c96 0 160 77 160 175zM176 589v139h92v-139h-92zM364 589
v139h92v-139h-92z" />
    <glyph glyph-name="aring" unicode="&#xe5;" horiz-adv-x="659" 
d="M474 85c-12 -25 -63 -97 -175 -97c-130 0 -241 96 -241 259c0 161 111 259 241 259c108 0 163 -68 175 -94v82h91v-494h-91v85zM476 247c0 99 -64 175 -160 175c-99 0 -164 -76 -164 -175c0 -98 65 -175 164 -175c96 0 160 77 160 175zM316 567c-75 0 -131 57 -131 127
c0 71 57 127 131 127s131 -56 131 -127c0 -70 -56 -127 -131 -127zM316 629c38 0 64 29 64 65c0 37 -26 65 -64 65s-64 -28 -64 -65c0 -36 26 -65 64 -65z" />
    <glyph glyph-name="ae" unicode="&#xe6;" horiz-adv-x="961" 
d="M57 156c0 100 76 154 199 154h161c0 75 -56 117 -135 117c-77 0 -111 -44 -119 -62h-92c13 59 79 142 211 142c95 0 159 -40 187 -92c33 50 102 92 191 92c145 1 251 -107 249 -271l-91 1h-316c5 -92 70 -165 166 -165c98 0 136 53 145 69h90c-7 -42 -71 -153 -235 -153
c-110 0 -185 60 -218 117c-23 -50 -74 -116 -181 -116c-124 0 -212 65 -212 167zM659 428c-79 0 -133 -46 -151 -118h301c-21 75 -76 118 -150 118zM148 156c0 -57 53 -91 121 -91c85 0 148 49 148 122v50h-157c-67 0 -112 -27 -112 -81z" />
    <glyph glyph-name="ccedilla" unicode="&#xe7;" horiz-adv-x="594" 
d="M451 340c-8 16 -46 82 -144 82c-91 0 -156 -78 -156 -175s65 -175 157 -175c100 0 137 65 145 82h90c-6 -34 -57 -162 -228 -166v-43h14c86 0 120 -42 120 -101c0 -60 -34 -109 -117 -109h-137v74h126c28 0 41 13 41 35c0 21 -13 34 -41 34h-86v121
c-105 31 -178 128 -178 248c0 146 109 259 250 259c178 0 229 -129 236 -166h-92z" />
    <glyph glyph-name="egrave" unicode="&#xe8;" horiz-adv-x="612" 
d="M308 506c145 0 252 -108 252 -270h-411c5 -92 71 -164 168 -164c100 0 138 53 147 69h90c-7 -42 -71 -153 -237 -153c-152 0 -260 114 -260 259c0 150 106 259 251 259zM308 428c-79 0 -134 -45 -153 -116h304c-22 74 -77 116 -151 116zM353 579h-93l-115 183h100z" />
    <glyph glyph-name="eacute" unicode="&#xe9;" horiz-adv-x="612" 
d="M308 506c145 0 252 -108 252 -270h-411c5 -92 71 -164 168 -164c100 0 138 53 147 69h90c-7 -42 -71 -153 -237 -153c-152 0 -260 114 -260 259c0 150 106 259 251 259zM308 428c-79 0 -134 -45 -153 -116h304c-22 74 -77 116 -151 116zM252 579l108 183h100l-115 -183
h-93z" />
    <glyph glyph-name="ecircumflex" unicode="&#xea;" horiz-adv-x="612" 
d="M308 506c145 0 252 -108 252 -270h-411c5 -92 71 -164 168 -164c100 0 138 53 147 69h90c-7 -42 -71 -153 -237 -153c-152 0 -260 114 -260 259c0 150 106 259 251 259zM308 428c-79 0 -134 -45 -153 -116h304c-22 74 -77 116 -151 116zM382 576l-74 114l-74 -114h-90
l126 193h76l123 -193h-87z" />
    <glyph glyph-name="edieresis" unicode="&#xeb;" horiz-adv-x="612" 
d="M308 506c145 0 252 -108 252 -270h-411c5 -92 71 -164 168 -164c100 0 138 53 147 69h90c-7 -42 -71 -153 -237 -153c-152 0 -260 114 -260 259c0 150 106 259 251 259zM308 428c-79 0 -134 -45 -153 -116h304c-22 74 -77 116 -151 116zM168 589v139h92v-139h-92z
M356 589v139h92v-139h-92z" />
    <glyph glyph-name="igrave" unicode="&#xec;" horiz-adv-x="281" 
d="M95 0v494h91v-494h-91zM185 579h-93l-115 183h100z" />
    <glyph glyph-name="iacute" unicode="&#xed;" horiz-adv-x="281" 
d="M95 0v494h91v-494h-91zM94 579l108 183h100l-115 -183h-93z" />
    <glyph glyph-name="icircumflex" unicode="&#xee;" horiz-adv-x="281" 
d="M212 576l-72 115l-72 -115h-88l122 193h76l119 -193h-85zM95 0v494h91v-494h-91z" />
    <glyph glyph-name="idieresis" unicode="&#xef;" horiz-adv-x="281" 
d="M1 589v139h92v-139h-92zM187 589v139h92v-139h-92zM95 0v494h91v-494h-91z" />
    <glyph glyph-name="eth" unicode="&#xf0;" horiz-adv-x="634" 
d="M577 246c0 -146 -113 -258 -261 -258c-147 0 -259 112 -259 258c0 144 101 246 224 246c51 0 84 -18 111 -39l-116 132l-156 -65l-28 60l138 58l-86 98h105l58 -66l153 64l29 -60l-136 -57l109 -123c67 -77 115 -148 115 -248zM316 72c100 0 167 78 167 174
c0 97 -67 176 -167 176c-98 0 -165 -79 -165 -176c0 -96 67 -174 165 -174z" />
    <glyph glyph-name="ntilde" unicode="&#xf1;" horiz-adv-x="652" 
d="M185 267v-267h-91v494h91v-91c20 40 76 102 168 102c125 0 211 -94 211 -221v-284h-92v267c0 93 -56 154 -141 154c-88 0 -146 -64 -146 -154zM240 575h-72v76c0 57 25 94 79 94c38 0 60 -17 91 -43l29 -24c13 -11 23 -18 34 -18c12 0 17 9 17 23v67h72v-76
c0 -57 -25 -94 -79 -94c-38 0 -60 17 -91 43l-29 24c-13 11 -23 18 -34 18c-12 0 -17 -9 -17 -23v-67z" />
    <glyph glyph-name="ograve" unicode="&#xf2;" horiz-adv-x="634" 
d="M317 506c147 0 260 -112 260 -259s-113 -259 -260 -259c-148 0 -260 112 -260 259s112 259 260 259zM317 72c99 0 166 77 166 175s-67 175 -166 175s-166 -78 -166 -175s67 -175 166 -175zM362 579h-93l-115 183h100z" />
    <glyph glyph-name="oacute" unicode="&#xf3;" horiz-adv-x="634" 
d="M317 506c147 0 260 -112 260 -259s-113 -259 -260 -259c-148 0 -260 112 -260 259s112 259 260 259zM317 72c99 0 166 77 166 175s-67 175 -166 175s-166 -78 -166 -175s67 -175 166 -175zM261 579l108 183h100l-115 -183h-93z" />
    <glyph glyph-name="ocircumflex" unicode="&#xf4;" horiz-adv-x="634" 
d="M317 506c147 0 260 -112 260 -259s-113 -259 -260 -259c-148 0 -260 112 -260 259s112 259 260 259zM317 72c99 0 166 77 166 175s-67 175 -166 175s-166 -78 -166 -175s67 -175 166 -175zM391 576l-74 114l-74 -114h-90l126 193h76l123 -193h-87z" />
    <glyph glyph-name="otilde" unicode="&#xf5;" horiz-adv-x="634" 
d="M317 506c147 0 260 -112 260 -259s-113 -259 -260 -259c-148 0 -260 112 -260 259s112 259 260 259zM317 72c99 0 166 77 166 175s-67 175 -166 175s-166 -78 -166 -175s67 -175 166 -175zM228 575h-72v76c0 57 25 94 79 94c38 0 60 -17 91 -43l29 -24
c13 -11 23 -18 34 -18c12 0 17 9 17 23v67h72v-76c0 -57 -25 -94 -79 -94c-38 0 -60 17 -91 43l-29 24c-13 11 -23 18 -34 18c-12 0 -17 -9 -17 -23v-67z" />
    <glyph glyph-name="odieresis" unicode="&#xf6;" horiz-adv-x="634" 
d="M317 506c147 0 260 -112 260 -259s-113 -259 -260 -259c-148 0 -260 112 -260 259s112 259 260 259zM317 72c99 0 166 77 166 175s-67 175 -166 175s-166 -78 -166 -175s67 -175 166 -175zM177 589v139h92v-139h-92zM365 589v139h92v-139h-92z" />
    <glyph glyph-name="divide" unicode="&#xf7;" horiz-adv-x="696" 
d="M291 447v143h116v-143h-116zM612 275h-528v80h528v-80zM291 30v143h116v-143h-116z" />
    <glyph glyph-name="oslash" unicode="&#xf8;" horiz-adv-x="634" 
d="M577 247c0 -147 -113 -259 -261 -259c-56 0 -108 18 -151 49l-35 -37h-102l84 88c-34 44 -55 99 -55 159c0 148 112 260 259 260c56 0 108 -18 151 -48l33 35h104l-83 -86c35 -45 56 -101 56 -161zM151 247c0 -36 8 -68 22 -95l235 246c-25 15 -56 24 -92 24
c-98 0 -165 -78 -165 -175zM483 247c0 37 -8 70 -23 97l-237 -247c25 -16 57 -25 93 -25c100 0 167 78 167 175z" />
    <glyph glyph-name="ugrave" unicode="&#xf9;" horiz-adv-x="639" 
d="M320 -11c-142 0 -232 93 -232 220v285h91v-268c0 -91 51 -152 140 -152s140 61 140 152v268h92v-285c0 -127 -89 -220 -231 -220zM363 579h-93l-115 183h100z" />
    <glyph glyph-name="uacute" unicode="&#xfa;" horiz-adv-x="639" 
d="M320 -11c-142 0 -232 93 -232 220v285h91v-268c0 -91 51 -152 140 -152s140 61 140 152v268h92v-285c0 -127 -89 -220 -231 -220zM262 579l108 183h100l-115 -183h-93z" />
    <glyph glyph-name="ucircumflex" unicode="&#xfb;" horiz-adv-x="639" 
d="M320 -11c-142 0 -232 93 -232 220v285h91v-268c0 -91 51 -152 140 -152s140 61 140 152v268h92v-285c0 -127 -89 -220 -231 -220zM392 576l-74 114l-74 -114h-90l126 193h76l123 -193h-87z" />
    <glyph glyph-name="udieresis" unicode="&#xfc;" horiz-adv-x="639" 
d="M320 -11c-142 0 -232 93 -232 220v285h91v-268c0 -91 51 -152 140 -152s140 61 140 152v268h92v-285c0 -127 -89 -220 -231 -220zM178 589v139h92v-139h-92zM366 589v139h92v-139h-92z" />
    <glyph glyph-name="yacute" unicode="&#xfd;" horiz-adv-x="581" 
d="M558 494l-324 -718h-93l106 235l-224 483h103l169 -376l169 376h94zM239 579l108 183h100l-115 -183h-93z" />
    <glyph glyph-name="thorn" unicode="&#xfe;" horiz-adv-x="666" 
d="M184 80v-304h-90v960h90v-326c11 25 69 96 180 96c133 0 244 -97 244 -259c0 -163 -111 -259 -244 -259c-110 0 -168 69 -180 92zM182 247c0 -99 66 -175 166 -175c101 0 167 76 167 175c0 100 -66 175 -167 175c-100 0 -166 -75 -166 -175z" />
    <glyph glyph-name="ydieresis" unicode="&#xff;" horiz-adv-x="581" 
d="M558 494l-324 -718h-93l106 235l-224 483h103l169 -376l169 376h94zM155 589v139h92v-139h-92zM343 589v139h92v-139h-92z" />
    <glyph glyph-name="dotlessi" unicode="&#x131;" horiz-adv-x="281" 
d="M95 0v494h91v-494h-91z" />
    <glyph glyph-name="Lslash" unicode="&#x141;" horiz-adv-x="716" 
d="M676 91v-91h-556v226l-103 -52v89l103 53v394h97v-344l285 148v-92l-285 -146v-185h459z" />
    <glyph glyph-name="lslash" unicode="&#x142;" horiz-adv-x="369" 
d="M24 258v87l115 60v331h91v-283l115 61v-90l-115 -60v-364h-91v317z" />
    <glyph glyph-name="OE" unicode="&#x152;" horiz-adv-x="1182" 
d="M70 355c0 216 152 355 378 355h651v-90h-439v-198h254v-90h-254v-242h479v-90h-691c-226 0 -378 139 -378 355zM448 90h116v530h-116c-171 0 -278 -104 -278 -265s107 -265 278 -265z" />
    <glyph glyph-name="oe" unicode="&#x153;" horiz-adv-x="1030" 
d="M972 141c-7 -42 -71 -153 -235 -153c-107 0 -181 57 -215 113c-41 -70 -116 -113 -208 -113c-146 0 -257 112 -257 259c0 148 111 260 257 260c93 0 170 -45 210 -117c34 64 102 117 205 117c145 1 251 -107 249 -271l-91 1h-316c5 -92 70 -165 166 -165
c98 0 136 53 145 69h90zM728 428c-79 0 -133 -46 -151 -118h301c-21 75 -76 118 -150 118zM314 72c99 0 165 78 165 175s-66 175 -165 175c-97 0 -163 -78 -163 -175s66 -175 163 -175z" />
    <glyph glyph-name="Scaron" unicode="&#x160;" horiz-adv-x="752" 
d="M346 633c-114 0 -172 -42 -172 -105c0 -58 49 -91 136 -102l139 -16c120 -14 233 -63 233 -211c0 -115 -94 -212 -289 -212c-220 0 -309 112 -341 216h104c23 -54 86 -127 237 -127c123 0 192 50 192 118c0 83 -59 110 -144 120l-140 15c-127 14 -224 75 -224 199
c0 116 106 194 269 194c212 0 296 -104 319 -193h-101c-24 47 -83 104 -218 104zM545 931l-139 -156h-78l-136 156h94l81 -89l80 89h98z" />
    <glyph glyph-name="scaron" unicode="&#x161;" horiz-adv-x="565" 
d="M331 205l-106 12c-95 11 -162 57 -162 147c0 87 82 144 203 144c166 0 222 -86 237 -136h-97c-10 13 -49 58 -140 58c-74 0 -113 -27 -113 -63c0 -35 26 -57 84 -64c39 -5 63 -7 106 -12c116 -14 167 -66 167 -156c0 -83 -76 -149 -216 -149c-174 0 -236 106 -246 152h97
c6 -15 44 -72 149 -72c84 0 125 30 125 69c0 38 -22 62 -88 70zM442 772l-126 -193h-76l-123 193h88l74 -114l74 114h89z" />
    <glyph glyph-name="Ydieresis" unicode="&#x178;" horiz-adv-x="765" 
d="M434 302v-302h-97v300l-322 410h123l250 -321l249 321h113zM240 778v139h92v-139h-92zM444 778v139h92v-139h-92z" />
    <glyph glyph-name="Zcaron" unicode="&#x17d;" horiz-adv-x="782" 
d="M737 90v-90h-682v57l482 563h-472v90h622v-57l-486 -563h536zM554 931l-139 -156h-78l-136 156h94l81 -89l80 89h98z" />
    <glyph glyph-name="zcaron" unicode="&#x17e;" horiz-adv-x="606" 
d="M562 81v-81h-506v53l329 360h-321v81h462v-51l-334 -362h370zM458 772l-126 -193h-76l-123 193h88l74 -114l74 114h89z" />
    <glyph glyph-name="circumflex" unicode="&#x2c6;" 
d="M334 576l-74 114l-74 -114h-90l126 193h76l123 -193h-87z" />
    <glyph glyph-name="caron" unicode="&#x2c7;" 
d="M424 772l-126 -193h-76l-123 193h88l74 -114l74 114h89z" />
    <glyph glyph-name="breve" unicode="&#x2d8;" 
d="M300 645c44 0 63 35 63 72v17h76v-19c0 -80 -46 -142 -139 -142s-139 62 -139 142v19h76v-17c0 -36 19 -72 63 -72z" />
    <glyph glyph-name="dotaccent" unicode="&#x2d9;" 
d="M253 589v143h94v-143h-94z" />
    <glyph glyph-name="ring" unicode="&#x2da;" 
d="M300 567c-75 0 -131 57 -131 127c0 71 57 127 131 127s131 -56 131 -127c0 -70 -56 -127 -131 -127zM300 629c38 0 64 29 64 65c0 37 -26 65 -64 65s-64 -28 -64 -65c0 -36 26 -65 64 -65z" />
    <glyph glyph-name="ogonek" unicode="&#x2db;" 
d="M437 -142v-82h-89c-80 0 -129 31 -129 94c0 56 46 87 105 130h91c-63 -52 -101 -81 -101 -112c0 -20 14 -30 37 -30h86z" />
    <glyph glyph-name="tilde" unicode="&#x2dc;" 
d="M211 575h-72v76c0 57 25 94 79 94c38 0 60 -17 91 -43l29 -24c13 -11 23 -18 34 -18c12 0 17 9 17 23v67h72v-76c0 -57 -25 -94 -79 -94c-38 0 -60 17 -91 43l-29 24c-13 11 -23 18 -34 18c-12 0 -17 -9 -17 -23v-67z" />
    <glyph glyph-name="hungarumlaut" unicode="&#x2dd;" 
d="M301 579l84 183h88l-91 -183h-81zM126 579l84 183h88l-91 -183h-81z" />
    <glyph glyph-name="endash" unicode="&#x2013;" horiz-adv-x="704" 
d="M84 257v76h536v-76h-536z" />
    <glyph glyph-name="emdash" unicode="&#x2014;" horiz-adv-x="1000" 
d="M84 257v76h832v-76h-832z" />
    <glyph glyph-name="quoteleft" unicode="&#x2018;" horiz-adv-x="292" 
d="M139 736h71c-33 -62 -61 -129 -61 -202h55v-130h-116v120c0 88 24 160 51 212z" />
    <glyph glyph-name="quoteright" unicode="&#x2019;" horiz-adv-x="292" 
d="M153 404h-71c33 62 61 129 61 202h-55v130h116v-120c0 -88 -24 -160 -51 -212z" />
    <glyph glyph-name="quotesinglbase" unicode="&#x201a;" horiz-adv-x="292" 
d="M153 -202h-71c33 62 61 129 61 202h-55v130h116v-120c0 -88 -24 -160 -51 -212z" />
    <glyph glyph-name="quotedblleft" unicode="&#x201c;" horiz-adv-x="495" 
d="M139 736h71c-33 -62 -61 -129 -61 -202h55v-130h-116v120c0 88 24 160 51 212zM342 736h71c-33 -62 -61 -129 -61 -202h55v-130h-116v120c0 88 24 160 51 212z" />
    <glyph glyph-name="quotedblright" unicode="&#x201d;" horiz-adv-x="495" 
d="M356 404h-71c33 62 61 129 61 202h-55v130h116v-120c0 -88 -24 -160 -51 -212zM153 404h-71c33 62 61 129 61 202h-55v130h116v-120c0 -88 -24 -160 -51 -212z" />
    <glyph glyph-name="quotedblbase" unicode="&#x201e;" horiz-adv-x="495" 
d="M356 -202h-71c33 62 61 129 61 202h-55v130h116v-120c0 -88 -24 -160 -51 -212zM153 -202h-71c33 62 61 129 61 202h-55v130h116v-120c0 -88 -24 -160 -51 -212z" />
    <glyph glyph-name="dagger" unicode="&#x2020;" horiz-adv-x="522" 
d="M467 441h-162v-441h-88v441h-162v81h162v188h88v-188h162v-81z" />
    <glyph glyph-name="daggerdbl" unicode="&#x2021;" horiz-adv-x="522" 
d="M467 188h-162v-188h-88v188h-162v81h162v172h-162v81h162v188h88v-188h162v-81h-162v-172h162v-81z" />
    <glyph glyph-name="bullet" unicode="&#x2022;" horiz-adv-x="596" 
d="M298 510c108 0 194 -87 194 -194c0 -108 -86 -194 -194 -194s-194 86 -194 194c0 107 86 194 194 194z" />
    <glyph glyph-name="ellipsis" unicode="&#x2026;" horiz-adv-x="796" 
d="M88 0v143h116v-143h-116zM340 0v143h116v-143h-116zM592 0v143h116v-143h-116z" />
    <glyph glyph-name="perthousand" unicode="&#x2030;" horiz-adv-x="1450" 
d="M252 356c-103 0 -182 79 -182 183s79 183 182 183s182 -79 182 -183s-79 -183 -182 -183zM208 0l502 710h95l-503 -710h-94zM252 430c61 0 103 47 103 109s-42 109 -103 109s-103 -47 -103 -109s42 -109 103 -109zM762 -14c-103 0 -182 79 -182 183s79 183 182 183
s182 -79 182 -183s-79 -183 -182 -183zM1197 -14c-103 0 -182 79 -182 183s79 183 182 183s182 -79 182 -183s-79 -183 -182 -183zM762 60c61 0 103 47 103 109s-42 109 -103 109s-103 -47 -103 -109s42 -109 103 -109zM1197 60c61 0 103 47 103 109s-42 109 -103 109
s-103 -47 -103 -109s42 -109 103 -109z" />
    <glyph glyph-name="guilsinglleft" unicode="&#x2039;" horiz-adv-x="341" 
d="M271 453l-115 -177l115 -179h-93l-113 178l114 178h92z" />
    <glyph glyph-name="guilsinglright" unicode="&#x203a;" horiz-adv-x="341" 
d="M276 275l-114 -178h-92l115 177l-115 179h93z" />
    <glyph glyph-name="fraction" unicode="&#x2044;" horiz-adv-x="525" 
d="M92 0h-92l433 710h92z" />
    <glyph glyph-name="Euro" unicode="&#x20ac;" horiz-adv-x="712" 
d="M48 404v78h118c0 154 93 240 234 240c144 0 233 -86 237 -230h-97c-3 77 -45 143 -140 143c-91 0 -140 -66 -140 -153h182v-78h-182v-91h182v-78h-182v-6c0 -94 52 -153 142 -153c91 0 137 59 138 148h97c-3 -155 -96 -235 -237 -235c-138 0 -234 81 -234 240v6h-118v78
h118v91h-118z" />
    <glyph glyph-name="trademark" unicode="&#x2122;" horiz-adv-x="1017" 
d="M30 638v72h371v-72h-145v-324h-81v324h-145zM600 710l109 -279l110 279h118v-396h-77v320l-128 -322h-52l-128 324v-322h-74v396h122z" />
    <glyph glyph-name="minus" unicode="&#x2212;" horiz-adv-x="696" 
d="M612 275h-528v80h528v-80z" />
    <glyph glyph-name="Dcroat" unicode="&#x110;" horiz-adv-x="852" 
d="M12 314v88h118v308h280c228 0 372 -139 372 -355c0 -212 -143 -355 -372 -355h-280v314h-118zM410 621h-183v-219h241v-88h-241v-225h183c168 0 272 104 272 266c0 167 -104 266 -272 266z" />
    <glyph glyph-name="Eng" unicode="&#x14a;" horiz-adv-x="860" 
d="M750 -52c0 -113 -59 -172 -176 -172h-124v88h105c68 0 103 29 103 84c0 33 -14 63 -55 117l-400 528v-593h-93v710h118l429 -570v570h93v-762z" />
    <glyph glyph-name="IJ" unicode="&#x132;" horiz-adv-x="982" 
d="M111 0v710h97v-710h-97zM875 223c0 -154 -96 -234 -235 -234c-136 0 -232 79 -232 234v189h96v-189c0 -87 52 -142 136 -142c88 0 138 55 138 142v487h97v-487z" />
    <glyph glyph-name="dcroat" unicode="&#x111;" horiz-adv-x="667" 
d="M482 85c-12 -24 -68 -97 -180 -97c-132 0 -244 96 -244 259c0 162 112 259 244 259c111 0 168 -68 180 -94v162h-213v74h213v88h91v-88h103v-74h-103v-574h-91v85zM484 247c0 100 -66 175 -165 175c-101 0 -167 -75 -167 -175s66 -175 167 -175c99 0 165 75 165 175z" />
    <glyph glyph-name="eng" unicode="&#x14b;" horiz-adv-x="652" 
d="M564 -43c0 -119 -59 -181 -180 -181h-122v85h108c70 0 102 38 102 106v300c0 93 -56 154 -141 154c-88 0 -146 -64 -146 -154v-267h-91v494h91v-91c20 40 76 102 168 102c125 0 211 -94 211 -221v-327z" />
    <glyph glyph-name="ij" unicode="&#x133;" horiz-adv-x="562" 
d="M93 589v143h95v-143h-95zM95 0v494h91v-494h-91zM374 589v143h95v-143h-95zM467 -53c0 -112 -55 -171 -168 -171h-133v85h118c63 0 92 33 92 96v537h91v-547z" />
    <glyph glyph-name="Abreve" unicode="&#x102;" horiz-adv-x="800" 
d="M665 0l-79 171h-378l-79 -171h-96l328 714h77l329 -714h-102zM248 259h298l-149 324zM399 843c47 0 69 36 69 75v13h76v-15c0 -82 -50 -145 -145 -145s-145 63 -145 145v15h76v-13c0 -38 22 -75 69 -75z" />
    <glyph glyph-name="Amacron" unicode="&#x100;" horiz-adv-x="800" 
d="M665 0l-79 171h-378l-79 -171h-96l328 714h77l329 -714h-102zM248 259h298l-149 324zM564 813h-330v78h330v-78z" />
    <glyph glyph-name="Aogonek" unicode="&#x104;" horiz-adv-x="800" 
d="M789 -142v-82h-89c-80 0 -129 31 -129 93c0 56 42 92 94 131l-79 171h-378l-79 -171h-96l328 714h77l329 -714c-63 -52 -101 -81 -101 -112c0 -20 14 -30 37 -30h86zM248 259h298l-149 324z" />
    <glyph glyph-name="Aringacute" unicode="&#x1fa;" horiz-adv-x="800" 
d="M665 0l-79 171h-378l-79 -171h-96l328 714h77l329 -714h-102zM248 259h298l-149 324zM352 1061l104 140h106l-112 -140h-98zM399 768c-75 0 -131 57 -131 127c0 71 57 127 131 127s131 -56 131 -127c0 -70 -56 -127 -131 -127zM399 830c38 0 64 29 64 65
c0 37 -26 65 -64 65s-64 -28 -64 -65c0 -36 26 -65 64 -65z" />
    <glyph glyph-name="AEacute" unicode="&#x1fc;" horiz-adv-x="1160" 
d="M1117 90v-90h-575v183h-305l-127 -183h-110l497 710h580v-90h-439v-198h254v-90h-254v-242h479zM297 269h245v354zM736 778l112 150h110l-120 -150h-102z" />
    <glyph glyph-name="Cacute" unicode="&#x106;" horiz-adv-x="809" 
d="M420 -12c-203 0 -351 161 -351 367c0 205 149 367 351 367c207 0 304 -135 327 -220h-101c-25 50 -98 129 -226 129c-152 0 -250 -127 -250 -276s98 -276 250 -276c144 0 205 84 228 130h99c-21 -80 -111 -221 -327 -221zM370 778l112 150h110l-120 -150h-102z" />
    <glyph glyph-name="Ccaron" unicode="&#x10c;" horiz-adv-x="809" 
d="M420 -12c-203 0 -351 161 -351 367c0 205 149 367 351 367c207 0 304 -135 327 -220h-101c-25 50 -98 129 -226 129c-152 0 -250 -127 -250 -276s98 -276 250 -276c144 0 205 84 228 130h99c-21 -80 -111 -221 -327 -221zM598 931l-139 -156h-78l-136 156h94l81 -89
l80 89h98z" />
    <glyph glyph-name="Ccircumflex" unicode="&#x108;" horiz-adv-x="809" 
d="M420 -12c-203 0 -351 161 -351 367c0 205 149 367 351 367c207 0 304 -135 327 -220h-101c-25 50 -98 129 -226 129c-152 0 -250 -127 -250 -276s98 -276 250 -276c144 0 205 84 228 130h99c-21 -80 -111 -221 -327 -221zM501 775l-80 89l-81 -89h-98l139 156h78
l136 -156h-94z" />
    <glyph glyph-name="Cdotaccent" unicode="&#x10a;" horiz-adv-x="809" 
d="M420 -12c-203 0 -351 161 -351 367c0 205 149 367 351 367c207 0 304 -135 327 -220h-101c-25 50 -98 129 -226 129c-152 0 -250 -127 -250 -276s98 -276 250 -276c144 0 205 84 228 130h99c-21 -80 -111 -221 -327 -221zM373 778v143h94v-143h-94z" />
    <glyph glyph-name="Dcaron" unicode="&#x10e;" horiz-adv-x="832" 
d="M110 0v710h280c228 0 372 -139 372 -355c0 -212 -143 -355 -372 -355h-280zM390 621h-183v-532h183c168 0 272 104 272 266c0 167 -104 266 -272 266zM566 931l-139 -156h-78l-136 156h94l81 -89l80 89h98z" />
    <glyph glyph-name="Ebreve" unicode="&#x114;" horiz-adv-x="749" 
d="M110 0v710h556v-90h-460v-198h275v-90h-275v-242h500v-90h-596zM399 843c47 0 69 36 69 75v13h76v-15c0 -82 -50 -145 -145 -145s-145 63 -145 145v15h76v-13c0 -38 22 -75 69 -75z" />
    <glyph glyph-name="Ecaron" unicode="&#x11a;" horiz-adv-x="749" 
d="M110 0v710h556v-90h-460v-198h275v-90h-275v-242h500v-90h-596zM577 931l-139 -156h-78l-136 156h94l81 -89l80 89h98z" />
    <glyph glyph-name="Edotaccent" unicode="&#x116;" horiz-adv-x="749" 
d="M110 0v710h556v-90h-460v-198h275v-90h-275v-242h500v-90h-596zM352 778v143h94v-143h-94z" />
    <glyph glyph-name="Emacron" unicode="&#x112;" horiz-adv-x="749" 
d="M110 0v710h556v-90h-460v-198h275v-90h-275v-242h500v-90h-596zM564 813h-330v78h330v-78z" />
    <glyph glyph-name="Eogonek" unicode="&#x118;" horiz-adv-x="749" 
d="M110 0v710h556v-90h-460v-198h275v-90h-275v-242h500v-90h-113c-63 -52 -101 -81 -101 -112c0 -20 14 -30 37 -30h86v-82h-89c-80 0 -129 31 -129 94c0 56 46 87 105 130h-392z" />
    <glyph glyph-name="Gbreve" unicode="&#x11e;" horiz-adv-x="847" 
d="M758 98c-54 -52 -151 -110 -310 -110c-227 0 -379 152 -379 368c0 210 151 366 360 366c197 0 284 -110 310 -183h-101c-25 32 -86 93 -209 93c-161 0 -260 -121 -260 -276c0 -167 113 -278 279 -278c108 0 181 30 218 58v175h-280v87h372v-300zM429 843
c47 0 69 36 69 75v13h76v-15c0 -82 -50 -145 -145 -145s-145 63 -145 145v15h76v-13c0 -38 22 -75 69 -75z" />
    <glyph glyph-name="Gcircumflex" unicode="&#x11c;" horiz-adv-x="847" 
d="M758 98c-54 -52 -151 -110 -310 -110c-227 0 -379 152 -379 368c0 210 151 366 360 366c197 0 284 -110 310 -183h-101c-25 32 -86 93 -209 93c-161 0 -260 -121 -260 -276c0 -167 113 -278 279 -278c108 0 181 30 218 58v175h-280v87h372v-300zM510 775l-80 89l-81 -89
h-98l139 156h78l136 -156h-94z" />
    <glyph glyph-name="uni0122" unicode="&#x122;" horiz-adv-x="847" 
d="M758 98c-54 -52 -151 -110 -310 -110c-227 0 -379 152 -379 368c0 210 151 366 360 366c197 0 284 -110 310 -183h-101c-25 32 -86 93 -209 93c-161 0 -260 -121 -260 -276c0 -167 113 -278 279 -278c108 0 181 30 218 58v175h-280v87h372v-300zM479 -325h-67
c21 39 35 89 35 115h-52v115h112v-98c0 -60 -14 -100 -28 -132z" />
    <glyph glyph-name="Gdotaccent" unicode="&#x120;" horiz-adv-x="847" 
d="M758 98c-54 -52 -151 -110 -310 -110c-227 0 -379 152 -379 368c0 210 151 366 360 366c197 0 284 -110 310 -183h-101c-25 32 -86 93 -209 93c-161 0 -260 -121 -260 -276c0 -167 113 -278 279 -278c108 0 181 30 218 58v175h-280v87h372v-300zM382 778v143h94v-143h-94
z" />
    <glyph glyph-name="Hbar" unicode="&#x126;" horiz-adv-x="850" 
d="M10 514v76h100v120h97v-120h436v120h97v-120h100v-76h-100v-514h-97v313h-436v-313h-97v514h-100zM207 403h436v111h-436v-111z" />
    <glyph glyph-name="Hcircumflex" unicode="&#x124;" horiz-adv-x="850" 
d="M643 0v313h-436v-313h-97v710h97v-307h436v307h97v-710h-97zM506 775l-80 89l-81 -89h-98l139 156h78l136 -156h-94z" />
    <glyph glyph-name="Ibreve" unicode="&#x12c;" horiz-adv-x="319" 
d="M111 0v710h97v-710h-97zM159 843c47 0 69 36 69 75v13h76v-15c0 -82 -50 -145 -145 -145s-145 63 -145 145v15h76v-13c0 -38 22 -75 69 -75z" />
    <glyph glyph-name="Idotaccent" unicode="&#x130;" horiz-adv-x="319" 
d="M111 0v710h97v-710h-97zM112 778v143h94v-143h-94z" />
    <glyph glyph-name="Imacron" unicode="&#x12a;" horiz-adv-x="319" 
d="M111 0v710h97v-710h-97zM324 813h-330v78h330v-78z" />
    <glyph glyph-name="Iogonek" unicode="&#x12e;" horiz-adv-x="319" 
d="M230 -142v-82h-89c-80 0 -129 31 -129 93c0 56 44 93 99 131v710h97v-710c-63 -52 -101 -81 -101 -112c0 -20 14 -30 37 -30h86z" />
    <glyph glyph-name="Itilde" unicode="&#x128;" horiz-adv-x="319" 
d="M111 0v710h97v-710h-97zM155 816l-38 22c-14 8 -28 15 -38 15c-12 0 -17 -9 -17 -24v-56h-73v66c0 57 24 94 77 94c35 0 62 -18 97 -38l38 -22c14 -8 27 -15 37 -15c12 0 18 9 18 24v56h73v-66c0 -57 -25 -94 -78 -94c-36 0 -61 18 -96 38z" />
    <glyph glyph-name="Jcircumflex" unicode="&#x134;" horiz-adv-x="663" 
d="M556 223c0 -154 -96 -234 -235 -234c-136 0 -232 79 -232 234v189h96v-189c0 -87 52 -142 136 -142c88 0 138 55 138 142v487h97v-487zM588 775l-80 89l-81 -89h-98l139 156h78l136 -156h-94z" />
    <glyph glyph-name="uni0136" unicode="&#x136;" horiz-adv-x="780" 
d="M632 0l-425 330v-330h-97v710h97v-328l409 328h137l-435 -348l453 -362h-139zM438 -325h-67c21 39 35 89 35 115h-52v115h112v-98c0 -60 -14 -100 -28 -132z" />
    <glyph glyph-name="Lacute" unicode="&#x139;" horiz-adv-x="704" 
d="M666 91v-91h-556v710h97v-619h459zM109 778l112 150h110l-120 -150h-102z" />
    <glyph glyph-name="Lcaron" unicode="&#x13d;" horiz-adv-x="704" 
d="M666 91v-91h-556v710h97v-619h459zM273 579l50 193h86l-57 -193h-79z" />
    <glyph glyph-name="uni013B" unicode="&#x13b;" horiz-adv-x="704" 
d="M666 91v-91h-556v710h97v-619h459zM422 -325h-67c21 39 35 89 35 115h-52v115h112v-98c0 -60 -14 -100 -28 -132z" />
    <glyph glyph-name="Ldot" unicode="&#x13f;" horiz-adv-x="704" 
d="M666 91v-91h-556v710h97v-619h459zM454 324v142h116v-142h-116z" />
    <glyph glyph-name="Nacute" unicode="&#x143;" horiz-adv-x="860" 
d="M750 710v-715h-69l-478 601v-596h-93v710h118l429 -544v544h93zM390 778l112 150h110l-120 -150h-102z" />
    <glyph glyph-name="Ncaron" unicode="&#x147;" horiz-adv-x="860" 
d="M750 710v-715h-69l-478 601v-596h-93v710h118l429 -544v544h93zM619 931l-139 -156h-78l-136 156h94l81 -89l80 89h98z" />
    <glyph glyph-name="uni0145" unicode="&#x145;" horiz-adv-x="860" 
d="M750 710v-715h-69l-478 601v-596h-93v710h118l429 -544v544h93zM464 -325h-67c21 39 35 89 35 115h-52v115h112v-98c0 -60 -14 -100 -28 -132z" />
    <glyph glyph-name="Obreve" unicode="&#x14e;" horiz-adv-x="872" 
d="M436 -12c-212 0 -367 158 -367 367c0 207 157 367 367 367c209 0 367 -160 367 -367s-158 -367 -367 -367zM436 78c160 0 267 124 267 277c0 151 -107 277 -267 277s-267 -125 -267 -277c0 -155 107 -277 267 -277zM436 843c47 0 69 36 69 75v13h76v-15
c0 -82 -50 -145 -145 -145s-145 63 -145 145v15h76v-13c0 -38 22 -75 69 -75z" />
    <glyph glyph-name="Ohungarumlaut" unicode="&#x150;" horiz-adv-x="872" 
d="M436 -12c-212 0 -367 158 -367 367c0 207 157 367 367 367c209 0 367 -160 367 -367s-158 -367 -367 -367zM436 78c160 0 267 124 267 277c0 151 -107 277 -267 277s-267 -125 -267 -277c0 -155 107 -277 267 -277zM478 778l78 150h92l-85 -150h-85zM302 778l78 150h92
l-85 -150h-85z" />
    <glyph glyph-name="Omacron" unicode="&#x14c;" horiz-adv-x="872" 
d="M436 -12c-212 0 -367 158 -367 367c0 207 157 367 367 367c209 0 367 -160 367 -367s-158 -367 -367 -367zM436 78c160 0 267 124 267 277c0 151 -107 277 -267 277s-267 -125 -267 -277c0 -155 107 -277 267 -277zM601 813h-330v78h330v-78z" />
    <glyph glyph-name="Oslashacute" unicode="&#x1fe;" horiz-adv-x="872" 
d="M803 355c0 -207 -158 -367 -367 -367c-82 0 -157 25 -217 68l-50 -56h-110l100 110c-56 65 -90 150 -90 245c0 207 157 367 367 367c81 0 154 -25 214 -68l50 56h113l-101 -111c57 -65 91 -150 91 -244zM169 355c0 -67 19 -127 54 -174l366 406c-42 28 -94 45 -153 45
c-160 0 -267 -125 -267 -277zM703 355c0 66 -19 126 -54 174l-368 -405c43 -29 95 -46 155 -46c160 0 267 124 267 277zM387 778l112 150h110l-120 -150h-102z" />
    <glyph glyph-name="Racute" unicode="&#x154;" horiz-adv-x="803" 
d="M110 0v710h377c153 0 234 -69 234 -201c0 -94 -51 -159 -145 -183l172 -326h-103l-170 316h-268v-316h-97zM484 620h-277v-215h277c91 0 137 32 137 104c0 77 -46 111 -137 111zM348 778l112 150h110l-120 -150h-102z" />
    <glyph glyph-name="Rcaron" unicode="&#x158;" horiz-adv-x="803" 
d="M110 0v710h377c153 0 234 -69 234 -201c0 -94 -51 -159 -145 -183l172 -326h-103l-170 316h-268v-316h-97zM484 620h-277v-215h277c91 0 137 32 137 104c0 77 -46 111 -137 111zM576 931l-139 -156h-78l-136 156h94l81 -89l80 89h98z" />
    <glyph glyph-name="uni0156" unicode="&#x156;" horiz-adv-x="803" 
d="M110 0v710h377c153 0 234 -69 234 -201c0 -94 -51 -159 -145 -183l172 -326h-103l-170 316h-268v-316h-97zM484 620h-277v-215h277c91 0 137 32 137 104c0 77 -46 111 -137 111zM428 -325h-67c21 39 35 89 35 115h-52v115h112v-98c0 -60 -14 -100 -28 -132z" />
    <glyph glyph-name="Sacute" unicode="&#x15a;" horiz-adv-x="752" 
d="M346 633c-114 0 -172 -42 -172 -105c0 -58 49 -91 136 -102l139 -16c120 -14 233 -63 233 -211c0 -115 -94 -212 -289 -212c-220 0 -309 112 -341 216h104c23 -54 86 -127 237 -127c123 0 192 50 192 118c0 83 -59 110 -144 120l-140 15c-127 14 -224 75 -224 199
c0 116 106 194 269 194c212 0 296 -104 319 -193h-101c-24 47 -83 104 -218 104zM317 778l112 150h110l-120 -150h-102z" />
    <glyph glyph-name="uni015E" unicode="&#x15e;" horiz-adv-x="752" 
d="M424 -156c0 21 -13 34 -41 34h-86v117c-151 27 -218 120 -245 208h104c23 -54 86 -127 237 -127c123 0 192 50 192 118c0 83 -59 110 -144 120l-140 15c-127 14 -224 75 -224 199c0 116 106 194 269 194c212 0 296 -104 319 -193h-101c-24 47 -83 104 -218 104
c-114 0 -172 -42 -172 -105c0 -58 49 -91 136 -102l139 -16c120 -14 233 -63 233 -211c0 -115 -94 -212 -289 -212h-16v-42h14c86 0 120 -42 120 -101c0 -60 -34 -109 -117 -109h-137v74h126c28 0 41 13 41 35z" />
    <glyph glyph-name="Scircumflex" unicode="&#x15c;" horiz-adv-x="752" 
d="M346 633c-114 0 -172 -42 -172 -105c0 -58 49 -91 136 -102l139 -16c120 -14 233 -63 233 -211c0 -115 -94 -212 -289 -212c-220 0 -309 112 -341 216h104c23 -54 86 -127 237 -127c123 0 192 50 192 118c0 83 -59 110 -144 120l-140 15c-127 14 -224 75 -224 199
c0 116 106 194 269 194c212 0 296 -104 319 -193h-101c-24 47 -83 104 -218 104zM448 775l-80 89l-81 -89h-98l139 156h78l136 -156h-94z" />
    <glyph glyph-name="uni0218" unicode="&#x218;" horiz-adv-x="752" 
d="M346 633c-114 0 -172 -42 -172 -105c0 -58 49 -91 136 -102l139 -16c120 -14 233 -63 233 -211c0 -115 -94 -212 -289 -212c-220 0 -309 112 -341 216h104c23 -54 86 -127 237 -127c123 0 192 50 192 118c0 83 -59 110 -144 120l-140 15c-127 14 -224 75 -224 199
c0 116 106 194 269 194c212 0 296 -104 319 -193h-101c-24 47 -83 104 -218 104zM418 -325h-67c21 39 35 89 35 115h-52v115h112v-98c0 -60 -14 -100 -28 -132z" />
    <glyph glyph-name="Tcaron" unicode="&#x164;" horiz-adv-x="767" 
d="M40 620v90h687v-90h-295v-620h-97v620h-295zM561 931l-139 -156h-78l-136 156h94l81 -89l80 89h98z" />
    <glyph glyph-name="Tcommaaccent" unicode="&#x162;" horiz-adv-x="767" 
d="M40 620v90h687v-90h-295v-620h-97v620h-295zM413 -325h-67c21 39 35 89 35 115h-52v115h112v-98c0 -60 -14 -100 -28 -132z" />
    <glyph glyph-name="uni021A" unicode="&#x21a;" horiz-adv-x="767" 
d="M40 620v90h687v-90h-295v-620h-97v620h-295zM413 -325h-67c21 39 35 89 35 115h-52v115h112v-98c0 -60 -14 -100 -28 -132z" />
    <glyph glyph-name="Tbar" unicode="&#x166;" horiz-adv-x="767" 
d="M40 620v90h687v-90h-295v-201h195v-84h-195v-335h-97v335h-195v84h195v201h-295z" />
    <glyph glyph-name="Ubreve" unicode="&#x16c;" horiz-adv-x="841" 
d="M421 81c138 0 217 92 217 227v402h96v-410c0 -172 -109 -312 -313 -312c-212 0 -314 138 -314 312v410h97v-402c0 -135 77 -227 217 -227zM421 843c47 0 69 36 69 75v13h76v-15c0 -82 -50 -145 -145 -145s-145 63 -145 145v15h76v-13c0 -38 22 -75 69 -75z" />
    <glyph glyph-name="Uhungarumlaut" unicode="&#x170;" horiz-adv-x="841" 
d="M421 81c138 0 217 92 217 227v402h96v-410c0 -172 -109 -312 -313 -312c-212 0 -314 138 -314 312v410h97v-402c0 -135 77 -227 217 -227zM463 778l78 150h92l-85 -150h-85zM287 778l78 150h92l-85 -150h-85z" />
    <glyph glyph-name="Umacron" unicode="&#x16a;" horiz-adv-x="841" 
d="M421 81c138 0 217 92 217 227v402h96v-410c0 -172 -109 -312 -313 -312c-212 0 -314 138 -314 312v410h97v-402c0 -135 77 -227 217 -227zM586 813h-330v78h330v-78z" />
    <glyph glyph-name="Uogonek" unicode="&#x172;" horiz-adv-x="841" 
d="M598 -142v-82h-89c-80 0 -129 31 -129 93c0 54 52 93 96 123c-18 -3 -36 -4 -55 -4c-212 0 -314 138 -314 312v410h97v-402c0 -135 77 -227 217 -227c138 0 217 92 217 227v402h96v-410c0 -138 -66 -221 -152 -292c-78 -65 -107 -89 -107 -118c0 -21 15 -32 39 -32h84z
" />
    <glyph glyph-name="Uring" unicode="&#x16e;" horiz-adv-x="841" 
d="M421 81c138 0 217 92 217 227v402h96v-410c0 -172 -109 -312 -313 -312c-212 0 -314 138 -314 312v410h97v-402c0 -135 77 -227 217 -227zM421 768c-75 0 -131 57 -131 127c0 71 57 127 131 127s131 -56 131 -127c0 -70 -56 -127 -131 -127zM421 830c38 0 64 29 64 65
c0 37 -26 65 -64 65s-64 -28 -64 -65c0 -36 26 -65 64 -65z" />
    <glyph glyph-name="Utilde" unicode="&#x168;" horiz-adv-x="841" 
d="M421 81c138 0 217 92 217 227v402h96v-410c0 -172 -109 -312 -313 -312c-212 0 -314 138 -314 312v410h97v-402c0 -135 77 -227 217 -227zM417 816l-38 22c-14 8 -28 15 -38 15c-12 0 -17 -9 -17 -24v-56h-73v66c0 57 24 94 77 94c35 0 62 -18 97 -38l38 -22
c14 -8 27 -15 37 -15c12 0 18 9 18 24v56h73v-66c0 -57 -25 -94 -78 -94c-36 0 -61 18 -96 38z" />
    <glyph glyph-name="Wacute" unicode="&#x1e82;" horiz-adv-x="1129" 
d="M765 -4l-199 562l-200 -562h-79l-244 714h105l184 -557l196 561h81l197 -566l186 562h94l-237 -714h-84zM516 778l112 150h110l-120 -150h-102z" />
    <glyph glyph-name="Wcircumflex" unicode="&#x174;" horiz-adv-x="1129" 
d="M765 -4l-199 562l-200 -562h-79l-244 714h105l184 -557l196 561h81l197 -566l186 562h94l-237 -714h-84zM647 775l-80 89l-81 -89h-98l139 156h78l136 -156h-94z" />
    <glyph glyph-name="Wdieresis" unicode="&#x1e84;" horiz-adv-x="1129" 
d="M765 -4l-199 562l-200 -562h-79l-244 714h105l184 -557l196 561h81l197 -566l186 562h94l-237 -714h-84zM418 778v139h92v-139h-92zM622 778v139h92v-139h-92z" />
    <glyph glyph-name="Wgrave" unicode="&#x1e80;" horiz-adv-x="1129" 
d="M765 -4l-199 562l-200 -562h-79l-244 714h105l184 -557l196 561h81l197 -566l186 562h94l-237 -714h-84zM617 778h-102l-120 150h110z" />
    <glyph glyph-name="Ycircumflex" unicode="&#x176;" horiz-adv-x="765" 
d="M434 302v-302h-97v300l-322 410h123l250 -321l249 321h113zM469 775l-80 89l-81 -89h-98l139 156h78l136 -156h-94z" />
    <glyph glyph-name="Ygrave" unicode="&#x1ef2;" horiz-adv-x="765" 
d="M434 302v-302h-97v300l-322 410h123l250 -321l249 321h113zM448 778h-102l-120 150h110z" />
    <glyph glyph-name="Zacute" unicode="&#x179;" horiz-adv-x="782" 
d="M737 90v-90h-682v57l482 563h-472v90h622v-57l-486 -563h536zM319 778l112 150h110l-120 -150h-102z" />
    <glyph glyph-name="Zdotaccent" unicode="&#x17b;" horiz-adv-x="782" 
d="M737 90v-90h-682v57l482 563h-472v90h622v-57l-486 -563h536zM328 778v143h94v-143h-94z" />
    <glyph glyph-name="abreve" unicode="&#x103;" horiz-adv-x="659" 
d="M474 85c-12 -25 -63 -97 -175 -97c-130 0 -241 96 -241 259c0 161 111 259 241 259c108 0 163 -68 175 -94v82h91v-494h-91v85zM476 247c0 99 -64 175 -160 175c-99 0 -164 -76 -164 -175c0 -98 65 -175 164 -175c96 0 160 77 160 175zM316 645c44 0 63 35 63 72v17h76
v-19c0 -80 -46 -142 -139 -142s-139 62 -139 142v19h76v-17c0 -36 19 -72 63 -72z" />
    <glyph glyph-name="amacron" unicode="&#x101;" horiz-adv-x="659" 
d="M474 85c-12 -25 -63 -97 -175 -97c-130 0 -241 96 -241 259c0 161 111 259 241 259c108 0 163 -68 175 -94v82h91v-494h-91v85zM476 247c0 99 -64 175 -160 175c-99 0 -164 -76 -164 -175c0 -98 65 -175 164 -175c96 0 160 77 160 175zM469 621h-306v78h306v-78z" />
    <glyph glyph-name="aogonek" unicode="&#x105;" horiz-adv-x="659" 
d="M474 85c-12 -25 -63 -97 -175 -97c-130 0 -241 96 -241 259c0 161 111 259 241 259c108 0 163 -68 175 -94v82h91v-494c-63 -52 -101 -81 -101 -112c0 -20 14 -30 37 -30h86v-82h-89c-80 0 -129 31 -129 93c0 56 48 91 105 131v85zM476 247c0 99 -64 175 -160 175
c-99 0 -164 -76 -164 -175c0 -98 65 -175 164 -175c96 0 160 77 160 175z" />
    <glyph glyph-name="aringacute" unicode="&#x1fb;" horiz-adv-x="659" 
d="M474 85c-12 -25 -63 -97 -175 -97c-130 0 -241 96 -241 259c0 161 111 259 241 259c108 0 163 -68 175 -94v82h91v-494h-91v85zM476 247c0 99 -64 175 -160 175c-99 0 -164 -76 -164 -175c0 -98 65 -175 164 -175c96 0 160 77 160 175zM264 860l97 150h98l-104 -150h-91z
M307 567c-75 0 -131 57 -131 127c0 71 57 127 131 127s131 -56 131 -127c0 -70 -56 -127 -131 -127zM307 629c38 0 64 29 64 65c0 37 -26 65 -64 65s-64 -28 -64 -65c0 -36 26 -65 64 -65z" />
    <glyph glyph-name="aeacute" unicode="&#x1fd;" horiz-adv-x="961" 
d="M57 156c0 100 76 154 199 154h161c0 75 -56 117 -135 117c-77 0 -111 -44 -119 -62h-92c13 59 79 142 211 142c95 0 159 -40 187 -92c33 50 102 92 191 92c145 1 251 -107 249 -271l-91 1h-316c5 -92 70 -165 166 -165c98 0 136 53 145 69h90c-7 -42 -71 -153 -235 -153
c-110 0 -185 60 -218 117c-23 -50 -74 -116 -181 -116c-124 0 -212 65 -212 167zM659 428c-79 0 -133 -46 -151 -118h301c-21 75 -76 118 -150 118zM148 156c0 -57 53 -91 121 -91c85 0 148 49 148 122v50h-157c-67 0 -112 -27 -112 -81zM413 579l108 183h100l-115 -183h-93
z" />
    <glyph glyph-name="cacute" unicode="&#x107;" horiz-adv-x="594" 
d="M451 340c-8 16 -46 82 -144 82c-91 0 -156 -78 -156 -175s65 -175 157 -175c100 0 137 65 145 82h90c-6 -34 -58 -166 -235 -166c-141 0 -251 113 -251 259s109 259 250 259c178 0 229 -129 236 -166h-92zM251 579l108 183h100l-115 -183h-93z" />
    <glyph glyph-name="ccaron" unicode="&#x10d;" horiz-adv-x="594" 
d="M451 340c-8 16 -46 82 -144 82c-91 0 -156 -78 -156 -175s65 -175 157 -175c100 0 137 65 145 82h90c-6 -34 -58 -166 -235 -166c-141 0 -251 113 -251 259s109 259 250 259c178 0 229 -129 236 -166h-92zM470 772l-126 -193h-76l-123 193h88l74 -114l74 114h89z" />
    <glyph glyph-name="ccircumflex" unicode="&#x109;" horiz-adv-x="594" 
d="M451 340c-8 16 -46 82 -144 82c-91 0 -156 -78 -156 -175s65 -175 157 -175c100 0 137 65 145 82h90c-6 -34 -58 -166 -235 -166c-141 0 -251 113 -251 259s109 259 250 259c178 0 229 -129 236 -166h-92zM381 576l-74 114l-74 -114h-90l126 193h76l123 -193h-87z" />
    <glyph glyph-name="cdotaccent" unicode="&#x10b;" horiz-adv-x="594" 
d="M451 340c-8 16 -46 82 -144 82c-91 0 -156 -78 -156 -175s65 -175 157 -175c100 0 137 65 145 82h90c-6 -34 -58 -166 -235 -166c-141 0 -251 113 -251 259s109 259 250 259c178 0 229 -129 236 -166h-92zM260 589v143h94v-143h-94z" />
    <glyph glyph-name="dcaron" unicode="&#x10f;" horiz-adv-x="667" 
d="M482 85c-12 -24 -68 -97 -180 -97c-132 0 -244 96 -244 259c0 162 112 259 244 259c111 0 168 -68 180 -94v324h91v-736h-91v85zM484 247c0 100 -66 175 -165 175c-101 0 -167 -75 -167 -175s66 -175 167 -175c99 0 165 75 165 175zM633 579l50 193h86l-57 -193h-79z" />
    <glyph glyph-name="ebreve" unicode="&#x115;" horiz-adv-x="612" 
d="M308 506c145 0 252 -108 252 -270h-411c5 -92 71 -164 168 -164c100 0 138 53 147 69h90c-7 -42 -71 -153 -237 -153c-152 0 -260 114 -260 259c0 150 106 259 251 259zM308 428c-79 0 -134 -45 -153 -116h304c-22 74 -77 116 -151 116zM308 645c44 0 63 35 63 72v17h76
v-19c0 -80 -46 -142 -139 -142s-139 62 -139 142v19h76v-17c0 -36 19 -72 63 -72z" />
    <glyph glyph-name="ecaron" unicode="&#x11b;" horiz-adv-x="612" 
d="M308 506c145 0 252 -108 252 -270h-411c5 -92 71 -164 168 -164c100 0 138 53 147 69h90c-7 -42 -71 -153 -237 -153c-152 0 -260 114 -260 259c0 150 106 259 251 259zM308 428c-79 0 -134 -45 -153 -116h304c-22 74 -77 116 -151 116zM471 772l-126 -193h-76l-123 193
h88l74 -114l74 114h89z" />
    <glyph glyph-name="edotaccent" unicode="&#x117;" horiz-adv-x="612" 
d="M308 506c145 0 252 -108 252 -270h-411c5 -92 71 -164 168 -164c100 0 138 53 147 69h90c-7 -42 -71 -153 -237 -153c-152 0 -260 114 -260 259c0 150 106 259 251 259zM308 428c-79 0 -134 -45 -153 -116h304c-22 74 -77 116 -151 116zM261 589v143h94v-143h-94z" />
    <glyph glyph-name="emacron" unicode="&#x113;" horiz-adv-x="612" 
d="M308 506c145 0 252 -108 252 -270h-411c5 -92 71 -164 168 -164c100 0 138 53 147 69h90c-7 -42 -71 -153 -237 -153c-152 0 -260 114 -260 259c0 150 106 259 251 259zM308 428c-79 0 -134 -45 -153 -116h304c-22 74 -77 116 -151 116zM461 621h-306v78h306v-78z" />
    <glyph glyph-name="eogonek" unicode="&#x119;" horiz-adv-x="612" 
d="M308 506c145 0 252 -108 252 -270h-411c5 -92 71 -164 168 -164c100 0 138 53 147 69h90c-7 -37 -43 -85 -104 -137c-60 -52 -95 -86 -95 -115c0 -20 14 -31 40 -31h83v-82h-89c-80 0 -129 31 -129 93c0 51 45 89 95 121c-12 -1 -25 -2 -38 -2c-152 0 -260 114 -260 259
c0 150 106 259 251 259zM308 428c-79 0 -134 -45 -153 -116h304c-22 74 -77 116 -151 116z" />
    <glyph glyph-name="gbreve" unicode="&#x11f;" horiz-adv-x="667" 
d="M482 84c-12 -26 -68 -97 -180 -97c-132 0 -244 96 -244 259s112 260 244 260c111 0 168 -69 180 -95v83h91v-494c0 -139 -90 -236 -259 -236c-191 0 -245 125 -252 156h100c7 -12 43 -72 152 -72c107 0 168 56 168 152v84zM484 246c0 100 -66 176 -165 176
c-101 0 -167 -76 -167 -176c0 -97 66 -175 167 -175c99 0 165 78 165 175zM315 645c44 0 63 35 63 72v17h76v-19c0 -80 -46 -142 -139 -142s-139 62 -139 142v19h76v-17c0 -36 19 -72 63 -72z" />
    <glyph glyph-name="gcircumflex" unicode="&#x11d;" horiz-adv-x="667" 
d="M482 84c-12 -26 -68 -97 -180 -97c-132 0 -244 96 -244 259s112 260 244 260c111 0 168 -69 180 -95v83h91v-494c0 -139 -90 -236 -259 -236c-191 0 -245 125 -252 156h100c7 -12 43 -72 152 -72c107 0 168 56 168 152v84zM484 246c0 100 -66 176 -165 176
c-101 0 -167 -76 -167 -176c0 -97 66 -175 167 -175c99 0 165 78 165 175zM389 576l-74 114l-74 -114h-90l126 193h76l123 -193h-87z" />
    <glyph glyph-name="uni0123" unicode="&#x123;" horiz-adv-x="667" 
d="M482 84c-12 -26 -68 -97 -180 -97c-132 0 -244 96 -244 259s112 260 244 260c111 0 168 -69 180 -95v83h91v-494c0 -139 -90 -236 -259 -236c-191 0 -245 125 -252 156h100c7 -12 43 -72 152 -72c107 0 168 56 168 152v84zM484 246c0 100 -66 176 -165 176
c-101 0 -167 -76 -167 -176c0 -97 66 -175 167 -175c99 0 165 78 165 175zM286 819h67c-21 -39 -35 -89 -35 -115h52v-115h-112v98c0 60 14 100 28 132z" />
    <glyph glyph-name="gdotaccent" unicode="&#x121;" horiz-adv-x="667" 
d="M482 84c-12 -26 -68 -97 -180 -97c-132 0 -244 96 -244 259s112 260 244 260c111 0 168 -69 180 -95v83h91v-494c0 -139 -90 -236 -259 -236c-191 0 -245 125 -252 156h100c7 -12 43 -72 152 -72c107 0 168 56 168 152v84zM484 246c0 100 -66 176 -165 176
c-101 0 -167 -76 -167 -176c0 -97 66 -175 167 -175c99 0 165 78 165 175zM268 589v143h94v-143h-94z" />
    <glyph glyph-name="hbar" unicode="&#x127;" horiz-adv-x="652" 
d="M185 267v-267h-91v574h-103v74h103v88h91v-88h205v-74h-205v-171c20 40 76 102 168 102c125 0 211 -94 211 -221v-284h-92v267c0 93 -56 154 -141 154c-88 0 -146 -64 -146 -154z" />
    <glyph glyph-name="hcircumflex" unicode="&#x125;" horiz-adv-x="652" 
d="M185 267v-267h-91v736h91v-333c20 40 76 102 168 102c125 0 211 -94 211 -221v-284h-92v267c0 93 -56 154 -141 154c-88 0 -146 -64 -146 -154zM410 801l-80 89l-81 -89h-98l139 156h78l136 -156h-94z" />
    <glyph glyph-name="ibreve" unicode="&#x12d;" horiz-adv-x="281" 
d="M140 645c42 0 60 33 60 68v21h76v-23c0 -78 -45 -138 -136 -138s-136 60 -136 138v23h76v-21c0 -34 18 -68 60 -68zM95 0v494h91v-494h-91z" />
    <glyph glyph-name="idotaccent" horiz-adv-x="281" 
d="M93 589v143h95v-143h-95zM95 0v494h91v-494h-91z" />
    <glyph glyph-name="imacron" unicode="&#x12b;" horiz-adv-x="281" 
d="M280 621h-279v78h279v-78zM95 0v494h91v-494h-91z" />
    <glyph glyph-name="iogonek" unicode="&#x12f;" horiz-adv-x="281" 
d="M93 589v143h95v-143h-95zM95 0v494h91v-494h-91zM207 -142v-82h-89c-80 0 -129 31 -129 94c0 56 46 87 105 130h91c-63 -52 -101 -81 -101 -112c0 -20 14 -30 37 -30h86z" />
    <glyph glyph-name="itilde" unicode="&#x129;" horiz-adv-x="281" 
d="M57 575h-71v76c0 57 25 94 78 94c38 0 58 -19 88 -46l20 -18c15 -13 23 -21 34 -21c12 0 17 9 17 23v67h71v-76c0 -57 -25 -94 -78 -94c-37 0 -58 19 -88 46l-20 18c-16 14 -23 21 -34 21c-12 0 -17 -9 -17 -23v-67zM95 0v494h91v-494h-91z" />
    <glyph glyph-name="jcircumflex" unicode="&#x135;" horiz-adv-x="281" 
d="M212 576l-72 115l-72 -115h-88l122 193h76l119 -193h-85zM186 -53c0 -112 -55 -171 -168 -171h-133v85h118c63 0 92 33 92 96v537h91v-547z" />
    <glyph glyph-name="uni0137" unicode="&#x137;" horiz-adv-x="591" 
d="M454 0l-272 228v-228h-88v736h88v-451l258 209h130l-292 -233l305 -261h-129zM338 -325h-67c21 39 35 89 35 115h-52v115h112v-98c0 -60 -14 -100 -28 -132z" />
    <glyph glyph-name="lacute" unicode="&#x13a;" horiz-adv-x="283" 
d="M96 0v736h91v-736h-91zM91 804l112 150h110l-120 -150h-102z" />
    <glyph glyph-name="lcaron" unicode="&#x13e;" horiz-adv-x="283" 
d="M96 0v736h91v-736h-91zM247 579l50 193h86l-57 -193h-79z" />
    <glyph glyph-name="uni013C" unicode="&#x13c;" horiz-adv-x="283" 
d="M96 0v736h91v-736h-91zM171 -325h-67c21 39 35 89 35 115h-52v115h112v-98c0 -60 -14 -100 -28 -132z" />
    <glyph glyph-name="ldot" unicode="&#x140;" horiz-adv-x="451" 
d="M96 0v736h91v-736h-91zM309 305v142h116v-142h-116z" />
    <glyph glyph-name="nacute" unicode="&#x144;" horiz-adv-x="652" 
d="M185 267v-267h-91v494h91v-91c20 40 76 102 168 102c125 0 211 -94 211 -221v-284h-92v267c0 93 -56 154 -141 154c-88 0 -146 -64 -146 -154zM273 579l108 183h100l-115 -183h-93z" />
    <glyph glyph-name="napostrophe" unicode="&#x149;" horiz-adv-x="881" 
d="M414 267v-267h-91v494h91v-91c20 40 76 102 168 102c125 0 211 -94 211 -221v-284h-92v267c0 93 -56 154 -141 154c-88 0 -146 -64 -146 -154zM136 404h-71c33 62 61 129 61 202h-55v130h116v-120c0 -88 -24 -160 -51 -212z" />
    <glyph glyph-name="ncaron" unicode="&#x148;" horiz-adv-x="652" 
d="M185 267v-267h-91v494h91v-91c20 40 76 102 168 102c125 0 211 -94 211 -221v-284h-92v267c0 93 -56 154 -141 154c-88 0 -146 -64 -146 -154zM492 772l-126 -193h-76l-123 193h88l74 -114l74 114h89z" />
    <glyph glyph-name="uni0146" unicode="&#x146;" horiz-adv-x="652" 
d="M185 267v-267h-91v494h91v-91c20 40 76 102 168 102c125 0 211 -94 211 -221v-284h-92v267c0 93 -56 154 -141 154c-88 0 -146 -64 -146 -154zM359 -325h-67c21 39 35 89 35 115h-52v115h112v-98c0 -60 -14 -100 -28 -132z" />
    <glyph glyph-name="obreve" unicode="&#x14f;" horiz-adv-x="634" 
d="M317 506c147 0 260 -112 260 -259s-113 -259 -260 -259c-148 0 -260 112 -260 259s112 259 260 259zM317 72c99 0 166 77 166 175s-67 175 -166 175s-166 -78 -166 -175s67 -175 166 -175zM317 645c44 0 63 35 63 72v17h76v-19c0 -80 -46 -142 -139 -142
s-139 62 -139 142v19h76v-17c0 -36 19 -72 63 -72z" />
    <glyph glyph-name="ohungarumlaut" unicode="&#x151;" horiz-adv-x="634" 
d="M317 506c147 0 260 -112 260 -259s-113 -259 -260 -259c-148 0 -260 112 -260 259s112 259 260 259zM317 72c99 0 166 77 166 175s-67 175 -166 175s-166 -78 -166 -175s67 -175 166 -175zM361 579l84 183h88l-91 -183h-81zM186 579l84 183h88l-91 -183h-81z" />
    <glyph glyph-name="omacron" unicode="&#x14d;" horiz-adv-x="634" 
d="M317 506c147 0 260 -112 260 -259s-113 -259 -260 -259c-148 0 -260 112 -260 259s112 259 260 259zM317 72c99 0 166 77 166 175s-67 175 -166 175s-166 -78 -166 -175s67 -175 166 -175zM470 621h-306v78h306v-78z" />
    <glyph glyph-name="oslashacute" unicode="&#x1ff;" horiz-adv-x="634" 
d="M577 247c0 -147 -113 -259 -261 -259c-56 0 -108 18 -151 49l-35 -37h-102l84 88c-34 44 -55 99 -55 159c0 148 112 260 259 260c56 0 108 -18 151 -48l33 35h104l-83 -86c35 -45 56 -101 56 -161zM151 247c0 -36 8 -68 22 -95l235 246c-25 15 -56 24 -92 24
c-98 0 -165 -78 -165 -175zM483 247c0 37 -8 70 -23 97l-237 -247c25 -16 57 -25 93 -25c100 0 167 78 167 175zM260 579l108 183h100l-115 -183h-93z" />
    <glyph glyph-name="racute" unicode="&#x155;" horiz-adv-x="514" 
d="M185 279v-279h-91v494h91v-91c14 36 56 95 172 95h124v-91h-126c-127 0 -170 -40 -170 -128zM246 579l108 183h100l-115 -183h-93z" />
    <glyph glyph-name="rcaron" unicode="&#x159;" horiz-adv-x="514" 
d="M185 279v-279h-91v494h91v-91c14 36 56 95 172 95h124v-91h-126c-127 0 -170 -40 -170 -128zM465 772l-126 -193h-76l-123 193h88l74 -114l74 114h89z" />
    <glyph glyph-name="uni0157" unicode="&#x157;" horiz-adv-x="514" 
d="M185 279v-279h-91v494h91v-91c14 36 56 95 172 95h124v-91h-126c-127 0 -170 -40 -170 -128zM169 -325h-67c21 39 35 89 35 115h-52v115h112v-98c0 -60 -14 -100 -28 -132z" />
    <glyph glyph-name="sacute" unicode="&#x15b;" horiz-adv-x="565" 
d="M331 205l-106 12c-95 11 -162 57 -162 147c0 87 82 144 203 144c166 0 222 -86 237 -136h-97c-10 13 -49 58 -140 58c-74 0 -113 -27 -113 -63c0 -35 26 -57 84 -64c39 -5 63 -7 106 -12c116 -14 167 -66 167 -156c0 -83 -76 -149 -216 -149c-174 0 -236 106 -246 152h97
c6 -15 44 -72 149 -72c84 0 125 30 125 69c0 38 -22 62 -88 70zM223 579l108 183h100l-115 -183h-93z" />
    <glyph glyph-name="uni015F" unicode="&#x15f;" horiz-adv-x="565" 
d="M331 205l-106 12c-95 11 -162 57 -162 147c0 87 82 144 203 144c166 0 222 -86 237 -136h-97c-10 13 -49 58 -140 58c-74 0 -113 -27 -113 -63c0 -35 26 -57 84 -64c39 -5 63 -7 106 -12c116 -14 167 -66 167 -156c0 -83 -76 -149 -216 -149h-4v-41h14
c86 0 120 -42 120 -101c0 -60 -34 -109 -117 -109h-137v74h126c28 0 41 13 41 35c0 21 -13 34 -41 34h-86v118c-111 26 -154 104 -162 142h97c6 -15 44 -72 149 -72c84 0 125 30 125 69c0 38 -22 62 -88 70z" />
    <glyph glyph-name="scircumflex" unicode="&#x15d;" horiz-adv-x="565" 
d="M331 205l-106 12c-95 11 -162 57 -162 147c0 87 82 144 203 144c166 0 222 -86 237 -136h-97c-10 13 -49 58 -140 58c-74 0 -113 -27 -113 -63c0 -35 26 -57 84 -64c39 -5 63 -7 106 -12c116 -14 167 -66 167 -156c0 -83 -76 -149 -216 -149c-174 0 -236 106 -246 152h97
c6 -15 44 -72 149 -72c84 0 125 30 125 69c0 38 -22 62 -88 70zM353 576l-74 114l-74 -114h-90l126 193h76l123 -193h-87z" />
    <glyph glyph-name="uni0219" unicode="&#x219;" horiz-adv-x="565" 
d="M331 205l-106 12c-95 11 -162 57 -162 147c0 87 82 144 203 144c166 0 222 -86 237 -136h-97c-10 13 -49 58 -140 58c-74 0 -113 -27 -113 -63c0 -35 26 -57 84 -64c39 -5 63 -7 106 -12c116 -14 167 -66 167 -156c0 -83 -76 -149 -216 -149c-174 0 -236 106 -246 152h97
c6 -15 44 -72 149 -72c84 0 125 30 125 69c0 38 -22 62 -88 70zM328 -325h-67c21 39 35 89 35 115h-52v115h112v-98c0 -60 -14 -100 -28 -132z" />
    <glyph glyph-name="tbar" unicode="&#x167;" horiz-adv-x="516" 
d="M474 84v-84h-117c-117 0 -173 55 -173 165v76h-146v74h146v97h-146v82h146v216h91v-216h199v-82h-199v-97h200v-74h-200v-55c0 -71 24 -102 103 -102h96z" />
    <glyph glyph-name="tcaron" unicode="&#x165;" horiz-adv-x="516" 
d="M466 84v-84h-117c-117 0 -173 55 -173 165v247h-146v82h146v216h91v-216h199v-82h-199v-226c0 -72 24 -102 102 -102h97zM327 579l50 193h86l-57 -193h-79z" />
    <glyph glyph-name="tcommaaccent" unicode="&#x163;" horiz-adv-x="516" 
d="M466 84v-84h-117c-117 0 -173 55 -173 165v247h-146v82h146v216h91v-216h199v-82h-199v-226c0 -72 24 -102 102 -102h97zM310 -325h-67c21 39 35 89 35 115h-52v115h112v-98c0 -60 -14 -100 -28 -132z" />
    <glyph glyph-name="uni021B" unicode="&#x21b;" horiz-adv-x="516" 
d="M466 84v-84h-117c-117 0 -173 55 -173 165v247h-146v82h146v216h91v-216h199v-82h-199v-226c0 -72 24 -102 102 -102h97zM310 -325h-67c21 39 35 89 35 115h-52v115h112v-98c0 -60 -14 -100 -28 -132z" />
    <glyph glyph-name="ubreve" unicode="&#x16d;" horiz-adv-x="639" 
d="M320 -11c-142 0 -232 93 -232 220v285h91v-268c0 -91 51 -152 140 -152s140 61 140 152v268h92v-285c0 -127 -89 -220 -231 -220zM318 645c44 0 63 35 63 72v17h76v-19c0 -80 -46 -142 -139 -142s-139 62 -139 142v19h76v-17c0 -36 19 -72 63 -72z" />
    <glyph glyph-name="uhungarumlaut" unicode="&#x171;" horiz-adv-x="639" 
d="M320 -11c-142 0 -232 93 -232 220v285h91v-268c0 -91 51 -152 140 -152s140 61 140 152v268h92v-285c0 -127 -89 -220 -231 -220zM362 579l84 183h88l-91 -183h-81zM187 579l84 183h88l-91 -183h-81z" />
    <glyph glyph-name="umacron" unicode="&#x16b;" horiz-adv-x="639" 
d="M320 -11c-142 0 -232 93 -232 220v285h91v-268c0 -91 51 -152 140 -152s140 61 140 152v268h92v-285c0 -127 -89 -220 -231 -220zM471 621h-306v78h306v-78z" />
    <glyph glyph-name="uogonek" unicode="&#x173;" horiz-adv-x="639" 
d="M477 -142v-82h-89c-80 0 -129 31 -129 93c0 51 41 86 92 122c-10 -1 -21 -2 -31 -2c-142 0 -232 93 -232 220v285h91v-268c0 -91 51 -152 140 -152s140 61 140 152v268h92v-285c0 -88 -40 -145 -103 -203c-64 -58 -94 -85 -94 -118c0 -20 14 -30 37 -30h86z" />
    <glyph glyph-name="uring" unicode="&#x16f;" horiz-adv-x="639" 
d="M320 -11c-142 0 -232 93 -232 220v285h91v-268c0 -91 51 -152 140 -152s140 61 140 152v268h92v-285c0 -127 -89 -220 -231 -220zM318 567c-75 0 -131 57 -131 127c0 71 57 127 131 127s131 -56 131 -127c0 -70 -56 -127 -131 -127zM318 629c38 0 64 29 64 65
c0 37 -26 65 -64 65s-64 -28 -64 -65c0 -36 26 -65 64 -65z" />
    <glyph glyph-name="utilde" unicode="&#x169;" horiz-adv-x="639" 
d="M320 -11c-142 0 -232 93 -232 220v285h91v-268c0 -91 51 -152 140 -152s140 61 140 152v268h92v-285c0 -127 -89 -220 -231 -220zM229 575h-72v76c0 57 25 94 79 94c38 0 60 -17 91 -43l29 -24c13 -11 23 -18 34 -18c12 0 17 9 17 23v67h72v-76c0 -57 -25 -94 -79 -94
c-38 0 -60 17 -91 43l-29 24c-13 11 -23 18 -34 18c-12 0 -17 -9 -17 -23v-67z" />
    <glyph glyph-name="wacute" unicode="&#x1e83;" horiz-adv-x="869" 
d="M582 -4l-146 373l-146 -373h-73l-189 498h98l134 -365l142 369h76l141 -365l132 361h90l-187 -498h-72zM392 579l108 183h100l-115 -183h-93z" />
    <glyph glyph-name="wcircumflex" unicode="&#x175;" horiz-adv-x="869" 
d="M582 -4l-146 373l-146 -373h-73l-189 498h98l134 -365l142 369h76l141 -365l132 361h90l-187 -498h-72zM513 576l-74 114l-74 -114h-90l126 193h76l123 -193h-87z" />
    <glyph glyph-name="wdieresis" unicode="&#x1e85;" horiz-adv-x="869" 
d="M582 -4l-146 373l-146 -373h-73l-189 498h98l134 -365l142 369h76l141 -365l132 361h90l-187 -498h-72zM299 589v139h92v-139h-92zM487 589v139h92v-139h-92z" />
    <glyph glyph-name="wgrave" unicode="&#x1e81;" horiz-adv-x="869" 
d="M582 -4l-146 373l-146 -373h-73l-189 498h98l134 -365l142 369h76l141 -365l132 361h90l-187 -498h-72zM484 579h-93l-115 183h100z" />
    <glyph glyph-name="ycircumflex" unicode="&#x177;" horiz-adv-x="581" 
d="M558 494l-324 -718h-93l106 235l-224 483h103l169 -376l169 376h94zM369 576l-74 114l-74 -114h-90l126 193h76l123 -193h-87z" />
    <glyph glyph-name="ygrave" unicode="&#x1ef3;" horiz-adv-x="581" 
d="M558 494l-324 -718h-93l106 235l-224 483h103l169 -376l169 376h94zM343 579h-93l-115 183h100z" />
    <glyph glyph-name="zacute" unicode="&#x17a;" horiz-adv-x="606" 
d="M562 81v-81h-506v53l329 360h-321v81h462v-51l-334 -362h370zM239 579l108 183h100l-115 -183h-93z" />
    <glyph glyph-name="zdotaccent" unicode="&#x17c;" horiz-adv-x="606" 
d="M562 81v-81h-506v53l329 360h-321v81h462v-51l-334 -362h370zM248 589v143h94v-143h-94z" />
    <glyph glyph-name="f_b" horiz-adv-x="1154" 
d="M459 412h-192v-412h-91v412h-146v82h146v78c0 105 55 164 176 164h139v-82h-129c-66 0 -95 -33 -95 -95v-65h192v-82zM673 80v-80h-90v736h90v-326c11 25 69 96 180 96c132 0 243 -97 243 -259c0 -163 -111 -259 -243 -259c-110 0 -168 69 -180 92zM671 247
c0 -99 66 -175 166 -175s166 76 166 175c0 100 -66 175 -166 175s-166 -75 -166 -175z" />
    <glyph glyph-name="f_h" horiz-adv-x="1141" 
d="M459 412h-192v-412h-91v412h-146v82h146v78c0 105 55 164 176 164h139v-82h-129c-66 0 -95 -33 -95 -95v-65h192v-82zM674 267v-267h-91v736h91v-333c20 40 76 102 168 102c125 0 211 -94 211 -221v-284h-92v267c0 93 -56 154 -141 154c-88 0 -146 -64 -146 -154z" />
    <glyph glyph-name="f_i" unicode="&#xfb01;" horiz-adv-x="770" 
d="M459 412h-192v-412h-91v412h-146v82h146v78c0 105 55 164 176 164h139v-82h-129c-66 0 -95 -33 -95 -95v-65h192v-82zM582 589v143h95v-143h-95zM584 0v494h91v-494h-91z" />
    <glyph glyph-name="f_j" horiz-adv-x="770" 
d="M459 412h-192v-412h-91v412h-146v82h146v78c0 105 55 164 176 164h139v-82h-129c-66 0 -95 -33 -95 -95v-65h192v-82zM582 589v143h95v-143h-95zM675 -53c0 -112 -55 -171 -168 -171h-133v85h118c63 0 92 33 92 96v537h91v-547z" />
    <glyph glyph-name="f_k" horiz-adv-x="1080" 
d="M459 412h-192v-412h-91v412h-146v82h146v78c0 105 55 164 176 164h139v-82h-129c-66 0 -95 -33 -95 -95v-65h192v-82zM943 0l-272 228v-228h-88v736h88v-451l258 209h130l-292 -233l305 -261h-129z" />
    <glyph glyph-name="f_l" unicode="&#xfb02;" horiz-adv-x="772" 
d="M459 412h-192v-412h-91v412h-146v82h146v78c0 105 55 164 176 164h139v-82h-129c-66 0 -95 -33 -95 -95v-65h192v-82zM585 0v736h91v-736h-91z" />
    <glyph glyph-name="space_uni0326" horiz-adv-x="500" 
d="M279 -325h-67c21 39 35 89 35 115h-52v115h112v-98c0 -60 -14 -100 -28 -132z" />
    <glyph glyph-name="oneeighth" unicode="&#x215b;" horiz-adv-x="959" 
d="M900 115c0 -73 -57 -122 -154 -122h-18c-95 0 -152 49 -152 122c0 62 41 94 72 104c-28 10 -65 38 -65 96c0 70 52 118 146 118h17c95 0 147 -48 147 -118c0 -58 -37 -86 -65 -96c31 -10 72 -42 72 -104zM732 365c-38 0 -65 -21 -65 -57c0 -35 27 -57 65 -57h12
c38 0 64 22 64 57c0 36 -26 57 -64 57h-12zM731 184c-40 0 -69 -23 -69 -61c0 -39 29 -62 69 -62h14c41 0 69 23 69 62c0 38 -28 61 -69 61h-14zM254 0h-92l433 710h92zM233 703v-428h-85v332l-105 -59v79l126 76h64z" />
    <glyph glyph-name="onethird" unicode="&#x2153;" horiz-adv-x="938" 
d="M882 120c0 -75 -60 -127 -161 -127c-111 0 -157 70 -162 128h85c5 -24 27 -53 77 -53c46 0 75 22 75 58s-24 56 -65 56h-79v74h76c35 0 55 18 55 50c0 34 -26 54 -65 54c-44 0 -62 -27 -66 -50h-84c2 58 49 123 150 123c95 0 150 -47 150 -120c0 -49 -31 -77 -56 -88
c31 -10 70 -40 70 -105zM254 0h-92l433 710h92zM233 703v-428h-85v332l-105 -59v79l126 76h64z" />
    <glyph glyph-name="threeeighths" unicode="&#x215c;" horiz-adv-x="1056" 
d="M997 115c0 -73 -57 -122 -154 -122h-18c-95 0 -152 49 -152 122c0 62 41 94 72 104c-28 10 -65 38 -65 96c0 70 52 118 146 118h17c95 0 147 -48 147 -118c0 -58 -37 -86 -65 -96c31 -10 72 -42 72 -104zM829 365c-38 0 -65 -21 -65 -57c0 -35 27 -57 65 -57h12
c38 0 64 22 64 57c0 36 -26 57 -64 57h-12zM828 184c-40 0 -69 -23 -69 -61c0 -39 29 -62 69 -62h14c41 0 69 23 69 62c0 38 -28 61 -69 61h-14zM351 0h-92l433 710h92zM372 395c0 -75 -60 -127 -161 -127c-111 0 -157 70 -162 128h85c5 -24 27 -53 77 -53c46 0 75 22 75 58
s-24 56 -65 56h-79v74h76c35 0 55 18 55 50c0 34 -26 54 -65 54c-44 0 -62 -27 -66 -50h-84c2 58 49 123 150 123c95 0 150 -47 150 -120c0 -49 -31 -77 -56 -88c31 -10 70 -40 70 -105z" />
    <glyph glyph-name="fiveeighths" unicode="&#x215d;" horiz-adv-x="1057" 
d="M998 115c0 -73 -57 -122 -154 -122h-18c-95 0 -152 49 -152 122c0 62 41 94 72 104c-28 10 -65 38 -65 96c0 70 52 118 146 118h17c95 0 147 -48 147 -118c0 -58 -37 -86 -65 -96c31 -10 72 -42 72 -104zM830 365c-38 0 -65 -21 -65 -57c0 -35 27 -57 65 -57h12
c38 0 64 22 64 57c0 36 -26 57 -64 57h-12zM829 184c-40 0 -69 -23 -69 -61c0 -39 29 -62 69 -62h14c41 0 69 23 69 62c0 38 -28 61 -69 61h-14zM352 0h-92l433 710h92zM77 459v242h284v-71h-204v-97c15 16 43 31 83 31c76 0 137 -53 137 -143v-4c0 -86 -61 -149 -160 -149
c-110 0 -158 69 -160 133h84c4 -22 23 -58 76 -58c45 0 75 31 75 74v3c0 44 -30 73 -75 73c-44 0 -61 -25 -66 -34h-74z" />
    <glyph glyph-name="twothirds" unicode="&#x2154;" horiz-adv-x="1056" 
d="M1000 120c0 -75 -60 -127 -161 -127c-111 0 -157 70 -162 128h85c5 -24 27 -53 77 -53c46 0 75 22 75 58s-24 56 -65 56h-79v74h76c35 0 55 18 55 50c0 34 -26 54 -65 54c-44 0 -62 -27 -66 -50h-84c2 58 49 123 150 123c95 0 150 -47 150 -120c0 -49 -31 -77 -56 -88
c31 -10 70 -40 70 -105zM372 0h-92l433 710h92zM380 350v-75h-322v55l151 143c38 37 59 62 59 98s-24 61 -65 61s-66 -28 -66 -69v-23h-81v24c0 83 54 144 147 144c95 0 150 -55 150 -134c0 -66 -37 -106 -92 -156l-74 -68h193z" />
    <glyph glyph-name="seveneighths" unicode="&#x215e;" horiz-adv-x="974" 
d="M915 115c0 -73 -57 -122 -154 -122h-18c-95 0 -152 49 -152 122c0 62 41 94 72 104c-28 10 -65 38 -65 96c0 70 52 118 146 118h17c95 0 147 -48 147 -118c0 -58 -37 -86 -65 -96c31 -10 72 -42 72 -104zM747 365c-38 0 -65 -21 -65 -57c0 -35 27 -57 65 -57h12
c38 0 64 22 64 57c0 36 -26 57 -64 57h-12zM746 184c-40 0 -69 -23 -69 -61c0 -39 29 -62 69 -62h14c41 0 69 23 69 62c0 38 -28 61 -69 61h-14zM269 0h-92l433 710h92zM365 644l-197 -369h-94l191 351h-215v75h315v-57z" />
    <glyph glyph-name="uni2032" unicode="&#x2032;" horiz-adv-x="286" 
d="M134 405h-84l101 305h85z" />
    <glyph glyph-name="uni2033" unicode="&#x2033;" horiz-adv-x="469" 
d="M132 405h-82l101 305h83zM314 405h-82l104 305h83z" />
    <glyph glyph-name="uni24C5" unicode="&#x24c5;" horiz-adv-x="884" 
d="M442 -12c-212 0 -367 158 -367 367c0 207 157 367 367 367c209 0 367 -160 367 -367s-158 -367 -367 -367zM442 56c176 0 293 133 293 299c0 164 -117 299 -293 299s-293 -134 -293 -299c0 -167 118 -299 293 -299zM286 170v374h202c99 0 146 -44 146 -122
c0 -76 -47 -123 -146 -123h-114v-129h-88zM489 468h-115v-92h115c38 0 57 18 57 46c0 31 -19 46 -57 46z" />
    <glyph glyph-name="zero.old" horiz-adv-x="722" 
d="M361 574c166 0 294 -126 294 -292s-128 -294 -294 -294c-167 0 -294 128 -294 294s127 292 294 292zM361 74c118 0 198 92 198 208s-80 206 -198 206s-198 -91 -198 -206s80 -208 198 -208z" />
    <glyph glyph-name="one.old" horiz-adv-x="441" 
d="M319 567v-567h-93v458l-178 -104v90l199 123h72z" />
    <glyph glyph-name="two.old" horiz-adv-x="616" 
d="M552 84v-84h-477v60l199 132c95 63 144 110 144 182c0 67 -44 115 -120 115c-81 0 -128 -62 -128 -134v-6h-93v7c0 119 83 218 221 218c134 0 214 -88 214 -200c0 -111 -89 -184 -187 -244l-75 -46h302z" />
    <glyph glyph-name="three.old" horiz-adv-x="621" 
d="M548 46c0 -122 -90 -206 -242 -206c-161 0 -233 104 -242 200h97c11 -56 54 -114 145 -114c89 0 146 47 146 126c0 80 -53 124 -146 124h-105v86h112c75 0 121 40 121 113c0 71 -54 113 -130 113c-80 0 -119 -48 -129 -108h-96c5 91 74 194 224 194
c146 0 227 -82 227 -195c0 -89 -59 -137 -100 -154c52 -16 118 -69 118 -179z" />
    <glyph glyph-name="four.old" horiz-adv-x="689" 
d="M651 71h-151v-219h-94v219h-360v53l348 438h106v-407h151v-84zM174 155h232v295z" />
    <glyph glyph-name="five.old" horiz-adv-x="646" 
d="M114 158v404h429v-88h-336v-214c27 28 74 52 141 52c121 0 224 -84 224 -234v-1c0 -137 -98 -235 -246 -235c-162 0 -238 101 -246 208h95c7 -48 43 -122 151 -122c89 0 150 62 150 149c0 91 -61 149 -150 149c-88 0 -121 -53 -131 -68h-81z" />
    <glyph glyph-name="six.old" horiz-adv-x="654" 
d="M582 230c0 -136 -95 -242 -256 -242c-162 0 -254 102 -254 242c0 108 52 181 115 263l166 217h115l-206 -263c24 13 54 22 93 22c132 0 227 -92 227 -239zM486 230c0 90 -55 158 -160 158c-97 0 -158 -68 -158 -158c0 -85 57 -156 158 -156c105 0 160 71 160 156z" />
    <glyph glyph-name="seven.old" horiz-adv-x="618" 
d="M563 489l-352 -637h-106l348 622h-388v88h498v-73z" />
    <glyph glyph-name="eight.old" horiz-adv-x="666" 
d="M585 192c0 -120 -97 -204 -243 -204h-23c-142 0 -238 84 -238 204c0 101 71 157 126 174c-50 15 -113 65 -113 160c0 112 85 196 228 196h22c144 0 228 -84 228 -196c0 -95 -63 -145 -113 -160c55 -17 126 -73 126 -174zM322 636c-75 0 -132 -45 -132 -114
s57 -114 132 -114h22c75 0 132 45 132 114s-57 114 -132 114h-22zM320 322c-80 0 -142 -49 -142 -124s62 -124 142 -124h26c81 0 142 49 142 124s-61 124 -142 124h-26z" />
    <glyph glyph-name="nine.old" horiz-adv-x="654" 
d="M467 69l-166 -217h-115l206 263c-24 -13 -54 -22 -93 -22c-132 0 -227 92 -227 239c0 136 95 242 256 242c162 0 254 -102 254 -242c0 -108 -52 -181 -115 -263zM168 332c0 -90 55 -158 160 -158c97 0 158 68 158 158c0 85 -57 156 -158 156c-105 0 -160 -71 -160 -156z
" />
    <glyph glyph-name="space.tab" horiz-adv-x="325" 
 />
    <glyph glyph-name="dollar.tab" horiz-adv-x="650" 
d="M550 191c0 -100 -67 -176 -183 -190v-124h-78v123c-121 14 -188 97 -188 207v6h94v-4c0 -81 54 -127 130 -127c84 0 130 45 130 109c0 63 -40 95 -103 114l-73 22c-111 33 -168 90 -168 202c0 102 75 171 178 184v116h78v-117c108 -14 170 -87 170 -198v-3h-92v3
c0 70 -45 117 -120 117c-72 0 -120 -38 -120 -102c0 -61 39 -94 103 -113l73 -22c108 -33 169 -89 169 -203z" />
    <glyph glyph-name="cent.tab" horiz-adv-x="650" 
d="M556 147c-6 -29 -44 -139 -177 -157v-113h-76v114c-112 20 -192 122 -192 256c0 135 80 238 192 257v108h76v-108c130 -17 168 -124 174 -155h-90c-9 18 -42 74 -122 74c-81 0 -136 -76 -136 -176c0 -99 55 -176 137 -176c87 0 117 58 126 76h88z" />
    <glyph glyph-name="Euro.tab" horiz-adv-x="650" 
d="M17 404v78h118c0 154 93 240 234 240c144 0 233 -86 237 -230h-97c-3 77 -45 143 -140 143c-91 0 -140 -66 -140 -153h182v-78h-182v-91h182v-78h-182v-6c0 -94 52 -153 142 -153c91 0 137 59 138 148h97c-3 -155 -96 -235 -237 -235c-138 0 -234 81 -234 240v6h-118v78
h118v91h-118z" />
    <glyph glyph-name="sterling.tab" horiz-adv-x="650" 
d="M630 88v-88h-598v88h117v186h-117v88h117v149c0 136 82 211 207 211c129 0 207 -73 207 -211v-38h-92v36c0 81 -43 126 -115 126c-70 0 -111 -45 -111 -126v-147h224v-88h-224v-186h385z" />
    <glyph glyph-name="yen.tab" horiz-adv-x="650" 
d="M581 149h-204v-149h-97v149h-204v78h204v91h-204v78h202l-245 314h117l180 -233l179 233h108l-240 -314h204v-78h-204v-91h204v-78z" />
    <glyph glyph-name="florin.tab" horiz-adv-x="650" 
d="M513 342h-189l-89 -556h-92l87 556h-151v83h164l19 119c18 112 62 166 193 166h146v-83h-137c-75 0 -99 -27 -110 -96l-17 -106h176v-83z" />
    <glyph glyph-name="zero.tab" horiz-adv-x="650" 
d="M325 722c147 0 243 -94 243 -254v-226c0 -167 -99 -254 -243 -254s-243 87 -243 254v226c0 160 96 254 243 254zM325 76c98 0 147 71 147 167v224c0 96 -49 167 -147 167s-147 -71 -147 -167v-224c0 -96 49 -167 147 -167z" />
    <glyph glyph-name="one.tab" horiz-adv-x="650" 
d="M454 713v-713h-97v599l-236 -133v92l261 155h72z" />
    <glyph glyph-name="two.tab" horiz-adv-x="650" 
d="M590 88v-88h-499v60l240 237c77 77 121 129 121 206c0 78 -50 131 -132 131s-132 -58 -132 -139v-46h-95v47c0 130 86 226 227 226c142 0 229 -94 229 -219c0 -113 -68 -183 -155 -268l-150 -147h346z" />
    <glyph glyph-name="three.tab" horiz-adv-x="650" 
d="M574 194c0 -122 -94 -206 -253 -206c-169 0 -243 104 -252 200h97c11 -55 58 -112 155 -112c94 0 155 46 155 124c0 79 -53 123 -145 123h-125v88h128c75 0 121 40 121 112c0 70 -56 112 -136 112c-84 0 -125 -48 -135 -107h-96c5 91 76 194 230 194
c149 0 233 -82 233 -195c0 -88 -57 -136 -99 -154c53 -15 122 -67 122 -179z" />
    <glyph glyph-name="four.tab" horiz-adv-x="650" 
d="M610 213h-131v-213h-94v213h-338v53l326 444h106v-413h131v-84zM165 297h220v301z" />
    <glyph glyph-name="five.tab" horiz-adv-x="650" 
d="M114 314v396h436v-88h-344v-206c28 28 76 52 144 52c122 0 227 -84 227 -234v-11c0 -138 -100 -235 -249 -235c-164 0 -241 100 -249 208h95c7 -47 43 -120 154 -120c90 0 153 61 153 147v10c0 90 -62 147 -153 147c-89 0 -124 -50 -134 -66h-80z" />
    <glyph glyph-name="six.tab" horiz-adv-x="650" 
d="M580 230c0 -136 -95 -242 -256 -242c-162 0 -254 102 -254 242c0 108 52 181 115 263l166 217h115l-207 -263c24 13 55 21 94 21c132 0 227 -92 227 -238zM483 230c0 89 -55 156 -159 156c-96 0 -157 -67 -157 -156c0 -84 57 -154 157 -154c104 0 159 70 159 154z" />
    <glyph glyph-name="seven.tab" horiz-adv-x="650" 
d="M579 637l-352 -637h-106l348 622h-388v88h498v-73z" />
    <glyph glyph-name="eight.tab" horiz-adv-x="650" 
d="M580 192c0 -120 -93 -204 -244 -204h-27c-147 0 -239 84 -239 204c0 102 72 157 127 174c-51 15 -113 65 -113 160c0 112 81 196 228 196h26c148 0 228 -84 228 -196c0 -95 -62 -145 -113 -160c55 -17 127 -72 127 -174zM312 636c-79 0 -132 -45 -132 -114
s53 -114 132 -114h26c79 0 132 45 132 114s-53 114 -132 114h-26zM310 322c-84 0 -142 -49 -142 -124s58 -124 142 -124h30c85 0 142 49 142 124s-57 124 -142 124h-30z" />
    <glyph glyph-name="nine.tab" horiz-adv-x="650" 
d="M465 217l-166 -217h-115l207 263c-24 -13 -55 -21 -94 -21c-132 0 -227 92 -227 238c0 136 95 242 256 242c162 0 254 -102 254 -242c0 -108 -52 -181 -115 -263zM167 480c0 -89 55 -156 159 -156c96 0 157 67 157 156c0 84 -57 154 -157 154c-104 0 -159 -70 -159 -154z
" />
    <glyph glyph-name="percent.tab" horiz-adv-x="975" 
d="M232 356c-103 0 -182 79 -182 183s79 183 182 183s182 -79 182 -183s-79 -183 -182 -183zM189 0l502 710h95l-503 -710h-94zM232 430c61 0 103 47 103 109s-42 109 -103 109s-103 -47 -103 -109s42 -109 103 -109zM743 -14c-103 0 -182 79 -182 183s79 183 182 183
s182 -79 182 -183s-79 -183 -182 -183zM743 60c61 0 103 47 103 109s-42 109 -103 109s-103 -47 -103 -109s42 -109 103 -109z" />
    <glyph glyph-name="perthousand.tab" horiz-adv-x="1300" 
d="M221 372c-99 0 -175 75 -175 175c0 99 76 175 175 175s175 -76 175 -175c0 -100 -76 -175 -175 -175zM237 0h-92l504 710h93zM221 447c57 0 96 43 96 100c0 56 -39 100 -96 100s-96 -44 -96 -100c0 -57 39 -100 96 -100zM665 -14c-99 0 -175 75 -175 175
c0 99 76 175 175 175s175 -76 175 -175c0 -100 -76 -175 -175 -175zM1079 -14c-99 0 -175 75 -175 175c0 99 76 175 175 175s175 -76 175 -175c0 -100 -76 -175 -175 -175zM665 61c57 0 96 43 96 100c0 56 -39 100 -96 100s-96 -44 -96 -100c0 -57 39 -100 96 -100zM1079 61
c57 0 96 43 96 100c0 56 -39 100 -96 100s-96 -44 -96 -100c0 -57 39 -100 96 -100z" />
    <glyph glyph-name="plus.tab" horiz-adv-x="650" 
d="M584 276h-218v-226h-82v226h-218v78h218v226h82v-226h218v-78z" />
    <glyph glyph-name="minus.tab" horiz-adv-x="650" 
d="M589 275h-528v80h528v-80z" />
    <glyph glyph-name="multiply.tab" horiz-adv-x="650" 
d="M589 370h-528v77h528v-77zM589 166h-528v77h528v-77z" />
    <glyph glyph-name="divide.tab" horiz-adv-x="650" 
d="M268 447v143h116v-143h-116zM589 275h-528v80h528v-80zM268 30v143h116v-143h-116z" />
    <glyph glyph-name="equal.tab" horiz-adv-x="650" 
d="M561 113l-56 -54l-182 181l-180 -181l-54 54l180 181l-180 179l58 58l179 -181l180 181l54 -54l-180 -181z" />
    <glyph glyph-name="less.tab" horiz-adv-x="650" 
d="M551 147v-87l-461 201v69l461 201v-89l-352 -148z" />
    <glyph glyph-name="greater.tab" horiz-adv-x="650" 
d="M561 261l-461 -201v89l352 148l-352 147v87l461 -201v-69z" />
    <glyph glyph-name="period.tab" horiz-adv-x="325" 
d="M105 0v142h116v-142h-116z" />
    <glyph glyph-name="comma.tab" horiz-adv-x="325" 
d="M168 -214h-74c36 60 74 133 76 214h-54v142h116v-134c0 -88 -34 -172 -64 -222z" />
    <glyph glyph-name="colon.tab" horiz-adv-x="325" 
d="M105 0v142h116v-142h-116zM105 343v142h116v-142h-116z" />
    <glyph glyph-name="semicolon.tab" horiz-adv-x="325" 
d="M105 343v142h116v-142h-116zM157 -214h-74c36 60 74 133 76 214h-54v142h116v-134c0 -88 -34 -172 -64 -222z" />
    <glyph glyph-name="zero.num" unicode="&#xe416;" horiz-adv-x="455" 
d="M228 709c98 0 159 -60 159 -160v-122c0 -102 -62 -160 -159 -160s-160 58 -160 160v122c0 100 62 160 160 160zM228 344c50 0 75 35 75 84v120c0 49 -25 84 -75 84s-75 -35 -75 -84v-120c0 -49 25 -84 75 -84z" />
    <glyph glyph-name="one.num" unicode="&#xe417;" horiz-adv-x="316" 
d="M233 703v-428h-85v332l-105 -59v79l126 76h64z" />
    <glyph glyph-name="two.num" unicode="&#xe418;" horiz-adv-x="419" 
d="M380 350v-75h-322v55l151 143c38 37 59 62 59 98s-24 61 -65 61s-66 -28 -66 -69v-23h-81v24c0 83 54 144 147 144c95 0 150 -55 150 -134c0 -66 -37 -106 -92 -156l-74 -68h193z" />
    <glyph glyph-name="three.num" unicode="&#xe419;" horiz-adv-x="428" 
d="M372 395c0 -75 -60 -127 -161 -127c-111 0 -157 70 -162 128h85c5 -24 27 -53 77 -53c46 0 75 22 75 58s-24 56 -65 56h-79v74h76c35 0 55 18 55 50c0 34 -26 54 -65 54c-44 0 -62 -27 -66 -50h-84c2 58 49 123 150 123c95 0 150 -47 150 -120c0 -49 -31 -77 -56 -88
c31 -10 70 -40 70 -105z" />
    <glyph glyph-name="four.num" unicode="&#xe41a;" horiz-adv-x="460" 
d="M421 387h-84v-112h-81v112h-214v60l193 254h102v-244h84v-70zM129 457h127v170z" />
    <glyph glyph-name="five.num" unicode="&#xe41b;" horiz-adv-x="435" 
d="M77 459v242h284v-71h-204v-97c15 16 43 31 83 31c76 0 137 -53 137 -143v-4c0 -86 -61 -149 -160 -149c-110 0 -158 69 -160 133h84c4 -22 23 -58 76 -58c45 0 75 31 75 74v3c0 44 -30 73 -75 73c-44 0 -61 -25 -66 -34h-74z" />
    <glyph glyph-name="six.num" unicode="&#xe41c;" horiz-adv-x="435" 
d="M381 419c0 -86 -62 -151 -163 -151c-102 0 -163 63 -163 151c0 66 29 109 70 162l93 120h95l-122 -156c13 9 31 15 57 15c79 0 133 -56 133 -141zM296 419c0 44 -28 77 -78 77c-47 0 -78 -33 -78 -77c0 -42 29 -76 78 -76c50 0 78 34 78 76z" />
    <glyph glyph-name="seven.num" unicode="&#xe41d;" horiz-adv-x="411" 
d="M365 644l-197 -369h-94l191 351h-215v75h315v-57z" />
    <glyph glyph-name="eight.num" unicode="&#xe41e;" horiz-adv-x="442" 
d="M383 390c0 -73 -57 -122 -154 -122h-18c-95 0 -152 49 -152 122c0 62 41 94 72 104c-28 10 -65 38 -65 96c0 70 52 118 146 118h17c95 0 147 -48 147 -118c0 -58 -37 -86 -65 -96c31 -10 72 -42 72 -104zM215 640c-38 0 -65 -21 -65 -57c0 -35 27 -57 65 -57h12
c38 0 64 22 64 57c0 36 -26 57 -64 57h-12zM214 459c-40 0 -69 -23 -69 -61c0 -39 29 -62 69 -62h14c41 0 69 23 69 62c0 38 -28 61 -69 61h-14z" />
    <glyph glyph-name="nine.num" unicode="&#xe41f;" horiz-adv-x="435" 
d="M310 395l-93 -120h-95l124 157c-13 -9 -32 -16 -59 -16c-79 0 -133 56 -133 141c0 86 62 151 163 151c102 0 163 -63 163 -151c0 -66 -28 -109 -70 -162zM139 557c0 -44 28 -77 79 -77c47 0 78 33 78 77c0 43 -30 76 -78 76c-51 0 -79 -33 -79 -76z" />
    <glyph glyph-name="zero.den" unicode="&#xe402;" horiz-adv-x="455" 
d="M228 434c98 0 159 -60 159 -160v-122c0 -102 -62 -160 -159 -160s-160 58 -160 160v122c0 100 62 160 160 160zM228 69c50 0 75 35 75 84v120c0 49 -25 84 -75 84s-75 -35 -75 -84v-120c0 -49 25 -84 75 -84z" />
    <glyph glyph-name="one.den" unicode="&#xe403;" horiz-adv-x="316" 
d="M233 428v-428h-85v332l-105 -59v79l126 76h64z" />
    <glyph glyph-name="two.den" unicode="&#xe404;" horiz-adv-x="419" 
d="M380 75v-75h-322v55l151 143c38 37 59 62 59 98s-24 61 -65 61s-66 -28 -66 -69v-23h-81v24c0 83 54 144 147 144c95 0 150 -55 150 -134c0 -66 -37 -106 -92 -156l-74 -68h193z" />
    <glyph glyph-name="three.den" unicode="&#xe405;" horiz-adv-x="428" 
d="M372 120c0 -75 -60 -127 -161 -127c-111 0 -157 70 -162 128h85c5 -24 27 -53 77 -53c46 0 75 22 75 58s-24 56 -65 56h-79v74h76c35 0 55 18 55 50c0 34 -26 54 -65 54c-44 0 -62 -27 -66 -50h-84c2 58 49 123 150 123c95 0 150 -47 150 -120c0 -49 -31 -77 -56 -88
c31 -10 70 -40 70 -105z" />
    <glyph glyph-name="four.den" unicode="&#xe406;" horiz-adv-x="460" 
d="M421 112h-84v-112h-81v112h-214v60l193 254h102v-244h84v-70zM129 182h127v170z" />
    <glyph glyph-name="five.den" unicode="&#xe407;" horiz-adv-x="435" 
d="M77 184v242h284v-71h-204v-97c15 16 43 31 83 31c76 0 137 -53 137 -143v-4c0 -86 -61 -149 -160 -149c-110 0 -158 69 -160 133h84c4 -22 23 -58 76 -58c45 0 75 31 75 74v3c0 44 -30 73 -75 73c-44 0 -61 -25 -66 -34h-74z" />
    <glyph glyph-name="six.den" unicode="&#xe408;" horiz-adv-x="435" 
d="M381 144c0 -86 -62 -151 -163 -151c-102 0 -163 63 -163 151c0 66 29 109 70 162l93 120h95l-122 -156c13 9 31 15 57 15c79 0 133 -56 133 -141zM296 144c0 44 -28 77 -78 77c-47 0 -78 -33 -78 -77c0 -42 29 -76 78 -76c50 0 78 34 78 76z" />
    <glyph glyph-name="seven.den" unicode="&#xe409;" horiz-adv-x="411" 
d="M365 369l-197 -369h-94l191 351h-215v75h315v-57z" />
    <glyph glyph-name="eight.den" unicode="&#xe40a;" horiz-adv-x="442" 
d="M383 115c0 -73 -57 -122 -154 -122h-18c-95 0 -152 49 -152 122c0 62 41 94 72 104c-28 10 -65 38 -65 96c0 70 52 118 146 118h17c95 0 147 -48 147 -118c0 -58 -37 -86 -65 -96c31 -10 72 -42 72 -104zM215 365c-38 0 -65 -21 -65 -57c0 -35 27 -57 65 -57h12
c38 0 64 22 64 57c0 36 -26 57 -64 57h-12zM214 184c-40 0 -69 -23 -69 -61c0 -39 29 -62 69 -62h14c41 0 69 23 69 62c0 38 -28 61 -69 61h-14z" />
    <glyph glyph-name="nine.den" unicode="&#xe40b;" horiz-adv-x="435" 
d="M310 120l-93 -120h-95l124 157c-13 -9 -32 -16 -59 -16c-79 0 -133 56 -133 141c0 86 62 151 163 151c102 0 163 -63 163 -151c0 -66 -28 -109 -70 -162zM139 282c0 -44 28 -77 79 -77c47 0 78 33 78 77c0 43 -30 76 -78 76c-51 0 -79 -33 -79 -76z" />
    <glyph glyph-name="zero.sub" unicode="&#x2080;" horiz-adv-x="520" 
d="M260 379c110 0 180 -69 180 -183v-146c0 -118 -71 -183 -180 -183s-180 65 -180 183v146c0 114 70 183 180 183zM260 -55c63 0 95 45 95 107v142c0 62 -32 107 -95 107s-94 -45 -94 -107v-142c0 -62 31 -107 94 -107z" />
    <glyph glyph-name="one.sub" unicode="&#x2081;" horiz-adv-x="355" 
d="M257 372v-496h-86v398l-122 -70v81l144 87h64z" />
    <glyph glyph-name="two.sub" unicode="&#x2082;" horiz-adv-x="476" 
d="M433 -47v-77h-367v55l173 166c49 47 75 79 75 127c0 46 -30 77 -83 77c-52 0 -83 -35 -83 -87v-28h-83v29c0 95 62 163 167 163c107 0 169 -63 169 -152c0 -78 -43 -125 -108 -185l-94 -88h234z" />
    <glyph glyph-name="three.sub" unicode="&#x2083;" horiz-adv-x="487" 
d="M421 13c0 -86 -67 -145 -180 -145c-125 0 -177 77 -183 144h87c6 -31 35 -68 96 -68c57 0 93 28 93 75c0 48 -31 73 -85 73h-88v76h86c46 0 73 24 73 66c0 43 -34 69 -82 69c-53 0 -77 -32 -83 -65h-85c3 66 55 140 168 140c106 0 168 -55 168 -138
c0 -59 -39 -91 -67 -103c36 -11 82 -47 82 -124z" />
    <glyph glyph-name="four.sub" unicode="&#x2084;" horiz-adv-x="523" 
d="M479 17h-101v-141h-84v141h-246v60l227 293h103v-280h101v-73zM141 90h153v199z" />
    <glyph glyph-name="five.sub" unicode="&#x2085;" horiz-adv-x="496" 
d="M91 91v279h319v-74h-237v-125c19 19 51 36 98 36c86 0 158 -60 158 -164v-6c0 -98 -70 -169 -181 -169c-122 0 -177 75 -180 151h85c4 -29 28 -74 95 -74c57 0 95 38 95 92v5c0 56 -38 92 -95 92c-55 0 -76 -32 -83 -43h-74z" />
    <glyph glyph-name="six.sub" unicode="&#x2086;" horiz-adv-x="497" 
d="M433 40c0 -98 -69 -172 -185 -172c-115 0 -184 72 -184 172c0 76 35 127 81 186l111 144h98l-143 -182c17 10 38 17 67 17c91 0 155 -65 155 -165zM347 40c0 56 -35 97 -99 97c-59 0 -98 -41 -98 -97c0 -53 37 -96 98 -96c64 0 99 43 99 96z" />
    <glyph glyph-name="seven.sub" unicode="&#x2087;" horiz-adv-x="470" 
d="M417 310l-235 -434h-95l229 417h-257v77h358v-60z" />
    <glyph glyph-name="eight.sub" unicode="&#x2088;" horiz-adv-x="505" 
d="M436 10c0 -85 -66 -142 -175 -142h-20c-107 0 -172 57 -172 142c0 73 50 109 87 120c-34 11 -78 44 -78 112c0 80 59 136 165 136h19c107 0 165 -56 165 -136c0 -68 -44 -101 -78 -112c37 -11 87 -47 87 -120zM244 307c-48 0 -80 -27 -80 -71c0 -45 32 -71 80 -71h17
c48 0 80 26 80 71c0 44 -32 71 -80 71h-17zM243 94c-51 0 -87 -30 -87 -78s36 -77 87 -77h19c51 0 87 29 87 77c0 49 -36 78 -87 78h-19z" />
    <glyph glyph-name="nine.sub" unicode="&#x2089;" horiz-adv-x="497" 
d="M351 20l-110 -144h-99l143 181c-16 -9 -37 -16 -66 -16c-92 0 -156 65 -156 165c0 98 70 172 185 172c116 0 184 -72 184 -172c0 -76 -34 -127 -81 -186zM149 206c0 -56 35 -97 99 -97c60 0 98 41 98 97c0 53 -36 96 -98 96c-64 0 -99 -43 -99 -96z" />
    <glyph glyph-name="zero.sup" unicode="&#x2070;" horiz-adv-x="520" 
d="M260 744c110 0 180 -69 180 -183v-146c0 -118 -71 -183 -180 -183s-180 65 -180 183v146c0 114 70 183 180 183zM260 310c63 0 95 45 95 107v142c0 62 -32 107 -95 107s-94 -45 -94 -107v-142c0 -62 31 -107 94 -107z" />
    <glyph glyph-name="one.sup" unicode="&#xb9;" horiz-adv-x="355" 
d="M257 737v-496h-86v398l-122 -70v81l144 87h64z" />
    <glyph glyph-name="two.sup" unicode="&#xb2;" horiz-adv-x="476" 
d="M433 318v-77h-367v55l173 166c49 47 75 79 75 127c0 46 -30 77 -83 77c-52 0 -83 -35 -83 -87v-28h-83v29c0 95 62 163 167 163c107 0 169 -63 169 -152c0 -78 -43 -125 -108 -185l-94 -88h234z" />
    <glyph glyph-name="three.sup" unicode="&#xb3;" horiz-adv-x="487" 
d="M421 378c0 -86 -67 -145 -180 -145c-125 0 -177 77 -183 144h87c6 -31 35 -68 96 -68c57 0 93 28 93 75c0 48 -31 73 -85 73h-88v76h86c46 0 73 24 73 66c0 43 -34 69 -82 69c-53 0 -77 -32 -83 -65h-85c3 66 55 140 168 140c106 0 168 -55 168 -138
c0 -59 -39 -91 -67 -103c36 -11 82 -47 82 -124z" />
    <glyph glyph-name="four.sup" unicode="&#x2074;" horiz-adv-x="523" 
d="M479 382h-101v-141h-84v141h-246v60l227 293h103v-280h101v-73zM141 455h153v199z" />
    <glyph glyph-name="five.sup" unicode="&#x2075;" horiz-adv-x="496" 
d="M91 456v279h319v-74h-237v-125c19 19 51 36 98 36c86 0 158 -60 158 -164v-6c0 -98 -70 -169 -181 -169c-122 0 -177 75 -180 151h85c4 -29 28 -74 95 -74c57 0 95 38 95 92v5c0 56 -38 92 -95 92c-55 0 -76 -32 -83 -43h-74z" />
    <glyph glyph-name="six.sup" unicode="&#x2076;" horiz-adv-x="497" 
d="M433 405c0 -98 -69 -172 -185 -172c-115 0 -184 72 -184 172c0 76 35 127 81 186l111 144h98l-143 -182c17 10 38 17 67 17c91 0 155 -65 155 -165zM347 405c0 56 -35 97 -99 97c-59 0 -98 -41 -98 -97c0 -53 37 -96 98 -96c64 0 99 43 99 96z" />
    <glyph glyph-name="seven.sup" unicode="&#x2077;" horiz-adv-x="470" 
d="M417 675l-235 -434h-95l229 417h-257v77h358v-60z" />
    <glyph glyph-name="eight.sup" unicode="&#x2078;" horiz-adv-x="505" 
d="M436 375c0 -85 -66 -142 -175 -142h-20c-107 0 -172 57 -172 142c0 73 50 109 87 120c-34 11 -78 44 -78 112c0 80 59 136 165 136h19c107 0 165 -56 165 -136c0 -68 -44 -101 -78 -112c37 -11 87 -47 87 -120zM244 672c-48 0 -80 -27 -80 -71c0 -45 32 -71 80 -71h17
c48 0 80 26 80 71c0 44 -32 71 -80 71h-17zM243 459c-51 0 -87 -30 -87 -78s36 -77 87 -77h19c51 0 87 29 87 77c0 49 -36 78 -87 78h-19z" />
    <glyph glyph-name="nine.sup" unicode="&#x2079;" horiz-adv-x="497" 
d="M351 385l-110 -144h-99l143 181c-16 -9 -37 -16 -66 -16c-92 0 -156 65 -156 165c0 98 70 172 185 172c116 0 184 -72 184 -172c0 -76 -34 -127 -81 -186zM149 571c0 -56 35 -97 99 -97c60 0 98 41 98 97c0 53 -36 96 -98 96c-64 0 -99 -43 -99 -96z" />
    <glyph glyph-name="a.alt" 
d="M57 156c0 100 76 154 199 154h169c0 75 -58 117 -139 117c-82 0 -114 -46 -123 -62h-92c13 59 79 142 215 142c143 0 226 -81 226 -196v-183c0 -34 12 -48 44 -51v-82c-71 2 -114 28 -127 77c-24 -37 -76 -83 -164 -83c-118 0 -208 65 -208 167zM273 65
c80 0 152 40 152 122v51h-165c-67 0 -112 -28 -112 -82c0 -57 55 -91 125 -91z" />
    <glyph glyph-name="u.alt" horiz-adv-x="645" 
d="M460 0v91c-19 -40 -74 -102 -165 -102c-123 0 -207 94 -207 221v284h92v-267c0 -93 54 -154 137 -154c86 0 143 64 143 154v267h91v-494h-91z" />
    <glyph glyph-name="aacute.alt" 
d="M57 156c0 100 76 154 199 154h169c0 75 -58 117 -139 117c-82 0 -114 -46 -123 -62h-92c13 59 79 142 215 142c143 0 226 -81 226 -196v-183c0 -34 12 -48 44 -51v-82c-71 2 -114 28 -127 77c-24 -37 -76 -83 -164 -83c-118 0 -208 65 -208 167zM273 65
c80 0 152 40 152 122v51h-165c-67 0 -112 -28 -112 -82c0 -57 55 -91 125 -91zM230 579l108 183h100l-115 -183h-93z" />
    <glyph glyph-name="abreve.alt" 
d="M57 156c0 100 76 154 199 154h169c0 75 -58 117 -139 117c-82 0 -114 -46 -123 -62h-92c13 59 79 142 215 142c143 0 226 -81 226 -196v-183c0 -34 12 -48 44 -51v-82c-71 2 -114 28 -127 77c-24 -37 -76 -83 -164 -83c-118 0 -208 65 -208 167zM273 65
c80 0 152 40 152 122v51h-165c-67 0 -112 -28 -112 -82c0 -57 55 -91 125 -91zM286 645c44 0 63 35 63 72v17h76v-19c0 -80 -46 -142 -139 -142s-139 62 -139 142v19h76v-17c0 -36 19 -72 63 -72z" />
    <glyph glyph-name="acircumflex.alt" 
d="M57 156c0 100 76 154 199 154h169c0 75 -58 117 -139 117c-82 0 -114 -46 -123 -62h-92c13 59 79 142 215 142c143 0 226 -81 226 -196v-183c0 -34 12 -48 44 -51v-82c-71 2 -114 28 -127 77c-24 -37 -76 -83 -164 -83c-118 0 -208 65 -208 167zM273 65
c80 0 152 40 152 122v51h-165c-67 0 -112 -28 -112 -82c0 -57 55 -91 125 -91zM360 576l-74 114l-74 -114h-90l126 193h76l123 -193h-87z" />
    <glyph glyph-name="adieresis.alt" 
d="M57 156c0 100 76 154 199 154h169c0 75 -58 117 -139 117c-82 0 -114 -46 -123 -62h-92c13 59 79 142 215 142c143 0 226 -81 226 -196v-183c0 -34 12 -48 44 -51v-82c-71 2 -114 28 -127 77c-24 -37 -76 -83 -164 -83c-118 0 -208 65 -208 167zM273 65
c80 0 152 40 152 122v51h-165c-67 0 -112 -28 -112 -82c0 -57 55 -91 125 -91zM146 589v139h92v-139h-92zM334 589v139h92v-139h-92z" />
    <glyph glyph-name="agrave.alt" 
d="M57 156c0 100 76 154 199 154h169c0 75 -58 117 -139 117c-82 0 -114 -46 -123 -62h-92c13 59 79 142 215 142c143 0 226 -81 226 -196v-183c0 -34 12 -48 44 -51v-82c-71 2 -114 28 -127 77c-24 -37 -76 -83 -164 -83c-118 0 -208 65 -208 167zM273 65
c80 0 152 40 152 122v51h-165c-67 0 -112 -28 -112 -82c0 -57 55 -91 125 -91zM331 579h-93l-115 183h100z" />
    <glyph glyph-name="amacron.alt" 
d="M57 156c0 100 76 154 199 154h169c0 75 -58 117 -139 117c-82 0 -114 -46 -123 -62h-92c13 59 79 142 215 142c143 0 226 -81 226 -196v-183c0 -34 12 -48 44 -51v-82c-71 2 -114 28 -127 77c-24 -37 -76 -83 -164 -83c-118 0 -208 65 -208 167zM273 65
c80 0 152 40 152 122v51h-165c-67 0 -112 -28 -112 -82c0 -57 55 -91 125 -91zM439 621h-306v78h306v-78z" />
    <glyph glyph-name="aogonek.alt" 
d="M56 156c0 100 76 154 199 154h169c0 75 -58 117 -139 117c-82 0 -114 -46 -123 -62h-92c13 59 79 142 215 142c143 0 226 -81 226 -196v-183c0 -34 12 -48 44 -51v-77c-63 -52 -101 -81 -101 -112c0 -20 14 -30 37 -30h86v-82h-89c-80 0 -129 31 -129 93
c0 65 75 110 122 141c-27 12 -45 32 -53 62c-24 -37 -76 -83 -164 -83c-118 0 -208 65 -208 167zM272 65c80 0 152 40 152 122v51h-165c-67 0 -112 -28 -112 -82c0 -57 55 -91 125 -91z" />
    <glyph glyph-name="aring.alt" 
d="M57 156c0 100 76 154 199 154h169c0 75 -58 117 -139 117c-82 0 -114 -46 -123 -62h-92c13 59 79 142 215 142c143 0 226 -81 226 -196v-183c0 -34 12 -48 44 -51v-82c-71 2 -114 28 -127 77c-24 -37 -76 -83 -164 -83c-118 0 -208 65 -208 167zM273 65
c80 0 152 40 152 122v51h-165c-67 0 -112 -28 -112 -82c0 -57 55 -91 125 -91zM286 567c-75 0 -131 57 -131 127c0 71 57 127 131 127s131 -56 131 -127c0 -70 -56 -127 -131 -127zM286 629c38 0 64 29 64 65c0 37 -26 65 -64 65s-64 -28 -64 -65c0 -36 26 -65 64 -65z" />
    <glyph glyph-name="aringacute.alt" 
d="M57 156c0 100 76 154 199 154h169c0 75 -58 117 -139 117c-82 0 -114 -46 -123 -62h-92c13 59 79 142 215 142c143 0 226 -81 226 -196v-183c0 -34 12 -48 44 -51v-82c-71 2 -114 28 -127 77c-24 -37 -76 -83 -164 -83c-118 0 -208 65 -208 167zM273 65
c80 0 152 40 152 122v51h-165c-67 0 -112 -28 -112 -82c0 -57 55 -91 125 -91zM243 860l97 150h98l-104 -150h-91zM286 567c-75 0 -131 57 -131 127c0 71 57 127 131 127s131 -56 131 -127c0 -70 -56 -127 -131 -127zM286 629c38 0 64 29 64 65c0 37 -26 65 -64 65
s-64 -28 -64 -65c0 -36 26 -65 64 -65z" />
    <glyph glyph-name="atilde.alt" 
d="M57 156c0 100 76 154 199 154h169c0 75 -58 117 -139 117c-82 0 -114 -46 -123 -62h-92c13 59 79 142 215 142c143 0 226 -81 226 -196v-183c0 -34 12 -48 44 -51v-82c-71 2 -114 28 -127 77c-24 -37 -76 -83 -164 -83c-118 0 -208 65 -208 167zM273 65
c80 0 152 40 152 122v51h-165c-67 0 -112 -28 -112 -82c0 -57 55 -91 125 -91zM197 575h-72v76c0 57 25 94 79 94c38 0 60 -17 91 -43l29 -24c13 -11 23 -18 34 -18c12 0 17 9 17 23v67h72v-76c0 -57 -25 -94 -79 -94c-38 0 -60 17 -91 43l-29 24c-13 11 -23 18 -34 18
c-12 0 -17 -9 -17 -23v-67z" />
    <glyph glyph-name="uacute.alt" horiz-adv-x="645" 
d="M460 0v91c-19 -40 -74 -102 -165 -102c-123 0 -207 94 -207 221v284h92v-267c0 -93 54 -154 137 -154c86 0 143 64 143 154v267h91v-494h-91zM260 579l108 183h100l-115 -183h-93z" />
    <glyph glyph-name="ubreve.alt" horiz-adv-x="645" 
d="M460 0v91c-19 -40 -74 -102 -165 -102c-123 0 -207 94 -207 221v284h92v-267c0 -93 54 -154 137 -154c86 0 143 64 143 154v267h91v-494h-91zM316 645c44 0 63 35 63 72v17h76v-19c0 -80 -46 -142 -139 -142s-139 62 -139 142v19h76v-17c0 -36 19 -72 63 -72z" />
    <glyph glyph-name="ucircumflex.alt" horiz-adv-x="645" 
d="M460 0v91c-19 -40 -74 -102 -165 -102c-123 0 -207 94 -207 221v284h92v-267c0 -93 54 -154 137 -154c86 0 143 64 143 154v267h91v-494h-91zM390 576l-74 114l-74 -114h-90l126 193h76l123 -193h-87z" />
    <glyph glyph-name="udieresis.alt" horiz-adv-x="645" 
d="M460 0v91c-19 -40 -74 -102 -165 -102c-123 0 -207 94 -207 221v284h92v-267c0 -93 54 -154 137 -154c86 0 143 64 143 154v267h91v-494h-91zM176 589v139h92v-139h-92zM364 589v139h92v-139h-92z" />
    <glyph glyph-name="ugrave.alt" horiz-adv-x="645" 
d="M460 0v91c-19 -40 -74 -102 -165 -102c-123 0 -207 94 -207 221v284h92v-267c0 -93 54 -154 137 -154c86 0 143 64 143 154v267h91v-494h-91zM361 579h-93l-115 183h100z" />
    <glyph glyph-name="uhungarumlaut.alt" horiz-adv-x="645" 
d="M460 0v91c-19 -40 -74 -102 -165 -102c-123 0 -207 94 -207 221v284h92v-267c0 -93 54 -154 137 -154c86 0 143 64 143 154v267h91v-494h-91zM360 579l84 183h88l-91 -183h-81zM185 579l84 183h88l-91 -183h-81z" />
    <glyph glyph-name="umacron.alt" horiz-adv-x="645" 
d="M460 0v91c-19 -40 -74 -102 -165 -102c-123 0 -207 94 -207 221v284h92v-267c0 -93 54 -154 137 -154c86 0 143 64 143 154v267h91v-494h-91zM469 621h-306v78h306v-78z" />
    <glyph glyph-name="uogonek.alt" horiz-adv-x="645" 
d="M573 -142v-82h-89c-80 0 -129 31 -129 93c0 56 48 91 105 131v91c-19 -40 -74 -102 -165 -102c-123 0 -207 94 -207 221v284h92v-267c0 -93 54 -154 137 -154c86 0 143 64 143 154v267h91v-494c-63 -52 -101 -81 -101 -112c0 -20 14 -30 37 -30h86z" />
    <glyph glyph-name="uring.alt" horiz-adv-x="645" 
d="M460 0v91c-19 -40 -74 -102 -165 -102c-123 0 -207 94 -207 221v284h92v-267c0 -93 54 -154 137 -154c86 0 143 64 143 154v267h91v-494h-91zM316 567c-75 0 -131 57 -131 127c0 71 57 127 131 127s131 -56 131 -127c0 -70 -56 -127 -131 -127zM316 629c38 0 64 29 64 65
c0 37 -26 65 -64 65s-64 -28 -64 -65c0 -36 26 -65 64 -65z" />
    <glyph glyph-name="utilde.alt" horiz-adv-x="645" 
d="M460 0v91c-19 -40 -74 -102 -165 -102c-123 0 -207 94 -207 221v284h92v-267c0 -93 54 -154 137 -154c86 0 143 64 143 154v267h91v-494h-91zM227 575h-72v76c0 57 25 94 79 94c38 0 60 -17 91 -43l29 -24c13 -11 23 -18 34 -18c12 0 17 9 17 23v67h72v-76
c0 -57 -25 -94 -79 -94c-38 0 -60 17 -91 43l-29 24c-13 11 -23 18 -34 18c-12 0 -17 -9 -17 -23v-67z" />
    <glyph glyph-name="space_uni0326.alt" horiz-adv-x="500" 
d="M222 819h67c-21 -39 -35 -89 -35 -115h52v-115h-112v98c0 60 14 100 28 132z" />
    <glyph glyph-name="four.alt" horiz-adv-x="710" 
d="M674 230h-164v-230h-97v230h-308v480h96v-393h212v298h97v-298h164v-87z" />
    <glyph glyph-name="onequarter.alt" horiz-adv-x="1021" 
d="M254 0h-92l433 710h92zM982 122h-84v-122h-84v122h-201v304h84v-231h117v174h84v-174h84v-73zM233 703v-428h-85v332l-105 -59v79l126 76h64z" />
    <glyph glyph-name="threequarters.alt" horiz-adv-x="1118" 
d="M351 0h-92l433 710h92zM1079 122h-84v-122h-84v122h-201v304h84v-231h117v174h84v-174h84v-73zM372 395c0 -75 -60 -127 -161 -127c-111 0 -157 70 -162 128h85c5 -24 27 -53 77 -53c46 0 75 22 75 58s-24 56 -65 56h-79v74h76c35 0 55 18 55 50c0 34 -26 54 -65 54
c-44 0 -62 -27 -66 -50h-84c2 58 49 123 150 123c95 0 150 -47 150 -120c0 -49 -31 -77 -56 -88c31 -10 70 -40 70 -105z" />
    <glyph glyph-name="caron.alt" 
d="M232 579l50 193h86l-57 -193h-79z" />
    <glyph glyph-name="questiondown.uc" horiz-adv-x="544" 
d="M287 478h92v-8c0 -60 -12 -83 -76 -127l-72 -50c-44 -31 -79 -66 -79 -120c0 -62 42 -103 112 -103c71 0 113 50 113 118v32h89v-35c0 -120 -78 -197 -202 -197c-129 0 -205 72 -205 185c0 88 45 138 122 190l72 49c27 19 34 36 34 66zM391 710v-142h-116v142h116z" />
    <glyph glyph-name="exclamdown.uc" horiz-adv-x="336" 
d="M110 569v141h116v-141h-116zM124 0v478h88v-478h-88z" />
    <glyph glyph-name="hyphen.uc" horiz-adv-x="496" 
d="M84 295v86h328v-86h-328z" />
    <glyph glyph-name="endash.uc" horiz-adv-x="704" 
d="M84 300v76h536v-76h-536z" />
    <glyph glyph-name="emdash.uc" horiz-adv-x="1000" 
d="M84 300v76h832v-76h-832z" />
    <glyph glyph-name="quoteleft.uc" horiz-adv-x="292" 
d="M139 710h71c-33 -62 -61 -129 -61 -202h55v-130h-116v120c0 88 24 160 51 212z" />
    <glyph glyph-name="quoteright.uc" horiz-adv-x="292" 
d="M153 378h-71c33 62 61 129 61 202h-55v130h116v-120c0 -88 -24 -160 -51 -212z" />
    <glyph glyph-name="quotedblleft.uc" horiz-adv-x="495" 
d="M139 710h71c-33 -62 -61 -129 -61 -202h55v-130h-116v120c0 88 24 160 51 212zM342 710h71c-33 -62 -61 -129 -61 -202h55v-130h-116v120c0 88 24 160 51 212z" />
    <glyph glyph-name="quotedblright.uc" horiz-adv-x="495" 
d="M356 378h-71c33 62 61 129 61 202h-55v130h116v-120c0 -88 -24 -160 -51 -212zM153 378h-71c33 62 61 129 61 202h-55v130h116v-120c0 -88 -24 -160 -51 -212z" />
    <glyph glyph-name="guilsinglleft.uc" horiz-adv-x="341" 
d="M271 485l-115 -177l115 -179h-93l-113 178l114 178h92z" />
    <glyph glyph-name="guilsinglright.uc" horiz-adv-x="341" 
d="M276 307l-114 -178h-92l115 177l-115 179h93z" />
    <glyph glyph-name="guillemotleft.uc" horiz-adv-x="551" 
d="M265 485l-111 -177l111 -179h-91l-109 178l110 178h90zM481 485l-111 -177l111 -179h-91l-109 178l110 178h90z" />
    <glyph glyph-name="guillemotright.uc" horiz-adv-x="551" 
d="M486 307l-110 -178h-90l111 177l-111 179h91zM270 307l-110 -178h-90l111 177l-111 179h91z" />
    <glyph glyph-name="at.uc" horiz-adv-x="1055" 
d="M948 52c-43 -65 -166 -171 -393 -171c-310 0 -486 202 -486 459c0 270 200 468 479 468c289 0 438 -185 438 -387c0 -169 -92 -296 -222 -296c-73 0 -110 32 -120 71c-22 -35 -71 -71 -145 -71c-116 0 -202 77 -202 210c0 126 86 229 223 229c86 0 132 -45 149 -81l14 76
h84l-51 -288c-8 -46 5 -74 50 -74c66 0 139 73 139 225c0 182 -130 314 -357 314c-229 0 -397 -158 -397 -398c0 -226 158 -384 404 -384c167 0 259 66 297 98h96zM527 482c-84 0 -138 -64 -138 -149c0 -75 42 -126 120 -126c84 0 138 64 138 149c0 75 -41 126 -120 126z
" />
    <glyph glyph-name="grave.uc" 
d="M411 778h-102l-120 150h110z" />
    <glyph glyph-name="dieresis.uc" 
d="M152 778v139h92v-139h-92zM356 778v139h92v-139h-92z" />
    <glyph glyph-name="macron.uc" horiz-adv-x="500" 
d="M415 813h-330v78h330v-78z" />
    <glyph glyph-name="acute.uc" 
d="M189 778l112 150h110l-120 -150h-102z" />
    <glyph glyph-name="circumflex.uc" 
d="M341 775l-80 89l-81 -89h-98l139 156h78l136 -156h-94z" />
    <glyph glyph-name="caron.uc" 
d="M435 931l-139 -156h-78l-136 156h94l81 -89l80 89h98z" />
    <glyph glyph-name="breve.uc" 
d="M300 843c47 0 69 36 69 75v13h76v-15c0 -82 -50 -145 -145 -145s-145 63 -145 145v15h76v-13c0 -38 22 -75 69 -75z" />
    <glyph glyph-name="dotaccent.uc" 
d="M253 778v143h94v-143h-94z" />
    <glyph glyph-name="ring.uc" 
d="M300 768c-75 0 -131 57 -131 127c0 71 57 127 131 127s131 -56 131 -127c0 -70 -56 -127 -131 -127zM300 830c38 0 64 29 64 65c0 37 -26 65 -64 65s-64 -28 -64 -65c0 -36 26 -65 64 -65z" />
    <glyph glyph-name="tilde.uc" 
d="M296 816l-38 22c-14 8 -28 15 -38 15c-12 0 -17 -9 -17 -24v-56h-73v66c0 57 24 94 77 94c35 0 62 -18 97 -38l38 -22c14 -8 27 -15 37 -15c12 0 18 9 18 24v56h73v-66c0 -57 -25 -94 -78 -94c-36 0 -61 18 -96 38z" />
    <glyph glyph-name="hungarumlaut.uc" 
d="M303 778l78 150h92l-85 -150h-85zM127 778l78 150h92l-85 -150h-85z" />
    <glyph glyph-name="A.sc" horiz-adv-x="672" 
d="M535 0l-56 124h-292l-56 -124h-92l256 565h82l256 -565h-98zM225 206h217l-109 239z" />
    <glyph glyph-name="B.sc" horiz-adv-x="680" 
d="M113 0v562h289c122 0 188 -57 188 -152c0 -60 -43 -100 -86 -114c53 -15 99 -62 99 -135c0 -98 -66 -161 -196 -161h-294zM395 480h-190v-150h190c66 0 100 26 100 75c0 52 -34 75 -100 75zM400 249h-195v-167h195c74 0 109 31 109 84s-36 83 -109 83z" />
    <glyph glyph-name="C.sc" horiz-adv-x="676" 
d="M353 -9c-163 0 -281 126 -281 290s118 290 281 290c169 0 244 -112 260 -178h-96c-17 34 -70 92 -164 92c-113 0 -185 -93 -185 -204s72 -204 185 -204c105 0 149 61 166 93h94c-15 -61 -84 -179 -260 -179z" />
    <glyph glyph-name="D.sc" horiz-adv-x="708" 
d="M113 0v562h224c181 0 299 -106 299 -281c0 -172 -118 -281 -299 -281h-224zM337 478h-131v-394h131c124 0 203 76 203 197c0 125 -79 197 -203 197z" />
    <glyph glyph-name="E.sc" horiz-adv-x="645" 
d="M113 0v562h448v-83h-356v-140h213v-84h-213v-171h388v-84h-480z" />
    <glyph glyph-name="F.sc" horiz-adv-x="626" 
d="M113 0v562h467v-84h-374v-142h217v-84h-217v-252h-93z" />
    <glyph glyph-name="G.sc" horiz-adv-x="715" 
d="M623 75c-40 -37 -119 -85 -247 -85c-183 0 -304 120 -304 292c0 167 120 290 287 290c161 0 230 -91 249 -150h-97c-18 23 -63 65 -152 65c-119 0 -192 -89 -192 -205c0 -123 83 -208 210 -208c78 0 131 21 157 40v125h-209v81h298v-245z" />
    <glyph glyph-name="H.sc" horiz-adv-x="737" 
d="M531 0v240h-325v-240h-93v562h93v-237h325v237h93v-562h-93z" />
    <glyph glyph-name="I.sc" horiz-adv-x="321" 
d="M114 0v562h93v-562h-93z" />
    <glyph glyph-name="J.sc" horiz-adv-x="588" 
d="M478 180c0 -122 -77 -189 -195 -189c-116 0 -190 67 -190 189v150h90v-147c0 -63 37 -105 100 -105c65 0 101 42 101 105v379h94v-382z" />
    <glyph glyph-name="K.sc" horiz-adv-x="672" 
d="M521 0l-315 259v-259h-93v562h93v-255l305 255h127l-328 -274l342 -288h-131z" />
    <glyph glyph-name="L.sc" horiz-adv-x="607" 
d="M560 86v-86h-447v562h93v-476h354z" />
    <glyph glyph-name="M.sc" horiz-adv-x="863" 
d="M254 562l180 -431l181 431h135v-562h-89v476l-200 -479h-64l-198 476v-473h-86v562h141z" />
    <glyph glyph-name="N.sc" horiz-adv-x="744" 
d="M631 562v-565h-70l-359 451v-448h-89v562h110l320 -408v408h88z" />
    <glyph glyph-name="O.sc" horiz-adv-x="729" 
d="M364 -9c-168 0 -292 123 -292 290s126 290 292 290c167 0 293 -123 293 -290c0 -166 -126 -290 -293 -290zM364 76c119 0 198 92 198 205c0 112 -79 205 -198 205c-118 0 -197 -92 -197 -205c0 -115 79 -205 197 -205z" />
    <glyph glyph-name="P.sc" horiz-adv-x="671" 
d="M113 0v562h302c125 0 193 -60 193 -168c0 -104 -68 -170 -193 -170h-209v-224h-93zM413 477h-207v-168h207c66 0 99 34 99 84c0 53 -32 84 -99 84z" />
    <glyph glyph-name="Q.sc" horiz-adv-x="729" 
d="M657 281c0 -121 -68 -220 -170 -264l143 -137h-121l-122 113c-8 -1 -15 -1 -23 -1c-167 0 -292 124 -292 289c0 167 126 290 292 290c167 0 293 -123 293 -290zM364 76c119 0 198 92 198 205c0 112 -79 205 -198 205c-118 0 -197 -92 -197 -205c0 -115 79 -205 197 -205z
" />
    <glyph glyph-name="R.sc" horiz-adv-x="688" 
d="M113 0v562h307c122 0 189 -56 189 -164c0 -75 -39 -128 -112 -149l133 -249h-98l-130 239h-196v-239h-93zM414 478h-208v-156h208c66 0 100 24 100 76c0 55 -34 80 -100 80z" />
    <glyph glyph-name="S.sc" horiz-adv-x="639" 
d="M297 490c-83 0 -126 -29 -126 -74c0 -41 36 -65 99 -73l104 -11c104 -11 192 -52 192 -171c0 -96 -77 -171 -234 -171c-180 0 -250 91 -274 172h99c17 -39 64 -91 175 -91c91 0 140 36 140 85c0 59 -43 78 -105 85c-39 5 -65 7 -105 11c-107 11 -185 62 -185 162
c0 97 88 158 220 158c172 0 238 -84 256 -155h-96c-17 33 -62 73 -160 73z" />
    <glyph glyph-name="T.sc" horiz-adv-x="643" 
d="M47 477v85h549v-85h-228v-477h-93v477h-228z" />
    <glyph glyph-name="U.sc" horiz-adv-x="728" 
d="M365 78c102 0 161 68 161 169v315h92v-322c0 -139 -88 -250 -253 -250c-172 0 -255 110 -255 250v322h93v-315c0 -101 57 -169 162 -169z" />
    <glyph glyph-name="V.sc" horiz-adv-x="666" 
d="M625 562l-244 -564h-90l-250 564h106l192 -446l190 446h96z" />
    <glyph glyph-name="W.sc" horiz-adv-x="940" 
d="M620 -3l-149 424l-150 -424h-79l-191 565h101l136 -419l146 422h80l147 -425l137 422h91l-186 -565h-83z" />
    <glyph glyph-name="X.sc" horiz-adv-x="688" 
d="M530 0l-189 220l-190 -220h-110l244 284l-239 278h122l177 -208l179 208h113l-236 -273l246 -289h-117z" />
    <glyph glyph-name="Y.sc" horiz-adv-x="647" 
d="M374 238v-238h-95v237l-253 325h118l185 -240l185 240h107z" />
    <glyph glyph-name="Z.sc" horiz-adv-x="671" 
d="M614 85v-85h-547v54l363 424h-355v84h500v-54l-366 -423h405z" />
    <glyph glyph-name="Oslash.sc" horiz-adv-x="729" 
d="M657 281c0 -166 -127 -290 -293 -290c-62 0 -119 18 -166 49l-37 -40h-101l81 90c-43 50 -69 116 -69 191c0 167 125 290 292 290c62 0 119 -18 166 -49l35 40h104l-82 -91c44 -50 70 -116 70 -190zM167 281c0 -47 12 -90 35 -124l270 301c-30 18 -66 29 -108 29
c-119 0 -197 -92 -197 -206zM562 281c0 47 -12 89 -35 123l-272 -299c30 -19 67 -30 109 -30c119 0 198 92 198 206z" />
    <glyph glyph-name="AE.sc" horiz-adv-x="955" 
d="M903 84v-84h-464v138h-231l-92 -138h-105l381 562h480v-83h-340v-140h196v-84h-196v-171h371zM262 218h177v264z" />
    <glyph glyph-name="OE.sc" horiz-adv-x="977" 
d="M72 281c0 174 123 281 302 281h519v-83h-340v-140h197v-84h-197v-171h372v-84h-551c-179 0 -302 107 -302 281zM374 84h87v394h-87c-126 0 -207 -76 -207 -197s81 -197 207 -197z" />
    <glyph glyph-name="Eth.sc" horiz-adv-x="717" 
d="M30 324h92v238h224c181 0 299 -106 299 -281c0 -172 -118 -281 -299 -281h-224v242h-92v82zM391 242h-176v-158h131c124 0 203 76 203 197c0 125 -79 197 -203 197h-131v-154h176v-82z" />
    <glyph glyph-name="Dcroat.sc" horiz-adv-x="717" 
d="M30 324h92v238h224c181 0 299 -106 299 -281c0 -172 -118 -281 -299 -281h-224v242h-92v82zM391 242h-176v-158h131c124 0 203 76 203 197c0 125 -79 197 -203 197h-131v-154h176v-82z" />
    <glyph glyph-name="Eng.sc" horiz-adv-x="744" 
d="M631 -36c0 -92 -46 -136 -138 -136h-109v78h83c51 0 76 21 76 61c0 24 -11 46 -41 85l-299 392v-444h-90v562h110l319 -423v423h89v-598z" />
    <glyph glyph-name="IJ.sc" horiz-adv-x="909" 
d="M114 0v562h93v-562h-93zM799 180c0 -122 -77 -189 -195 -189c-116 0 -190 67 -190 189v150h90v-147c0 -63 37 -105 100 -105c65 0 101 42 101 105v379h94v-382z" />
    <glyph glyph-name="dotlessj.sc" horiz-adv-x="588" 
d="M478 180c0 -122 -77 -189 -195 -189c-116 0 -190 67 -190 189v150h90v-147c0 -63 37 -105 100 -105c65 0 101 42 101 105v379h94v-382z" />
    <glyph glyph-name="Aacute.sc" horiz-adv-x="672" 
d="M535 0l-56 124h-292l-56 -124h-92l256 565h82l256 -565h-98zM225 206h217l-109 239zM286 630l112 150h110l-120 -150h-102z" />
    <glyph glyph-name="Abreve.sc" horiz-adv-x="672" 
d="M535 0l-56 124h-292l-56 -124h-92l256 565h82l256 -565h-98zM225 206h217l-109 239zM336 695c47 0 69 36 69 75v13h76v-15c0 -82 -50 -145 -145 -145s-145 63 -145 145v15h76v-13c0 -38 22 -75 69 -75z" />
    <glyph glyph-name="Acircumflex.sc" horiz-adv-x="672" 
d="M535 0l-56 124h-292l-56 -124h-92l256 565h82l256 -565h-98zM225 206h217l-109 239zM417 627l-80 89l-81 -89h-98l139 156h78l136 -156h-94z" />
    <glyph glyph-name="Adieresis.sc" horiz-adv-x="672" 
d="M535 0l-56 124h-292l-56 -124h-92l256 565h82l256 -565h-98zM225 206h217l-109 239zM188 630v139h92v-139h-92zM392 630v139h92v-139h-92z" />
    <glyph glyph-name="Agrave.sc" horiz-adv-x="672" 
d="M535 0l-56 124h-292l-56 -124h-92l256 565h82l256 -565h-98zM225 206h217l-109 239zM387 630h-102l-120 150h110z" />
    <glyph glyph-name="Amacron.sc" horiz-adv-x="672" 
d="M535 0l-56 124h-292l-56 -124h-92l256 565h82l256 -565h-98zM225 206h217l-109 239zM501 665h-330v78h330v-78z" />
    <glyph glyph-name="Aogonek.sc" horiz-adv-x="672" 
d="M633 0c-63 -52 -101 -81 -101 -112c0 -20 14 -30 37 -30h86v-82h-89c-80 0 -129 31 -129 94c0 56 42 89 98 130l-56 124h-292l-56 -124h-92l256 565h82zM225 206h217l-109 239z" />
    <glyph glyph-name="Aring.sc" horiz-adv-x="672" 
d="M535 0l-56 124h-292l-56 -124h-92l256 565h82l256 -565h-98zM225 206h217l-109 239zM336 620c-75 0 -131 57 -131 127c0 71 57 127 131 127s131 -56 131 -127c0 -70 -56 -127 -131 -127zM336 682c38 0 64 29 64 65c0 37 -26 65 -64 65s-64 -28 -64 -65
c0 -36 26 -65 64 -65z" />
    <glyph glyph-name="Atilde.sc" horiz-adv-x="672" 
d="M535 0l-56 124h-292l-56 -124h-92l256 565h82l256 -565h-98zM225 206h217l-109 239zM334 668l-38 22c-14 8 -28 15 -38 15c-12 0 -17 -9 -17 -24v-56h-73v66c0 57 24 94 77 94c35 0 62 -18 97 -38l38 -22c14 -8 27 -15 37 -15c12 0 18 9 18 24v56h73v-66
c0 -57 -25 -94 -78 -94c-36 0 -61 18 -96 38z" />
    <glyph glyph-name="AEacute.sc" horiz-adv-x="955" 
d="M903 84v-84h-464v138h-231l-92 -138h-105l381 562h480v-83h-340v-140h196v-84h-196v-171h371zM262 218h177v264zM578 630l112 150h110l-120 -150h-102z" />
    <glyph glyph-name="Cacute.sc" horiz-adv-x="676" 
d="M353 -9c-163 0 -281 126 -281 290s118 290 281 290c169 0 244 -112 260 -178h-96c-17 34 -70 92 -164 92c-113 0 -185 -93 -185 -204s72 -204 185 -204c105 0 149 61 166 93h94c-15 -61 -84 -179 -260 -179zM303 630l112 150h110l-120 -150h-102z" />
    <glyph glyph-name="Ccaron.sc" horiz-adv-x="676" 
d="M353 -9c-163 0 -281 126 -281 290s118 290 281 290c169 0 244 -112 260 -178h-96c-17 34 -70 92 -164 92c-113 0 -185 -93 -185 -204s72 -204 185 -204c105 0 149 61 166 93h94c-15 -61 -84 -179 -260 -179zM531 783l-139 -156h-78l-136 156h94l81 -89l80 89h98z" />
    <glyph glyph-name="Ccedilla.sc" horiz-adv-x="676" 
d="M407 -156c0 21 -13 34 -41 34h-86v122c-124 31 -208 142 -208 281c0 164 118 290 281 290c169 0 244 -112 260 -178h-96c-17 34 -70 92 -164 92c-113 0 -185 -93 -185 -204s72 -204 185 -204c105 0 149 61 166 93h94c-15 -60 -82 -176 -253 -179v-46h14
c86 0 120 -42 120 -101c0 -60 -34 -109 -117 -109h-137v74h126c28 0 41 13 41 35z" />
    <glyph glyph-name="Ccircumflex.sc" horiz-adv-x="676" 
d="M353 -9c-163 0 -281 126 -281 290s118 290 281 290c169 0 244 -112 260 -178h-96c-17 34 -70 92 -164 92c-113 0 -185 -93 -185 -204s72 -204 185 -204c105 0 149 61 166 93h94c-15 -61 -84 -179 -260 -179zM434 627l-80 89l-81 -89h-98l139 156h78l136 -156h-94z" />
    <glyph glyph-name="Cdotaccent.sc" horiz-adv-x="676" 
d="M353 -9c-163 0 -281 126 -281 290s118 290 281 290c169 0 244 -112 260 -178h-96c-17 34 -70 92 -164 92c-113 0 -185 -93 -185 -204s72 -204 185 -204c105 0 149 61 166 93h94c-15 -61 -84 -179 -260 -179zM306 630v143h94v-143h-94z" />
    <glyph glyph-name="Dcaron.sc" horiz-adv-x="708" 
d="M113 0v562h224c181 0 299 -106 299 -281c0 -172 -118 -281 -299 -281h-224zM337 478h-131v-394h131c124 0 203 76 203 197c0 125 -79 197 -203 197zM519 783l-139 -156h-78l-136 156h94l81 -89l80 89h98z" />
    <glyph glyph-name="Eacute.sc" horiz-adv-x="645" 
d="M113 0v562h448v-83h-356v-140h213v-84h-213v-171h388v-84h-480zM287 630l112 150h110l-120 -150h-102z" />
    <glyph glyph-name="Ebreve.sc" horiz-adv-x="645" 
d="M113 0v562h448v-83h-356v-140h213v-84h-213v-171h388v-84h-480zM337 695c47 0 69 36 69 75v13h76v-15c0 -82 -50 -145 -145 -145s-145 63 -145 145v15h76v-13c0 -38 22 -75 69 -75z" />
    <glyph glyph-name="Ecaron.sc" horiz-adv-x="645" 
d="M113 0v562h448v-83h-356v-140h213v-84h-213v-171h388v-84h-480zM515 783l-139 -156h-78l-136 156h94l81 -89l80 89h98z" />
    <glyph glyph-name="Ecircumflex.sc" horiz-adv-x="645" 
d="M113 0v562h448v-83h-356v-140h213v-84h-213v-171h388v-84h-480zM418 627l-80 89l-81 -89h-98l139 156h78l136 -156h-94z" />
    <glyph glyph-name="Edieresis.sc" horiz-adv-x="645" 
d="M113 0v562h448v-83h-356v-140h213v-84h-213v-171h388v-84h-480zM189 630v139h92v-139h-92zM393 630v139h92v-139h-92z" />
    <glyph glyph-name="Edotaccent.sc" horiz-adv-x="645" 
d="M113 0v562h448v-83h-356v-140h213v-84h-213v-171h388v-84h-480zM291 630v143h94v-143h-94z" />
    <glyph glyph-name="Egrave.sc" horiz-adv-x="645" 
d="M113 0v562h448v-83h-356v-140h213v-84h-213v-171h388v-84h-480zM400 630h-102l-120 150h110z" />
    <glyph glyph-name="Emacron.sc" horiz-adv-x="645" 
d="M113 0v562h448v-83h-356v-140h213v-84h-213v-171h388v-84h-480zM502 665h-330v78h330v-78z" />
    <glyph glyph-name="Eogonek.sc" horiz-adv-x="645" 
d="M113 0v562h448v-83h-356v-140h213v-84h-213v-171h388v-84h-74c-63 -52 -101 -81 -101 -112c0 -20 14 -30 37 -30h86v-82h-89c-80 0 -129 31 -129 94c0 56 46 87 105 130h-315z" />
    <glyph glyph-name="Gbreve.sc" horiz-adv-x="715" 
d="M623 75c-40 -37 -119 -85 -247 -85c-183 0 -304 120 -304 292c0 167 120 290 287 290c161 0 230 -91 249 -150h-97c-18 23 -63 65 -152 65c-119 0 -192 -89 -192 -205c0 -123 83 -208 210 -208c78 0 131 21 157 40v125h-209v81h298v-245zM359 695c47 0 69 36 69 75v13h76
v-15c0 -82 -50 -145 -145 -145s-145 63 -145 145v15h76v-13c0 -38 22 -75 69 -75z" />
    <glyph glyph-name="Gcircumflex.sc" horiz-adv-x="715" 
d="M623 75c-40 -37 -119 -85 -247 -85c-183 0 -304 120 -304 292c0 167 120 290 287 290c161 0 230 -91 249 -150h-97c-18 23 -63 65 -152 65c-119 0 -192 -89 -192 -205c0 -123 83 -208 210 -208c78 0 131 21 157 40v125h-209v81h298v-245zM440 627l-80 89l-81 -89h-98
l139 156h78l136 -156h-94z" />
    <glyph glyph-name="Gcommaaccent.sc" horiz-adv-x="715" 
d="M623 75c-40 -37 -119 -85 -247 -85c-183 0 -304 120 -304 292c0 167 120 290 287 290c161 0 230 -91 249 -150h-97c-18 23 -63 65 -152 65c-119 0 -192 -89 -192 -205c0 -123 83 -208 210 -208c78 0 131 21 157 40v125h-209v81h298v-245zM410 -325h-67
c21 39 35 89 35 115h-52v115h112v-98c0 -60 -14 -100 -28 -132z" />
    <glyph glyph-name="Gdotaccent.sc" horiz-adv-x="715" 
d="M623 75c-40 -37 -119 -85 -247 -85c-183 0 -304 120 -304 292c0 167 120 290 287 290c161 0 230 -91 249 -150h-97c-18 23 -63 65 -152 65c-119 0 -192 -89 -192 -205c0 -123 83 -208 210 -208c78 0 131 21 157 40v125h-209v81h298v-245zM312 630v143h94v-143h-94z" />
    <glyph glyph-name="Hbar.sc" horiz-adv-x="737" 
d="M38 407v68h75v87h93v-87h325v87h93v-87h75v-68h-75v-407h-93v240h-325v-240h-93v407h-75zM206 325h325v82h-325v-82z" />
    <glyph glyph-name="Hcircumflex.sc" horiz-adv-x="737" 
d="M531 0v240h-325v-240h-93v562h93v-237h325v237h93v-562h-93zM449 627l-80 89l-81 -89h-98l139 156h78l136 -156h-94z" />
    <glyph glyph-name="Iacute.sc" horiz-adv-x="321" 
d="M114 0v562h93v-562h-93zM110 630l112 150h110l-120 -150h-102z" />
    <glyph glyph-name="Ibreve.sc" horiz-adv-x="321" 
d="M114 0v562h93v-562h-93zM160 695c47 0 69 36 69 75v13h76v-15c0 -82 -50 -145 -145 -145s-145 63 -145 145v15h76v-13c0 -38 22 -75 69 -75z" />
    <glyph glyph-name="Icircumflex.sc" horiz-adv-x="321" 
d="M114 0v562h93v-562h-93zM241 627l-80 89l-81 -89h-98l139 156h78l136 -156h-94z" />
    <glyph glyph-name="Idieresis.sc" horiz-adv-x="321" 
d="M114 0v562h93v-562h-93zM12 630v139h92v-139h-92zM216 630v139h92v-139h-92z" />
    <glyph glyph-name="Idotaccent.sc" horiz-adv-x="321" 
d="M114 0v562h93v-562h-93zM113 630v143h94v-143h-94z" />
    <glyph glyph-name="Igrave.sc" horiz-adv-x="321" 
d="M114 0v562h93v-562h-93zM211 630h-102l-120 150h110z" />
    <glyph glyph-name="Imacron.sc" horiz-adv-x="321" 
d="M114 0v562h93v-562h-93zM325 665h-330v78h330v-78z" />
    <glyph glyph-name="Iogonek.sc" horiz-adv-x="321" 
d="M229 -142v-82h-89c-80 0 -129 31 -129 94c0 56 45 88 103 130v562h93v-562c-63 -52 -101 -81 -101 -112c0 -20 14 -30 37 -30h86z" />
    <glyph glyph-name="Itilde.sc" horiz-adv-x="321" 
d="M114 0v562h93v-562h-93zM156 668l-38 22c-14 8 -28 15 -38 15c-12 0 -17 -9 -17 -24v-56h-73v66c0 57 24 94 77 94c35 0 62 -18 97 -38l38 -22c14 -8 27 -15 37 -15c12 0 18 9 18 24v56h73v-66c0 -57 -25 -94 -78 -94c-36 0 -61 18 -96 38z" />
    <glyph glyph-name="Jcircumflex.sc" horiz-adv-x="588" 
d="M478 180c0 -122 -77 -189 -195 -189c-116 0 -190 67 -190 189v150h90v-147c0 -63 37 -105 100 -105c65 0 101 42 101 105v379h94v-382zM512 627l-80 89l-81 -89h-98l139 156h78l136 -156h-94z" />
    <glyph glyph-name="Kcommaaccent.sc" horiz-adv-x="664" 
d="M521 0l-315 259v-259h-93v562h93v-255l305 255h127l-328 -274l342 -288h-131zM373 -325h-67c21 39 35 89 35 115h-52v115h112v-98c0 -60 -14 -100 -28 -132z" />
    <glyph glyph-name="Lacute.sc" horiz-adv-x="607" 
d="M560 86v-86h-447v562h93v-476h354zM112 630l112 150h110l-120 -150h-102z" />
    <glyph glyph-name="Lcaron.sc" horiz-adv-x="607" 
d="M287 427l50 193h86l-57 -193h-79zM560 86v-86h-447v562h93v-476h354z" />
    <glyph glyph-name="Lcommaaccent.sc" horiz-adv-x="607" 
d="M560 86v-86h-447v562h93v-476h354zM366 -325h-67c21 39 35 89 35 115h-52v115h112v-98c0 -60 -14 -100 -28 -132z" />
    <glyph glyph-name="Ldot.sc" horiz-adv-x="607" 
d="M560 86v-86h-447v562h93v-476h354zM405 256v142h116v-142h-116z" />
    <glyph glyph-name="Lslash.sc" horiz-adv-x="607" 
d="M560 86v-86h-447v175l-83 -40v81l83 41v305h93v-259l217 108v-84l-217 -106v-135h354z" />
    <glyph glyph-name="Nacute.sc" horiz-adv-x="744" 
d="M631 562v-565h-70l-359 451v-448h-89v562h110l320 -408v408h88zM327 630l112 150h110l-120 -150h-102z" />
    <glyph glyph-name="Ncaron.sc" horiz-adv-x="744" 
d="M631 562v-565h-70l-359 451v-448h-89v562h110l320 -408v408h88zM554 783l-139 -156h-78l-136 156h94l81 -89l80 89h98z" />
    <glyph glyph-name="Ncommaaccent.sc" horiz-adv-x="744" 
d="M631 562v-565h-70l-359 451v-448h-89v562h110l320 -408v408h88zM406 -325h-67c21 39 35 89 35 115h-52v115h112v-98c0 -60 -14 -100 -28 -132z" />
    <glyph glyph-name="Ntilde.sc" horiz-adv-x="744" 
d="M631 562v-565h-70l-359 451v-448h-89v562h110l320 -408v408h88zM373 668l-38 22c-14 8 -28 15 -38 15c-12 0 -17 -9 -17 -24v-56h-73v66c0 57 24 94 77 94c35 0 62 -18 97 -38l38 -22c14 -8 27 -15 37 -15c12 0 18 9 18 24v56h73v-66c0 -57 -25 -94 -78 -94
c-36 0 -61 18 -96 38z" />
    <glyph glyph-name="Oacute.sc" horiz-adv-x="729" 
d="M364 -9c-168 0 -292 123 -292 290s126 290 292 290c167 0 293 -123 293 -290c0 -166 -126 -290 -293 -290zM364 76c119 0 198 92 198 205c0 112 -79 205 -198 205c-118 0 -197 -92 -197 -205c0 -115 79 -205 197 -205zM314 630l112 150h110l-120 -150h-102z" />
    <glyph glyph-name="Obreve.sc" horiz-adv-x="729" 
d="M364 -9c-168 0 -292 123 -292 290s126 290 292 290c167 0 293 -123 293 -290c0 -166 -126 -290 -293 -290zM364 76c119 0 198 92 198 205c0 112 -79 205 -198 205c-118 0 -197 -92 -197 -205c0 -115 79 -205 197 -205zM364 695c47 0 69 36 69 75v13h76v-15
c0 -82 -50 -145 -145 -145s-145 63 -145 145v15h76v-13c0 -38 22 -75 69 -75z" />
    <glyph glyph-name="Ocircumflex.sc" horiz-adv-x="729" 
d="M364 -9c-168 0 -292 123 -292 290s126 290 292 290c167 0 293 -123 293 -290c0 -166 -126 -290 -293 -290zM364 76c119 0 198 92 198 205c0 112 -79 205 -198 205c-118 0 -197 -92 -197 -205c0 -115 79 -205 197 -205zM445 627l-80 89l-81 -89h-98l139 156h78l136 -156
h-94z" />
    <glyph glyph-name="Odieresis.sc" horiz-adv-x="729" 
d="M364 -9c-168 0 -292 123 -292 290s126 290 292 290c167 0 293 -123 293 -290c0 -166 -126 -290 -293 -290zM364 76c119 0 198 92 198 205c0 112 -79 205 -198 205c-118 0 -197 -92 -197 -205c0 -115 79 -205 197 -205zM216 630v139h92v-139h-92zM420 630v139h92v-139h-92
z" />
    <glyph glyph-name="Ograve.sc" horiz-adv-x="729" 
d="M364 -9c-168 0 -292 123 -292 290s126 290 292 290c167 0 293 -123 293 -290c0 -166 -126 -290 -293 -290zM364 76c119 0 198 92 198 205c0 112 -79 205 -198 205c-118 0 -197 -92 -197 -205c0 -115 79 -205 197 -205zM415 630h-102l-120 150h110z" />
    <glyph glyph-name="Ohungarumlaut.sc" horiz-adv-x="729" 
d="M364 -9c-168 0 -292 123 -292 290s126 290 292 290c167 0 293 -123 293 -290c0 -166 -126 -290 -293 -290zM364 76c119 0 198 92 198 205c0 112 -79 205 -198 205c-118 0 -197 -92 -197 -205c0 -115 79 -205 197 -205zM406 630l78 150h92l-85 -150h-85zM230 630l78 150
h92l-85 -150h-85z" />
    <glyph glyph-name="Omacron.sc" horiz-adv-x="729" 
d="M364 -9c-168 0 -292 123 -292 290s126 290 292 290c167 0 293 -123 293 -290c0 -166 -126 -290 -293 -290zM364 76c119 0 198 92 198 205c0 112 -79 205 -198 205c-118 0 -197 -92 -197 -205c0 -115 79 -205 197 -205zM529 665h-330v78h330v-78z" />
    <glyph glyph-name="Otilde.sc" horiz-adv-x="729" 
d="M364 -9c-168 0 -292 123 -292 290s126 290 292 290c167 0 293 -123 293 -290c0 -166 -126 -290 -293 -290zM364 76c119 0 198 92 198 205c0 112 -79 205 -198 205c-118 0 -197 -92 -197 -205c0 -115 79 -205 197 -205zM360 668l-38 22c-14 8 -28 15 -38 15
c-12 0 -17 -9 -17 -24v-56h-73v66c0 57 24 94 77 94c35 0 62 -18 97 -38l38 -22c14 -8 27 -15 37 -15c12 0 18 9 18 24v56h73v-66c0 -57 -25 -94 -78 -94c-36 0 -61 18 -96 38z" />
    <glyph glyph-name="Oslashacute.sc" horiz-adv-x="729" 
d="M657 281c0 -166 -127 -290 -293 -290c-62 0 -119 18 -166 49l-37 -40h-101l81 90c-43 50 -69 116 -69 191c0 167 125 290 292 290c62 0 119 -18 166 -49l35 40h104l-82 -91c44 -50 70 -116 70 -190zM167 281c0 -47 12 -90 35 -124l270 301c-30 18 -66 29 -108 29
c-119 0 -197 -92 -197 -206zM562 281c0 47 -12 89 -35 123l-272 -299c30 -19 67 -30 109 -30c119 0 198 92 198 206zM314 630l112 150h110l-120 -150h-102z" />
    <glyph glyph-name="Racute.sc" horiz-adv-x="688" 
d="M113 0v562h307c122 0 189 -56 189 -164c0 -75 -39 -128 -112 -149l133 -249h-98l-130 239h-196v-239h-93zM414 478h-208v-156h208c66 0 100 24 100 76c0 55 -34 80 -100 80zM283 630l112 150h110l-120 -150h-102z" />
    <glyph glyph-name="Rcaron.sc" horiz-adv-x="688" 
d="M113 0v562h307c122 0 189 -56 189 -164c0 -75 -39 -128 -112 -149l133 -249h-98l-130 239h-196v-239h-93zM414 478h-208v-156h208c66 0 100 24 100 76c0 55 -34 80 -100 80zM511 783l-139 -156h-78l-136 156h94l81 -89l80 89h98z" />
    <glyph glyph-name="Rcommaaccent.sc" horiz-adv-x="688" 
d="M113 0v562h307c122 0 189 -56 189 -164c0 -75 -39 -128 -112 -149l133 -249h-98l-130 239h-196v-239h-93zM414 478h-208v-156h208c66 0 100 24 100 76c0 55 -34 80 -100 80zM387 -325h-67c21 39 35 89 35 115h-52v115h112v-98c0 -60 -14 -100 -28 -132z" />
    <glyph glyph-name="Sacute.sc" horiz-adv-x="639" 
d="M297 490c-83 0 -126 -29 -126 -74c0 -41 36 -65 99 -73l104 -11c104 -11 192 -52 192 -171c0 -96 -77 -171 -234 -171c-180 0 -250 91 -274 172h99c17 -39 64 -91 175 -91c91 0 140 36 140 85c0 59 -43 78 -105 85c-39 5 -65 7 -105 11c-107 11 -185 62 -185 162
c0 97 88 158 220 158c172 0 238 -84 256 -155h-96c-17 33 -62 73 -160 73zM262 630l112 150h110l-120 -150h-102z" />
    <glyph glyph-name="Scaron.sc" horiz-adv-x="639" 
d="M297 490c-83 0 -126 -29 -126 -74c0 -41 36 -65 99 -73l104 -11c104 -11 192 -52 192 -171c0 -96 -77 -171 -234 -171c-180 0 -250 91 -274 172h99c17 -39 64 -91 175 -91c91 0 140 36 140 85c0 59 -43 78 -105 85c-39 5 -65 7 -105 11c-107 11 -185 62 -185 162
c0 97 88 158 220 158c172 0 238 -84 256 -155h-96c-17 33 -62 73 -160 73zM490 783l-139 -156h-78l-136 156h94l81 -89l80 89h98z" />
    <glyph glyph-name="Scedilla.sc" horiz-adv-x="639" 
d="M297 490c-83 0 -126 -29 -126 -74c0 -41 36 -65 99 -73l104 -11c104 -11 192 -52 192 -171c0 -96 -77 -171 -234 -171h-13v-45h14c86 0 120 -42 120 -101c0 -60 -34 -109 -117 -109h-137v74h126c28 0 41 13 41 35c0 21 -13 34 -41 34h-86v122c-113 25 -162 96 -181 162
h99c17 -39 64 -91 175 -91c91 0 140 36 140 85c0 59 -43 78 -105 85c-39 5 -65 7 -105 11c-107 11 -185 62 -185 162c0 97 88 158 220 158c172 0 238 -84 256 -155h-96c-17 33 -62 73 -160 73z" />
    <glyph glyph-name="Scircumflex.sc" horiz-adv-x="639" 
d="M297 490c-83 0 -126 -29 -126 -74c0 -41 36 -65 99 -73l104 -11c104 -11 192 -52 192 -171c0 -96 -77 -171 -234 -171c-180 0 -250 91 -274 172h99c17 -39 64 -91 175 -91c91 0 140 36 140 85c0 59 -43 78 -105 85c-39 5 -65 7 -105 11c-107 11 -185 62 -185 162
c0 97 88 158 220 158c172 0 238 -84 256 -155h-96c-17 33 -62 73 -160 73zM393 627l-80 89l-81 -89h-98l139 156h78l136 -156h-94z" />
    <glyph glyph-name="Scommaaccent.sc" horiz-adv-x="639" 
d="M297 490c-83 0 -126 -29 -126 -74c0 -41 36 -65 99 -73l104 -11c104 -11 192 -52 192 -171c0 -96 -77 -171 -234 -171c-180 0 -250 91 -274 172h99c17 -39 64 -91 175 -91c91 0 140 36 140 85c0 59 -43 78 -105 85c-39 5 -65 7 -105 11c-107 11 -185 62 -185 162
c0 97 88 158 220 158c172 0 238 -84 256 -155h-96c-17 33 -62 73 -160 73zM362 -325h-67c21 39 35 89 35 115h-52v115h112v-98c0 -60 -14 -100 -28 -132z" />
    <glyph glyph-name="Tcaron.sc" horiz-adv-x="643" 
d="M47 477v85h549v-85h-228v-477h-93v477h-228zM500 783l-139 -156h-78l-136 156h94l81 -89l80 89h98z" />
    <glyph glyph-name="Tcommaaccent.sc" horiz-adv-x="643" 
d="M47 477v85h549v-85h-228v-477h-93v477h-228zM350 -325h-67c21 39 35 89 35 115h-52v115h112v-98c0 -60 -14 -100 -28 -132z" />
    <glyph glyph-name="uni021A.sc" horiz-adv-x="643" 
d="M47 477v85h549v-85h-228v-477h-93v477h-228zM350 -325h-67c21 39 35 89 35 115h-52v115h112v-98c0 -60 -14 -100 -28 -132z" />
    <glyph glyph-name="Tbar.sc" horiz-adv-x="643" 
d="M47 477v85h549v-85h-228v-145h151v-78h-151v-254h-93v254h-151v78h151v145h-228z" />
    <glyph glyph-name="Thorn.sc" horiz-adv-x="670" 
d="M420 124h-214v-124h-93v562h93v-111h215c121 0 187 -58 187 -162c0 -101 -66 -165 -188 -165zM419 367h-213v-158h213c62 0 93 33 93 79c0 51 -31 79 -93 79z" />
    <glyph glyph-name="Uacute.sc" horiz-adv-x="728" 
d="M365 78c102 0 161 68 161 169v315h92v-322c0 -139 -88 -250 -253 -250c-172 0 -255 110 -255 250v322h93v-315c0 -101 57 -169 162 -169zM304 630l112 150h110l-120 -150h-102z" />
    <glyph glyph-name="Ubreve.sc" horiz-adv-x="728" 
d="M365 78c102 0 161 68 161 169v315h92v-322c0 -139 -88 -250 -253 -250c-172 0 -255 110 -255 250v322h93v-315c0 -101 57 -169 162 -169zM364 695c47 0 69 36 69 75v13h76v-15c0 -82 -50 -145 -145 -145s-145 63 -145 145v15h76v-13c0 -38 22 -75 69 -75z" />
    <glyph glyph-name="Ucircumflex.sc" horiz-adv-x="728" 
d="M365 78c102 0 161 68 161 169v315h92v-322c0 -139 -88 -250 -253 -250c-172 0 -255 110 -255 250v322h93v-315c0 -101 57 -169 162 -169zM445 627l-80 89l-81 -89h-98l139 156h78l136 -156h-94z" />
    <glyph glyph-name="Udieresis.sc" horiz-adv-x="728" 
d="M365 78c102 0 161 68 161 169v315h92v-322c0 -139 -88 -250 -253 -250c-172 0 -255 110 -255 250v322h93v-315c0 -101 57 -169 162 -169zM216 630v139h92v-139h-92zM420 630v139h92v-139h-92z" />
    <glyph glyph-name="Ugrave.sc" horiz-adv-x="728" 
d="M365 78c102 0 161 68 161 169v315h92v-322c0 -139 -88 -250 -253 -250c-172 0 -255 110 -255 250v322h93v-315c0 -101 57 -169 162 -169zM425 630h-102l-120 150h110z" />
    <glyph glyph-name="Uhungarumlaut.sc" horiz-adv-x="728" 
d="M365 78c102 0 161 68 161 169v315h92v-322c0 -139 -88 -250 -253 -250c-172 0 -255 110 -255 250v322h93v-315c0 -101 57 -169 162 -169zM406 630l78 150h92l-85 -150h-85zM230 630l78 150h92l-85 -150h-85z" />
    <glyph glyph-name="Umacron.sc" horiz-adv-x="728" 
d="M365 78c102 0 161 68 161 169v315h92v-322c0 -139 -88 -250 -253 -250c-172 0 -255 110 -255 250v322h93v-315c0 -101 57 -169 162 -169zM529 665h-330v78h330v-78z" />
    <glyph glyph-name="Uogonek.sc" horiz-adv-x="728" 
d="M523 -142v-82h-89c-80 0 -129 31 -129 93c0 52 44 87 92 122c-10 -1 -21 -1 -32 -1c-172 0 -255 110 -255 250v322h93v-315c0 -101 57 -169 162 -169c102 0 161 68 161 169v315h92v-322c0 -105 -47 -176 -121 -236c-66 -54 -97 -82 -97 -114c0 -21 15 -32 39 -32h84z" />
    <glyph glyph-name="Uring.sc" horiz-adv-x="728" 
d="M365 78c102 0 161 68 161 169v315h92v-322c0 -139 -88 -250 -253 -250c-172 0 -255 110 -255 250v322h93v-315c0 -101 57 -169 162 -169zM364 620c-75 0 -131 57 -131 127c0 71 57 127 131 127s131 -56 131 -127c0 -70 -56 -127 -131 -127zM364 682c38 0 64 29 64 65
c0 37 -26 65 -64 65s-64 -28 -64 -65c0 -36 26 -65 64 -65z" />
    <glyph glyph-name="Utilde.sc" horiz-adv-x="728" 
d="M365 78c102 0 161 68 161 169v315h92v-322c0 -139 -88 -250 -253 -250c-172 0 -255 110 -255 250v322h93v-315c0 -101 57 -169 162 -169zM360 668l-38 22c-14 8 -28 15 -38 15c-12 0 -17 -9 -17 -24v-56h-73v66c0 57 24 94 77 94c35 0 62 -18 97 -38l38 -22
c14 -8 27 -15 37 -15c12 0 18 9 18 24v56h73v-66c0 -57 -25 -94 -78 -94c-36 0 -61 18 -96 38z" />
    <glyph glyph-name="Wacute.sc" horiz-adv-x="940" 
d="M620 -3l-149 424l-150 -424h-79l-191 565h101l136 -419l146 422h80l147 -425l137 422h91l-186 -565h-83zM422 630l112 150h110l-120 -150h-102z" />
    <glyph glyph-name="Wcircumflex.sc" horiz-adv-x="940" 
d="M620 -3l-149 424l-150 -424h-79l-191 565h101l136 -419l146 422h80l147 -425l137 422h91l-186 -565h-83zM552 627l-80 89l-81 -89h-98l139 156h78l136 -156h-94z" />
    <glyph glyph-name="Wdieresis.sc" horiz-adv-x="940" 
d="M620 -3l-149 424l-150 -424h-79l-191 565h101l136 -419l146 422h80l147 -425l137 422h91l-186 -565h-83zM323 630v139h92v-139h-92zM527 630v139h92v-139h-92z" />
    <glyph glyph-name="Wgrave.sc" horiz-adv-x="940" 
d="M620 -3l-149 424l-150 -424h-79l-191 565h101l136 -419l146 422h80l147 -425l137 422h91l-186 -565h-83zM522 630h-102l-120 150h110z" />
    <glyph glyph-name="Yacute.sc" horiz-adv-x="647" 
d="M374 238v-238h-95v237l-253 325h118l185 -240l185 240h107zM270 630l112 150h110l-120 -150h-102z" />
    <glyph glyph-name="Ycircumflex.sc" horiz-adv-x="647" 
d="M374 238v-238h-95v237l-253 325h118l185 -240l185 240h107zM410 627l-80 89l-81 -89h-98l139 156h78l136 -156h-94z" />
    <glyph glyph-name="Ydieresis.sc" horiz-adv-x="647" 
d="M374 238v-238h-95v237l-253 325h118l185 -240l185 240h107zM181 630v139h92v-139h-92zM385 630v139h92v-139h-92z" />
    <glyph glyph-name="Ygrave.sc" horiz-adv-x="647" 
d="M374 238v-238h-95v237l-253 325h118l185 -240l185 240h107zM388 630h-102l-120 150h110z" />
    <glyph glyph-name="Zacute.sc" horiz-adv-x="671" 
d="M614 85v-85h-547v54l363 424h-355v84h500v-54l-366 -423h405zM265 630l112 150h110l-120 -150h-102z" />
    <glyph glyph-name="Zcaron.sc" horiz-adv-x="671" 
d="M614 85v-85h-547v54l363 424h-355v84h500v-54l-366 -423h405zM502 783l-139 -156h-78l-136 156h94l81 -89l80 89h98z" />
    <glyph glyph-name="Zdotaccent.sc" horiz-adv-x="671" 
d="M614 85v-85h-547v54l363 424h-355v84h500v-54l-366 -423h405zM276 630v143h94v-143h-94z" />
    <glyph glyph-name="germandbls.sc" horiz-adv-x="1278" 
d="M297 490c-83 0 -126 -29 -126 -74c0 -41 36 -65 99 -73l104 -11c104 -11 192 -52 192 -171c0 -96 -77 -171 -234 -171c-180 0 -250 91 -274 172h99c17 -39 64 -91 175 -91c91 0 140 36 140 85c0 59 -43 78 -105 85c-39 5 -65 7 -105 11c-107 11 -185 62 -185 162
c0 97 88 158 220 158c172 0 238 -84 256 -155h-96c-17 33 -62 73 -160 73zM936 490c-83 0 -126 -29 -126 -74c0 -41 36 -65 99 -73l104 -11c104 -11 192 -52 192 -171c0 -96 -77 -171 -234 -171c-180 0 -250 91 -274 172h99c17 -39 64 -91 175 -91c91 0 140 36 140 85
c0 59 -43 78 -105 85c-39 5 -65 7 -105 11c-107 11 -185 62 -185 162c0 97 88 158 220 158c172 0 238 -84 256 -155h-96c-17 33 -62 73 -160 73z" />
    <glyph glyph-name="napostrophe.sc" horiz-adv-x="964" 
d="M851 562v-565h-70l-359 451v-448h-89v562h110l320 -408v408h88zM136 404h-71c33 62 61 129 61 202h-55v130h116v-120c0 -88 -24 -160 -51 -212z" />
    <glyph glyph-name="f.short" horiz-adv-x="489" 
d="M459 412h-192v-412h-91v412h-146v82h146v78c0 105 55 164 176 164h139v-82h-129c-66 0 -95 -33 -95 -95v-65h192v-82z" />
    <glyph glyph-name="f_f.short" horiz-adv-x="843" 
d="M530 0v412h-263v-412h-91v412h-146v82h146v78c0 105 55 164 176 164h110v-82h-100c-66 0 -95 -33 -95 -95v-65h263v78c0 105 55 164 176 164h139v-82h-129c-66 0 -95 -33 -95 -95v-65h192v-82h-192v-412h-91z" />
    <glyph glyph-name="four.denalt" horiz-adv-x="488" 
d="M449 122h-84v-122h-84v122h-201v304h84v-231h117v174h84v-174h84v-73z" />
    <glyph glyph-name="four.numalt" horiz-adv-x="488" 
d="M449 397h-84v-122h-84v122h-201v304h84v-231h117v174h84v-174h84v-73z" />
    <glyph glyph-name="four.oldalt" horiz-adv-x="722" 
d="M684 82h-164v-230h-97v230h-308v480h96v-393h212v298h97v-298h164v-87z" />
    <glyph glyph-name="four.subalt" horiz-adv-x="543" 
d="M499 20h-106v-144h-84v144h-223v350h83v-273h140v208h84v-208h106v-77z" />
    <glyph glyph-name="four.supalt" horiz-adv-x="543" 
d="M499 385h-106v-144h-84v144h-223v350h83v-273h140v208h84v-208h106v-77z" />
    <glyph glyph-name="four.tabalt" horiz-adv-x="650" 
d="M610 223h-130v-223h-96v223h-292v487h96v-400h196v295h96v-295h130v-87z" />
    <glyph glyph-name="uni200A" unicode="&#x200a;" horiz-adv-x="83" 
 />
    <glyph glyph-name="j.short" horiz-adv-x="281" 
d="M93 589v143h95v-143h-95zM186 -53c0 -112 -55 -171 -168 -171h-74v85h59c63 0 92 33 92 96v537h91v-547z" />
    <glyph glyph-name="ringacute" 
d="M257 860l97 150h98l-104 -150h-91zM300 567c-75 0 -131 57 -131 127c0 71 57 127 131 127s131 -56 131 -127c0 -70 -56 -127 -131 -127zM300 629c38 0 64 29 64 65c0 37 -26 65 -64 65s-64 -28 -64 -65c0 -36 26 -65 64 -65z" />
    <glyph glyph-name="ringacute.uc" 
d="M253 1061l104 140h106l-112 -140h-98zM300 768c-75 0 -131 57 -131 127c0 71 57 127 131 127s131 -56 131 -127c0 -70 -56 -127 -131 -127zM300 830c38 0 64 29 64 65c0 37 -26 65 -64 65s-64 -28 -64 -65c0 -36 26 -65 64 -65z" />
    <glyph glyph-name="uni0192" unicode="&#x192;" horiz-adv-x="583" 
d="M479 342h-189l-89 -556h-92l87 556h-151v83h164l19 119c18 112 62 166 193 166h146v-83h-137c-75 0 -99 -27 -110 -96l-17 -106h176v-83z" />
    <glyph glyph-name="uni01FA.sc" horiz-adv-x="672" 
d="M535 0l-56 124h-292l-56 -124h-92l256 565h82l256 -565h-98zM225 206h217l-109 239zM289 913l104 140h106l-112 -140h-98zM336 620c-75 0 -131 57 -131 127c0 71 57 127 131 127s131 -56 131 -127c0 -70 -56 -127 -131 -127zM336 682c38 0 64 29 64 65
c0 37 -26 65 -64 65s-64 -28 -64 -65c0 -36 26 -65 64 -65z" />
    <glyph glyph-name="uni0237" unicode="&#x237;" horiz-adv-x="281" 
d="M186 -53c0 -112 -55 -171 -168 -171h-133v85h118c63 0 92 33 92 96v537h91v-547z" />
    <glyph glyph-name="uni2009" unicode="&#x2009;" horiz-adv-x="166" 
 />
    <glyph glyph-name="exclam" unicode="!" horiz-adv-x="336" 
d="M123 232v478h90v-478h-90zM110 0v142h116v-142h-116z" />
    <glyph glyph-name="won" unicode="&#x20a9;" horiz-adv-x="1016" 
d="M661 -4l-86 322h-128l-86 -322h-84l-87 322h-140v78h119l-85 314h96l81 -314h123l83 318h91l83 -318h125l79 314h87l-80 -314h114v-78h-134l-82 -322h-89zM468 396h86l-43 161zM281 318l41 -159l42 159h-83zM662 318l43 -165l42 165h-85z" />
    </font>
</defs>
</svg>
