<?xml version="1.0" standalone="no"?>
<!DOCTYPE svg PUBLIC "-//W3C//DTD SVG 1.1//EN" "http://www.w3.org/Graphics/SVG/1.1/DTD/svg11.dtd" >
<svg xmlns="http://www.w3.org/2000/svg" xmlns:xlink="http://www.w3.org/1999/xlink" version="1.1">
<metadata>
Created by FontForge 20190801 at Fri Jun  9 18:08:40 2017
 By Jimmy Wärting
Copyright \\\(C\\\)2016 Commercial Type.
</metadata>
<defs>
<font id="StyreneA-Medium" horiz-adv-x="600" >
  <font-face 
    font-family="Styrene A Medium"
    font-weight="500"
    font-stretch="normal"
    units-per-em="1000"
    panose-1="0 0 0 0 0 0 0 0 0 0"
    ascent="764"
    descent="-236"
    x-height="506"
    cap-height="710"
    bbox="-111 -322 1382 1208"
    underline-thickness="76"
    underline-position="-76"
    stemh="122"
    stemv="127"
    unicode-range="U+0020-FB02"
  />
<missing-glyph horiz-adv-x="500" 
 />
    <glyph glyph-name=".notdef" horiz-adv-x="500" 
 />
    <glyph glyph-name="space" unicode=" " horiz-adv-x="258" 
 />
    <glyph glyph-name="quotedbl" unicode="&#x22;" horiz-adv-x="498" 
d="M202 403h-111v307h111v-307zM407 403h-111v307h111v-307z" />
    <glyph glyph-name="numbersign" unicode="#" horiz-adv-x="748" 
d="M346 0l49 179h-142l-50 -179h-108l49 179h-117v96h144l47 171h-118v96h145l46 168h109l-47 -168h143l46 168h109l-47 -168h117v-96h-143l-48 -171h118v-96h-144l-50 -179h-108zM279 275h143l47 171h-142z" />
    <glyph glyph-name="dollar" unicode="$" horiz-adv-x="607" 
d="M541 198c0 -101 -65 -177 -181 -196v-125h-110v125c-117 18 -184 100 -184 210v4h126v-2c0 -68 46 -107 111 -107c71 0 108 37 108 89c0 51 -31 78 -85 94l-81 23c-112 34 -170 93 -170 208c0 103 71 173 175 190v118h110v-119c108 -19 164 -92 165 -197v-2h-124v2
c-1 54 -37 93 -99 93c-60 0 -99 -31 -99 -83c0 -49 31 -76 86 -92c12 -4 67 -19 81 -24c111 -33 171 -93 171 -209z" />
    <glyph glyph-name="percent" unicode="%" horiz-adv-x="1003" 
d="M245 348c-106 0 -188 81 -188 187s82 187 188 187s188 -81 188 -187s-82 -187 -188 -187zM186 0l512 710h119l-512 -710h-119zM245 443c52 0 88 40 88 92c0 51 -36 91 -88 91s-87 -40 -87 -91c0 -52 35 -92 87 -92zM758 -14c-106 0 -188 81 -188 187s82 187 188 187
s188 -81 188 -187s-82 -187 -188 -187zM758 82c52 0 88 40 88 91c0 52 -36 92 -88 92c-51 0 -87 -40 -87 -92c0 -51 36 -91 87 -91z" />
    <glyph glyph-name="ampersand" unicode="&#x26;" horiz-adv-x="791" 
d="M616 0l-107 103c-64 -66 -127 -115 -231 -115c-137 0 -228 74 -228 190c0 105 78 166 160 214c-48 50 -83 99 -83 162c0 94 79 168 197 168c129 0 202 -69 202 -168c0 -87 -73 -141 -136 -179l114 -113l122 132h147l-190 -210l186 -184h-153zM250 553
c0 -41 35 -75 72 -111c46 31 84 63 84 109s-34 73 -79 73c-44 0 -77 -29 -77 -71zM180 191c0 -51 39 -90 101 -90c56 0 98 28 148 79l-146 141c-55 -38 -103 -71 -103 -130z" />
    <glyph glyph-name="quotesingle" unicode="'" horiz-adv-x="296" 
d="M205 403h-114v307h114v-307z" />
    <glyph glyph-name="parenleft" unicode="(" horiz-adv-x="364" 
d="M317 822c-49 -92 -124 -240 -124 -472s75 -382 124 -474h-116c-48 92 -121 248 -121 474s73 380 121 472h116z" />
    <glyph glyph-name="parenright" unicode=")" horiz-adv-x="364" 
d="M47 -124c49 92 124 242 124 474s-75 380 -124 472h116c48 -92 122 -246 122 -472s-74 -382 -122 -474h-116z" />
    <glyph glyph-name="asterisk" unicode="*" horiz-adv-x="484" 
d="M407 396l-72 -54l-92 117l-93 -117l-72 54l96 118l-138 47l30 82l130 -45v139h92l-1 -139l131 45l30 -82l-137 -47z" />
    <glyph glyph-name="plus" unicode="+" horiz-adv-x="696" 
d="M616 266h-209v-217h-118v217h-209v112h209v216h118v-216h209v-112z" />
    <glyph glyph-name="comma" unicode="," horiz-adv-x="313" 
d="M170 -207h-95c37 60 74 133 77 207h-72v170h153v-154c0 -89 -32 -170 -63 -223z" />
    <glyph glyph-name="hyphen" unicode="-" horiz-adv-x="493" 
d="M80 239v118h333v-118h-333z" />
    <glyph glyph-name="period" unicode="." horiz-adv-x="313" 
d="M80 0v170h153v-170h-153z" />
    <glyph glyph-name="slash" unicode="/" horiz-adv-x="422" 
d="M27 -70l249 830h113l-249 -830h-113z" />
    <glyph glyph-name="zero" unicode="0" horiz-adv-x="695" 
d="M348 723c160 0 261 -99 261 -263v-210c0 -168 -103 -263 -261 -263s-261 95 -261 263v210c0 164 101 263 261 263zM348 107c85 0 129 61 129 145v206c0 84 -44 145 -129 145c-86 0 -129 -61 -129 -145v-206c0 -84 43 -145 129 -145z" />
    <glyph glyph-name="one" unicode="1" horiz-adv-x="459" 
d="M351 713v-713h-132v563l-175 -100v124l208 126h99z" />
    <glyph glyph-name="two" unicode="2" horiz-adv-x="630" 
d="M592 117v-117h-525v86l252 238c66 63 101 106 101 170s-40 109 -110 109c-69 0 -111 -49 -111 -118v-42h-130v45c0 132 88 234 241 234c154 0 244 -94 244 -225c0 -111 -66 -179 -154 -261l-126 -119h318z" />
    <glyph glyph-name="three" unicode="3" horiz-adv-x="649" 
d="M586 200c0 -127 -98 -212 -267 -212c-182 0 -260 114 -267 210h133c9 -41 48 -92 134 -92c83 0 133 38 133 102s-42 99 -115 99h-134v116h130c61 0 98 32 98 90s-46 93 -116 93c-76 0 -109 -44 -117 -87h-131c4 95 81 203 247 203c159 0 250 -79 250 -200
c0 -84 -55 -129 -97 -146c53 -16 119 -66 119 -176z" />
    <glyph glyph-name="four" unicode="4" horiz-adv-x="704" 
d="M669 205h-144v-205h-129v205h-356v81l335 424h150v-392h144v-113zM193 318h203v262z" />
    <glyph glyph-name="five" unicode="5" horiz-adv-x="656" 
d="M99 308v402h466v-113h-341v-170c26 27 73 52 140 52c125 0 228 -87 228 -237v-8c0 -143 -101 -246 -264 -246c-179 0 -259 112 -264 220h132c6 -39 40 -102 132 -102c78 0 131 54 131 127v7c0 77 -52 127 -131 127c-76 0 -105 -44 -114 -59h-115z" />
    <glyph glyph-name="six" unicode="6" horiz-adv-x="660" 
d="M599 238c0 -142 -102 -250 -269 -250c-168 0 -268 105 -268 250c0 110 48 182 116 269l157 203h151l-204 -259c23 14 53 23 94 23c131 0 223 -94 223 -236zM466 238c0 77 -49 134 -137 134c-81 0 -135 -57 -135 -134c0 -73 51 -132 135 -132c88 0 137 59 137 132z" />
    <glyph glyph-name="seven" unicode="7" horiz-adv-x="621" 
d="M574 620l-333 -620h-147l324 592h-364v118h520v-90z" />
    <glyph glyph-name="eight" unicode="8" horiz-adv-x="672" 
d="M604 192c0 -121 -96 -204 -256 -204h-28c-157 0 -252 83 -252 204c0 103 69 157 122 174c-48 15 -109 63 -109 159c0 114 85 197 241 197h27c157 0 242 -83 242 -197c0 -96 -62 -144 -109 -159c52 -17 122 -71 122 -174zM326 613c-68 0 -114 -38 -114 -98s46 -98 114 -98
h20c68 0 114 38 114 98s-46 98 -114 98h-20zM324 310c-71 0 -122 -42 -122 -107s51 -106 122 -106h24c72 0 122 41 122 106c0 66 -50 107 -122 107h-24z" />
    <glyph glyph-name="nine" unicode="9" horiz-adv-x="660" 
d="M482 203l-157 -203h-150l204 260c-23 -14 -53 -24 -95 -24c-131 0 -222 94 -222 236s101 250 268 250c168 0 269 -105 269 -250c0 -110 -49 -182 -117 -269zM194 472c0 -77 49 -134 137 -134c82 0 135 57 135 134c0 73 -50 132 -135 132c-88 0 -137 -59 -137 -132z" />
    <glyph glyph-name="colon" unicode=":" horiz-adv-x="323" 
d="M85 0v170h153v-170h-153zM85 331v170h153v-170h-153z" />
    <glyph glyph-name="semicolon" unicode=";" horiz-adv-x="323" 
d="M85 331v170h153v-170h-153zM175 -207h-95c37 60 74 133 77 207h-72v170h153v-154c0 -89 -32 -170 -63 -223z" />
    <glyph glyph-name="less" unicode="&#x3c;" horiz-adv-x="638" 
d="M548 177v-122l-468 203v103l468 204v-124l-318 -132z" />
    <glyph glyph-name="equal" unicode="=" horiz-adv-x="701" 
d="M617 371h-532v111h532v-111zM617 151h-532v111h532v-111z" />
    <glyph glyph-name="greater" unicode="&#x3e;" horiz-adv-x="638" 
d="M558 258l-468 -203v123l318 133l-318 132v122l468 -204v-103z" />
    <glyph glyph-name="question" unicode="?" horiz-adv-x="547" 
d="M282 239v-4h-128v22c0 62 13 86 80 129l70 45c39 25 68 54 68 98c0 52 -35 85 -93 85c-59 0 -94 -41 -94 -98v-29h-124v36c0 120 82 199 218 199c141 0 221 -73 221 -193c0 -93 -45 -142 -128 -194l-61 -39c-23 -16 -29 -31 -29 -57zM142 0v159h152v-159h-152z" />
    <glyph glyph-name="at" unicode="@" horiz-adv-x="1054" 
d="M954 -5c-42 -66 -165 -174 -398 -174c-316 0 -495 202 -495 459c0 270 203 468 486 468c295 0 447 -181 447 -389c0 -171 -92 -297 -228 -297c-72 0 -114 28 -128 66c-24 -34 -74 -66 -146 -66c-118 0 -205 79 -205 215c0 130 87 232 223 232c78 0 124 -39 142 -75l12 68
h114l-50 -287c-7 -40 5 -66 45 -66c60 0 124 69 124 211c0 179 -126 301 -350 301c-222 0 -385 -152 -385 -383c0 -217 155 -368 394 -368c147 0 234 54 273 85h125zM525 403c-71 0 -118 -54 -118 -128c0 -64 37 -107 103 -107c72 0 118 54 118 128c0 64 -35 107 -103 107z
" />
    <glyph glyph-name="A" unicode="A" horiz-adv-x="816" 
d="M648 0l-65 146h-358l-65 -146h-135l319 713h127l320 -713h-143zM276 262h256l-128 287z" />
    <glyph glyph-name="B" unicode="B" horiz-adv-x="794" 
d="M98 0v710h380c154 0 238 -73 238 -192c0 -76 -53 -126 -107 -144c66 -20 123 -78 123 -171c0 -124 -84 -203 -248 -203h-386zM463 596h-233v-174h233c75 0 115 30 115 87c0 60 -39 87 -115 87zM468 309h-238v-195h238c86 0 127 35 127 98s-41 97 -127 97z" />
    <glyph glyph-name="C" unicode="C" horiz-adv-x="803" 
d="M418 -12c-208 0 -358 159 -358 367s150 367 358 367c219 0 312 -147 331 -230h-138c-20 38 -80 107 -193 107c-134 0 -219 -111 -219 -244s85 -244 219 -244c124 0 176 72 195 108h136c-17 -75 -103 -231 -331 -231z" />
    <glyph glyph-name="D" unicode="D" horiz-adv-x="826" 
d="M98 0v710h287c227 0 380 -130 380 -355c0 -221 -152 -355 -380 -355h-287zM383 592h-151v-474h151c149 0 245 91 245 237c0 151 -96 237 -245 237z" />
    <glyph glyph-name="E" unicode="E" horiz-adv-x="752" 
d="M98 0v710h575v-116h-441v-162h263v-117h-263v-196h481v-119h-615z" />
    <glyph glyph-name="F" unicode="F" horiz-adv-x="735" 
d="M98 0v710h601v-117h-467v-167h269v-117h-269v-309h-134z" />
    <glyph glyph-name="G" unicode="G" horiz-adv-x="842" 
d="M762 92c-47 -43 -149 -105 -313 -105c-235 0 -389 151 -389 370c0 212 152 366 365 366c209 0 297 -119 320 -195h-142c-21 27 -73 76 -178 76c-140 -1 -228 -107 -228 -247c0 -148 98 -251 253 -251c92 0 154 24 183 44v145h-250v114h379v-317z" />
    <glyph glyph-name="H" unicode="H" horiz-adv-x="854" 
d="M622 0v297h-390v-297h-134v710h134v-293h390v293h135v-710h-135z" />
    <glyph glyph-name="I" unicode="I" horiz-adv-x="333" 
d="M99 0v710h135v-710h-135z" />
    <glyph glyph-name="J" unicode="J" horiz-adv-x="675" 
d="M580 230c0 -153 -97 -243 -254 -243c-156 0 -248 89 -248 243v190h130v-182c0 -76 42 -127 118 -127c78 0 120 51 120 127v472h134v-480z" />
    <glyph glyph-name="K" unicode="K" horiz-adv-x="798" 
d="M608 0l-376 325v-325h-134v710h134v-319l366 319h180l-397 -345l414 -365h-187z" />
    <glyph glyph-name="L" unicode="L" horiz-adv-x="707" 
d="M671 121v-121h-573v710h134v-589h439z" />
    <glyph glyph-name="M" unicode="M" horiz-adv-x="1015" 
d="M299 710l212 -517l213 517h193v-710h-130v582l-238 -585h-91l-236 580v-577h-124v710h201z" />
    <glyph glyph-name="N" unicode="N" horiz-adv-x="862" 
d="M764 710v-713h-105l-431 544v-541h-130v710h156l381 -487v487h129z" />
    <glyph glyph-name="O" unicode="O" horiz-adv-x="864" 
d="M432 -12c-213 0 -372 154 -372 367s161 367 372 367s372 -154 372 -367c0 -212 -161 -367 -372 -367zM432 110c142 0 235 109 235 245c0 135 -93 245 -235 245c-141 0 -234 -110 -234 -245c0 -137 92 -245 234 -245z" />
    <glyph glyph-name="P" unicode="P" horiz-adv-x="790" 
d="M98 0v710h392c159 0 248 -77 248 -217c0 -137 -89 -221 -248 -221h-258v-272h-134zM483 590h-251v-198h251c78 0 117 40 117 99c0 64 -38 99 -117 99z" />
    <glyph glyph-name="Q" unicode="Q" horiz-adv-x="864" 
d="M804 355c0 -151 -83 -273 -209 -329l180 -178h-172l-151 144h-20c-212 0 -372 153 -372 363c0 213 161 367 372 367s372 -154 372 -367zM432 110c142 0 235 109 235 245c0 135 -93 245 -235 245c-141 0 -234 -110 -234 -245c0 -137 92 -245 234 -245z" />
    <glyph glyph-name="R" unicode="R" horiz-adv-x="809" 
d="M98 0v710h397c155 0 243 -73 243 -212c0 -96 -50 -164 -140 -192l167 -306h-142l-161 292h-230v-292h-134zM484 591h-252v-182h252c77 0 116 28 116 89c0 65 -39 93 -116 93z" />
    <glyph glyph-name="S" unicode="S" horiz-adv-x="755" 
d="M350 609c-97 0 -148 -33 -148 -85c0 -48 42 -76 116 -85c44 -4 77 -8 125 -13c142 -14 251 -68 251 -218c0 -128 -101 -221 -302 -221c-232 0 -321 117 -349 219h143c19 -45 76 -105 206 -105c108 0 165 41 165 98c0 68 -50 90 -123 99l-126 13c-142 14 -242 81 -242 209
c0 127 115 203 284 203c223 0 305 -107 327 -197h-137c-20 36 -74 83 -190 83z" />
    <glyph glyph-name="T" unicode="T" horiz-adv-x="772" 
d="M37 590v120h698v-120h-282v-590h-134v590h-282z" />
    <glyph glyph-name="U" unicode="U" horiz-adv-x="842" 
d="M422 111c123 0 193 82 193 204v395h133v-404c0 -178 -113 -320 -326 -320c-220 0 -328 140 -328 320v404h135v-395c0 -122 68 -204 193 -204z" />
    <glyph glyph-name="V" unicode="V" horiz-adv-x="809" 
d="M780 710l-304 -712h-134l-313 712h154l229 -544l230 544h138z" />
    <glyph glyph-name="W" unicode="W" horiz-adv-x="1138" 
d="M751 -3l-180 516l-181 -516h-116l-241 713h146l163 -509l174 512h119l175 -513l163 510h132l-234 -713h-120z" />
    <glyph glyph-name="X" unicode="X" horiz-adv-x="828" 
d="M637 0l-227 266l-230 -266h-158l308 359l-300 351h176l211 -250l214 250h162l-297 -344l310 -366h-169z" />
    <glyph glyph-name="Y" unicode="Y" horiz-adv-x="782" 
d="M465 300v-300h-138v299l-319 411h171l221 -289l220 289h154z" />
    <glyph glyph-name="Z" unicode="Z" horiz-adv-x="791" 
d="M751 120v-120h-700v77l442 514h-432v119h643v-77l-446 -513h493z" />
    <glyph glyph-name="bracketleft" unicode="[" horiz-adv-x="385" 
d="M94 -124v946h269v-97h-158v-752h158v-97h-269z" />
    <glyph glyph-name="backslash" unicode="\" horiz-adv-x="422" 
d="M395 -70h-112l-250 830h113z" />
    <glyph glyph-name="bracketright" unicode="]" horiz-adv-x="385" 
d="M23 725v97h268v-946h-268v97h157v752h-157z" />
    <glyph glyph-name="asciicircum" unicode="^" horiz-adv-x="585" 
d="M422 263l-131 298l-132 -298h-125l201 453h113l202 -453h-128z" />
    <glyph glyph-name="underscore" unicode="_" horiz-adv-x="617" 
d="M34 -153v93h549v-93h-549z" />
    <glyph glyph-name="grave" unicode="`" 
d="M421 580h-126l-116 187h133z" />
    <glyph glyph-name="a" unicode="a" horiz-adv-x="668" 
d="M459 80c-10 -21 -60 -91 -171 -91c-130 0 -238 98 -238 264c0 164 108 264 239 264c107 0 158 -66 169 -87v76h128v-506h-127v80zM460 253c0 86 -55 152 -138 152c-86 0 -142 -66 -142 -152s56 -152 142 -152c83 0 138 66 138 152z" />
    <glyph glyph-name="b" unicode="b" horiz-adv-x="674" 
d="M208 77v-77h-125v736h126v-310c10 20 65 91 174 91c133 0 241 -99 241 -264s-108 -264 -241 -264c-109 0 -164 68 -175 88zM207 253c0 -86 57 -152 144 -152s143 66 143 152c0 87 -56 152 -143 152s-144 -65 -144 -152z" />
    <glyph glyph-name="c" unicode="c" horiz-adv-x="601" 
d="M431 339c-7 14 -39 67 -120 67c-78 0 -132 -68 -132 -153s54 -153 133 -153c83 0 114 53 121 67h125c-6 -53 -67 -180 -248 -180c-146 0 -261 110 -261 266s114 266 260 266c180 0 241 -124 249 -180h-127z" />
    <glyph glyph-name="d" unicode="d" horiz-adv-x="676" 
d="M466 80c-10 -20 -64 -91 -175 -91c-132 0 -241 99 -241 264s110 264 241 264c110 0 164 -67 174 -87v306h128v-736h-127v80zM467 253c0 87 -56 152 -142 152c-88 0 -145 -65 -145 -152s57 -152 145 -152c86 0 142 65 142 152z" />
    <glyph glyph-name="e" unicode="e" horiz-adv-x="624" 
d="M314 519c156 0 265 -107 265 -273v-14h-402c6 -79 63 -139 147 -139c81 0 114 41 123 55h126c-8 -52 -77 -161 -249 -161c-165 0 -275 114 -275 266c0 157 110 266 265 266zM314 420c-69 0 -117 -38 -133 -100h264c-18 64 -66 100 -131 100z" />
    <glyph glyph-name="f" unicode="f" horiz-adv-x="504" 
d="M476 398h-181v-398h-128v398h-139v108h139v74c0 98 54 156 169 156h218v-102h-179c-56 0 -80 -28 -80 -79v-49h181v-108z" />
    <glyph glyph-name="g" unicode="g" horiz-adv-x="674" 
d="M465 83c-11 -22 -64 -92 -174 -92c-132 0 -241 99 -241 263c0 165 109 263 241 263c109 0 163 -68 173 -88v77h128v-495c0 -139 -89 -236 -272 -236c-195 0 -258 121 -266 158h147c7 -10 37 -52 119 -52c92 0 145 48 145 132v70zM466 254c0 86 -56 151 -142 151
c-88 0 -144 -65 -144 -151c0 -84 56 -151 144 -151c86 0 142 67 142 151z" />
    <glyph glyph-name="h" unicode="h" horiz-adv-x="665" 
d="M210 270v-270h-127v736h127v-315c19 36 76 96 168 96c127 0 211 -93 211 -222v-295h-129v270c0 80 -48 133 -123 133c-77 0 -127 -55 -127 -133z" />
    <glyph glyph-name="i" unicode="i" horiz-adv-x="295" 
d="M81 587v152h133v-152h-133zM84 0v506h128v-506h-128z" />
    <glyph glyph-name="j" unicode="j" horiz-adv-x="296" 
d="M81 587v152h134v-152h-134zM212 -42c0 -117 -55 -171 -166 -171h-157v105h114c57 0 81 27 81 82v532h128v-548z" />
    <glyph glyph-name="k" unicode="k" horiz-adv-x="622" 
d="M451 0l-242 230v-230h-126v736h126v-436l232 206h167l-269 -236l283 -270h-171z" />
    <glyph glyph-name="l" unicode="l" horiz-adv-x="297" 
d="M85 0v736h128v-736h-128z" />
    <glyph glyph-name="m" unicode="m" horiz-adv-x="1033" 
d="M210 270v-270h-127v506h127v-85c19 37 75 96 166 96c86 0 152 -44 184 -113c23 46 79 113 186 113c128 0 210 -93 210 -222v-295h-128v270c0 80 -46 133 -120 133c-76 0 -125 -55 -125 -133v-270h-128v270c0 80 -46 133 -120 133c-76 0 -125 -55 -125 -133z" />
    <glyph glyph-name="n" unicode="n" horiz-adv-x="665" 
d="M210 270v-270h-127v506h127v-85c19 36 76 96 168 96c127 0 211 -93 211 -222v-295h-129v270c0 80 -48 133 -123 133c-77 0 -127 -55 -127 -133z" />
    <glyph glyph-name="o" unicode="o" horiz-adv-x="643" 
d="M322 519c154 0 272 -112 272 -266s-118 -266 -272 -266c-156 0 -273 112 -273 266s117 266 273 266zM322 101c85 0 143 66 143 152s-58 152 -143 152c-86 0 -144 -67 -144 -152s58 -152 144 -152z" />
    <glyph glyph-name="p" unicode="p" horiz-adv-x="674" 
d="M209 77v-289h-126v718h127v-80c9 19 64 91 174 91c132 0 240 -99 240 -264c0 -166 -108 -264 -240 -264c-110 0 -165 68 -175 88zM208 253c0 -86 56 -152 143 -152c88 0 144 66 144 152c0 87 -56 152 -144 152c-87 0 -143 -65 -143 -152z" />
    <glyph glyph-name="q" unicode="q" horiz-adv-x="676" 
d="M466 80c-10 -20 -64 -91 -175 -91c-131 0 -241 98 -241 264c0 165 110 264 242 264c109 0 163 -68 173 -87v76h128v-719h-127v293zM467 253c0 87 -57 152 -142 152c-88 0 -145 -65 -145 -152c0 -86 57 -152 145 -152c85 0 142 66 142 152z" />
    <glyph glyph-name="r" unicode="r" horiz-adv-x="523" 
d="M210 266v-266h-127v506h127v-85c13 29 52 88 164 88h118v-127h-135c-108 0 -147 -36 -147 -116z" />
    <glyph glyph-name="s" unicode="s" horiz-adv-x="578" 
d="M327 198c-36 3 -54 5 -89 9c-111 9 -186 59 -186 158c0 95 87 155 223 155c181 0 236 -94 248 -143h-135c-8 11 -39 46 -114 46c-61 0 -93 -21 -93 -51c0 -28 21 -47 72 -53l86 -9c137 -12 193 -65 193 -164c0 -94 -80 -160 -234 -160c-188 0 -249 109 -259 156h137
c5 -12 36 -57 122 -57c70 0 104 24 104 56c0 31 -18 51 -75 57z" />
    <glyph glyph-name="t" unicode="t" horiz-adv-x="529" 
d="M482 114v-114h-140c-119 0 -175 57 -175 165v232h-139v109h139v204h128v-204h187v-109h-187v-193c0 -63 21 -90 90 -90h97z" />
    <glyph glyph-name="u" unicode="u" horiz-adv-x="652" 
d="M328 -11c-160 0 -251 97 -251 234v283h128v-269c0 -78 43 -131 121 -131s121 53 121 131v269h129v-283c0 -137 -91 -234 -248 -234z" />
    <glyph glyph-name="v" unicode="v" 
d="M586 506l-223 -513h-120l-230 513h144l149 -354l149 354h131z" />
    <glyph glyph-name="w" unicode="w" horiz-adv-x="894" 
d="M576 -4l-129 352l-128 -352h-112l-189 510h139l117 -340l125 344h113l124 -341l116 337h124l-185 -510h-115z" />
    <glyph glyph-name="x" unicode="x" horiz-adv-x="629" 
d="M459 0l-148 167l-150 -167h-147l224 250l-225 256h164l143 -165l148 165h148l-223 -248l223 -258h-157z" />
    <glyph glyph-name="y" unicode="y" horiz-adv-x="599" 
d="M585 506l-312 -719h-128l96 222l-228 497h144l149 -344l149 344h130z" />
    <glyph glyph-name="z" unicode="z" horiz-adv-x="621" 
d="M585 107v-107h-536v71l305 329h-297v106h491v-69l-309 -330h346z" />
    <glyph glyph-name="braceleft" unicode="{" horiz-adv-x="399" 
d="M376 -27v-97h-120c-110 0 -165 56 -147 171l27 184c7 47 -17 69 -62 69h-37v98h37c43 0 69 20 62 69l-27 184c-18 114 37 171 147 171h120v-97h-89c-51 0 -78 -24 -70 -72l26 -176c13 -81 -29 -118 -81 -128c52 -10 95 -47 81 -128l-26 -172c-8 -51 19 -76 70 -76h89z
" />
    <glyph glyph-name="bar" unicode="|" horiz-adv-x="326" 
d="M106 -116v938h114v-938h-114z" />
    <glyph glyph-name="braceright" unicode="}" horiz-adv-x="400" 
d="M290 47c18 -115 -37 -171 -147 -171h-120v97h89c51 0 78 25 70 76l-26 172c-14 81 29 118 81 128c-52 10 -95 47 -81 128l26 176c8 48 -19 72 -70 72h-89v97h120c110 0 165 -57 147 -171l-27 -184c-7 -49 18 -69 62 -69h38v-98h-38c-45 0 -69 -22 -62 -69z" />
    <glyph glyph-name="asciitilde" unicode="~" horiz-adv-x="718" 
d="M432 392c16 -22 31 -43 53 -43c24 0 35 20 35 49v181h122v-197c1 -102 -49 -168 -143 -168c-69 0 -108 37 -151 96l-62 85c-19 25 -31 43 -53 43c-25 0 -35 -20 -35 -49v-178h-123v194c0 101 50 168 144 168c69 0 107 -37 151 -97z" />
    <glyph glyph-name="uni00A0" unicode="&#xa0;" horiz-adv-x="258" 
 />
    <glyph glyph-name="exclamdown" unicode="&#xa1;" horiz-adv-x="342" 
d="M94 347v159h153v-159h-153zM108 -204v475h125v-475h-125z" />
    <glyph glyph-name="cent" unicode="&#xa2;" horiz-adv-x="583" 
d="M531 162c-5 -47 -47 -146 -172 -170v-113h-109v113c-112 24 -191 124 -191 261s79 238 191 261v113h109v-113c120 -24 164 -121 169 -168h-123c-7 16 -34 61 -101 61c-70 0 -115 -66 -115 -154s45 -154 115 -154c72 0 97 47 104 63h123z" />
    <glyph glyph-name="sterling" unicode="&#xa3;" horiz-adv-x="704" 
d="M664 115v-115h-608v115h113v150h-113v116h113v127c0 134 78 214 218 214c142 0 218 -79 218 -214v-33h-124v30c0 66 -35 103 -94 103s-92 -37 -92 -103v-124h202v-116h-202v-150h369z" />
    <glyph glyph-name="yen" unicode="&#xa5;" horiz-adv-x="704" 
d="M614 136h-189v-136h-137v136h-188v94h188v75h-188v93h181l-242 312h165l156 -208l156 208h149l-234 -312h183v-93h-189v-75h189v-94z" />
    <glyph glyph-name="brokenbar" unicode="&#xa6;" horiz-adv-x="326" 
d="M106 411v411h114v-411h-114zM106 -116v424h114v-424h-114z" />
    <glyph glyph-name="section" unicode="&#xa7;" horiz-adv-x="684" 
d="M553 -44c0 -120 -80 -192 -209 -192c-138 0 -208 71 -208 193v41h124v-38c0 -57 32 -88 84 -88s83 32 83 87v13c0 46 -18 75 -67 85l-152 33c-103 22 -157 79 -157 174c0 74 51 126 126 139c-34 34 -44 83 -44 133v20c0 121 82 193 209 193c133 0 208 -71 208 -194v-39
h-124v37c0 58 -32 89 -84 89c-51 0 -83 -32 -83 -87v-14c0 -46 18 -75 67 -85l150 -33c105 -23 157 -76 157 -173c0 -71 -43 -124 -121 -141c30 -32 41 -78 41 -130v-23zM284 342c-64 13 -106 -13 -106 -65c0 -38 26 -64 67 -72l155 -33c64 -14 106 14 106 64
c0 39 -26 65 -67 73z" />
    <glyph glyph-name="dieresis" unicode="&#xa8;" 
d="M132 587v149h127v-149h-127zM341 587v149h127v-149h-127z" />
    <glyph glyph-name="copyright" unicode="&#xa9;" horiz-adv-x="867" 
d="M433 -12c-212 0 -368 158 -368 367c0 207 158 367 368 367s369 -160 369 -367s-159 -367 -369 -367zM433 68c170 0 281 126 281 287c0 159 -111 287 -281 287s-281 -127 -281 -287c0 -162 112 -287 281 -287zM349 357c0 -57 33 -104 88 -104c46 0 68 28 77 43h100
c-6 -51 -53 -138 -177 -138c-111 0 -194 87 -194 199c0 111 83 199 194 199c116 0 167 -84 175 -134h-102c-8 11 -31 39 -73 39c-55 0 -88 -46 -88 -104z" />
    <glyph glyph-name="ordfeminine" unicode="&#xaa;" horiz-adv-x="561" 
d="M362 336c-9 -18 -43 -70 -122 -70c-104 0 -182 85 -182 227c0 143 78 227 182 227c80 0 113 -52 121 -68v58h120v-434h-119v60zM362 493c0 74 -33 123 -90 123c-58 0 -91 -49 -91 -123c0 -73 33 -123 91 -123c57 0 90 50 90 123z" />
    <glyph glyph-name="guillemotleft" unicode="&#xab;" horiz-adv-x="578" 
d="M285 473l-107 -183l107 -185h-121l-104 184l105 184h120zM515 473l-109 -183l109 -185h-121l-105 184l106 184h120z" />
    <glyph glyph-name="registered" unicode="&#xae;" horiz-adv-x="596" 
d="M298 225c-144 0 -251 108 -251 249s108 249 251 249c142 0 251 -108 251 -249c0 -140 -109 -249 -251 -249zM298 287c112 0 184 81 184 187s-72 188 -184 188s-184 -82 -184 -188s72 -187 184 -187zM191 355v245h131c63 0 97 -30 97 -83c0 -33 -14 -56 -40 -69l44 -93
h-74l-38 82h-48v-82h-72zM318 539h-55v-44h55c20 0 29 7 29 22s-9 22 -29 22z" />
    <glyph glyph-name="macron" unicode="&#xaf;" horiz-adv-x="500" 
d="M412 613h-324v101h324v-101z" />
    <glyph glyph-name="degree" unicode="&#xb0;" horiz-adv-x="540" 
d="M270 340c-109 0 -191 82 -191 191s82 191 191 191s191 -82 191 -191s-82 -191 -191 -191zM270 430c58 0 97 44 97 101s-39 101 -97 101s-97 -44 -97 -101s39 -101 97 -101z" />
    <glyph glyph-name="acute" unicode="&#xb4;" 
d="M179 580l109 187h133l-116 -187h-126z" />
    <glyph glyph-name="paragraph" unicode="&#xb6;" horiz-adv-x="689" 
d="M40 516c0 119 87 194 212 194h339v-710h-101v614h-105v-614h-102v321h-31c-125 0 -212 77 -212 195z" />
    <glyph glyph-name="periodcentered" unicode="&#xb7;" horiz-adv-x="313" 
d="M80 277v170h153v-170h-153z" />
    <glyph glyph-name="cedilla" unicode="&#xb8;" 
d="M330 -156c0 18 -11 30 -36 30h-91v126h100v-49h9c85 0 124 -43 124 -110c0 -68 -39 -117 -124 -117h-146v88h128c25 0 36 12 36 32z" />
    <glyph glyph-name="ordmasculine" unicode="&#xba;" horiz-adv-x="560" 
d="M280 723c128 0 217 -93 217 -230c0 -135 -89 -228 -217 -228s-217 93 -217 228c0 137 89 230 217 230zM280 368c63 0 96 54 96 125s-33 126 -96 126s-95 -55 -95 -126s32 -125 95 -125z" />
    <glyph glyph-name="guillemotright" unicode="&#xbb;" horiz-adv-x="578" 
d="M519 289l-106 -184h-120l108 183l-108 185h121zM290 289l-106 -184h-121l109 183l-109 185h121z" />
    <glyph glyph-name="onequarter" unicode="&#xbc;" horiz-adv-x="981" 
d="M947 109h-84v-109h-107v109h-223v75l197 251h133v-239h84v-87zM640 196h116v151zM279 0h-113l448 710h114zM259 712v-437h-111v319l-109 -59v98l137 79h83z" />
    <glyph glyph-name="onehalf" unicode="&#xbd;" horiz-adv-x="975" 
d="M278 0h-113l448 710h114zM939 92v-92h-349v70l163 146c33 30 50 51 50 80c0 30 -20 52 -55 52c-37 0 -58 -24 -58 -60v-20h-104v21c0 88 58 153 162 153c105 0 166 -57 166 -141c0 -67 -39 -107 -96 -155l-62 -54h183zM259 712v-437h-111v319l-109 -59v98l137 79h83z" />
    <glyph glyph-name="threequarters" unicode="&#xbe;" horiz-adv-x="1079" 
d="M1044 109h-84v-109h-107v109h-223v75l197 251h133v-239h84v-87zM737 196h116v151zM377 0h-113l448 710h114zM399 401c0 -80 -66 -133 -179 -133c-124 0 -175 77 -179 136h111c3 -18 22 -45 68 -45c43 0 67 19 67 49c0 29 -19 45 -54 45h-86v90h80c30 0 47 14 47 40
c0 29 -22 46 -58 46c-41 0 -56 -25 -59 -43h-109c2 63 55 131 168 131c107 0 168 -46 168 -125c0 -48 -31 -75 -57 -85c33 -11 72 -41 72 -106z" />
    <glyph glyph-name="questiondown" unicode="&#xbf;" horiz-adv-x="547" 
d="M265 267v4h128v-22c0 -62 -13 -86 -80 -129l-70 -45c-39 -25 -68 -54 -68 -98c0 -52 35 -85 93 -85c59 0 94 41 94 98v29h124v-36c0 -120 -82 -199 -218 -199c-141 0 -221 73 -221 193c0 93 45 142 128 194l61 39c23 16 29 31 29 57zM405 506v-159h-152v159h152z" />
    <glyph glyph-name="Agrave" unicode="&#xc0;" horiz-adv-x="816" 
d="M648 0l-65 146h-358l-65 -146h-135l319 713h127l320 -713h-143zM276 262h256l-128 287zM475 773h-136l-120 156h144z" />
    <glyph glyph-name="Aacute" unicode="&#xc1;" horiz-adv-x="816" 
d="M648 0l-65 146h-358l-65 -146h-135l319 713h127l320 -713h-143zM276 262h256l-128 287zM340 773l112 156h144l-120 -156h-136z" />
    <glyph glyph-name="Acircumflex" unicode="&#xc2;" horiz-adv-x="816" 
d="M648 0l-65 146h-358l-65 -146h-135l319 713h127l320 -713h-143zM276 262h256l-128 287zM480 771l-73 83l-73 -83h-125l139 161h118l136 -161h-122z" />
    <glyph glyph-name="Atilde" unicode="&#xc3;" horiz-adv-x="816" 
d="M648 0l-65 146h-358l-65 -146h-135l319 713h127l320 -713h-143zM276 262h256l-128 287zM409 807l-38 20c-14 7 -26 12 -35 12c-11 0 -16 -8 -16 -22v-48h-93v77c0 58 27 96 84 96c34 0 59 -15 94 -34l38 -19c14 -7 25 -13 34 -13c12 0 17 9 17 23v48h93v-77
c0 -58 -28 -96 -84 -96c-36 0 -60 15 -94 33z" />
    <glyph glyph-name="Adieresis" unicode="&#xc4;" horiz-adv-x="816" 
d="M648 0l-65 146h-358l-65 -146h-135l319 713h127l320 -713h-143zM276 262h256l-128 287zM233 773v149h127v-149h-127zM454 773v149h127v-149h-127z" />
    <glyph glyph-name="Aring" unicode="&#xc5;" horiz-adv-x="816" 
d="M648 0l-65 146h-358l-65 -146h-135l319 713h127l320 -713h-143zM276 262h256l-128 287zM407 763c-79 0 -136 59 -136 133c0 75 58 132 136 132s137 -57 137 -132c0 -74 -58 -133 -137 -133zM407 835c35 0 60 26 60 61s-24 61 -60 61s-60 -26 -60 -61s25 -61 60 -61z" />
    <glyph glyph-name="AE" unicode="&#xc6;" horiz-adv-x="1170" 
d="M1131 119v-119h-596v165h-281l-108 -165h-149l468 710h626v-116h-422v-162h244v-117h-244v-196h462zM329 280h206v316z" />
    <glyph glyph-name="Ccedilla" unicode="&#xc7;" horiz-adv-x="803" 
d="M467 -156c0 18 -11 30 -36 30h-91v122c-167 34 -280 178 -280 359c0 208 150 367 358 367c219 0 312 -147 331 -230h-138c-20 38 -80 107 -193 107c-134 0 -219 -111 -219 -244s85 -244 219 -244c124 0 176 72 195 108h136c-17 -73 -98 -221 -309 -230v-38h9
c85 0 124 -43 124 -110c0 -68 -39 -117 -124 -117h-146v88h128c25 0 36 12 36 32z" />
    <glyph glyph-name="Egrave" unicode="&#xc8;" horiz-adv-x="752" 
d="M98 0v710h575v-116h-441v-162h263v-117h-263v-196h481v-119h-615zM464 773h-136l-120 156h144z" />
    <glyph glyph-name="Eacute" unicode="&#xc9;" horiz-adv-x="752" 
d="M98 0v710h575v-116h-441v-162h263v-117h-263v-196h481v-119h-615zM321 773l112 156h144l-120 -156h-136z" />
    <glyph glyph-name="Ecircumflex" unicode="&#xca;" horiz-adv-x="752" 
d="M98 0v710h575v-116h-441v-162h263v-117h-263v-196h481v-119h-615zM469 771l-73 83l-73 -83h-125l139 161h118l136 -161h-122z" />
    <glyph glyph-name="Edieresis" unicode="&#xcb;" horiz-adv-x="752" 
d="M98 0v710h575v-116h-441v-162h263v-117h-263v-196h481v-119h-615zM222 773v149h127v-149h-127zM443 773v149h127v-149h-127z" />
    <glyph glyph-name="Igrave" unicode="&#xcc;" horiz-adv-x="333" 
d="M99 0v710h135v-710h-135zM234 773h-136l-120 156h144z" />
    <glyph glyph-name="Iacute" unicode="&#xcd;" horiz-adv-x="333" 
d="M99 0v710h135v-710h-135zM99 773l112 156h144l-120 -156h-136z" />
    <glyph glyph-name="Icircumflex" unicode="&#xce;" horiz-adv-x="333" 
d="M99 0v710h135v-710h-135zM239 771l-73 83l-73 -83h-125l139 161h118l136 -161h-122z" />
    <glyph glyph-name="Idieresis" unicode="&#xcf;" horiz-adv-x="333" 
d="M99 0v710h135v-710h-135zM-8 773v149h127v-149h-127zM213 773v149h127v-149h-127z" />
    <glyph glyph-name="Eth" unicode="&#xd0;" horiz-adv-x="852" 
d="M12 300v116h111v294h287c227 0 380 -130 380 -355c0 -221 -152 -355 -380 -355h-287v300h-111zM408 592h-151v-176h212v-116h-212v-182h151c149 0 245 91 245 237c0 151 -96 237 -245 237z" />
    <glyph glyph-name="Ntilde" unicode="&#xd1;" horiz-adv-x="862" 
d="M764 710v-713h-105l-431 544v-541h-130v710h156l381 -487v487h129zM443 807l-38 20c-14 7 -26 12 -35 12c-11 0 -16 -8 -16 -22v-48h-93v77c0 58 27 96 84 96c34 0 59 -15 94 -34l38 -19c14 -7 25 -13 34 -13c12 0 17 9 17 23v48h93v-77c0 -58 -28 -96 -84 -96
c-36 0 -60 15 -94 33z" />
    <glyph glyph-name="Ograve" unicode="&#xd2;" horiz-adv-x="864" 
d="M432 -12c-213 0 -372 154 -372 367s161 367 372 367s372 -154 372 -367c0 -212 -161 -367 -372 -367zM432 110c142 0 235 109 235 245c0 135 -93 245 -235 245c-141 0 -234 -110 -234 -245c0 -137 92 -245 234 -245zM500 773h-136l-120 156h144z" />
    <glyph glyph-name="Oacute" unicode="&#xd3;" horiz-adv-x="864" 
d="M432 -12c-213 0 -372 154 -372 367s161 367 372 367s372 -154 372 -367c0 -212 -161 -367 -372 -367zM432 110c142 0 235 109 235 245c0 135 -93 245 -235 245c-141 0 -234 -110 -234 -245c0 -137 92 -245 234 -245zM365 773l112 156h144l-120 -156h-136z" />
    <glyph glyph-name="Ocircumflex" unicode="&#xd4;" horiz-adv-x="864" 
d="M432 -12c-213 0 -372 154 -372 367s161 367 372 367s372 -154 372 -367c0 -212 -161 -367 -372 -367zM432 110c142 0 235 109 235 245c0 135 -93 245 -235 245c-141 0 -234 -110 -234 -245c0 -137 92 -245 234 -245zM505 771l-73 83l-73 -83h-125l139 161h118l136 -161
h-122z" />
    <glyph glyph-name="Otilde" unicode="&#xd5;" horiz-adv-x="864" 
d="M432 -12c-213 0 -372 154 -372 367s161 367 372 367s372 -154 372 -367c0 -212 -161 -367 -372 -367zM432 110c142 0 235 109 235 245c0 135 -93 245 -235 245c-141 0 -234 -110 -234 -245c0 -137 92 -245 234 -245zM434 807l-38 20c-14 7 -26 12 -35 12
c-11 0 -16 -8 -16 -22v-48h-93v77c0 58 27 96 84 96c34 0 59 -15 94 -34l38 -19c14 -7 25 -13 34 -13c12 0 17 9 17 23v48h93v-77c0 -58 -28 -96 -84 -96c-36 0 -60 15 -94 33z" />
    <glyph glyph-name="Odieresis" unicode="&#xd6;" horiz-adv-x="864" 
d="M432 -12c-213 0 -372 154 -372 367s161 367 372 367s372 -154 372 -367c0 -212 -161 -367 -372 -367zM432 110c142 0 235 109 235 245c0 135 -93 245 -235 245c-141 0 -234 -110 -234 -245c0 -137 92 -245 234 -245zM258 773v149h127v-149h-127zM479 773v149h127v-149
h-127z" />
    <glyph glyph-name="multiply" unicode="&#xd7;" horiz-adv-x="660" 
d="M581 135l-82 -79l-171 171l-170 -171l-80 78l171 172l-171 171l84 83l169 -171l170 171l80 -78l-172 -173z" />
    <glyph glyph-name="Oslash" unicode="&#xd8;" horiz-adv-x="864" 
d="M804 355c0 -212 -161 -367 -372 -367c-77 0 -148 21 -207 59l-42 -47h-142l105 116c-54 63 -86 146 -86 239c0 213 161 367 372 367c76 0 146 -21 205 -59l42 47h145l-106 -118c54 -62 86 -144 86 -237zM197 355c0 -54 13 -102 36 -142l322 358c-34 20 -76 31 -123 31
c-141 0 -235 -110 -235 -247zM667 355c0 53 -13 102 -36 141l-323 -357c35 -20 76 -31 124 -31c142 0 235 109 235 247z" />
    <glyph glyph-name="Ugrave" unicode="&#xd9;" horiz-adv-x="842" 
d="M422 111c123 0 193 82 193 204v395h133v-404c0 -178 -113 -320 -326 -320c-220 0 -328 140 -328 320v404h135v-395c0 -122 68 -204 193 -204zM498 773h-136l-120 156h144z" />
    <glyph glyph-name="Uacute" unicode="&#xda;" horiz-adv-x="842" 
d="M422 111c123 0 193 82 193 204v395h133v-404c0 -178 -113 -320 -326 -320c-220 0 -328 140 -328 320v404h135v-395c0 -122 68 -204 193 -204zM344 773l112 156h144l-120 -156h-136z" />
    <glyph glyph-name="Ucircumflex" unicode="&#xdb;" horiz-adv-x="842" 
d="M422 111c123 0 193 82 193 204v395h133v-404c0 -178 -113 -320 -326 -320c-220 0 -328 140 -328 320v404h135v-395c0 -122 68 -204 193 -204zM494 771l-73 83l-73 -83h-125l139 161h118l136 -161h-122z" />
    <glyph glyph-name="Udieresis" unicode="&#xdc;" horiz-adv-x="842" 
d="M422 111c123 0 193 82 193 204v395h133v-404c0 -178 -113 -320 -326 -320c-220 0 -328 140 -328 320v404h135v-395c0 -122 68 -204 193 -204zM247 773v149h127v-149h-127zM468 773v149h127v-149h-127z" />
    <glyph glyph-name="Yacute" unicode="&#xdd;" horiz-adv-x="782" 
d="M465 300v-300h-138v299l-319 411h171l221 -289l220 289h154zM323 773l112 156h144l-120 -156h-136z" />
    <glyph glyph-name="Thorn" unicode="&#xde;" horiz-adv-x="790" 
d="M497 152h-265v-152h-134v710h134v-135h265c155 0 241 -74 241 -210c0 -132 -86 -213 -241 -213zM490 455h-258v-184h258c73 0 110 38 110 92c0 60 -36 92 -110 92z" />
    <glyph glyph-name="germandbls" unicode="&#xdf;" horiz-adv-x="658" 
d="M212 519v-519h-129v524c0 142 88 224 240 224c148 0 241 -75 241 -197c0 -84 -48 -130 -93 -145c69 -18 138 -81 138 -189c0 -132 -85 -217 -236 -217h-84v114h64c83 0 126 41 126 109c0 67 -43 109 -126 109h-64v112h40c65 0 106 32 106 95c0 62 -46 96 -112 96
c-68 0 -111 -39 -111 -116z" />
    <glyph glyph-name="agrave" unicode="&#xe0;" horiz-adv-x="668" 
d="M459 80c-10 -21 -60 -91 -171 -91c-130 0 -238 98 -238 264c0 164 108 264 239 264c107 0 158 -66 169 -87v76h128v-506h-127v80zM460 253c0 86 -55 152 -138 152c-86 0 -142 -66 -142 -152s56 -152 142 -152c83 0 138 66 138 152zM384 580h-126l-116 187h133z" />
    <glyph glyph-name="aacute" unicode="&#xe1;" horiz-adv-x="668" 
d="M459 80c-10 -21 -60 -91 -171 -91c-130 0 -238 98 -238 264c0 164 108 264 239 264c107 0 158 -66 169 -87v76h128v-506h-127v80zM460 253c0 86 -55 152 -138 152c-86 0 -142 -66 -142 -152s56 -152 142 -152c83 0 138 66 138 152zM251 580l109 187h133l-116 -187h-126z
" />
    <glyph glyph-name="acircumflex" unicode="&#xe2;" horiz-adv-x="668" 
d="M459 80c-10 -21 -60 -91 -171 -91c-130 0 -238 98 -238 264c0 164 108 264 239 264c107 0 158 -66 169 -87v76h128v-506h-127v80zM460 253c0 86 -55 152 -138 152c-86 0 -142 -66 -142 -152s56 -152 142 -152c83 0 138 66 138 152zM389 578l-67 104l-67 -104h-118
l129 196h112l126 -196h-115z" />
    <glyph glyph-name="atilde" unicode="&#xe3;" horiz-adv-x="668" 
d="M459 80c-10 -21 -60 -91 -171 -91c-130 0 -238 98 -238 264c0 164 108 264 239 264c107 0 158 -66 169 -87v76h128v-506h-127v80zM460 253c0 86 -55 152 -138 152c-86 0 -142 -66 -142 -152s56 -152 142 -152c83 0 138 66 138 152zM243 576h-91v84c0 58 27 95 84 95
c35 0 57 -14 88 -36l29 -21c12 -8 21 -14 31 -14c12 0 17 9 17 21v55h91v-83c0 -58 -27 -96 -84 -96c-36 0 -57 14 -88 36l-29 21c-13 9 -21 15 -31 15c-12 0 -17 -9 -17 -22v-55z" />
    <glyph glyph-name="adieresis" unicode="&#xe4;" horiz-adv-x="668" 
d="M459 80c-10 -21 -60 -91 -171 -91c-130 0 -238 98 -238 264c0 164 108 264 239 264c107 0 158 -66 169 -87v76h128v-506h-127v80zM460 253c0 86 -55 152 -138 152c-86 0 -142 -66 -142 -152s56 -152 142 -152c83 0 138 66 138 152zM154 587v149h127v-149h-127zM363 587
v149h127v-149h-127z" />
    <glyph glyph-name="aring" unicode="&#xe5;" horiz-adv-x="668" 
d="M459 80c-10 -21 -60 -91 -171 -91c-130 0 -238 98 -238 264c0 164 108 264 239 264c107 0 158 -66 169 -87v76h128v-506h-127v80zM460 253c0 86 -55 152 -138 152c-86 0 -142 -66 -142 -152s56 -152 142 -152c83 0 138 66 138 152zM322 569c-79 0 -136 59 -136 133
c0 75 58 132 136 132s137 -57 137 -132c0 -74 -58 -133 -137 -133zM322 641c35 0 60 27 60 61c0 35 -24 61 -60 61s-60 -26 -60 -61c0 -34 25 -61 60 -61z" />
    <glyph glyph-name="ae" unicode="&#xe6;" horiz-adv-x="973" 
d="M48 160c0 102 77 158 202 158h159c0 61 -46 99 -117 99c-66 0 -95 -37 -101 -51h-130c10 54 75 153 230 153c93 0 159 -34 189 -82c35 46 103 82 188 82c155 1 262 -106 261 -273v-15l-16 1h-381c6 -79 61 -139 144 -139c79 0 112 41 121 55h126
c-8 -52 -76 -161 -247 -161c-106 0 -182 49 -223 107c-26 -46 -79 -105 -186 -105c-128 0 -219 66 -219 171zM666 420c-68 0 -116 -39 -131 -102h261c-17 65 -65 102 -130 102zM175 162c0 -49 44 -78 106 -78c74 0 128 42 128 103v43h-138c-58 0 -96 -22 -96 -68z" />
    <glyph glyph-name="ccedilla" unicode="&#xe7;" horiz-adv-x="601" 
d="M431 339c-7 14 -39 67 -120 67c-78 0 -132 -68 -132 -153s54 -153 133 -153c83 0 114 53 121 67h125c-6 -51 -62 -169 -225 -179v-37h9c85 0 124 -43 124 -110c0 -68 -39 -117 -124 -117h-147v88h129c24 0 36 12 36 32c0 18 -12 30 -36 30h-91v124
c-108 31 -184 128 -184 255c0 156 114 266 260 266c180 0 241 -124 249 -180h-127z" />
    <glyph glyph-name="egrave" unicode="&#xe8;" horiz-adv-x="624" 
d="M314 519c156 0 265 -107 265 -273v-14h-402c6 -79 63 -139 147 -139c81 0 114 41 123 55h126c-8 -52 -77 -161 -249 -161c-165 0 -275 114 -275 266c0 157 110 266 265 266zM314 420c-69 0 -117 -38 -133 -100h264c-18 64 -66 100 -131 100zM376 580h-126l-116 187h133z
" />
    <glyph glyph-name="eacute" unicode="&#xe9;" horiz-adv-x="624" 
d="M314 519c156 0 265 -107 265 -273v-14h-402c6 -79 63 -139 147 -139c81 0 114 41 123 55h126c-8 -52 -77 -161 -249 -161c-165 0 -275 114 -275 266c0 157 110 266 265 266zM314 420c-69 0 -117 -38 -133 -100h264c-18 64 -66 100 -131 100zM244 580l109 187h133
l-116 -187h-126z" />
    <glyph glyph-name="ecircumflex" unicode="&#xea;" horiz-adv-x="624" 
d="M314 519c156 0 265 -107 265 -273v-14h-402c6 -79 63 -139 147 -139c81 0 114 41 123 55h126c-8 -52 -77 -161 -249 -161c-165 0 -275 114 -275 266c0 157 110 266 265 266zM314 420c-69 0 -117 -38 -133 -100h264c-18 64 -66 100 -131 100zM381 578l-67 104l-67 -104
h-118l129 196h112l126 -196h-115z" />
    <glyph glyph-name="edieresis" unicode="&#xeb;" horiz-adv-x="624" 
d="M314 519c156 0 265 -107 265 -273v-14h-402c6 -79 63 -139 147 -139c81 0 114 41 123 55h126c-8 -52 -77 -161 -249 -161c-165 0 -275 114 -275 266c0 157 110 266 265 266zM314 420c-69 0 -117 -38 -133 -100h264c-18 64 -66 100 -131 100zM146 587v149h127v-149h-127z
M355 587v149h127v-149h-127z" />
    <glyph glyph-name="igrave" unicode="&#xec;" horiz-adv-x="295" 
d="M84 0v506h128v-506h-128zM209 580h-126l-116 187h133z" />
    <glyph glyph-name="iacute" unicode="&#xed;" horiz-adv-x="295" 
d="M84 0v506h128v-506h-128zM84 580l109 187h133l-116 -187h-126z" />
    <glyph glyph-name="icircumflex" unicode="&#xee;" horiz-adv-x="295" 
d="M211 578l-64 106l-63 -106h-116l123 196h113l120 -196h-113zM84 0v506h128v-506h-128z" />
    <glyph glyph-name="idieresis" unicode="&#xef;" horiz-adv-x="295" 
d="M-17 587v149h124v-149h-124zM188 587v149h124v-149h-124zM84 0v506h128v-506h-128z" />
    <glyph glyph-name="eth" unicode="&#xf0;" horiz-adv-x="643" 
d="M594 253c0 -154 -118 -266 -273 -266s-272 112 -272 266c0 142 98 245 224 245c45 0 77 -15 103 -35l-95 112l-160 -60l-30 75l134 50l-82 96h142l48 -55l141 53l31 -75l-116 -43l88 -102c72 -86 117 -156 117 -261zM321 101c87 0 144 67 144 152c0 84 -57 152 -144 152
c-85 0 -143 -68 -143 -152c0 -85 58 -152 143 -152z" />
    <glyph glyph-name="ntilde" unicode="&#xf1;" horiz-adv-x="665" 
d="M210 270v-270h-127v506h127v-85c19 36 76 96 168 96c127 0 211 -93 211 -222v-295h-129v270c0 80 -48 133 -123 133c-77 0 -127 -55 -127 -133zM257 576h-91v84c0 58 27 95 84 95c35 0 57 -14 88 -36l29 -21c12 -8 21 -14 31 -14c12 0 17 9 17 21v55h91v-83
c0 -58 -27 -96 -84 -96c-36 0 -57 14 -88 36l-29 21c-13 9 -21 15 -31 15c-12 0 -17 -9 -17 -22v-55z" />
    <glyph glyph-name="ograve" unicode="&#xf2;" horiz-adv-x="643" 
d="M322 519c154 0 272 -112 272 -266s-118 -266 -272 -266c-156 0 -273 112 -273 266s117 266 273 266zM322 101c85 0 143 66 143 152s-58 152 -143 152c-86 0 -144 -67 -144 -152s58 -152 144 -152zM383 580h-126l-116 187h133z" />
    <glyph glyph-name="oacute" unicode="&#xf3;" horiz-adv-x="643" 
d="M322 519c154 0 272 -112 272 -266s-118 -266 -272 -266c-156 0 -273 112 -273 266s117 266 273 266zM322 101c85 0 143 66 143 152s-58 152 -143 152c-86 0 -144 -67 -144 -152s58 -152 144 -152zM251 580l109 187h133l-116 -187h-126z" />
    <glyph glyph-name="ocircumflex" unicode="&#xf4;" horiz-adv-x="643" 
d="M322 519c154 0 272 -112 272 -266s-118 -266 -272 -266c-156 0 -273 112 -273 266s117 266 273 266zM322 101c85 0 143 66 143 152s-58 152 -143 152c-86 0 -144 -67 -144 -152s58 -152 144 -152zM388 578l-67 104l-67 -104h-118l129 196h112l126 -196h-115z" />
    <glyph glyph-name="otilde" unicode="&#xf5;" horiz-adv-x="643" 
d="M322 519c154 0 272 -112 272 -266s-118 -266 -272 -266c-156 0 -273 112 -273 266s117 266 273 266zM322 101c85 0 143 66 143 152s-58 152 -143 152c-86 0 -144 -67 -144 -152s58 -152 144 -152zM242 576h-91v84c0 58 27 95 84 95c35 0 57 -14 88 -36l29 -21
c12 -8 21 -14 31 -14c12 0 17 9 17 21v55h91v-83c0 -58 -27 -96 -84 -96c-36 0 -57 14 -88 36l-29 21c-13 9 -21 15 -31 15c-12 0 -17 -9 -17 -22v-55z" />
    <glyph glyph-name="odieresis" unicode="&#xf6;" horiz-adv-x="643" 
d="M322 519c154 0 272 -112 272 -266s-118 -266 -272 -266c-156 0 -273 112 -273 266s117 266 273 266zM322 101c85 0 143 66 143 152s-58 152 -143 152c-86 0 -144 -67 -144 -152s58 -152 144 -152zM153 587v149h127v-149h-127zM362 587v149h127v-149h-127z" />
    <glyph glyph-name="divide" unicode="&#xf7;" horiz-adv-x="704" 
d="M278 458v159h148v-159h-148zM622 266h-542v113h542v-113zM278 20v159h148v-159h-148z" />
    <glyph glyph-name="oslash" unicode="&#xf8;" horiz-adv-x="643" 
d="M595 253c0 -154 -118 -266 -273 -266c-54 0 -107 16 -151 44l-29 -31h-120l84 90c-35 44 -57 100 -57 163c0 155 117 266 273 266c54 0 105 -16 149 -43l28 30h122l-84 -89c36 -44 58 -100 58 -164zM172 253c0 -30 5 -57 15 -79l209 221c-21 10 -45 15 -74 15
c-89 0 -150 -69 -150 -157zM472 253c0 30 -5 58 -15 80l-210 -222c21 -10 46 -15 75 -15c90 0 150 69 150 157z" />
    <glyph glyph-name="ugrave" unicode="&#xf9;" horiz-adv-x="652" 
d="M328 -11c-160 0 -251 97 -251 234v283h128v-269c0 -78 43 -131 121 -131s121 53 121 131v269h129v-283c0 -137 -91 -234 -248 -234zM387 580h-126l-116 187h133z" />
    <glyph glyph-name="uacute" unicode="&#xfa;" horiz-adv-x="652" 
d="M328 -11c-160 0 -251 97 -251 234v283h128v-269c0 -78 43 -131 121 -131s121 53 121 131v269h129v-283c0 -137 -91 -234 -248 -234zM255 580l109 187h133l-116 -187h-126z" />
    <glyph glyph-name="ucircumflex" unicode="&#xfb;" horiz-adv-x="652" 
d="M328 -11c-160 0 -251 97 -251 234v283h128v-269c0 -78 43 -131 121 -131s121 53 121 131v269h129v-283c0 -137 -91 -234 -248 -234zM392 578l-67 104l-67 -104h-118l129 196h112l126 -196h-115z" />
    <glyph glyph-name="udieresis" unicode="&#xfc;" horiz-adv-x="652" 
d="M328 -11c-160 0 -251 97 -251 234v283h128v-269c0 -78 43 -131 121 -131s121 53 121 131v269h129v-283c0 -137 -91 -234 -248 -234zM157 587v149h127v-149h-127zM366 587v149h127v-149h-127z" />
    <glyph glyph-name="yacute" unicode="&#xfd;" horiz-adv-x="599" 
d="M585 506l-312 -719h-128l96 222l-228 497h144l149 -344l149 344h130zM236 580l109 187h133l-116 -187h-126z" />
    <glyph glyph-name="thorn" unicode="&#xfe;" horiz-adv-x="675" 
d="M208 77v-290h-125v949h126v-310c10 20 65 91 174 91c133 0 241 -99 241 -264s-108 -264 -241 -264c-109 0 -164 68 -175 88zM207 253c0 -86 57 -152 144 -152s144 66 144 152c0 87 -57 152 -144 152s-144 -65 -144 -152z" />
    <glyph glyph-name="ydieresis" unicode="&#xff;" horiz-adv-x="599" 
d="M585 506l-312 -719h-128l96 222l-228 497h144l149 -344l149 344h130zM138 587v149h127v-149h-127zM347 587v149h127v-149h-127z" />
    <glyph glyph-name="dotlessi" unicode="&#x131;" horiz-adv-x="295" 
d="M84 0v506h128v-506h-128z" />
    <glyph glyph-name="Lslash" unicode="&#x141;" horiz-adv-x="723" 
d="M686 121v-121h-573v213l-97 -46v114l97 47v382h134v-317l266 130v-118l-266 -128v-156h439z" />
    <glyph glyph-name="lslash" unicode="&#x142;" horiz-adv-x="385" 
d="M21 255v111l108 50v320h128v-261l106 49v-114l-106 -48v-362h-128v304z" />
    <glyph glyph-name="OE" unicode="&#x152;" horiz-adv-x="1185" 
d="M61 355c0 223 159 355 385 355h661v-116h-422v-162h244v-117h-244v-196h461v-119h-700c-226 0 -385 132 -385 355zM447 119h104v472h-104c-151 0 -249 -90 -249 -236s98 -236 249 -236z" />
    <glyph glyph-name="oe" unicode="&#x153;" horiz-adv-x="1031" 
d="M980 148c-7 -52 -76 -161 -245 -161c-102 0 -175 46 -214 99c-42 -61 -115 -99 -204 -99c-153 0 -268 112 -268 266c0 155 115 266 268 266c92 0 165 -40 206 -102c36 57 104 102 203 102c154 1 261 -106 260 -273v-15l-16 1h-381c6 -79 62 -139 144 -139
c80 0 113 41 121 55h126zM724 420c-69 0 -117 -39 -132 -102h261c-17 65 -65 102 -129 102zM319 101c85 0 142 67 142 152s-57 152 -142 152c-84 0 -141 -67 -141 -152s57 -152 141 -152z" />
    <glyph glyph-name="Scaron" unicode="&#x160;" horiz-adv-x="755" 
d="M350 609c-97 0 -148 -33 -148 -85c0 -48 42 -76 116 -85c44 -4 77 -8 125 -13c142 -14 251 -68 251 -218c0 -128 -101 -221 -302 -221c-232 0 -321 117 -349 219h143c19 -45 76 -105 206 -105c108 0 165 41 165 98c0 68 -50 90 -123 99l-126 13c-142 14 -242 81 -242 209
c0 127 115 203 284 203c223 0 305 -107 327 -197h-137c-20 36 -74 83 -190 83zM566 932l-139 -161h-118l-136 161h122l73 -83l73 83h125z" />
    <glyph glyph-name="scaron" unicode="&#x161;" horiz-adv-x="578" 
d="M327 198c-36 3 -54 5 -89 9c-111 9 -186 59 -186 158c0 95 87 155 223 155c181 0 236 -94 248 -143h-135c-8 11 -39 46 -114 46c-61 0 -93 -21 -93 -51c0 -28 21 -47 72 -53l86 -9c137 -12 193 -65 193 -164c0 -94 -80 -160 -234 -160c-188 0 -249 109 -259 156h137
c5 -12 36 -57 122 -57c70 0 104 24 104 56c0 31 -18 51 -75 57zM469 776l-129 -196h-112l-126 196h116l67 -105l67 105h117z" />
    <glyph glyph-name="Ydieresis" unicode="&#x178;" horiz-adv-x="782" 
d="M465 300v-300h-138v299l-319 411h171l221 -289l220 289h154zM226 773v149h127v-149h-127zM447 773v149h127v-149h-127z" />
    <glyph glyph-name="Zcaron" unicode="&#x17d;" horiz-adv-x="791" 
d="M751 120v-120h-700v77l442 514h-432v119h643v-77l-446 -513h493zM580 932l-139 -161h-118l-136 161h122l73 -83l73 83h125z" />
    <glyph glyph-name="zcaron" unicode="&#x17e;" horiz-adv-x="621" 
d="M585 107v-107h-536v71l305 329h-297v106h491v-69l-309 -330h346zM486 776l-129 -196h-112l-126 196h116l67 -105l67 105h117z" />
    <glyph glyph-name="circumflex" unicode="&#x2c6;" 
d="M327 578l-67 104l-67 -104h-118l129 196h112l126 -196h-115z" />
    <glyph glyph-name="caron" unicode="&#x2c7;" 
d="M444 776l-129 -196h-112l-126 196h116l67 -105l67 105h117z" />
    <glyph glyph-name="breve" unicode="&#x2d8;" 
d="M300 668c39 0 55 30 55 61v17h101v-19c0 -85 -49 -153 -156 -153s-156 68 -156 153v19h101v-17c0 -31 16 -61 55 -61z" />
    <glyph glyph-name="dotaccent" unicode="&#x2d9;" 
d="M234 587v152h132v-152h-132z" />
    <glyph glyph-name="ring" unicode="&#x2da;" 
d="M300 569c-79 0 -136 59 -136 133c0 75 58 132 136 132s137 -57 137 -132c0 -74 -58 -133 -137 -133zM300 641c35 0 60 27 60 61c0 35 -24 61 -60 61s-60 -26 -60 -61c0 -34 25 -61 60 -61z" />
    <glyph glyph-name="ogonek" unicode="&#x2db;" 
d="M457 -117v-96h-126c-77 0 -125 31 -125 92c0 53 45 84 98 121h128c-55 -43 -89 -66 -89 -92c0 -17 12 -25 32 -25h82z" />
    <glyph glyph-name="tilde" unicode="&#x2dc;" 
d="M221 576h-91v84c0 58 27 95 84 95c35 0 57 -14 88 -36l29 -21c12 -8 21 -14 31 -14c12 0 17 9 17 21v55h91v-83c0 -58 -27 -96 -84 -96c-36 0 -57 14 -88 36l-29 21c-13 9 -21 15 -31 15c-12 0 -17 -9 -17 -22v-55z" />
    <glyph glyph-name="hungarumlaut" unicode="&#x2dd;" 
d="M296 580l81 187h113l-87 -187h-107zM108 580l82 187h112l-87 -187h-107z" />
    <glyph glyph-name="endash" unicode="&#x2013;" horiz-adv-x="708" 
d="M80 251v93h548v-93h-548z" />
    <glyph glyph-name="emdash" unicode="&#x2014;" horiz-adv-x="1013" 
d="M80 251v93h853v-93h-853z" />
    <glyph glyph-name="quoteleft" unicode="&#x2018;" horiz-adv-x="311" 
d="M133 736h92c-33 -59 -62 -127 -65 -195h72v-155h-151v138c0 87 24 159 52 212z" />
    <glyph glyph-name="quoteright" unicode="&#x2019;" horiz-adv-x="311" 
d="M177 386h-92c34 59 63 127 65 195h-71v155h151v-138c0 -87 -24 -159 -53 -212z" />
    <glyph glyph-name="quotesinglbase" unicode="&#x201a;" horiz-adv-x="310" 
d="M177 -195h-92c34 59 63 127 65 195h-71v155h151v-138c0 -87 -24 -159 -53 -212z" />
    <glyph glyph-name="quotedblleft" unicode="&#x201c;" horiz-adv-x="540" 
d="M133 736h92c-33 -59 -62 -127 -65 -195h70v-155h-149v138c0 87 24 159 52 212zM364 736h92c-33 -59 -62 -127 -65 -195h70v-155h-150v138c0 87 24 159 53 212z" />
    <glyph glyph-name="quotedblright" unicode="&#x201d;" horiz-adv-x="540" 
d="M407 386h-92c33 59 62 127 65 195h-70v155h149v-138c0 -87 -24 -159 -52 -212zM176 386h-92c33 59 62 127 65 195h-70v155h150v-138c0 -87 -24 -159 -53 -212z" />
    <glyph glyph-name="quotedblbase" unicode="&#x201e;" horiz-adv-x="539" 
d="M407 -195h-92c33 59 62 127 65 195h-70v155h149v-138c0 -87 -24 -159 -52 -212zM176 -195h-92c33 59 62 127 65 195h-70v155h150v-138c0 -87 -24 -159 -53 -212z" />
    <glyph glyph-name="dagger" unicode="&#x2020;" horiz-adv-x="522" 
d="M476 422h-153v-422h-123v422h-154v115h154v173h123v-173h153v-115z" />
    <glyph glyph-name="daggerdbl" unicode="&#x2021;" horiz-adv-x="519" 
d="M471 169h-150v-169h-123v169h-150v111h150v151h-150v111h150v168h123v-168h150v-111h-150v-151h150v-111z" />
    <glyph glyph-name="bullet" unicode="&#x2022;" 
d="M300 526c117 0 210 -94 210 -210c0 -117 -93 -210 -210 -210s-210 93 -210 210c0 116 93 210 210 210z" />
    <glyph glyph-name="ellipsis" unicode="&#x2026;" horiz-adv-x="849" 
d="M80 0v170h153v-170h-153zM348 0v170h153v-170h-153zM616 0v170h153v-170h-153z" />
    <glyph glyph-name="perthousand" unicode="&#x2030;" horiz-adv-x="1440" 
d="M245 348c-106 0 -188 81 -188 187s82 187 188 187s188 -81 188 -187s-82 -187 -188 -187zM186 0l512 710h119l-512 -710h-119zM245 443c52 0 88 40 88 92c0 51 -36 91 -88 91s-87 -40 -87 -91c0 -52 35 -92 87 -92zM758 -14c-106 0 -188 81 -188 187s82 187 188 187
s188 -81 188 -187s-82 -187 -188 -187zM1194 -14c-106 0 -188 81 -188 187s82 187 188 187s188 -81 188 -187s-82 -187 -188 -187zM758 82c52 0 88 40 88 91c0 52 -36 92 -88 92c-51 0 -87 -40 -87 -92c0 -51 36 -91 87 -91zM1194 82c52 0 88 40 88 91c0 52 -36 92 -88 92
c-51 0 -87 -40 -87 -92c0 -51 36 -91 87 -91z" />
    <glyph glyph-name="guilsinglleft" unicode="&#x2039;" horiz-adv-x="353" 
d="M290 473l-111 -183l111 -185h-122l-108 184l109 184h121z" />
    <glyph glyph-name="guilsinglright" unicode="&#x203a;" horiz-adv-x="353" 
d="M293 289l-109 -184h-121l111 183l-111 185h122z" />
    <glyph glyph-name="fraction" unicode="&#x2044;" horiz-adv-x="562" 
d="M113 0h-113l448 710h114z" />
    <glyph glyph-name="Euro" unicode="&#x20ac;" horiz-adv-x="701" 
d="M639 222c-3 -150 -99 -233 -245 -233c-149 0 -241 88 -241 238h-110v94h110v75h-110v94h110c3 143 93 232 241 232c149 0 241 -89 245 -228h-127c-4 58 -39 113 -118 113c-76 0 -117 -52 -117 -117h158v-94h-158v-75h158v-94h-158c1 -75 44 -123 118 -123
c77 0 115 51 117 118h127z" />
    <glyph glyph-name="trademark" unicode="&#x2122;" horiz-adv-x="1026" 
d="M29 617v93h373v-93h-133v-306h-108v306h-132zM624 710l91 -249l92 249h147v-399h-97v304l-110 -306h-73l-109 308v-306h-94v399h153z" />
    <glyph glyph-name="minus" unicode="&#x2212;" horiz-adv-x="692" 
d="M612 265h-532v115h532v-115z" />
    <glyph glyph-name="Dcroat" unicode="&#x110;" horiz-adv-x="846" 
d="M11 302v112h107v296h287c227 0 380 -130 380 -355c0 -221 -152 -355 -380 -355h-287v302h-107zM403 592h-151v-178h216v-112h-216v-184h151c149 0 245 91 245 237c0 151 -96 237 -245 237z" />
    <glyph glyph-name="Eng" unicode="&#x14a;" horiz-adv-x="862" 
d="M764 -41c0 -118 -57 -172 -171 -172h-151v107h106c60 0 89 25 89 71c0 29 -14 55 -48 101l-361 472v-538h-130v710h156l381 -504v504h129v-751z" />
    <glyph glyph-name="IJ" unicode="&#x132;" horiz-adv-x="1008" 
d="M99 0v710h135v-710h-135zM913 230c0 -153 -97 -243 -254 -243c-156 0 -248 89 -248 243v190h130v-182c0 -76 42 -127 118 -127c78 0 120 51 120 127v472h134v-480z" />
    <glyph glyph-name="dcroat" unicode="&#x111;" horiz-adv-x="676" 
d="M466 80c-10 -20 -64 -91 -175 -91c-132 0 -241 99 -241 264s110 264 241 264c110 0 164 -67 174 -87v142h-199v91h199v73h128v-73h89v-91h-89v-572h-127v80zM467 253c0 87 -56 152 -142 152c-88 0 -145 -65 -145 -152s57 -152 145 -152c86 0 142 65 142 152z" />
    <glyph glyph-name="eng" unicode="&#x14b;" horiz-adv-x="665" 
d="M589 -35c0 -122 -58 -178 -174 -178h-149v105h107c61 0 87 30 87 88v290c0 80 -48 133 -123 133c-77 0 -127 -55 -127 -133v-270h-127v506h127v-85c19 36 76 96 168 96c127 0 211 -93 211 -222v-330z" />
    <glyph glyph-name="ij" unicode="&#x133;" horiz-adv-x="591" 
d="M81 587v152h133v-152h-133zM84 0v506h128v-506h-128zM376 587v152h134v-152h-134zM507 -42c0 -117 -55 -171 -166 -171h-157v105h114c57 0 81 27 81 82v532h128v-548z" />
    <glyph glyph-name="Abreve" unicode="&#x102;" horiz-adv-x="816" 
d="M648 0l-65 146h-358l-65 -146h-135l319 713h127l320 -713h-143zM276 262h256l-128 287zM407 860c42 0 60 30 60 63v11h101v-13c0 -86 -52 -155 -161 -155s-161 69 -161 155v13h101v-11c0 -32 18 -63 60 -63z" />
    <glyph glyph-name="Amacron" unicode="&#x100;" horiz-adv-x="816" 
d="M648 0l-65 146h-358l-65 -146h-135l319 713h127l320 -713h-143zM276 262h256l-128 287zM582 801h-350v100h350v-100z" />
    <glyph glyph-name="Aogonek" unicode="&#x104;" horiz-adv-x="816" 
d="M815 -117v-96h-126c-77 0 -125 31 -125 92c0 53 39 87 83 121h1l-65 146h-358l-65 -146h-135l319 713h127l320 -713h-1c-56 -43 -89 -66 -89 -92c0 -17 12 -25 32 -25h82zM276 262h256l-128 287z" />
    <glyph glyph-name="Aringacute" unicode="&#x1fa;" horiz-adv-x="816" 
d="M648 0l-65 146h-358l-65 -146h-135l319 713h127l320 -713h-143zM276 262h256l-128 287zM343 1064l103 144h141l-111 -144h-133zM407 763c-79 0 -136 59 -136 133c0 75 58 132 136 132s137 -57 137 -132c0 -74 -58 -133 -137 -133zM407 835c35 0 60 26 60 61
s-24 61 -60 61s-60 -26 -60 -61s25 -61 60 -61z" />
    <glyph glyph-name="AEacute" unicode="&#x1fc;" horiz-adv-x="1170" 
d="M1131 119v-119h-596v165h-281l-108 -165h-149l468 710h626v-116h-422v-162h244v-117h-244v-196h462zM329 280h206v316zM712 773l112 156h144l-120 -156h-136z" />
    <glyph glyph-name="Cacute" unicode="&#x106;" horiz-adv-x="803" 
d="M418 -12c-208 0 -358 159 -358 367s150 367 358 367c219 0 312 -147 331 -230h-138c-20 38 -80 107 -193 107c-134 0 -219 -111 -219 -244s85 -244 219 -244c124 0 176 72 195 108h136c-17 -75 -103 -231 -331 -231zM351 773l112 156h144l-120 -156h-136z" />
    <glyph glyph-name="Ccaron" unicode="&#x10c;" horiz-adv-x="803" 
d="M418 -12c-208 0 -358 159 -358 367s150 367 358 367c219 0 312 -147 331 -230h-138c-20 38 -80 107 -193 107c-134 0 -219 -111 -219 -244s85 -244 219 -244c124 0 176 72 195 108h136c-17 -75 -103 -231 -331 -231zM616 932l-139 -161h-118l-136 161h122l73 -83l73 83
h125z" />
    <glyph glyph-name="Ccircumflex" unicode="&#x108;" horiz-adv-x="803" 
d="M418 -12c-208 0 -358 159 -358 367s150 367 358 367c219 0 312 -147 331 -230h-138c-20 38 -80 107 -193 107c-134 0 -219 -111 -219 -244s85 -244 219 -244c124 0 176 72 195 108h136c-17 -75 -103 -231 -331 -231zM491 771l-73 83l-73 -83h-125l139 161h118l136 -161
h-122z" />
    <glyph glyph-name="Cdotaccent" unicode="&#x10a;" horiz-adv-x="803" 
d="M418 -12c-208 0 -358 159 -358 367s150 367 358 367c219 0 312 -147 331 -230h-138c-20 38 -80 107 -193 107c-134 0 -219 -111 -219 -244s85 -244 219 -244c124 0 176 72 195 108h136c-17 -75 -103 -231 -331 -231zM352 773v152h132v-152h-132z" />
    <glyph glyph-name="Dcaron" unicode="&#x10e;" horiz-adv-x="826" 
d="M98 0v710h287c227 0 380 -130 380 -355c0 -221 -152 -355 -380 -355h-287zM383 592h-151v-474h151c149 0 245 91 245 237c0 151 -96 237 -245 237zM579 932l-139 -161h-118l-136 161h122l73 -83l73 83h125z" />
    <glyph glyph-name="Ebreve" unicode="&#x114;" horiz-adv-x="752" 
d="M98 0v710h575v-116h-441v-162h263v-117h-263v-196h481v-119h-615zM396 860c42 0 60 30 60 63v11h101v-13c0 -86 -52 -155 -161 -155s-161 69 -161 155v13h101v-11c0 -32 18 -63 60 -63z" />
    <glyph glyph-name="Ecaron" unicode="&#x11a;" horiz-adv-x="752" 
d="M98 0v710h575v-116h-441v-162h263v-117h-263v-196h481v-119h-615zM594 932l-139 -161h-118l-136 161h122l73 -83l73 83h125z" />
    <glyph glyph-name="Edotaccent" unicode="&#x116;" horiz-adv-x="752" 
d="M98 0v710h575v-116h-441v-162h263v-117h-263v-196h481v-119h-615zM330 773v152h132v-152h-132z" />
    <glyph glyph-name="Emacron" unicode="&#x112;" horiz-adv-x="752" 
d="M98 0v710h575v-116h-441v-162h263v-117h-263v-196h481v-119h-615zM571 801h-350v100h350v-100z" />
    <glyph glyph-name="Eogonek" unicode="&#x118;" horiz-adv-x="752" 
d="M98 0v710h575v-116h-441v-162h263v-117h-263v-196h481v-119h-106c-55 -43 -89 -66 -89 -92c0 -17 12 -25 32 -25h82v-96h-126c-77 0 -125 31 -125 92c0 53 45 84 98 121h-381z" />
    <glyph glyph-name="Gbreve" unicode="&#x11e;" horiz-adv-x="842" 
d="M762 92c-47 -43 -149 -105 -313 -105c-235 0 -389 151 -389 370c0 212 152 366 365 366c209 0 297 -119 320 -195h-142c-21 27 -73 76 -178 76c-140 -1 -228 -107 -228 -247c0 -148 98 -251 253 -251c92 0 154 24 183 44v145h-250v114h379v-317zM425 860
c42 0 60 30 60 63v11h101v-13c0 -86 -52 -155 -161 -155s-161 69 -161 155v13h101v-11c0 -32 18 -63 60 -63z" />
    <glyph glyph-name="Gcircumflex" unicode="&#x11c;" horiz-adv-x="842" 
d="M762 92c-47 -43 -149 -105 -313 -105c-235 0 -389 151 -389 370c0 212 152 366 365 366c209 0 297 -119 320 -195h-142c-21 27 -73 76 -178 76c-140 -1 -228 -107 -228 -247c0 -148 98 -251 253 -251c92 0 154 24 183 44v145h-250v114h379v-317zM498 771l-73 83l-73 -83
h-125l139 161h118l136 -161h-122z" />
    <glyph glyph-name="uni0122" unicode="&#x122;" horiz-adv-x="842" 
d="M762 92c-47 -43 -149 -105 -313 -105c-235 0 -389 151 -389 370c0 212 152 366 365 366c209 0 297 -119 320 -195h-142c-21 27 -73 76 -178 76c-140 -1 -228 -107 -228 -247c0 -148 98 -251 253 -251c92 0 154 24 183 44v145h-250v114h379v-317zM492 -322h-87
c21 38 37 86 40 114h-66v127h145v-101c0 -61 -16 -104 -32 -140z" />
    <glyph glyph-name="Gdotaccent" unicode="&#x120;" horiz-adv-x="842" 
d="M762 92c-47 -43 -149 -105 -313 -105c-235 0 -389 151 -389 370c0 212 152 366 365 366c209 0 297 -119 320 -195h-142c-21 27 -73 76 -178 76c-140 -1 -228 -107 -228 -247c0 -148 98 -251 253 -251c92 0 154 24 183 44v145h-250v114h379v-317zM359 773v152h132v-152
h-132z" />
    <glyph glyph-name="Hbar" unicode="&#x126;" horiz-adv-x="854" 
d="M7 515v93h91v102h134v-102h390v102h135v-102h90v-93h-90v-515h-135v297h-390v-297h-134v515h-91zM232 417h390v98h-390v-98z" />
    <glyph glyph-name="Hcircumflex" unicode="&#x124;" horiz-adv-x="854" 
d="M622 0v297h-390v-297h-134v710h134v-293h390v293h135v-710h-135zM500 771l-73 83l-73 -83h-125l139 161h118l136 -161h-122z" />
    <glyph glyph-name="Ibreve" unicode="&#x12c;" horiz-adv-x="333" 
d="M99 0v710h135v-710h-135zM166 860c42 0 60 30 60 63v11h101v-13c0 -86 -52 -155 -161 -155s-161 69 -161 155v13h101v-11c0 -32 18 -63 60 -63z" />
    <glyph glyph-name="Idotaccent" unicode="&#x130;" horiz-adv-x="333" 
d="M99 0v710h135v-710h-135zM100 773v152h132v-152h-132z" />
    <glyph glyph-name="Imacron" unicode="&#x12a;" horiz-adv-x="333" 
d="M99 0v710h135v-710h-135zM341 801h-350v100h350v-100z" />
    <glyph glyph-name="Iogonek" unicode="&#x12e;" horiz-adv-x="333" 
d="M99 0v710h135v-710c-56 -43 -89 -66 -89 -92c0 -17 12 -25 32 -25h82v-96h-127c-77 0 -125 31 -125 90c0 53 42 88 92 123z" />
    <glyph glyph-name="Itilde" unicode="&#x128;" horiz-adv-x="333" 
d="M99 0v710h135v-710h-135zM168 807l-38 20c-14 7 -26 12 -35 12c-11 0 -16 -8 -16 -22v-48h-93v77c0 58 27 96 84 96c34 0 59 -15 94 -34l38 -19c14 -7 25 -13 34 -13c12 0 17 9 17 23v48h93v-77c0 -58 -28 -96 -84 -96c-36 0 -60 15 -94 33z" />
    <glyph glyph-name="Jcircumflex" unicode="&#x134;" horiz-adv-x="675" 
d="M580 230c0 -153 -97 -243 -254 -243c-156 0 -248 89 -248 243v190h130v-182c0 -76 42 -127 118 -127c78 0 120 51 120 127v472h134v-480zM584 771l-73 83l-73 -83h-125l139 161h118l136 -161h-122z" />
    <glyph glyph-name="uni0136" unicode="&#x136;" horiz-adv-x="798" 
d="M608 0l-376 325v-325h-134v710h134v-319l366 319h180l-397 -345l414 -365h-187zM451 -322h-87c21 38 37 86 40 114h-66v127h145v-101c0 -61 -16 -104 -32 -140z" />
    <glyph glyph-name="Lacute" unicode="&#x139;" horiz-adv-x="707" 
d="M671 121v-121h-573v710h134v-589h439zM99 773l112 156h144l-120 -156h-136z" />
    <glyph glyph-name="Lcaron" unicode="&#x13d;" horiz-adv-x="707" 
d="M671 121v-121h-573v710h134v-589h439zM289 580l53 194h115l-61 -194h-107z" />
    <glyph glyph-name="uni013B" unicode="&#x13b;" horiz-adv-x="707" 
d="M671 121v-121h-573v710h134v-589h439zM434 -322h-87c21 38 37 86 40 114h-66v127h145v-101c0 -61 -16 -104 -32 -140z" />
    <glyph glyph-name="Ldot" unicode="&#x13f;" horiz-adv-x="707" 
d="M671 121v-121h-573v710h134v-589h439zM442 318v170h153v-170h-153z" />
    <glyph glyph-name="Nacute" unicode="&#x143;" horiz-adv-x="862" 
d="M764 710v-713h-105l-431 544v-541h-130v710h156l381 -487v487h129zM373 773l112 156h144l-120 -156h-136z" />
    <glyph glyph-name="Ncaron" unicode="&#x147;" horiz-adv-x="862" 
d="M764 710v-713h-105l-431 544v-541h-130v710h156l381 -487v487h129zM640 932l-139 -161h-118l-136 161h122l73 -83l73 83h125z" />
    <glyph glyph-name="uni0145" unicode="&#x145;" horiz-adv-x="862" 
d="M764 710v-713h-105l-431 544v-541h-130v710h156l381 -487v487h129zM477 -322h-87c21 38 37 86 40 114h-66v127h145v-101c0 -61 -16 -104 -32 -140z" />
    <glyph glyph-name="Obreve" unicode="&#x14e;" horiz-adv-x="864" 
d="M432 -12c-213 0 -372 154 -372 367s161 367 372 367s372 -154 372 -367c0 -212 -161 -367 -372 -367zM432 110c142 0 235 109 235 245c0 135 -93 245 -235 245c-141 0 -234 -110 -234 -245c0 -137 92 -245 234 -245zM432 860c42 0 60 30 60 63v11h101v-13
c0 -86 -52 -155 -161 -155s-161 69 -161 155v13h101v-11c0 -32 18 -63 60 -63z" />
    <glyph glyph-name="Ohungarumlaut" unicode="&#x150;" horiz-adv-x="864" 
d="M432 -12c-213 0 -372 154 -372 367s161 367 372 367s372 -154 372 -367c0 -212 -161 -367 -372 -367zM432 110c142 0 235 109 235 245c0 135 -93 245 -235 245c-141 0 -234 -110 -234 -245c0 -137 92 -245 234 -245zM470 773l80 156h124l-86 -156h-118zM272 773l77 156
h125l-85 -156h-117z" />
    <glyph glyph-name="Omacron" unicode="&#x14c;" horiz-adv-x="864" 
d="M432 -12c-213 0 -372 154 -372 367s161 367 372 367s372 -154 372 -367c0 -212 -161 -367 -372 -367zM432 110c142 0 235 109 235 245c0 135 -93 245 -235 245c-141 0 -234 -110 -234 -245c0 -137 92 -245 234 -245zM607 801h-350v100h350v-100z" />
    <glyph glyph-name="Oslashacute" unicode="&#x1fe;" horiz-adv-x="864" 
d="M804 355c0 -212 -161 -367 -372 -367c-77 0 -148 21 -207 59l-42 -47h-142l105 116c-54 63 -86 146 -86 239c0 213 161 367 372 367c76 0 146 -21 205 -59l42 47h145l-106 -118c54 -62 86 -144 86 -237zM197 355c0 -54 13 -102 36 -142l322 358c-34 20 -76 31 -123 31
c-141 0 -235 -110 -235 -247zM667 355c0 53 -13 102 -36 141l-323 -357c35 -20 76 -31 124 -31c142 0 235 109 235 247zM366 773l112 156h144l-120 -156h-136z" />
    <glyph glyph-name="Racute" unicode="&#x154;" horiz-adv-x="809" 
d="M98 0v710h397c155 0 243 -73 243 -212c0 -96 -50 -164 -140 -192l167 -306h-142l-161 292h-230v-292h-134zM484 591h-252v-182h252c77 0 116 28 116 89c0 65 -39 93 -116 93zM331 773l112 156h144l-120 -156h-136z" />
    <glyph glyph-name="Rcaron" unicode="&#x158;" horiz-adv-x="809" 
d="M98 0v710h397c155 0 243 -73 243 -212c0 -96 -50 -164 -140 -192l167 -306h-142l-161 292h-230v-292h-134zM484 591h-252v-182h252c77 0 116 28 116 89c0 65 -39 93 -116 93zM596 932l-139 -161h-118l-136 161h122l73 -83l73 83h125z" />
    <glyph glyph-name="uni0156" unicode="&#x156;" horiz-adv-x="809" 
d="M98 0v710h397c155 0 243 -73 243 -212c0 -96 -50 -164 -140 -192l167 -306h-142l-161 292h-230v-292h-134zM484 591h-252v-182h252c77 0 116 28 116 89c0 65 -39 93 -116 93zM446 -322h-87c21 38 37 86 40 114h-66v127h145v-101c0 -61 -16 -104 -32 -140z" />
    <glyph glyph-name="Sacute" unicode="&#x15a;" horiz-adv-x="755" 
d="M350 609c-97 0 -148 -33 -148 -85c0 -48 42 -76 116 -85c44 -4 77 -8 125 -13c142 -14 251 -68 251 -218c0 -128 -101 -221 -302 -221c-232 0 -321 117 -349 219h143c19 -45 76 -105 206 -105c108 0 165 41 165 98c0 68 -50 90 -123 99l-126 13c-142 14 -242 81 -242 209
c0 127 115 203 284 203c223 0 305 -107 327 -197h-137c-20 36 -74 83 -190 83zM301 773l112 156h144l-120 -156h-136z" />
    <glyph glyph-name="uni015E" unicode="&#x15e;" horiz-adv-x="755" 
d="M421 -156c0 18 -11 30 -36 30h-91v121c-160 28 -228 125 -251 211h143c19 -45 76 -105 206 -105c108 0 165 41 165 98c0 68 -50 90 -123 99l-126 13c-142 14 -242 81 -242 209c0 127 115 203 284 203c223 0 305 -107 327 -197h-137c-20 36 -74 83 -190 83
c-97 0 -148 -33 -148 -85c0 -48 42 -76 116 -85c44 -4 77 -8 125 -13c142 -14 251 -68 251 -218c0 -128 -101 -220 -300 -221v-36h9c85 0 124 -43 124 -110c0 -68 -39 -117 -124 -117h-146v88h128c25 0 36 12 36 32z" />
    <glyph glyph-name="Scircumflex" unicode="&#x15c;" horiz-adv-x="755" 
d="M350 609c-97 0 -148 -33 -148 -85c0 -48 42 -76 116 -85c44 -4 77 -8 125 -13c142 -14 251 -68 251 -218c0 -128 -101 -221 -302 -221c-232 0 -321 117 -349 219h143c19 -45 76 -105 206 -105c108 0 165 41 165 98c0 68 -50 90 -123 99l-126 13c-142 14 -242 81 -242 209
c0 127 115 203 284 203c223 0 305 -107 327 -197h-137c-20 36 -74 83 -190 83zM441 771l-73 83l-73 -83h-125l139 161h118l136 -161h-122z" />
    <glyph glyph-name="uni0218" unicode="&#x218;" horiz-adv-x="755" 
d="M350 609c-97 0 -148 -33 -148 -85c0 -48 42 -76 116 -85c44 -4 77 -8 125 -13c142 -14 251 -68 251 -218c0 -128 -101 -221 -302 -221c-232 0 -321 117 -349 219h143c19 -45 76 -105 206 -105c108 0 165 41 165 98c0 68 -50 90 -123 99l-126 13c-142 14 -242 81 -242 209
c0 127 115 203 284 203c223 0 305 -107 327 -197h-137c-20 36 -74 83 -190 83zM433 -322h-87c21 38 37 86 40 114h-66v127h145v-101c0 -61 -16 -104 -32 -140z" />
    <glyph glyph-name="Tcaron" unicode="&#x164;" horiz-adv-x="772" 
d="M37 590v120h698v-120h-282v-590h-134v590h-282zM584 932l-139 -161h-118l-136 161h122l73 -83l73 83h125z" />
    <glyph glyph-name="Tcommaaccent" unicode="&#x162;" horiz-adv-x="772" 
d="M37 590v120h698v-120h-282v-590h-134v590h-282zM428 -322h-87c21 38 37 86 40 114h-66v127h145v-101c0 -61 -16 -104 -32 -140z" />
    <glyph glyph-name="uni021A" unicode="&#x21a;" horiz-adv-x="772" 
d="M37 590v120h698v-120h-282v-590h-134v590h-282zM428 -322h-87c21 38 37 86 40 114h-66v127h145v-101c0 -61 -16 -104 -32 -140z" />
    <glyph glyph-name="Tbar" unicode="&#x166;" horiz-adv-x="772" 
d="M37 590v120h698v-120h-282v-171h188v-108h-188v-311h-134v311h-188v108h188v171h-282z" />
    <glyph glyph-name="Ubreve" unicode="&#x16c;" horiz-adv-x="842" 
d="M422 111c123 0 193 82 193 204v395h133v-404c0 -178 -113 -320 -326 -320c-220 0 -328 140 -328 320v404h135v-395c0 -122 68 -204 193 -204zM421 860c42 0 60 30 60 63v11h101v-13c0 -86 -52 -155 -161 -155s-161 69 -161 155v13h101v-11c0 -32 18 -63 60 -63z" />
    <glyph glyph-name="Uhungarumlaut" unicode="&#x170;" horiz-adv-x="842" 
d="M422 111c123 0 193 82 193 204v395h133v-404c0 -178 -113 -320 -326 -320c-220 0 -328 140 -328 320v404h135v-395c0 -122 68 -204 193 -204zM458 773l80 156h124l-86 -156h-118zM260 773l77 156h125l-85 -156h-117z" />
    <glyph glyph-name="Umacron" unicode="&#x16a;" horiz-adv-x="842" 
d="M422 111c123 0 193 82 193 204v395h133v-404c0 -178 -113 -320 -326 -320c-220 0 -328 140 -328 320v404h135v-395c0 -122 68 -204 193 -204zM596 801h-350v100h350v-100z" />
    <glyph glyph-name="Uogonek" unicode="&#x172;" horiz-adv-x="842" 
d="M620 -117v-96h-126c-77 0 -125 31 -125 89c0 49 45 84 93 112c-14 -1 -30 -2 -40 -2c-220 0 -328 140 -328 320v404h135v-395c0 -122 68 -204 193 -204c123 0 193 82 193 204v395h133v-404c0 -129 -57 -211 -138 -283c-78 -68 -104 -88 -104 -114c0 -18 13 -26 34 -26h80
z" />
    <glyph glyph-name="Uring" unicode="&#x16e;" horiz-adv-x="842" 
d="M422 111c123 0 193 82 193 204v395h133v-404c0 -178 -113 -320 -326 -320c-220 0 -328 140 -328 320v404h135v-395c0 -122 68 -204 193 -204zM421 763c-79 0 -136 59 -136 133c0 75 58 132 136 132s137 -57 137 -132c0 -74 -58 -133 -137 -133zM421 835c35 0 60 26 60 61
s-24 61 -60 61s-60 -26 -60 -61s25 -61 60 -61z" />
    <glyph glyph-name="Utilde" unicode="&#x168;" horiz-adv-x="842" 
d="M422 111c123 0 193 82 193 204v395h133v-404c0 -178 -113 -320 -326 -320c-220 0 -328 140 -328 320v404h135v-395c0 -122 68 -204 193 -204zM423 807l-38 20c-14 7 -26 12 -35 12c-11 0 -16 -8 -16 -22v-48h-93v77c0 58 27 96 84 96c34 0 59 -15 94 -34l38 -19
c14 -7 25 -13 34 -13c12 0 17 9 17 23v48h93v-77c0 -58 -28 -96 -84 -96c-36 0 -60 15 -94 33z" />
    <glyph glyph-name="Wacute" unicode="&#x1e82;" horiz-adv-x="1138" 
d="M751 -3l-180 516l-181 -516h-116l-241 713h146l163 -509l174 512h119l175 -513l163 510h132l-234 -713h-120zM507 773l112 156h144l-120 -156h-136z" />
    <glyph glyph-name="Wcircumflex" unicode="&#x174;" horiz-adv-x="1138" 
d="M751 -3l-180 516l-181 -516h-116l-241 713h146l163 -509l174 512h119l175 -513l163 510h132l-234 -713h-120zM646 771l-73 83l-73 -83h-125l139 161h118l136 -161h-122z" />
    <glyph glyph-name="Wdieresis" unicode="&#x1e84;" horiz-adv-x="1138" 
d="M751 -3l-180 516l-181 -516h-116l-241 713h146l163 -509l174 512h119l175 -513l163 510h132l-234 -713h-120zM399 773v149h127v-149h-127zM620 773v149h127v-149h-127z" />
    <glyph glyph-name="Wgrave" unicode="&#x1e80;" horiz-adv-x="1138" 
d="M751 -3l-180 516l-181 -516h-116l-241 713h146l163 -509l174 512h119l175 -513l163 510h132l-234 -713h-120zM641 773h-136l-120 156h144z" />
    <glyph glyph-name="Ycircumflex" unicode="&#x176;" horiz-adv-x="782" 
d="M465 300v-300h-138v299l-319 411h171l221 -289l220 289h154zM473 771l-73 83l-73 -83h-125l139 161h118l136 -161h-122z" />
    <glyph glyph-name="Ygrave" unicode="&#x1ef2;" horiz-adv-x="782" 
d="M465 300v-300h-138v299l-319 411h171l221 -289l220 289h154zM476 773h-136l-120 156h144z" />
    <glyph glyph-name="Zacute" unicode="&#x179;" horiz-adv-x="791" 
d="M751 120v-120h-700v77l442 514h-432v119h643v-77l-446 -513h493zM310 773l112 156h144l-120 -156h-136z" />
    <glyph glyph-name="Zdotaccent" unicode="&#x17b;" horiz-adv-x="791" 
d="M751 120v-120h-700v77l442 514h-432v119h643v-77l-446 -513h493zM315 773v152h132v-152h-132z" />
    <glyph glyph-name="abreve" unicode="&#x103;" horiz-adv-x="668" 
d="M459 80c-10 -21 -60 -91 -171 -91c-130 0 -238 98 -238 264c0 164 108 264 239 264c107 0 158 -66 169 -87v76h128v-506h-127v80zM460 253c0 86 -55 152 -138 152c-86 0 -142 -66 -142 -152s56 -152 142 -152c83 0 138 66 138 152zM322 668c39 0 55 30 55 61v17h101v-19
c0 -85 -49 -153 -156 -153s-156 68 -156 153v19h101v-17c0 -31 16 -61 55 -61z" />
    <glyph glyph-name="amacron" unicode="&#x101;" horiz-adv-x="668" 
d="M459 80c-10 -21 -60 -91 -171 -91c-130 0 -238 98 -238 264c0 164 108 264 239 264c107 0 158 -66 169 -87v76h128v-506h-127v80zM460 253c0 86 -55 152 -138 152c-86 0 -142 -66 -142 -152s56 -152 142 -152c83 0 138 66 138 152zM484 613h-324v101h324v-101z" />
    <glyph glyph-name="aogonek" unicode="&#x105;" horiz-adv-x="668" 
d="M459 80c-10 -21 -60 -91 -171 -91c-130 0 -238 98 -238 264c0 164 108 264 239 264c107 0 158 -66 169 -87v76h128v-506c-56 -43 -89 -66 -89 -92c0 -17 12 -25 32 -25h82v-96h-126c-77 0 -126 31 -126 90c0 53 47 86 100 123v80zM460 253c0 86 -55 152 -138 152
c-86 0 -142 -66 -142 -152s56 -152 142 -152c83 0 138 66 138 152z" />
    <glyph glyph-name="aringacute" unicode="&#x1fb;" horiz-adv-x="668" 
d="M459 80c-10 -21 -60 -91 -171 -91c-130 0 -238 98 -238 264c0 164 108 264 239 264c107 0 158 -66 169 -87v76h128v-506h-127v80zM460 253c0 86 -55 152 -138 152c-86 0 -142 -66 -142 -152s56 -152 142 -152c83 0 138 66 138 152zM257 871l95 154h131l-102 -154h-124z
M316 569c-79 0 -136 59 -136 133c0 75 58 132 136 132s137 -57 137 -132c0 -74 -58 -133 -137 -133zM316 641c35 0 60 27 60 61c0 35 -24 61 -60 61s-60 -26 -60 -61c0 -34 25 -61 60 -61z" />
    <glyph glyph-name="aeacute" unicode="&#x1fd;" horiz-adv-x="973" 
d="M48 160c0 102 77 158 202 158h159c0 61 -46 99 -117 99c-66 0 -95 -37 -101 -51h-130c10 54 75 153 230 153c93 0 159 -34 189 -82c35 46 103 82 188 82c155 1 262 -106 261 -273v-15l-16 1h-381c6 -79 61 -139 144 -139c79 0 112 41 121 55h126
c-8 -52 -76 -161 -247 -161c-106 0 -182 49 -223 107c-26 -46 -79 -105 -186 -105c-128 0 -219 66 -219 171zM666 420c-68 0 -116 -39 -131 -102h261c-17 65 -65 102 -130 102zM175 162c0 -49 44 -78 106 -78c74 0 128 42 128 103v43h-138c-58 0 -96 -22 -96 -68zM411 580
l109 187h133l-116 -187h-126z" />
    <glyph glyph-name="cacute" unicode="&#x107;" horiz-adv-x="601" 
d="M431 339c-7 14 -39 67 -120 67c-78 0 -132 -68 -132 -153s54 -153 133 -153c83 0 114 53 121 67h125c-6 -53 -67 -180 -248 -180c-146 0 -261 110 -261 266s114 266 260 266c180 0 241 -124 249 -180h-127zM239 580l109 187h133l-116 -187h-126z" />
    <glyph glyph-name="ccaron" unicode="&#x10d;" horiz-adv-x="601" 
d="M431 339c-7 14 -39 67 -120 67c-78 0 -132 -68 -132 -153s54 -153 133 -153c83 0 114 53 121 67h125c-6 -53 -67 -180 -248 -180c-146 0 -261 110 -261 266s114 266 260 266c180 0 241 -124 249 -180h-127zM492 776l-129 -196h-112l-126 196h116l67 -105l67 105h117z" />
    <glyph glyph-name="ccircumflex" unicode="&#x109;" horiz-adv-x="601" 
d="M431 339c-7 14 -39 67 -120 67c-78 0 -132 -68 -132 -153s54 -153 133 -153c83 0 114 53 121 67h125c-6 -53 -67 -180 -248 -180c-146 0 -261 110 -261 266s114 266 260 266c180 0 241 -124 249 -180h-127zM376 578l-67 104l-67 -104h-118l129 196h112l126 -196h-115z
" />
    <glyph glyph-name="cdotaccent" unicode="&#x10b;" horiz-adv-x="601" 
d="M431 339c-7 14 -39 67 -120 67c-78 0 -132 -68 -132 -153s54 -153 133 -153c83 0 114 53 121 67h125c-6 -53 -67 -180 -248 -180c-146 0 -261 110 -261 266s114 266 260 266c180 0 241 -124 249 -180h-127zM243 587v152h132v-152h-132z" />
    <glyph glyph-name="dcaron" unicode="&#x10f;" horiz-adv-x="676" 
d="M466 80c-10 -20 -64 -91 -175 -91c-132 0 -241 99 -241 264s110 264 241 264c110 0 164 -67 174 -87v306h128v-736h-127v80zM467 253c0 87 -56 152 -142 152c-88 0 -145 -65 -145 -152s57 -152 145 -152c86 0 142 65 142 152zM642 580l53 194h115l-61 -194h-107z" />
    <glyph glyph-name="ebreve" unicode="&#x115;" horiz-adv-x="624" 
d="M314 519c156 0 265 -107 265 -273v-14h-402c6 -79 63 -139 147 -139c81 0 114 41 123 55h126c-8 -52 -77 -161 -249 -161c-165 0 -275 114 -275 266c0 157 110 266 265 266zM314 420c-69 0 -117 -38 -133 -100h264c-18 64 -66 100 -131 100zM314 668c39 0 55 30 55 61v17
h101v-19c0 -85 -49 -153 -156 -153s-156 68 -156 153v19h101v-17c0 -31 16 -61 55 -61z" />
    <glyph glyph-name="ecaron" unicode="&#x11b;" horiz-adv-x="624" 
d="M314 519c156 0 265 -107 265 -273v-14h-402c6 -79 63 -139 147 -139c81 0 114 41 123 55h126c-8 -52 -77 -161 -249 -161c-165 0 -275 114 -275 266c0 157 110 266 265 266zM314 420c-69 0 -117 -38 -133 -100h264c-18 64 -66 100 -131 100zM497 776l-129 -196h-112
l-126 196h116l67 -105l67 105h117z" />
    <glyph glyph-name="edotaccent" unicode="&#x117;" horiz-adv-x="624" 
d="M314 519c156 0 265 -107 265 -273v-14h-402c6 -79 63 -139 147 -139c81 0 114 41 123 55h126c-8 -52 -77 -161 -249 -161c-165 0 -275 114 -275 266c0 157 110 266 265 266zM314 420c-69 0 -117 -38 -133 -100h264c-18 64 -66 100 -131 100zM248 587v152h132v-152h-132z
" />
    <glyph glyph-name="emacron" unicode="&#x113;" horiz-adv-x="624" 
d="M314 519c156 0 265 -107 265 -273v-14h-402c6 -79 63 -139 147 -139c81 0 114 41 123 55h126c-8 -52 -77 -161 -249 -161c-165 0 -275 114 -275 266c0 157 110 266 265 266zM314 420c-69 0 -117 -38 -133 -100h264c-18 64 -66 100 -131 100zM476 613h-324v101h324v-101z
" />
    <glyph glyph-name="eogonek" unicode="&#x119;" horiz-adv-x="624" 
d="M314 519c156 0 265 -107 265 -273v-14h-402c6 -79 63 -139 147 -139c81 0 114 41 123 55h126c-6 -34 -36 -81 -92 -131c-61 -54 -91 -81 -91 -107c0 -18 13 -27 37 -27h80v-96h-127c-77 0 -126 30 -126 89c0 47 41 83 93 112c-8 -1 -15 -1 -23 -1
c-165 0 -275 114 -275 266c0 157 110 266 265 266zM314 420c-69 0 -117 -38 -133 -100h264c-18 64 -66 100 -131 100z" />
    <glyph glyph-name="gbreve" unicode="&#x11f;" horiz-adv-x="674" 
d="M465 83c-11 -22 -64 -92 -174 -92c-132 0 -241 99 -241 263c0 165 109 263 241 263c109 0 163 -68 173 -88v77h128v-495c0 -139 -89 -236 -272 -236c-195 0 -258 121 -266 158h147c7 -10 37 -52 119 -52c92 0 145 48 145 132v70zM466 254c0 86 -56 151 -142 151
c-88 0 -144 -65 -144 -151c0 -84 56 -151 144 -151c86 0 142 67 142 151zM321 668c39 0 55 30 55 61v17h101v-19c0 -85 -49 -153 -156 -153s-156 68 -156 153v19h101v-17c0 -31 16 -61 55 -61z" />
    <glyph glyph-name="gcircumflex" unicode="&#x11d;" horiz-adv-x="674" 
d="M465 83c-11 -22 -64 -92 -174 -92c-132 0 -241 99 -241 263c0 165 109 263 241 263c109 0 163 -68 173 -88v77h128v-495c0 -139 -89 -236 -272 -236c-195 0 -258 121 -266 158h147c7 -10 37 -52 119 -52c92 0 145 48 145 132v70zM466 254c0 86 -56 151 -142 151
c-88 0 -144 -65 -144 -151c0 -84 56 -151 144 -151c86 0 142 67 142 151zM388 578l-67 104l-67 -104h-118l129 196h112l126 -196h-115z" />
    <glyph glyph-name="uni0123" unicode="&#x123;" horiz-adv-x="674" 
d="M465 83c-11 -22 -64 -92 -174 -92c-132 0 -241 99 -241 263c0 165 109 263 241 263c109 0 163 -68 173 -88v77h128v-495c0 -139 -89 -236 -272 -236c-195 0 -258 121 -266 158h147c7 -10 37 -52 119 -52c92 0 145 48 145 132v70zM466 254c0 86 -56 151 -142 151
c-88 0 -144 -65 -144 -151c0 -84 56 -151 144 -151c86 0 142 67 142 151zM273 828h87c-21 -38 -37 -86 -40 -114h66v-127h-145v101c0 61 16 104 32 140z" />
    <glyph glyph-name="gdotaccent" unicode="&#x121;" horiz-adv-x="674" 
d="M465 83c-11 -22 -64 -92 -174 -92c-132 0 -241 99 -241 263c0 165 109 263 241 263c109 0 163 -68 173 -88v77h128v-495c0 -139 -89 -236 -272 -236c-195 0 -258 121 -266 158h147c7 -10 37 -52 119 -52c92 0 145 48 145 132v70zM466 254c0 86 -56 151 -142 151
c-88 0 -144 -65 -144 -151c0 -84 56 -151 144 -151c86 0 142 67 142 151zM255 587v152h132v-152h-132z" />
    <glyph glyph-name="hbar" unicode="&#x127;" horiz-adv-x="665" 
d="M210 270v-270h-127v572h-90v91h90v73h127v-73h193v-91h-193v-151c19 36 76 96 168 96c127 0 211 -93 211 -222v-295h-129v270c0 80 -48 133 -123 133c-77 0 -127 -55 -127 -133z" />
    <glyph glyph-name="hcircumflex" unicode="&#x125;" horiz-adv-x="665" 
d="M210 270v-270h-127v736h127v-315c19 36 76 96 168 96c127 0 211 -93 211 -222v-295h-129v270c0 80 -48 133 -123 133c-77 0 -127 -55 -127 -133zM409 797l-73 83l-73 -83h-125l139 161h118l136 -161h-122z" />
    <glyph glyph-name="ibreve" unicode="&#x12d;" horiz-adv-x="295" 
d="M147 668c37 0 53 28 53 58v20h101v-22c0 -83 -49 -150 -154 -150s-153 67 -153 150v22h101v-20c0 -29 15 -58 52 -58zM84 0v506h128v-506h-128z" />
    <glyph glyph-name="idotaccent" horiz-adv-x="295" 
d="M81 587v152h133v-152h-133zM84 0v506h128v-506h-128z" />
    <glyph glyph-name="imacron" unicode="&#x12b;" horiz-adv-x="295" 
d="M296 613h-297v101h297v-101zM84 0v506h128v-506h-128z" />
    <glyph glyph-name="iogonek" unicode="&#x12f;" horiz-adv-x="295" 
d="M81 587v152h133v-152h-133zM84 0v506h128v-506h-128zM236 -117v-96h-126c-77 0 -125 31 -125 92c0 53 45 84 98 121h128c-55 -43 -89 -66 -89 -92c0 -17 12 -25 32 -25h82z" />
    <glyph glyph-name="itilde" unicode="&#x129;" horiz-adv-x="295" 
d="M74 576h-90v84c0 58 27 95 82 95c36 0 56 -15 86 -38l22 -17c13 -10 21 -16 30 -16c12 0 16 9 16 21v55h91v-83c0 -58 -28 -96 -83 -96c-35 0 -55 16 -85 38l-23 17c-14 11 -20 17 -30 17c-11 0 -16 -9 -16 -22v-55zM84 0v506h128v-506h-128z" />
    <glyph glyph-name="jcircumflex" unicode="&#x135;" horiz-adv-x="296" 
d="M211 578l-64 106l-63 -106h-116l123 196h113l120 -196h-113zM212 -42c0 -117 -55 -171 -166 -171h-157v105h114c57 0 81 27 81 82v532h128v-548z" />
    <glyph glyph-name="uni0137" unicode="&#x137;" horiz-adv-x="622" 
d="M451 0l-242 230v-230h-126v736h126v-436l232 206h167l-269 -236l283 -270h-171zM365 -322h-87c21 38 37 86 40 114h-66v127h145v-101c0 -61 -16 -104 -32 -140z" />
    <glyph glyph-name="lacute" unicode="&#x13a;" horiz-adv-x="297" 
d="M85 0v736h128v-736h-128zM81 799l112 156h144l-120 -156h-136z" />
    <glyph glyph-name="lcaron" unicode="&#x13e;" horiz-adv-x="297" 
d="M85 0v736h128v-736h-128zM262 580l53 194h115l-61 -194h-107z" />
    <glyph glyph-name="uni013C" unicode="&#x13c;" horiz-adv-x="297" 
d="M85 0v736h128v-736h-128zM190 -322h-87c21 38 37 86 40 114h-66v127h145v-101c0 -61 -16 -104 -32 -140z" />
    <glyph glyph-name="ldot" unicode="&#x140;" horiz-adv-x="500" 
d="M85 0v736h128v-736h-128zM322 285v170h153v-170h-153z" />
    <glyph glyph-name="nacute" unicode="&#x144;" horiz-adv-x="665" 
d="M210 270v-270h-127v506h127v-85c19 36 76 96 168 96c127 0 211 -93 211 -222v-295h-129v270c0 80 -48 133 -123 133c-77 0 -127 -55 -127 -133zM265 580l109 187h133l-116 -187h-126z" />
    <glyph glyph-name="napostrophe" unicode="&#x149;" horiz-adv-x="912" 
d="M457 270v-270h-127v506h127v-85c19 36 76 96 168 96c127 0 211 -93 211 -222v-295h-129v270c0 80 -48 133 -123 133c-77 0 -127 -55 -127 -133zM158 386h-92c34 59 63 127 65 195h-71v155h151v-138c0 -87 -24 -159 -53 -212z" />
    <glyph glyph-name="ncaron" unicode="&#x148;" horiz-adv-x="665" 
d="M210 270v-270h-127v506h127v-85c19 36 76 96 168 96c127 0 211 -93 211 -222v-295h-129v270c0 80 -48 133 -123 133c-77 0 -127 -55 -127 -133zM519 776l-129 -196h-112l-126 196h116l67 -105l67 105h117z" />
    <glyph glyph-name="uni0146" unicode="&#x146;" horiz-adv-x="665" 
d="M210 270v-270h-127v506h127v-85c19 36 76 96 168 96c127 0 211 -93 211 -222v-295h-129v270c0 80 -48 133 -123 133c-77 0 -127 -55 -127 -133zM378 -322h-87c21 38 37 86 40 114h-66v127h145v-101c0 -61 -16 -104 -32 -140z" />
    <glyph glyph-name="obreve" unicode="&#x14f;" horiz-adv-x="643" 
d="M322 519c154 0 272 -112 272 -266s-118 -266 -272 -266c-156 0 -273 112 -273 266s117 266 273 266zM322 101c85 0 143 66 143 152s-58 152 -143 152c-86 0 -144 -67 -144 -152s58 -152 144 -152zM321 668c39 0 55 30 55 61v17h101v-19c0 -85 -49 -153 -156 -153
s-156 68 -156 153v19h101v-17c0 -31 16 -61 55 -61z" />
    <glyph glyph-name="ohungarumlaut" unicode="&#x151;" horiz-adv-x="643" 
d="M322 519c154 0 272 -112 272 -266s-118 -266 -272 -266c-156 0 -273 112 -273 266s117 266 273 266zM322 101c85 0 143 66 143 152s-58 152 -143 152c-86 0 -144 -67 -144 -152s58 -152 144 -152zM360 580l81 187h113l-87 -187h-107zM172 580l82 187h112l-87 -187h-107z
" />
    <glyph glyph-name="omacron" unicode="&#x14d;" horiz-adv-x="643" 
d="M322 519c154 0 272 -112 272 -266s-118 -266 -272 -266c-156 0 -273 112 -273 266s117 266 273 266zM322 101c85 0 143 66 143 152s-58 152 -143 152c-86 0 -144 -67 -144 -152s58 -152 144 -152zM483 613h-324v101h324v-101z" />
    <glyph glyph-name="oslashacute" unicode="&#x1ff;" horiz-adv-x="643" 
d="M595 253c0 -154 -118 -266 -273 -266c-54 0 -107 16 -151 44l-29 -31h-120l84 90c-35 44 -57 100 -57 163c0 155 117 266 273 266c54 0 105 -16 149 -43l28 30h122l-84 -89c36 -44 58 -100 58 -164zM172 253c0 -30 5 -57 15 -79l209 221c-21 10 -45 15 -74 15
c-89 0 -150 -69 -150 -157zM472 253c0 30 -5 58 -15 80l-210 -222c21 -10 46 -15 75 -15c90 0 150 69 150 157zM251 580l109 187h133l-116 -187h-126z" />
    <glyph glyph-name="racute" unicode="&#x155;" horiz-adv-x="523" 
d="M210 266v-266h-127v506h127v-85c13 29 52 88 164 88h118v-127h-135c-108 0 -147 -36 -147 -116zM232 580l109 187h133l-116 -187h-126z" />
    <glyph glyph-name="rcaron" unicode="&#x159;" horiz-adv-x="523" 
d="M210 266v-266h-127v506h127v-85c13 29 52 88 164 88h118v-127h-135c-108 0 -147 -36 -147 -116zM485 776l-129 -196h-112l-126 196h116l67 -105l67 105h117z" />
    <glyph glyph-name="uni0157" unicode="&#x157;" horiz-adv-x="520" 
d="M210 266v-266h-127v506h127v-85c13 29 52 88 164 88h118v-127h-135c-108 0 -147 -36 -147 -116zM189 -322h-87c21 38 37 86 40 114h-66v127h145v-101c0 -61 -16 -104 -32 -140z" />
    <glyph glyph-name="sacute" unicode="&#x15b;" horiz-adv-x="578" 
d="M327 198c-36 3 -54 5 -89 9c-111 9 -186 59 -186 158c0 95 87 155 223 155c181 0 236 -94 248 -143h-135c-8 11 -39 46 -114 46c-61 0 -93 -21 -93 -51c0 -28 21 -47 72 -53l86 -9c137 -12 193 -65 193 -164c0 -94 -80 -160 -234 -160c-188 0 -249 109 -259 156h137
c5 -12 36 -57 122 -57c70 0 104 24 104 56c0 31 -18 51 -75 57zM215 580l109 187h133l-116 -187h-126z" />
    <glyph glyph-name="uni015F" unicode="&#x15f;" horiz-adv-x="578" 
d="M327 198c-36 3 -54 5 -89 9c-111 9 -186 59 -186 158c0 95 87 155 223 155c181 0 236 -94 248 -143h-135c-8 11 -39 46 -114 46c-61 0 -93 -21 -93 -51c0 -28 21 -47 72 -53l86 -9c137 -12 193 -65 193 -164c0 -91 -75 -156 -220 -160v-35h9c85 0 124 -43 124 -110
c0 -68 -39 -117 -124 -117h-147v88h129c24 0 36 12 36 32c0 18 -12 30 -36 30h-91v121c-122 26 -165 108 -173 147h137c5 -12 36 -57 122 -57c70 0 104 24 104 56c0 31 -18 51 -75 57z" />
    <glyph glyph-name="scircumflex" unicode="&#x15d;" horiz-adv-x="578" 
d="M327 198c-36 3 -54 5 -89 9c-111 9 -186 59 -186 158c0 95 87 155 223 155c181 0 236 -94 248 -143h-135c-8 11 -39 46 -114 46c-61 0 -93 -21 -93 -51c0 -28 21 -47 72 -53l86 -9c137 -12 193 -65 193 -164c0 -94 -80 -160 -234 -160c-188 0 -249 109 -259 156h137
c5 -12 36 -57 122 -57c70 0 104 24 104 56c0 31 -18 51 -75 57zM353 578l-67 104l-67 -104h-118l129 196h112l126 -196h-115z" />
    <glyph glyph-name="uni0219" unicode="&#x219;" horiz-adv-x="578" 
d="M327 198c-36 3 -54 5 -89 9c-111 9 -186 59 -186 158c0 95 87 155 223 155c181 0 236 -94 248 -143h-135c-8 11 -39 46 -114 46c-61 0 -93 -21 -93 -51c0 -28 21 -47 72 -53l86 -9c137 -12 193 -65 193 -164c0 -94 -80 -160 -234 -160c-188 0 -249 109 -259 156h137
c5 -12 36 -57 122 -57c70 0 104 24 104 56c0 31 -18 51 -75 57zM343 -322h-87c21 38 37 86 40 114h-66v127h145v-101c0 -61 -16 -104 -32 -140z" />
    <glyph glyph-name="tbar" unicode="&#x167;" horiz-adv-x="529" 
d="M491 114v-114h-140c-119 0 -175 57 -175 165v71h-140v86h140v79h-140v105h140v204h128v-204h187v-105h-187v-79h188v-86h-188v-36c0 -59 20 -86 86 -86h101z" />
    <glyph glyph-name="tcaron" unicode="&#x165;" horiz-adv-x="529" 
d="M482 114v-114h-140c-119 0 -175 57 -175 165v232h-139v109h139v204h128v-204h187v-109h-187v-193c0 -63 21 -90 90 -90h97zM345 580l53 194h115l-61 -194h-107z" />
    <glyph glyph-name="tcommaaccent" unicode="&#x163;" horiz-adv-x="529" 
d="M482 114v-114h-140c-119 0 -175 57 -175 165v232h-139v109h139v204h128v-204h187v-109h-187v-193c0 -63 21 -90 90 -90h97zM332 -322h-87c21 38 37 86 40 114h-66v127h145v-101c0 -61 -16 -104 -32 -140z" />
    <glyph glyph-name="uni021B" unicode="&#x21b;" horiz-adv-x="529" 
d="M482 114v-114h-140c-119 0 -175 57 -175 165v232h-139v109h139v204h128v-204h187v-109h-187v-193c0 -63 21 -90 90 -90h97zM332 -322h-87c21 38 37 86 40 114h-66v127h145v-101c0 -61 -16 -104 -32 -140z" />
    <glyph glyph-name="ubreve" unicode="&#x16d;" horiz-adv-x="652" 
d="M328 -11c-160 0 -251 97 -251 234v283h128v-269c0 -78 43 -131 121 -131s121 53 121 131v269h129v-283c0 -137 -91 -234 -248 -234zM325 668c39 0 55 30 55 61v17h101v-19c0 -85 -49 -153 -156 -153s-156 68 -156 153v19h101v-17c0 -31 16 -61 55 -61z" />
    <glyph glyph-name="uhungarumlaut" unicode="&#x171;" horiz-adv-x="652" 
d="M328 -11c-160 0 -251 97 -251 234v283h128v-269c0 -78 43 -131 121 -131s121 53 121 131v269h129v-283c0 -137 -91 -234 -248 -234zM364 580l81 187h113l-87 -187h-107zM176 580l82 187h112l-87 -187h-107z" />
    <glyph glyph-name="umacron" unicode="&#x16b;" horiz-adv-x="652" 
d="M328 -11c-160 0 -251 97 -251 234v283h128v-269c0 -78 43 -131 121 -131s121 53 121 131v269h129v-283c0 -137 -91 -234 -248 -234zM487 613h-324v101h324v-101z" />
    <glyph glyph-name="uogonek" unicode="&#x173;" horiz-adv-x="652" 
d="M508 -117v-96h-126c-76 0 -124 30 -124 89c0 48 40 80 92 114c-8 -1 -15 -1 -22 -1c-160 0 -251 97 -251 234v283h128v-269c0 -78 43 -131 121 -131s121 53 121 131v269h129v-283c0 -87 -35 -143 -93 -200c-62 -62 -89 -85 -89 -114c0 -18 13 -26 34 -26h80z" />
    <glyph glyph-name="uring" unicode="&#x16f;" horiz-adv-x="652" 
d="M328 -11c-160 0 -251 97 -251 234v283h128v-269c0 -78 43 -131 121 -131s121 53 121 131v269h129v-283c0 -137 -91 -234 -248 -234zM325 569c-79 0 -136 59 -136 133c0 75 58 132 136 132s137 -57 137 -132c0 -74 -58 -133 -137 -133zM325 641c35 0 60 27 60 61
c0 35 -24 61 -60 61s-60 -26 -60 -61c0 -34 25 -61 60 -61z" />
    <glyph glyph-name="utilde" unicode="&#x169;" horiz-adv-x="652" 
d="M328 -11c-160 0 -251 97 -251 234v283h128v-269c0 -78 43 -131 121 -131s121 53 121 131v269h129v-283c0 -137 -91 -234 -248 -234zM246 576h-91v84c0 58 27 95 84 95c35 0 57 -14 88 -36l29 -21c12 -8 21 -14 31 -14c12 0 17 9 17 21v55h91v-83c0 -58 -27 -96 -84 -96
c-36 0 -57 14 -88 36l-29 21c-13 9 -21 15 -31 15c-12 0 -17 -9 -17 -22v-55z" />
    <glyph glyph-name="wacute" unicode="&#x1e83;" horiz-adv-x="894" 
d="M576 -4l-129 352l-128 -352h-112l-189 510h139l117 -340l125 344h113l124 -341l116 337h124l-185 -510h-115zM388 580l109 187h133l-116 -187h-126z" />
    <glyph glyph-name="wcircumflex" unicode="&#x175;" horiz-adv-x="894" 
d="M576 -4l-129 352l-128 -352h-112l-189 510h139l117 -340l125 344h113l124 -341l116 337h124l-185 -510h-115zM520 578l-67 104l-67 -104h-118l129 196h112l126 -196h-115z" />
    <glyph glyph-name="wdieresis" unicode="&#x1e85;" horiz-adv-x="894" 
d="M576 -4l-129 352l-128 -352h-112l-189 510h139l117 -340l125 344h113l124 -341l116 337h124l-185 -510h-115zM285 587v149h127v-149h-127zM494 587v149h127v-149h-127z" />
    <glyph glyph-name="wgrave" unicode="&#x1e81;" horiz-adv-x="894" 
d="M576 -4l-129 352l-128 -352h-112l-189 510h139l117 -340l125 344h113l124 -341l116 337h124l-185 -510h-115zM515 580h-126l-116 187h133z" />
    <glyph glyph-name="ycircumflex" unicode="&#x177;" horiz-adv-x="599" 
d="M585 506l-312 -719h-128l96 222l-228 497h144l149 -344l149 344h130zM373 578l-67 104l-67 -104h-118l129 196h112l126 -196h-115z" />
    <glyph glyph-name="ygrave" unicode="&#x1ef3;" horiz-adv-x="599" 
d="M585 506l-312 -719h-128l96 222l-228 497h144l149 -344l149 344h130zM370 580h-126l-116 187h133z" />
    <glyph glyph-name="zacute" unicode="&#x17a;" horiz-adv-x="621" 
d="M585 107v-107h-536v71l305 329h-297v106h491v-69l-309 -330h346zM232 580l109 187h133l-116 -187h-126z" />
    <glyph glyph-name="zdotaccent" unicode="&#x17c;" horiz-adv-x="621" 
d="M585 107v-107h-536v71l305 329h-297v106h491v-69l-309 -330h346zM237 587v152h132v-152h-132z" />
    <glyph glyph-name="f_b" horiz-adv-x="1178" 
d="M476 398h-181v-398h-128v398h-139v108h139v74c0 98 54 156 169 156h171v-102h-132c-56 0 -80 -28 -80 -79v-49h181v-108zM712 77v-77h-125v736h126v-310c10 20 65 91 174 91c133 0 241 -99 241 -264s-108 -264 -241 -264c-109 0 -164 68 -175 88zM711 253
c0 -86 57 -152 144 -152s143 66 143 152c0 87 -56 152 -143 152s-144 -65 -144 -152z" />
    <glyph glyph-name="f_h" horiz-adv-x="1169" 
d="M476 398h-181v-398h-128v398h-139v108h139v74c0 98 54 156 169 156h171v-102h-132c-56 0 -80 -28 -80 -79v-49h181v-108zM714 270v-270h-127v736h127v-315c19 36 76 96 168 96c127 0 211 -93 211 -222v-295h-129v270c0 80 -48 133 -123 133c-77 0 -127 -55 -127 -133z
" />
    <glyph glyph-name="f_i" unicode="&#xfb01;" horiz-adv-x="799" 
d="M476 398h-181v-398h-128v398h-139v108h139v74c0 98 54 156 169 156h171v-102h-132c-56 0 -80 -28 -80 -79v-49h181v-108zM585 587v152h133v-152h-133zM588 0v506h128v-506h-128z" />
    <glyph glyph-name="f_j" horiz-adv-x="800" 
d="M476 398h-181v-398h-128v398h-139v108h139v74c0 98 54 156 169 156h171v-102h-132c-56 0 -80 -28 -80 -79v-49h181v-108zM585 587v152h134v-152h-134zM716 -42c0 -117 -55 -171 -166 -171h-157v105h114c57 0 81 27 81 82v532h128v-548z" />
    <glyph glyph-name="f_k" horiz-adv-x="1126" 
d="M476 398h-181v-398h-128v398h-139v108h139v74c0 98 54 156 169 156h171v-102h-132c-56 0 -80 -28 -80 -79v-49h181v-108zM955 0l-242 230v-230h-126v736h126v-436l232 206h167l-269 -236l283 -270h-171z" />
    <glyph glyph-name="f_l" unicode="&#xfb02;" horiz-adv-x="801" 
d="M476 398h-181v-398h-128v398h-139v108h139v74c0 98 54 156 169 156h171v-102h-132c-56 0 -80 -28 -80 -79v-49h181v-108zM589 0v736h128v-736h-128z" />
    <glyph glyph-name="space_uni0326" horiz-adv-x="500" 
d="M291 -322h-87c21 38 37 86 40 114h-66v127h145v-101c0 -61 -16 -104 -32 -140z" />
    <glyph glyph-name="oneeighth" unicode="&#x215b;" horiz-adv-x="1002" 
d="M951 118c0 -75 -63 -125 -170 -125h-19c-106 0 -169 50 -169 125c0 63 43 95 74 105c-28 10 -67 39 -67 98c0 72 58 121 163 121h18c105 0 163 -49 163 -121c0 -59 -39 -88 -67 -98c31 -10 74 -42 74 -105zM768 361c-34 0 -58 -18 -58 -50c0 -31 24 -50 58 -50h8
c34 0 58 19 58 50c0 32 -24 50 -58 50h-8zM766 182c-34 0 -61 -20 -61 -54s27 -54 61 -54h12c35 0 61 20 61 54s-26 54 -61 54h-12zM279 0h-113l448 710h114zM259 712v-437h-111v319l-109 -59v98l137 79h83z" />
    <glyph glyph-name="onethird" unicode="&#x2153;" horiz-adv-x="985" 
d="M936 126c0 -80 -66 -133 -179 -133c-124 0 -175 77 -179 136h111c3 -18 22 -45 68 -45c43 0 67 19 67 49c0 29 -19 45 -54 45h-86v90h80c30 0 47 14 47 40c0 29 -22 46 -58 46c-41 0 -56 -25 -59 -43h-109c2 63 55 131 168 131c107 0 168 -46 168 -125
c0 -48 -31 -75 -57 -85c33 -11 72 -41 72 -106zM279 0h-113l448 710h114zM259 712v-437h-111v319l-109 -59v98l137 79h83z" />
    <glyph glyph-name="threeeighths" unicode="&#x215c;" horiz-adv-x="1100" 
d="M1049 118c0 -75 -63 -125 -170 -125h-19c-106 0 -169 50 -169 125c0 63 43 95 74 105c-28 10 -67 39 -67 98c0 72 58 121 163 121h18c105 0 163 -49 163 -121c0 -59 -39 -88 -67 -98c31 -10 74 -42 74 -105zM866 361c-34 0 -58 -18 -58 -50c0 -31 24 -50 58 -50h8
c34 0 58 19 58 50c0 32 -24 50 -58 50h-8zM864 182c-34 0 -61 -20 -61 -54s27 -54 61 -54h12c35 0 61 20 61 54s-26 54 -61 54h-12zM377 0h-113l448 710h114zM399 401c0 -80 -66 -133 -179 -133c-124 0 -175 77 -179 136h111c3 -18 22 -45 68 -45c43 0 67 19 67 49
c0 29 -19 45 -54 45h-86v90h80c30 0 47 14 47 40c0 29 -22 46 -58 46c-41 0 -56 -25 -59 -43h-109c2 63 55 131 168 131c107 0 168 -46 168 -125c0 -48 -31 -75 -57 -85c33 -11 72 -41 72 -106z" />
    <glyph glyph-name="fiveeighths" unicode="&#x215d;" horiz-adv-x="1096" 
d="M1045 118c0 -75 -63 -125 -170 -125h-19c-106 0 -169 50 -169 125c0 63 43 95 74 105c-28 10 -67 39 -67 98c0 72 58 121 163 121h18c105 0 163 -49 163 -121c0 -59 -39 -88 -67 -98c31 -10 74 -42 74 -105zM862 361c-34 0 -58 -18 -58 -50c0 -31 24 -50 58 -50h8
c34 0 58 19 58 50c0 32 -24 50 -58 50h-8zM860 182c-34 0 -61 -20 -61 -54s27 -54 61 -54h12c35 0 61 20 61 54s-26 54 -61 54h-12zM373 0h-113l448 710h114zM69 457v253h316v-86h-213v-84c15 16 43 32 85 32c82 0 145 -54 145 -146v-2c0 -90 -65 -156 -177 -156
c-125 0 -176 75 -177 140h110c4 -18 22 -49 67 -49c39 0 66 27 66 64v1c0 39 -26 65 -66 65c-39 0 -53 -23 -58 -32h-98z" />
    <glyph glyph-name="twothirds" unicode="&#x2154;" horiz-adv-x="1106" 
d="M1056 126c0 -80 -66 -133 -179 -133c-124 0 -175 77 -179 136h111c3 -18 22 -45 68 -45c43 0 67 19 67 49c0 29 -19 45 -54 45h-86v90h80c30 0 47 14 47 40c0 29 -22 46 -58 46c-41 0 -56 -25 -59 -43h-109c2 63 55 131 168 131c107 0 168 -46 168 -125
c0 -48 -31 -75 -57 -85c33 -11 72 -41 72 -106zM400 0h-113l448 710h114zM403 367v-92h-349v70l163 146c33 30 50 51 50 80c0 30 -20 52 -55 52c-37 0 -58 -24 -58 -60v-20h-104v21c0 88 58 153 162 153c105 0 166 -57 166 -141c0 -67 -39 -107 -96 -155l-62 -54h183z" />
    <glyph glyph-name="seveneighths" unicode="&#x215e;" horiz-adv-x="1011" 
d="M960 118c0 -75 -63 -125 -170 -125h-19c-106 0 -169 50 -169 125c0 63 43 95 74 105c-28 10 -67 39 -67 98c0 72 58 121 163 121h18c105 0 163 -49 163 -121c0 -59 -39 -88 -67 -98c31 -10 74 -42 74 -105zM777 361c-34 0 -58 -18 -58 -50c0 -31 24 -50 58 -50h8
c34 0 58 19 58 50c0 32 -24 50 -58 50h-8zM775 182c-34 0 -61 -20 -61 -54s27 -54 61 -54h12c35 0 61 20 61 54s-26 54 -61 54h-12zM289 0h-113l448 710h114zM386 643l-196 -368h-123l187 342h-212v93h344v-67z" />
    <glyph glyph-name="uni2032" unicode="&#x2032;" horiz-adv-x="301" 
d="M160 403h-117l97 307h117z" />
    <glyph glyph-name="uni2033" unicode="&#x2033;" horiz-adv-x="505" 
d="M157 403h-114l97 307h114zM362 403h-113l98 307h115z" />
    <glyph glyph-name="uni24C5" unicode="&#x24c5;" horiz-adv-x="867" 
d="M433 -12c-212 0 -368 158 -368 367c0 207 158 367 368 367s369 -160 369 -367s-159 -367 -369 -367zM433 68c170 0 281 126 281 287c0 159 -111 287 -281 287s-281 -127 -281 -287c0 -162 112 -287 281 -287zM276 169v376h202c96 0 148 -45 148 -127
c0 -81 -52 -128 -148 -128h-101v-121h-101zM474 458h-97v-80h97c33 0 50 15 50 40c0 27 -17 40 -50 40z" />
    <glyph glyph-name="zero.old" horiz-adv-x="725" 
d="M363 586c173 0 306 -124 306 -298c0 -173 -133 -301 -306 -301c-175 0 -307 128 -307 301c0 174 132 298 307 298zM363 104c103 0 174 81 174 184c0 102 -71 182 -174 182s-175 -80 -175 -182s72 -184 175 -184z" />
    <glyph glyph-name="one.old" horiz-adv-x="459" 
d="M351 579v-579h-130v431l-176 -101v123l207 126h99z" />
    <glyph glyph-name="two.old" horiz-adv-x="628" 
d="M577 110v-110h-510v86l222 143c81 52 117 89 117 148c0 55 -36 94 -102 94c-68 0 -107 -52 -107 -115v-6h-128v8c0 125 86 228 235 228s234 -87 234 -205c0 -106 -78 -177 -177 -233l-65 -38h281z" />
    <glyph glyph-name="three.old" horiz-adv-x="636" 
d="M573 64c0 -126 -96 -212 -260 -212c-177 0 -253 114 -261 211h134c8 -43 44 -94 127 -94c79 0 127 39 127 103c0 65 -42 100 -116 100h-120v115h119c61 0 98 32 98 90c0 59 -45 94 -112 94c-74 0 -105 -44 -113 -88h-131c4 96 80 203 243 203c157 0 246 -78 246 -199
c0 -84 -55 -130 -97 -147c53 -17 116 -68 116 -176z" />
    <glyph glyph-name="four.old" horiz-adv-x="700" 
d="M668 69h-144v-205h-129v205h-357v82l336 423h150v-392h144v-113zM190 182h205v262z" />
    <glyph glyph-name="five.old" horiz-adv-x="653" 
d="M99 167v407h461v-112h-336v-176c26 27 71 52 139 52c124 0 225 -87 225 -237v-1c0 -142 -100 -246 -261 -246c-179 0 -257 112 -262 220h132c6 -40 39 -103 130 -103c76 0 129 54 129 128c0 78 -52 128 -129 128c-76 0 -104 -46 -113 -60h-115z" />
    <glyph glyph-name="six.old" horiz-adv-x="659" 
d="M598 238c0 -142 -101 -250 -269 -250s-268 105 -268 250c0 110 48 182 116 269l157 203h151l-204 -259c23 14 53 24 94 24c132 0 223 -94 223 -237zM466 238c0 78 -49 135 -137 135c-83 0 -136 -57 -136 -135c0 -74 50 -134 136 -134c88 0 137 60 137 134z" />
    <glyph glyph-name="seven.old" horiz-adv-x="619" 
d="M572 484l-332 -620h-147l324 592h-364v118h519v-90z" />
    <glyph glyph-name="eight.old" horiz-adv-x="668" 
d="M600 192c0 -121 -98 -204 -255 -204h-25c-154 0 -252 83 -252 204c0 102 70 156 122 173c-47 15 -109 63 -109 160c0 114 88 197 241 197h24c154 0 242 -83 242 -197c0 -96 -62 -144 -110 -160c52 -16 122 -70 122 -173zM326 613c-66 0 -114 -38 -114 -98s48 -98 114 -98
h17c65 0 113 38 113 98s-48 98 -113 98h-17zM324 310c-69 0 -122 -42 -122 -107s53 -106 122 -106h21c69 0 121 41 121 106c0 66 -52 107 -121 107h-21z" />
    <glyph glyph-name="nine.old" horiz-adv-x="659" 
d="M482 67l-157 -203h-151l205 260c-23 -14 -54 -24 -96 -24c-131 0 -222 94 -222 236s101 250 269 250s268 -105 268 -250c0 -109 -49 -182 -116 -269zM193 336c0 -77 49 -135 137 -135c83 0 136 58 136 135c0 74 -50 134 -136 134c-88 0 -137 -60 -137 -134z" />
    <glyph glyph-name="space.tab" horiz-adv-x="325" 
 />
    <glyph glyph-name="dollar.tab" horiz-adv-x="642" 
d="M557 198c0 -101 -65 -177 -181 -196v-125h-110v125c-117 18 -184 100 -184 210v4h126v-2c0 -68 46 -107 111 -107c71 0 109 37 109 89c0 51 -32 78 -86 94l-81 23c-112 34 -170 93 -170 208c0 103 71 173 175 190v118h110v-119c108 -19 164 -92 165 -197v-2h-124v2
c-1 54 -37 93 -99 93c-60 0 -99 -31 -99 -83c0 -49 31 -76 86 -92c12 -4 67 -19 81 -24c111 -33 171 -93 171 -209z" />
    <glyph glyph-name="cent.tab" horiz-adv-x="650" 
d="M568 162c-4 -47 -47 -147 -172 -170v-115h-109v115c-112 24 -191 125 -191 261c0 137 79 238 191 261v111h109v-111c121 -24 164 -121 170 -168h-123c-8 16 -35 61 -102 61c-70 0 -115 -66 -115 -154s46 -154 116 -154c71 0 97 47 104 63h122z" />
    <glyph glyph-name="Euro.tab" horiz-adv-x="659" 
d="M618 222c-3 -150 -99 -233 -245 -233c-148 0 -240 88 -240 238h-110v94h110v75h-110v94h110c3 142 93 232 240 232c149 0 241 -89 245 -228h-127c-3 58 -38 113 -118 113c-75 0 -117 -53 -117 -117h159v-94h-159v-75h159v-94h-159c1 -76 45 -123 119 -123
c77 0 115 50 116 118h127z" />
    <glyph glyph-name="sterling.tab" horiz-adv-x="668" 
d="M646 115v-115h-608v115h112v150h-112v116h112v127c0 134 79 214 218 214c143 0 219 -79 219 -214v-33h-124v30c0 66 -35 103 -95 103c-58 0 -91 -37 -91 -103v-124h202v-116h-202v-150h369z" />
    <glyph glyph-name="yen.tab" horiz-adv-x="653" 
d="M589 136h-189v-136h-137v136h-189v94h189v75h-189v93h182l-240 312h164l154 -208l155 208h147l-230 -312h183v-93h-189v-75h189v-94z" />
    <glyph glyph-name="florin.tab" horiz-adv-x="650" 
d="M523 328h-181l-81 -535h-128l80 535h-138v108h154l17 116c17 105 62 158 185 158h173v-107h-140c-63 0 -83 -21 -92 -79l-13 -88h164v-108z" />
    <glyph glyph-name="zero.tab" horiz-adv-x="650" 
d="M325 723c157 0 256 -97 256 -258v-220c0 -165 -101 -258 -256 -258s-256 93 -256 258v220c0 161 99 258 256 258zM325 107c83 0 125 59 125 140v216c0 81 -42 140 -125 140s-125 -59 -125 -140v-216c0 -81 42 -140 125 -140z" />
    <glyph glyph-name="one.tab" horiz-adv-x="650" 
d="M469 713v-713h-133v562l-221 -124v124l255 151h99z" />
    <glyph glyph-name="two.tab" horiz-adv-x="650" 
d="M602 117v-117h-525v86l252 238c66 63 101 106 101 170s-41 109 -111 109c-69 0 -111 -49 -111 -118v-42h-129v45c0 132 88 234 240 234c154 0 245 -94 245 -225c0 -111 -66 -179 -154 -261l-126 -119h318z" />
    <glyph glyph-name="three.tab" horiz-adv-x="650" 
d="M587 200c0 -127 -99 -212 -267 -212c-183 0 -260 114 -267 210h133c9 -41 47 -92 134 -92c82 0 132 38 132 102s-41 99 -114 99h-134v116h130c61 0 98 32 98 90s-46 93 -116 93c-77 0 -109 -44 -117 -87h-131c4 96 81 203 247 203c159 0 249 -79 249 -200
c0 -84 -54 -129 -96 -146c53 -16 119 -66 119 -176z" />
    <glyph glyph-name="four.tab" horiz-adv-x="650" 
d="M614 202h-118v-202h-127v202h-327v81l305 427h149v-397h118v-111zM181 313h188v267z" />
    <glyph glyph-name="five.tab" horiz-adv-x="650" 
d="M96 308v402h466v-113h-341v-170c26 27 73 52 140 52c125 0 228 -87 228 -237v-8c0 -142 -102 -246 -264 -246c-179 0 -258 112 -264 220h133c6 -39 39 -102 131 -102c77 0 131 54 131 127v7c0 77 -52 127 -131 127c-76 0 -105 -44 -114 -59h-115z" />
    <glyph glyph-name="six.tab" horiz-adv-x="650" 
d="M593 238c0 -142 -101 -250 -268 -250c-168 0 -268 105 -268 250c0 110 48 182 116 269l157 203h151l-205 -260c23 14 53 24 95 24c131 0 222 -94 222 -236zM461 238c0 77 -49 134 -137 134c-81 0 -135 -57 -135 -134c0 -73 51 -132 135 -132c88 0 137 59 137 132z" />
    <glyph glyph-name="seven.tab" horiz-adv-x="650" 
d="M588 620l-333 -620h-146l324 592h-364v118h519v-90z" />
    <glyph glyph-name="eight.tab" horiz-adv-x="650" 
d="M593 192c0 -121 -95 -204 -255 -204h-29c-157 0 -252 83 -252 204c0 103 70 157 122 174c-47 15 -109 63 -109 159c0 114 86 197 242 197h27c156 0 242 -83 242 -197c0 -96 -62 -144 -110 -159c53 -17 122 -71 122 -174zM315 613c-68 0 -114 -38 -114 -98s46 -98 114 -98
h20c68 0 114 38 114 98s-46 98 -114 98h-20zM313 310c-71 0 -121 -42 -121 -107s50 -106 121 -106h24c72 0 122 41 122 106c0 66 -50 107 -122 107h-24z" />
    <glyph glyph-name="nine.tab" horiz-adv-x="650" 
d="M477 203l-157 -203h-151l205 260c-23 -14 -53 -24 -95 -24c-131 0 -222 94 -222 236s101 250 268 250c168 0 268 -105 268 -250c0 -110 -48 -182 -116 -269zM189 472c0 -77 49 -134 137 -134c81 0 135 57 135 134c0 73 -51 132 -135 132c-88 0 -137 -59 -137 -132z" />
    <glyph glyph-name="percent.tab" horiz-adv-x="975" 
d="M231 348c-106 0 -189 81 -189 187s83 187 189 187s188 -81 188 -187s-82 -187 -188 -187zM172 0l512 710h119l-512 -710h-119zM231 443c51 0 87 40 87 92c0 51 -36 91 -87 91c-52 0 -88 -40 -88 -91c0 -52 36 -92 88 -92zM744 -14c-106 0 -188 81 -188 187
s82 187 188 187s189 -81 189 -187s-83 -187 -189 -187zM744 82c52 0 88 40 88 91c0 52 -36 92 -88 92c-51 0 -87 -40 -87 -92c0 -51 36 -91 87 -91z" />
    <glyph glyph-name="perthousand.tab" horiz-adv-x="1300" 
d="M218 366c-101 0 -180 77 -180 178s79 178 180 178s179 -77 179 -178s-78 -178 -179 -178zM246 0h-117l513 710h117zM218 461c48 0 81 36 81 83s-33 84 -81 84s-81 -37 -81 -84s33 -83 81 -83zM669 -14c-102 0 -180 77 -180 178c0 100 79 178 180 178s179 -78 179 -178
c0 -101 -78 -178 -179 -178zM1082 -14c-101 0 -179 77 -179 178c0 100 78 178 179 178s180 -78 180 -178c0 -101 -79 -178 -180 -178zM669 80c48 0 81 36 81 84c0 46 -33 83 -81 83s-81 -37 -81 -83c0 -48 33 -84 81 -84zM1082 80c48 0 81 36 81 84c0 46 -33 83 -81 83
s-81 -37 -81 -83c0 -48 33 -84 81 -84z" />
    <glyph glyph-name="plus.tab" horiz-adv-x="650" 
d="M593 266h-209v-217h-118v217h-209v112h209v216h118v-216h209v-112z" />
    <glyph glyph-name="minus.tab" horiz-adv-x="650" 
d="M591 265h-532v115h532v-115z" />
    <glyph glyph-name="multiply.tab" horiz-adv-x="650" 
d="M591 371h-532v111h532v-111zM591 151h-532v111h532v-111z" />
    <glyph glyph-name="divide.tab" horiz-adv-x="650" 
d="M251 458v159h148v-159h-148zM596 266h-543v113h543v-113zM251 20v159h148v-159h-148z" />
    <glyph glyph-name="equal.tab" horiz-adv-x="650" 
d="M577 135l-82 -79l-171 171l-170 -171l-80 78l171 172l-171 171l83 83l169 -171l170 171l80 -78l-171 -173z" />
    <glyph glyph-name="less.tab" horiz-adv-x="650" 
d="M554 177v-122l-467 203v103l467 204v-124l-318 -132z" />
    <glyph glyph-name="greater.tab" horiz-adv-x="650" 
d="M564 258l-467 -203v123l317 133l-317 132v122l467 -204v-103z" />
    <glyph glyph-name="period.tab" horiz-adv-x="325" 
d="M87 0v170h152v-170h-152z" />
    <glyph glyph-name="comma.tab" horiz-adv-x="334" 
d="M188 -207h-94c36 60 73 133 77 207h-73v170h153v-154c0 -89 -32 -170 -63 -223z" />
    <glyph glyph-name="colon.tab" horiz-adv-x="338" 
d="M93 0v170h153v-170h-153zM93 331v170h153v-170h-153z" />
    <glyph glyph-name="semicolon.tab" horiz-adv-x="338" 
d="M93 331v170h153v-170h-153zM183 -207h-95c37 60 74 133 77 207h-72v170h153v-154c0 -89 -32 -170 -63 -223z" />
    <glyph glyph-name="zero.num" unicode="&#xe416;" horiz-adv-x="475" 
d="M238 718c109 0 176 -63 176 -166v-119c0 -104 -67 -166 -176 -166s-177 62 -177 166v119c0 103 68 166 177 166zM238 362c44 0 66 30 66 73v115c0 43 -22 73 -66 73s-66 -30 -66 -73v-115c0 -43 22 -73 66 -73z" />
    <glyph glyph-name="one.num" unicode="&#xe417;" horiz-adv-x="334" 
d="M259 712v-437h-111v319l-109 -59v98l137 79h83z" />
    <glyph glyph-name="two.num" unicode="&#xe418;" horiz-adv-x="439" 
d="M403 367v-92h-349v70l163 146c33 30 50 51 50 80c0 30 -20 52 -55 52c-37 0 -58 -24 -58 -60v-20h-104v21c0 88 58 153 162 153c105 0 166 -57 166 -141c0 -67 -39 -107 -96 -155l-62 -54h183z" />
    <glyph glyph-name="three.num" unicode="&#xe419;" horiz-adv-x="449" 
d="M399 401c0 -80 -66 -133 -179 -133c-124 0 -175 77 -179 136h111c3 -18 22 -45 68 -45c43 0 67 19 67 49c0 29 -19 45 -54 45h-86v90h80c30 0 47 14 47 40c0 29 -22 46 -58 46c-41 0 -56 -25 -59 -43h-109c2 63 55 131 168 131c107 0 168 -46 168 -125
c0 -48 -31 -75 -57 -85c33 -11 72 -41 72 -106z" />
    <glyph glyph-name="four.num" unicode="&#xe41a;" horiz-adv-x="485" 
d="M450 384h-84v-109h-107v109h-223v75l197 251h133v-239h84v-87zM143 471h116v151z" />
    <glyph glyph-name="five.num" unicode="&#xe41b;" horiz-adv-x="454" 
d="M69 457v253h316v-86h-213v-84c15 16 43 32 85 32c82 0 145 -54 145 -146v-2c0 -90 -65 -156 -177 -156c-125 0 -176 75 -177 140h110c4 -18 22 -49 67 -49c39 0 66 27 66 64v1c0 39 -26 65 -66 65c-39 0 -53 -23 -58 -32h-98z" />
    <glyph glyph-name="six.num" unicode="&#xe41c;" horiz-adv-x="454" 
d="M407 427c0 -92 -69 -159 -179 -159c-111 0 -180 66 -180 158c0 69 28 112 75 169l92 115h121l-127 -157c14 9 33 16 60 16c83 0 138 -58 138 -142zM296 427c0 38 -26 67 -69 67c-41 0 -69 -29 -69 -68c0 -37 27 -66 69 -66c43 0 69 29 69 67z" />
    <glyph glyph-name="seven.num" unicode="&#xe41d;" horiz-adv-x="426" 
d="M386 643l-196 -368h-123l187 342h-212v93h344v-67z" />
    <glyph glyph-name="eight.num" unicode="&#xe41e;" horiz-adv-x="460" 
d="M409 393c0 -75 -63 -125 -170 -125h-19c-106 0 -169 50 -169 125c0 63 43 95 74 105c-28 10 -67 39 -67 98c0 72 58 121 163 121h18c105 0 163 -49 163 -121c0 -59 -39 -88 -67 -98c31 -10 74 -42 74 -105zM226 636c-34 0 -58 -18 -58 -50c0 -31 24 -50 58 -50h8
c34 0 58 19 58 50c0 32 -24 50 -58 50h-8zM224 457c-34 0 -61 -20 -61 -54s27 -54 61 -54h12c35 0 61 20 61 54s-26 54 -61 54h-12z" />
    <glyph glyph-name="nine.num" unicode="&#xe41f;" horiz-adv-x="454" 
d="M332 390l-93 -115h-121l128 158c-13 -9 -32 -17 -61 -17c-83 0 -137 58 -137 142c0 92 68 159 178 159c111 0 180 -66 180 -158c0 -69 -28 -112 -74 -169zM158 558c0 -38 26 -67 69 -67c41 0 70 29 70 68c0 38 -28 66 -70 66c-43 0 -69 -28 -69 -67z" />
    <glyph glyph-name="zero.den" unicode="&#xe402;" horiz-adv-x="475" 
d="M238 443c109 0 176 -63 176 -166v-119c0 -104 -67 -166 -176 -166s-177 62 -177 166v119c0 103 68 166 177 166zM238 87c44 0 66 30 66 73v115c0 43 -22 73 -66 73s-66 -30 -66 -73v-115c0 -43 22 -73 66 -73z" />
    <glyph glyph-name="one.den" unicode="&#xe403;" horiz-adv-x="334" 
d="M259 437v-437h-111v319l-109 -59v98l137 79h83z" />
    <glyph glyph-name="two.den" unicode="&#xe404;" horiz-adv-x="439" 
d="M403 92v-92h-349v70l163 146c33 30 50 51 50 80c0 30 -20 52 -55 52c-37 0 -58 -24 -58 -60v-20h-104v21c0 88 58 153 162 153c105 0 166 -57 166 -141c0 -67 -39 -107 -96 -155l-62 -54h183z" />
    <glyph glyph-name="three.den" unicode="&#xe405;" horiz-adv-x="449" 
d="M399 126c0 -80 -66 -133 -179 -133c-124 0 -175 77 -179 136h111c3 -18 22 -45 68 -45c43 0 67 19 67 49c0 29 -19 45 -54 45h-86v90h80c30 0 47 14 47 40c0 29 -22 46 -58 46c-41 0 -56 -25 -59 -43h-109c2 63 55 131 168 131c107 0 168 -46 168 -125
c0 -48 -31 -75 -57 -85c33 -11 72 -41 72 -106z" />
    <glyph glyph-name="four.den" unicode="&#xe406;" horiz-adv-x="485" 
d="M450 109h-84v-109h-107v109h-223v75l197 251h133v-239h84v-87zM143 196h116v151z" />
    <glyph glyph-name="five.den" unicode="&#xe407;" horiz-adv-x="454" 
d="M69 182v253h316v-86h-213v-84c15 16 43 32 85 32c82 0 145 -54 145 -146v-2c0 -90 -65 -156 -177 -156c-125 0 -176 75 -177 140h110c4 -18 22 -49 67 -49c39 0 66 27 66 64v1c0 39 -26 65 -66 65c-39 0 -53 -23 -58 -32h-98z" />
    <glyph glyph-name="six.den" unicode="&#xe408;" horiz-adv-x="454" 
d="M407 152c0 -92 -69 -159 -179 -159c-111 0 -180 66 -180 158c0 69 28 112 75 169l92 115h121l-127 -157c14 9 33 16 60 16c83 0 138 -58 138 -142zM296 152c0 38 -26 67 -69 67c-41 0 -69 -29 -69 -68c0 -37 27 -66 69 -66c43 0 69 29 69 67z" />
    <glyph glyph-name="seven.den" unicode="&#xe409;" horiz-adv-x="426" 
d="M386 368l-196 -368h-123l187 342h-212v93h344v-67z" />
    <glyph glyph-name="eight.den" unicode="&#xe40a;" horiz-adv-x="460" 
d="M409 118c0 -75 -63 -125 -170 -125h-19c-106 0 -169 50 -169 125c0 63 43 95 74 105c-28 10 -67 39 -67 98c0 72 58 121 163 121h18c105 0 163 -49 163 -121c0 -59 -39 -88 -67 -98c31 -10 74 -42 74 -105zM226 361c-34 0 -58 -18 -58 -50c0 -31 24 -50 58 -50h8
c34 0 58 19 58 50c0 32 -24 50 -58 50h-8zM224 182c-34 0 -61 -20 -61 -54s27 -54 61 -54h12c35 0 61 20 61 54s-26 54 -61 54h-12z" />
    <glyph glyph-name="nine.den" unicode="&#xe40b;" horiz-adv-x="454" 
d="M332 115l-93 -115h-121l128 158c-13 -9 -32 -17 -61 -17c-83 0 -137 58 -137 142c0 92 68 159 178 159c111 0 180 -66 180 -158c0 -69 -28 -112 -74 -169zM158 283c0 -38 26 -67 69 -67c41 0 70 29 70 68c0 38 -28 66 -70 66c-43 0 -69 -28 -69 -67z" />
    <glyph glyph-name="zero.sub" unicode="&#x2080;" horiz-adv-x="535" 
d="M267 379c121 0 196 -71 196 -188v-142c0 -119 -75 -189 -196 -189c-120 0 -195 70 -195 189v142c0 117 74 188 195 188zM267 -39c55 0 83 39 83 92v133c0 54 -28 93 -83 93s-82 -39 -82 -93v-133c0 -53 27 -92 82 -92z" />
    <glyph glyph-name="one.sub" unicode="&#x2081;" horiz-adv-x="370" 
d="M282 372v-502h-113v378l-125 -69v103l153 90h85z" />
    <glyph glyph-name="two.sub" unicode="&#x2082;" horiz-adv-x="491" 
d="M452 -34v-96h-391v72l184 168c40 38 62 65 62 104s-25 66 -70 66s-71 -30 -71 -76v-24h-109v26c0 100 66 172 181 172c117 0 184 -65 184 -159c0 -78 -44 -123 -109 -181l-80 -72h219z" />
    <glyph glyph-name="three.sub" unicode="&#x2083;" horiz-adv-x="503" 
d="M445 12c0 -90 -73 -151 -197 -151c-139 0 -195 85 -200 153h115c5 -24 29 -57 85 -57c51 0 82 24 82 63s-26 59 -71 59h-95v94h88c40 0 64 19 64 54s-29 57 -73 57c-48 0 -68 -29 -73 -54h-112c2 71 60 148 185 148c118 0 186 -54 186 -143c0 -57 -38 -88 -68 -100
c38 -11 84 -46 84 -123z" />
    <glyph glyph-name="four.sub" unicode="&#x2084;" horiz-adv-x="542" 
d="M504 4h-99v-134h-111v134h-253v77l228 289h136v-274h99v-92zM156 96h138v179z" />
    <glyph glyph-name="five.sub" unicode="&#x2085;" horiz-adv-x="509" 
d="M81 83v287h349v-91h-242v-106c17 18 51 36 99 36c90 0 162 -62 162 -166v-4c0 -102 -73 -178 -196 -178c-137 0 -195 84 -196 160h114c3 -24 26 -63 82 -63c49 0 82 34 82 81v3c0 48 -32 80 -82 80c-48 0 -66 -29 -72 -39h-100z" />
    <glyph glyph-name="six.sub" unicode="&#x2086;" horiz-adv-x="510" 
d="M455 41c0 -103 -76 -180 -200 -180c-123 0 -199 76 -199 180c0 78 33 129 84 193l108 136h126l-144 -181c15 10 37 18 68 18c93 0 157 -67 157 -166zM341 41c0 49 -31 84 -86 84c-51 0 -86 -35 -86 -84c0 -47 34 -83 86 -83c55 0 86 36 86 83z" />
    <glyph glyph-name="seven.sub" unicode="&#x2087;" horiz-adv-x="480" 
d="M433 298l-228 -428h-127l220 401h-248v99h383v-72z" />
    <glyph glyph-name="eight.sub" unicode="&#x2088;" horiz-adv-x="517" 
d="M457 6c0 -87 -70 -145 -189 -145h-21c-118 0 -187 58 -187 145c0 73 50 109 86 121c-33 10 -78 43 -78 113c0 82 65 138 181 138h20c116 0 180 -56 180 -138c0 -70 -45 -103 -78 -113c36 -12 86 -48 86 -121zM252 292c-42 0 -70 -23 -70 -62c0 -40 28 -62 70 -62h13
c42 0 70 22 70 62c0 39 -28 62 -70 62h-13zM251 83c-44 0 -76 -26 -76 -68s32 -67 76 -67h15c44 0 76 25 76 67c0 43 -32 68 -76 68h-15z" />
    <glyph glyph-name="nine.sub" unicode="&#x2089;" horiz-adv-x="510" 
d="M370 6l-108 -136h-126l147 183c-16 -11 -38 -20 -71 -20c-94 0 -157 67 -157 165c0 104 76 180 200 180c123 0 199 -75 199 -179c0 -78 -32 -129 -84 -193zM169 198c0 -48 31 -83 86 -83c52 0 86 35 86 84c0 47 -33 83 -86 83c-55 0 -86 -36 -86 -84z" />
    <glyph glyph-name="zero.sup" unicode="&#x2070;" horiz-adv-x="535" 
d="M267 744c121 0 196 -71 196 -188v-142c0 -119 -75 -189 -196 -189c-120 0 -195 70 -195 189v142c0 117 74 188 195 188zM267 326c55 0 83 39 83 92v133c0 54 -28 93 -83 93s-82 -39 -82 -93v-133c0 -53 27 -92 82 -92z" />
    <glyph glyph-name="one.sup" unicode="&#xb9;" horiz-adv-x="370" 
d="M282 737v-502h-113v378l-125 -69v103l153 90h85z" />
    <glyph glyph-name="two.sup" unicode="&#xb2;" horiz-adv-x="491" 
d="M452 331v-96h-391v72l184 168c40 38 62 65 62 104s-25 66 -70 66s-71 -30 -71 -76v-24h-109v26c0 100 66 172 181 172c117 0 184 -65 184 -159c0 -78 -44 -123 -109 -181l-80 -72h219z" />
    <glyph glyph-name="three.sup" unicode="&#xb3;" horiz-adv-x="503" 
d="M445 377c0 -90 -73 -151 -197 -151c-139 0 -195 85 -200 153h115c5 -24 29 -57 85 -57c51 0 82 24 82 63s-26 59 -71 59h-95v94h88c40 0 64 19 64 54s-29 57 -73 57c-48 0 -68 -29 -73 -54h-112c2 71 60 148 185 148c118 0 186 -54 186 -143c0 -57 -38 -88 -68 -100
c38 -11 84 -46 84 -123z" />
    <glyph glyph-name="four.sup" unicode="&#x2074;" horiz-adv-x="542" 
d="M504 369h-99v-134h-111v134h-253v77l228 289h136v-274h99v-92zM156 461h138v179z" />
    <glyph glyph-name="five.sup" unicode="&#x2075;" horiz-adv-x="509" 
d="M81 448v287h349v-91h-242v-106c17 18 51 36 99 36c90 0 162 -62 162 -166v-4c0 -102 -73 -178 -196 -178c-137 0 -195 84 -196 160h114c3 -24 26 -63 82 -63c49 0 82 34 82 81v3c0 48 -32 80 -82 80c-48 0 -66 -29 -72 -39h-100z" />
    <glyph glyph-name="six.sup" unicode="&#x2076;" horiz-adv-x="510" 
d="M455 406c0 -103 -76 -180 -200 -180c-123 0 -199 76 -199 180c0 78 33 129 84 193l108 136h126l-144 -181c15 10 37 18 68 18c93 0 157 -67 157 -166zM341 406c0 49 -31 84 -86 84c-51 0 -86 -35 -86 -84c0 -47 34 -83 86 -83c55 0 86 36 86 83z" />
    <glyph glyph-name="seven.sup" unicode="&#x2077;" horiz-adv-x="480" 
d="M433 663l-228 -428h-127l220 401h-248v99h383v-72z" />
    <glyph glyph-name="eight.sup" unicode="&#x2078;" horiz-adv-x="517" 
d="M457 371c0 -87 -70 -145 -189 -145h-21c-118 0 -187 58 -187 145c0 73 50 109 86 121c-33 10 -78 43 -78 113c0 82 65 138 181 138h20c116 0 180 -56 180 -138c0 -70 -45 -103 -78 -113c36 -12 86 -48 86 -121zM252 657c-42 0 -70 -23 -70 -62c0 -40 28 -62 70 -62h13
c42 0 70 22 70 62c0 39 -28 62 -70 62h-13zM251 448c-44 0 -76 -26 -76 -68s32 -67 76 -67h15c44 0 76 25 76 67c0 43 -32 68 -76 68h-15z" />
    <glyph glyph-name="nine.sup" unicode="&#x2079;" horiz-adv-x="510" 
d="M370 371l-108 -136h-126l147 183c-16 -11 -38 -20 -71 -20c-94 0 -157 67 -157 165c0 104 76 180 200 180c123 0 199 -75 199 -179c0 -78 -32 -129 -84 -193zM169 563c0 -48 31 -83 86 -83c52 0 86 35 86 84c0 47 -33 83 -86 83c-55 0 -86 -36 -86 -84z" />
    <glyph glyph-name="a.alt" horiz-adv-x="616" 
d="M48 160c0 102 77 157 202 157h166c0 61 -47 100 -121 100c-70 0 -98 -38 -105 -51h-129c10 54 75 153 234 153c157 0 244 -82 244 -202v-171c0 -30 11 -44 40 -46v-103h-40c-63 1 -104 25 -118 70c-25 -36 -77 -78 -164 -78c-119 0 -209 68 -209 171zM284 84
c72 0 132 36 132 103v43h-145c-59 0 -97 -22 -97 -68c0 -49 46 -78 110 -78z" />
    <glyph glyph-name="u.alt" horiz-adv-x="658" 
d="M448 0v83c-20 -36 -75 -94 -164 -94c-125 0 -207 93 -207 221v296h128v-271c0 -80 47 -132 120 -132c74 0 123 54 123 132v271h128v-506h-128z" />
    <glyph glyph-name="aacute.alt" horiz-adv-x="616" 
d="M48 160c0 102 77 157 202 157h166c0 61 -47 100 -121 100c-70 0 -98 -38 -105 -51h-129c10 54 75 153 234 153c157 0 244 -82 244 -202v-171c0 -30 11 -44 40 -46v-103h-40c-63 1 -104 25 -118 70c-25 -36 -77 -78 -164 -78c-119 0 -209 68 -209 171zM284 84
c72 0 132 36 132 103v43h-145c-59 0 -97 -22 -97 -68c0 -49 46 -78 110 -78zM225 580l109 187h133l-116 -187h-126z" />
    <glyph glyph-name="abreve.alt" horiz-adv-x="616" 
d="M48 160c0 102 77 157 202 157h166c0 61 -47 100 -121 100c-70 0 -98 -38 -105 -51h-129c10 54 75 153 234 153c157 0 244 -82 244 -202v-171c0 -30 11 -44 40 -46v-103h-40c-63 1 -104 25 -118 70c-25 -36 -77 -78 -164 -78c-119 0 -209 68 -209 171zM284 84
c72 0 132 36 132 103v43h-145c-59 0 -97 -22 -97 -68c0 -49 46 -78 110 -78zM295 668c39 0 55 30 55 61v17h101v-19c0 -85 -49 -153 -156 -153s-156 68 -156 153v19h101v-17c0 -31 16 -61 55 -61z" />
    <glyph glyph-name="acircumflex.alt" horiz-adv-x="616" 
d="M48 160c0 102 77 157 202 157h166c0 61 -47 100 -121 100c-70 0 -98 -38 -105 -51h-129c10 54 75 153 234 153c157 0 244 -82 244 -202v-171c0 -30 11 -44 40 -46v-103h-40c-63 1 -104 25 -118 70c-25 -36 -77 -78 -164 -78c-119 0 -209 68 -209 171zM284 84
c72 0 132 36 132 103v43h-145c-59 0 -97 -22 -97 -68c0 -49 46 -78 110 -78zM362 578l-67 104l-67 -104h-118l129 196h112l126 -196h-115z" />
    <glyph glyph-name="adieresis.alt" horiz-adv-x="616" 
d="M48 160c0 102 77 157 202 157h166c0 61 -47 100 -121 100c-70 0 -98 -38 -105 -51h-129c10 54 75 153 234 153c157 0 244 -82 244 -202v-171c0 -30 11 -44 40 -46v-103h-40c-63 1 -104 25 -118 70c-25 -36 -77 -78 -164 -78c-119 0 -209 68 -209 171zM284 84
c72 0 132 36 132 103v43h-145c-59 0 -97 -22 -97 -68c0 -49 46 -78 110 -78zM127 587v149h127v-149h-127zM336 587v149h127v-149h-127z" />
    <glyph glyph-name="agrave.alt" horiz-adv-x="616" 
d="M48 160c0 102 77 157 202 157h166c0 61 -47 100 -121 100c-70 0 -98 -38 -105 -51h-129c10 54 75 153 234 153c157 0 244 -82 244 -202v-171c0 -30 11 -44 40 -46v-103h-40c-63 1 -104 25 -118 70c-25 -36 -77 -78 -164 -78c-119 0 -209 68 -209 171zM284 84
c72 0 132 36 132 103v43h-145c-59 0 -97 -22 -97 -68c0 -49 46 -78 110 -78zM357 580h-126l-116 187h133z" />
    <glyph glyph-name="amacron.alt" horiz-adv-x="616" 
d="M48 160c0 102 77 157 202 157h166c0 61 -47 100 -121 100c-70 0 -98 -38 -105 -51h-129c10 54 75 153 234 153c157 0 244 -82 244 -202v-171c0 -30 11 -44 40 -46v-103h-40c-63 1 -104 25 -118 70c-25 -36 -77 -78 -164 -78c-119 0 -209 68 -209 171zM284 84
c72 0 132 36 132 103v43h-145c-59 0 -97 -22 -97 -68c0 -49 46 -78 110 -78zM459 613h-324v101h324v-101z" />
    <glyph glyph-name="aogonek.alt" horiz-adv-x="616" 
d="M47 160c0 102 77 157 202 157h166c0 61 -47 100 -120 100c-70 0 -98 -38 -105 -51h-130c10 54 75 153 235 153c156 0 243 -82 243 -202v-171c0 -30 11 -44 40 -46v-100c-56 -43 -89 -66 -89 -92c0 -17 12 -25 32 -25h82v-96h-126c-77 0 -125 31 -125 90
c0 61 64 101 122 132c-27 11 -45 30 -54 57c-25 -35 -77 -77 -164 -77c-119 0 -209 68 -209 171zM284 84c71 0 131 36 131 103v43h-145c-58 0 -96 -22 -96 -68c0 -49 46 -78 110 -78z" />
    <glyph glyph-name="aring.alt" horiz-adv-x="616" 
d="M48 160c0 102 77 157 202 157h166c0 61 -47 100 -121 100c-70 0 -98 -38 -105 -51h-129c10 54 75 153 234 153c157 0 244 -82 244 -202v-171c0 -30 11 -44 40 -46v-103h-40c-63 1 -104 25 -118 70c-25 -36 -77 -78 -164 -78c-119 0 -209 68 -209 171zM284 84
c72 0 132 36 132 103v43h-145c-59 0 -97 -22 -97 -68c0 -49 46 -78 110 -78zM295 569c-79 0 -136 59 -136 133c0 75 58 132 136 132s137 -57 137 -132c0 -74 -58 -133 -137 -133zM295 641c35 0 60 27 60 61c0 35 -24 61 -60 61s-60 -26 -60 -61c0 -34 25 -61 60 -61z" />
    <glyph glyph-name="aringacute.alt" horiz-adv-x="616" 
d="M48 160c0 102 77 157 202 157h166c0 61 -47 100 -121 100c-70 0 -98 -38 -105 -51h-129c10 54 75 153 234 153c157 0 244 -82 244 -202v-171c0 -30 11 -44 40 -46v-103h-40c-63 1 -104 25 -118 70c-25 -36 -77 -78 -164 -78c-119 0 -209 68 -209 171zM284 84
c72 0 132 36 132 103v43h-145c-59 0 -97 -22 -97 -68c0 -49 46 -78 110 -78zM236 871l95 154h131l-102 -154h-124zM295 569c-79 0 -136 59 -136 133c0 75 58 132 136 132s137 -57 137 -132c0 -74 -58 -133 -137 -133zM295 641c35 0 60 27 60 61c0 35 -24 61 -60 61
s-60 -26 -60 -61c0 -34 25 -61 60 -61z" />
    <glyph glyph-name="atilde.alt" horiz-adv-x="616" 
d="M48 160c0 102 77 157 202 157h166c0 61 -47 100 -121 100c-70 0 -98 -38 -105 -51h-129c10 54 75 153 234 153c157 0 244 -82 244 -202v-171c0 -30 11 -44 40 -46v-103h-40c-63 1 -104 25 -118 70c-25 -36 -77 -78 -164 -78c-119 0 -209 68 -209 171zM284 84
c72 0 132 36 132 103v43h-145c-59 0 -97 -22 -97 -68c0 -49 46 -78 110 -78zM216 576h-91v84c0 58 27 95 84 95c35 0 57 -14 88 -36l29 -21c12 -8 21 -14 31 -14c12 0 17 9 17 21v55h91v-83c0 -58 -27 -96 -84 -96c-36 0 -57 14 -88 36l-29 21c-13 9 -21 15 -31 15
c-12 0 -17 -9 -17 -22v-55z" />
    <glyph glyph-name="uacute.alt" horiz-adv-x="658" 
d="M448 0v83c-20 -36 -75 -94 -164 -94c-125 0 -207 93 -207 221v296h128v-271c0 -80 47 -132 120 -132c74 0 123 54 123 132v271h128v-506h-128zM254 580l109 187h133l-116 -187h-126z" />
    <glyph glyph-name="ubreve.alt" horiz-adv-x="658" 
d="M448 0v83c-20 -36 -75 -94 -164 -94c-125 0 -207 93 -207 221v296h128v-271c0 -80 47 -132 120 -132c74 0 123 54 123 132v271h128v-506h-128zM324 668c39 0 55 30 55 61v17h101v-19c0 -85 -49 -153 -156 -153s-156 68 -156 153v19h101v-17c0 -31 16 -61 55 -61z" />
    <glyph glyph-name="ucircumflex.alt" horiz-adv-x="658" 
d="M448 0v83c-20 -36 -75 -94 -164 -94c-125 0 -207 93 -207 221v296h128v-271c0 -80 47 -132 120 -132c74 0 123 54 123 132v271h128v-506h-128zM391 578l-67 104l-67 -104h-118l129 196h112l126 -196h-115z" />
    <glyph glyph-name="udieresis.alt" horiz-adv-x="658" 
d="M448 0v83c-20 -36 -75 -94 -164 -94c-125 0 -207 93 -207 221v296h128v-271c0 -80 47 -132 120 -132c74 0 123 54 123 132v271h128v-506h-128zM156 587v149h127v-149h-127zM365 587v149h127v-149h-127z" />
    <glyph glyph-name="ugrave.alt" horiz-adv-x="658" 
d="M448 0v83c-20 -36 -75 -94 -164 -94c-125 0 -207 93 -207 221v296h128v-271c0 -80 47 -132 120 -132c74 0 123 54 123 132v271h128v-506h-128zM386 580h-126l-116 187h133z" />
    <glyph glyph-name="uhungarumlaut.alt" horiz-adv-x="658" 
d="M448 0v83c-20 -36 -75 -94 -164 -94c-125 0 -207 93 -207 221v296h128v-271c0 -80 47 -132 120 -132c74 0 123 54 123 132v271h128v-506h-128zM363 580l81 187h113l-87 -187h-107zM175 580l82 187h112l-87 -187h-107z" />
    <glyph glyph-name="umacron.alt" horiz-adv-x="658" 
d="M448 0v83c-20 -36 -75 -94 -164 -94c-125 0 -207 93 -207 221v296h128v-271c0 -80 47 -132 120 -132c74 0 123 54 123 132v271h128v-506h-128zM486 613h-324v101h324v-101z" />
    <glyph glyph-name="uogonek.alt" horiz-adv-x="658" 
d="M448 0v83c-20 -36 -75 -94 -164 -94c-125 0 -207 93 -207 221v296h128v-271c0 -80 47 -132 120 -132c74 0 123 54 123 132v271h128v-506c-56 -43 -89 -66 -89 -92c0 -17 12 -25 31 -25h83v-96h-127c-77 0 -125 31 -125 91c0 53 47 87 99 122z" />
    <glyph glyph-name="uring.alt" horiz-adv-x="658" 
d="M448 0v83c-20 -36 -75 -94 -164 -94c-125 0 -207 93 -207 221v296h128v-271c0 -80 47 -132 120 -132c74 0 123 54 123 132v271h128v-506h-128zM324 569c-79 0 -136 59 -136 133c0 75 58 132 136 132s137 -57 137 -132c0 -74 -58 -133 -137 -133zM324 641
c35 0 60 27 60 61c0 35 -24 61 -60 61s-60 -26 -60 -61c0 -34 25 -61 60 -61z" />
    <glyph glyph-name="utilde.alt" horiz-adv-x="658" 
d="M448 0v83c-20 -36 -75 -94 -164 -94c-125 0 -207 93 -207 221v296h128v-271c0 -80 47 -132 120 -132c74 0 123 54 123 132v271h128v-506h-128zM245 576h-91v84c0 58 27 95 84 95c35 0 57 -14 88 -36l29 -21c12 -8 21 -14 31 -14c12 0 17 9 17 21v55h91v-83
c0 -58 -27 -96 -84 -96c-36 0 -57 14 -88 36l-29 21c-13 9 -21 15 -31 15c-12 0 -17 -9 -17 -22v-55z" />
    <glyph glyph-name="space_uni0326.alt" horiz-adv-x="500" 
d="M210 826h87c-21 -38 -37 -86 -40 -114h66v-127h-145v101c0 61 16 104 32 140z" />
    <glyph glyph-name="four.alt" horiz-adv-x="721" 
d="M687 215h-152v-215h-133v215h-310v495h131v-376h179v285h133v-285h152v-119z" />
    <glyph glyph-name="onequarter.alt" horiz-adv-x="1068" 
d="M279 0h-113l448 710h114zM1033 119h-83v-119h-108v119h-208v316h108v-224h100v169h108v-169h83v-92zM259 712v-437h-111v319l-109 -59v98l137 79h83z" />
    <glyph glyph-name="threequarters.alt" horiz-adv-x="1165" 
d="M377 0h-113l448 710h114zM1130 119h-83v-119h-108v119h-208v316h108v-224h100v169h108v-169h83v-92zM399 401c0 -80 -66 -133 -179 -133c-124 0 -175 77 -179 136h111c3 -18 22 -45 68 -45c43 0 67 19 67 49c0 29 -19 45 -54 45h-86v90h80c30 0 47 14 47 40
c0 29 -22 46 -58 46c-41 0 -56 -25 -59 -43h-109c2 63 55 131 168 131c107 0 168 -46 168 -125c0 -48 -31 -75 -57 -85c33 -11 72 -41 72 -106z" />
    <glyph glyph-name="caron.alt" 
d="M215 580l53 194h115l-61 -194h-107z" />
    <glyph glyph-name="questiondown.uc" horiz-adv-x="547" 
d="M265 471v4h128v-22c0 -62 -13 -86 -80 -129l-70 -45c-39 -25 -68 -54 -68 -98c0 -52 35 -85 93 -85c59 0 94 41 94 98v29h124v-36c0 -120 -82 -199 -218 -199c-141 0 -221 73 -221 193c0 93 45 142 128 194l61 39c23 16 29 31 29 57zM405 710v-159h-152v159h152z" />
    <glyph glyph-name="exclamdown.uc" horiz-adv-x="342" 
d="M94 551v159h153v-159h-153zM108 0v475h125v-475h-125z" />
    <glyph glyph-name="hyphen.uc" horiz-adv-x="493" 
d="M80 279v119h333v-119h-333z" />
    <glyph glyph-name="endash.uc" horiz-adv-x="708" 
d="M80 292v93h548v-93h-548z" />
    <glyph glyph-name="emdash.uc" horiz-adv-x="1013" 
d="M80 292v93h853v-93h-853z" />
    <glyph glyph-name="quoteleft.uc" horiz-adv-x="311" 
d="M133 710h92c-33 -59 -62 -127 -65 -195h72v-155h-151v138c0 87 24 159 52 212z" />
    <glyph glyph-name="quoteright.uc" horiz-adv-x="311" 
d="M177 360h-92c34 59 63 127 65 195h-71v155h151v-138c0 -87 -24 -159 -53 -212z" />
    <glyph glyph-name="quotedblleft.uc" horiz-adv-x="540" 
d="M133 710h92c-33 -59 -62 -127 -65 -195h70v-155h-149v138c0 87 24 159 52 212zM364 710h92c-33 -59 -62 -127 -65 -195h70v-155h-150v138c0 87 24 159 53 212z" />
    <glyph glyph-name="quotedblright.uc" horiz-adv-x="540" 
d="M407 360h-92c33 59 62 127 65 195h-70v155h149v-138c0 -87 -24 -159 -52 -212zM176 360h-92c33 59 62 127 65 195h-70v155h150v-138c0 -87 -24 -159 -53 -212z" />
    <glyph glyph-name="guilsinglleft.uc" horiz-adv-x="353" 
d="M290 500l-111 -183l111 -185h-122l-108 184l109 184h121z" />
    <glyph glyph-name="guilsinglright.uc" horiz-adv-x="353" 
d="M293 316l-109 -184h-121l111 183l-111 185h122z" />
    <glyph glyph-name="guillemotleft.uc" horiz-adv-x="578" 
d="M285 500l-107 -183l107 -185h-121l-104 184l105 184h120zM515 500l-109 -183l109 -185h-121l-105 184l106 184h120z" />
    <glyph glyph-name="guillemotright.uc" horiz-adv-x="578" 
d="M519 316l-106 -184h-120l108 183l-108 185h121zM290 316l-106 -184h-121l109 183l-109 185h121z" />
    <glyph glyph-name="at.uc" horiz-adv-x="1053" 
d="M953 56c-42 -66 -165 -174 -398 -174c-316 0 -495 202 -495 459c0 270 203 468 486 468c295 0 447 -181 447 -389c0 -171 -92 -297 -228 -297c-72 0 -114 28 -128 66c-24 -34 -74 -66 -146 -66c-118 0 -205 79 -205 215c0 130 87 232 223 232c78 0 124 -39 142 -75l12 68
h114l-50 -287c-7 -40 5 -66 45 -66c60 0 124 69 124 211c0 179 -126 301 -350 301c-222 0 -385 -152 -385 -383c0 -217 155 -368 394 -368c147 0 234 54 273 85h125zM524 464c-71 0 -118 -54 -118 -128c0 -64 37 -107 103 -107c72 0 118 54 118 128c0 64 -35 107 -103 107z
" />
    <glyph glyph-name="grave.uc" 
d="M428 773h-136l-120 156h144z" />
    <glyph glyph-name="dieresis.uc" 
d="M126 773v149h127v-149h-127zM347 773v149h127v-149h-127z" />
    <glyph glyph-name="macron.uc" horiz-adv-x="500" 
d="M425 801h-350v100h350v-100z" />
    <glyph glyph-name="acute.uc" 
d="M172 773l112 156h144l-120 -156h-136z" />
    <glyph glyph-name="circumflex.uc" 
d="M333 771l-73 83l-73 -83h-125l139 161h118l136 -161h-122z" />
    <glyph glyph-name="caron.uc" 
d="M455 932l-139 -161h-118l-136 161h122l73 -83l73 83h125z" />
    <glyph glyph-name="breve.uc" 
d="M300 860c42 0 60 30 60 63v11h101v-13c0 -86 -52 -155 -161 -155s-161 69 -161 155v13h101v-11c0 -32 18 -63 60 -63z" />
    <glyph glyph-name="dotaccent.uc" 
d="M234 773v152h132v-152h-132z" />
    <glyph glyph-name="ring.uc" 
d="M300 763c-79 0 -136 59 -136 133c0 75 58 132 136 132s137 -57 137 -132c0 -74 -58 -133 -137 -133zM300 835c35 0 60 26 60 61s-24 61 -60 61s-60 -26 -60 -61s25 -61 60 -61z" />
    <glyph glyph-name="tilde.uc" 
d="M302 807l-38 20c-14 7 -26 12 -35 12c-11 0 -16 -8 -16 -22v-48h-93v77c0 58 27 96 84 96c34 0 59 -15 94 -34l38 -19c14 -7 25 -13 34 -13c12 0 17 9 17 23v48h93v-77c0 -58 -28 -96 -84 -96c-36 0 -60 15 -94 33z" />
    <glyph glyph-name="hungarumlaut.uc" 
d="M297 773l80 156h124l-86 -156h-118zM99 773l77 156h125l-85 -156h-117z" />
    <glyph glyph-name="A.sc" horiz-adv-x="697" 
d="M531 0l-45 105h-283l-45 -105h-128l251 576h134l252 -576h-136zM250 212h189l-94 219z" />
    <glyph glyph-name="B.sc" horiz-adv-x="699" 
d="M101 0v574h325c125 0 193 -59 193 -154c0 -61 -42 -102 -84 -116c52 -17 98 -63 98 -140c0 -99 -69 -164 -202 -164h-330zM404 471h-175v-125h175c52 0 82 20 82 63c0 44 -30 62 -82 62zM410 245h-181v-142h181c61 0 90 26 90 71c0 46 -30 71 -90 71z" />
    <glyph glyph-name="C.sc" horiz-adv-x="684" 
d="M357 -10c-171 0 -294 127 -294 297c0 171 123 297 294 297c185 0 258 -126 271 -192h-132c-14 26 -57 76 -139 76c-99 0 -161 -82 -161 -181s62 -180 161 -180c89 0 127 52 140 76h131c-12 -58 -80 -193 -271 -193z" />
    <glyph glyph-name="D.sc" horiz-adv-x="714" 
d="M101 0v574h236c184 0 313 -100 313 -287c0 -184 -129 -287 -313 -287h-236zM335 462h-104v-349h104c109 0 182 65 182 174c0 114 -73 175 -182 175z" />
    <glyph glyph-name="E.sc" horiz-adv-x="656" 
d="M101 0v574h476v-106h-346v-113h206v-110h-206v-135h379v-110h-509z" />
    <glyph glyph-name="F.sc" horiz-adv-x="644" 
d="M101 0v574h501v-107h-371v-120h213v-110h-213v-237h-130z" />
    <glyph glyph-name="G.sc" horiz-adv-x="721" 
d="M639 71c-35 -30 -121 -82 -256 -82c-194 0 -320 121 -320 300c0 173 124 296 298 296c175 0 247 -102 264 -164h-135c-15 18 -53 52 -129 52c-103 0 -167 -78 -167 -184c0 -110 72 -188 191 -188c66 0 110 16 130 29v102h-187v105h311v-266z" />
    <glyph glyph-name="H.sc" horiz-adv-x="751" 
d="M520 0v230h-289v-230h-130v574h130v-229h289v229h130v-574h-130z" />
    <glyph glyph-name="I.sc" horiz-adv-x="334" 
d="M102 0v574h130v-574h-130z" />
    <glyph glyph-name="J.sc" horiz-adv-x="606" 
d="M508 192c0 -125 -79 -202 -217 -202c-136 0 -209 78 -209 202v152h123v-143c0 -54 29 -93 86 -93s86 39 86 93v373h131v-382z" />
    <glyph glyph-name="K.sc" horiz-adv-x="697" 
d="M511 0l-280 259v-259h-130v574h130v-251l272 251h170l-303 -278l316 -296h-175z" />
    <glyph glyph-name="L.sc" horiz-adv-x="617" 
d="M574 116v-116h-473v574h130v-458h343z" />
    <glyph glyph-name="M.sc" horiz-adv-x="881" 
d="M292 574l152 -384l152 384h184v-574h-125v454l-175 -456h-87l-173 453v-451h-119v574h191z" />
    <glyph glyph-name="N.sc" horiz-adv-x="756" 
d="M655 574v-576h-105l-323 409v-407h-126v574h148l282 -363v363h124z" />
    <glyph glyph-name="O.sc" horiz-adv-x="735" 
d="M367 -10c-173 0 -304 123 -304 297c0 177 133 297 304 297c173 0 305 -120 305 -297c0 -174 -132 -297 -305 -297zM367 106c104 0 173 81 173 181c0 101 -69 181 -173 181c-103 0 -172 -80 -172 -181s69 -181 172 -181z" />
    <glyph glyph-name="P.sc" horiz-adv-x="692" 
d="M101 0v574h330c130 0 206 -63 206 -183c0 -117 -76 -184 -206 -184h-200v-207h-130zM417 463h-186v-145h186c57 0 86 28 86 73c0 47 -28 72 -86 72z" />
    <glyph glyph-name="Q.sc" horiz-adv-x="735" 
d="M672 287c0 -120 -63 -215 -159 -263l139 -147h-160l-113 114h-12c-172 0 -304 123 -304 296c0 177 133 297 304 297c173 0 305 -120 305 -297zM367 106c104 0 173 81 173 181c0 101 -69 181 -173 181c-103 0 -172 -80 -172 -181s69 -181 172 -181z" />
    <glyph glyph-name="R.sc" horiz-adv-x="704" 
d="M101 0v574h332c127 0 203 -60 203 -178c0 -79 -40 -134 -110 -159l131 -237h-137l-123 222h-166v-222h-130zM416 466h-185v-137h185c57 0 87 21 87 67c0 48 -30 70 -87 70z" />
    <glyph glyph-name="S.sc" horiz-adv-x="651" 
d="M304 480c-68 0 -106 -21 -106 -59c0 -33 30 -52 82 -58c33 -4 57 -6 93 -9c127 -11 214 -58 214 -182c0 -109 -85 -183 -252 -183c-194 0 -267 98 -287 180h138c14 -33 55 -75 149 -75c78 0 118 29 118 69c0 46 -35 62 -88 68c-34 4 -59 6 -94 9
c-124 12 -206 69 -206 176c0 109 98 169 239 169c186 0 252 -89 269 -162h-131c-15 25 -55 57 -138 57z" />
    <glyph glyph-name="T.sc" horiz-adv-x="657" 
d="M43 460v114h571v-114h-221v-460h-129v460h-221z" />
    <glyph glyph-name="U.sc" horiz-adv-x="739" 
d="M371 109c90 0 142 61 142 151v314h129v-322c0 -147 -94 -263 -271 -263c-184 0 -274 115 -274 263v322h131v-314c0 -90 50 -151 143 -151z" />
    <glyph glyph-name="V.sc" horiz-adv-x="689" 
d="M657 574l-242 -575h-132l-251 575h149l171 -414l170 414h135z" />
    <glyph glyph-name="W.sc" horiz-adv-x="963" 
d="M618 -2l-135 391l-135 -391h-116l-193 576h142l120 -383l128 385h118l128 -386l120 384h129l-188 -576h-118z" />
    <glyph glyph-name="X.sc" horiz-adv-x="711" 
d="M521 0l-169 200l-172 -200h-152l248 290l-241 284h169l155 -186l159 186h156l-239 -277l248 -297h-162z" />
    <glyph glyph-name="Y.sc" horiz-adv-x="669" 
d="M408 241v-241h-136v241l-256 333h166l162 -214l162 214h147z" />
    <glyph glyph-name="Z.sc" horiz-adv-x="686" 
d="M636 114v-114h-576v74l335 387h-327v113h531v-73l-339 -387h376z" />
    <glyph glyph-name="Oslash.sc" horiz-adv-x="735" 
d="M672 287c0 -174 -133 -297 -305 -297c-60 0 -116 16 -164 45l-32 -35h-129l88 97c-42 50 -67 115 -67 190c0 177 131 297 304 297c58 0 115 -16 163 -44l31 34h131l-88 -97c42 -50 68 -114 68 -190zM192 287c0 -38 7 -72 21 -99l239 265c-24 12 -52 18 -85 18
c-107 0 -175 -80 -175 -184zM542 287c0 38 -7 71 -21 99l-241 -266c24 -12 54 -18 87 -18c107 0 175 81 175 185z" />
    <glyph glyph-name="AE.sc" horiz-adv-x="979" 
d="M933 112v-112h-492v123h-218l-77 -123h-141l362 574h534v-106h-332v-112h192v-110h-192v-134h364zM288 228h153v245z" />
    <glyph glyph-name="OE.sc" horiz-adv-x="997" 
d="M64 287c0 185 132 287 315 287h540v-106h-332v-112h192v-110h-192v-134h364v-112h-572c-183 0 -315 103 -315 287zM380 112h78v350h-78c-110 0 -184 -65 -184 -175s74 -175 184 -175z" />
    <glyph glyph-name="Eth.sc" horiz-adv-x="731" 
d="M29 342h89v232h236c184 0 313 -100 313 -287c0 -184 -129 -287 -313 -287h-236v236h-89v106zM400 236h-152v-125h105c108 0 181 66 181 176c0 115 -73 176 -181 176h-105v-121h152v-106z" />
    <glyph glyph-name="Dcroat.sc" horiz-adv-x="731" 
d="M29 342h89v232h236c184 0 313 -100 313 -287c0 -184 -129 -287 -313 -287h-236v236h-89v106zM400 236h-152v-125h105c108 0 181 66 181 176c0 115 -73 176 -181 176h-105v-121h152v-106z" />
    <glyph glyph-name="Eng.sc" horiz-adv-x="756" 
d="M655 -27c0 -98 -46 -139 -136 -139h-137v98h86c44 0 64 17 64 50c0 21 -11 40 -35 72l-269 349v-403h-127v574h148l281 -371v371h125v-601z" />
    <glyph glyph-name="IJ.sc" horiz-adv-x="940" 
d="M102 0v574h130v-574h-130zM842 192c0 -125 -79 -202 -217 -202c-136 0 -209 78 -209 202v152h123v-143c0 -54 29 -93 86 -93s86 39 86 93v373h131v-382z" />
    <glyph glyph-name="dotlessj.sc" horiz-adv-x="606" 
d="M508 192c0 -125 -79 -202 -217 -202c-136 0 -209 78 -209 202v152h123v-143c0 -54 29 -93 86 -93s86 39 86 93v373h131v-382z" />
    <glyph glyph-name="Aacute.sc" horiz-adv-x="697" 
d="M531 0l-45 105h-283l-45 -105h-128l251 576h134l252 -576h-136zM250 212h189l-94 219zM281 637l112 156h144l-120 -156h-136z" />
    <glyph glyph-name="Abreve.sc" horiz-adv-x="697" 
d="M531 0l-45 105h-283l-45 -105h-128l251 576h134l252 -576h-136zM250 212h189l-94 219zM348 724c42 0 60 30 60 63v11h101v-13c0 -86 -52 -155 -161 -155s-161 69 -161 155v13h101v-11c0 -32 18 -63 60 -63z" />
    <glyph glyph-name="Acircumflex.sc" horiz-adv-x="697" 
d="M531 0l-45 105h-283l-45 -105h-128l251 576h134l252 -576h-136zM250 212h189l-94 219zM421 635l-73 83l-73 -83h-125l139 161h118l136 -161h-122z" />
    <glyph glyph-name="Adieresis.sc" horiz-adv-x="697" 
d="M531 0l-45 105h-283l-45 -105h-128l251 576h134l252 -576h-136zM250 212h189l-94 219zM174 637v149h127v-149h-127zM395 637v149h127v-149h-127z" />
    <glyph glyph-name="Agrave.sc" horiz-adv-x="697" 
d="M531 0l-45 105h-283l-45 -105h-128l251 576h134l252 -576h-136zM250 212h189l-94 219zM416 637h-136l-120 156h144z" />
    <glyph glyph-name="Amacron.sc" horiz-adv-x="697" 
d="M531 0l-45 105h-283l-45 -105h-128l251 576h134l252 -576h-136zM250 212h189l-94 219zM523 665h-350v100h350v-100z" />
    <glyph glyph-name="Aogonek.sc" horiz-adv-x="697" 
d="M692 -117v-96h-127c-77 0 -125 31 -125 93c0 52 40 85 89 120h2l-45 105h-283l-45 -105h-128l251 576h134l252 -576c-56 -43 -89 -66 -89 -92c0 -17 12 -25 31 -25h83zM250 212h189l-94 219z" />
    <glyph glyph-name="Aring.sc" horiz-adv-x="697" 
d="M531 0l-45 105h-283l-45 -105h-128l251 576h134l252 -576h-136zM250 212h189l-94 219zM348 627c-79 0 -136 59 -136 133c0 75 58 132 136 132s137 -57 137 -132c0 -74 -58 -133 -137 -133zM348 699c35 0 60 26 60 61s-24 61 -60 61s-60 -26 -60 -61s25 -61 60 -61z" />
    <glyph glyph-name="Atilde.sc" horiz-adv-x="697" 
d="M531 0l-45 105h-283l-45 -105h-128l251 576h134l252 -576h-136zM250 212h189l-94 219zM351 671l-38 20c-14 7 -26 12 -35 12c-11 0 -16 -8 -16 -22v-48h-93v77c0 58 27 96 84 96c34 0 59 -15 94 -34l38 -19c14 -7 25 -13 34 -13c12 0 17 9 17 23v48h93v-77
c0 -58 -28 -96 -84 -96c-36 0 -60 15 -94 33z" />
    <glyph glyph-name="AEacute.sc" horiz-adv-x="979" 
d="M933 112v-112h-492v123h-218l-77 -123h-141l362 574h534v-106h-332v-112h192v-110h-192v-134h364zM288 228h153v245zM561 637l112 156h144l-120 -156h-136z" />
    <glyph glyph-name="Cacute.sc" horiz-adv-x="684" 
d="M357 -10c-171 0 -294 127 -294 297c0 171 123 297 294 297c185 0 258 -126 271 -192h-132c-14 26 -57 76 -139 76c-99 0 -161 -82 -161 -181s62 -180 161 -180c89 0 127 52 140 76h131c-12 -58 -80 -193 -271 -193zM290 637l112 156h144l-120 -156h-136z" />
    <glyph glyph-name="Ccaron.sc" horiz-adv-x="684" 
d="M357 -10c-171 0 -294 127 -294 297c0 171 123 297 294 297c185 0 258 -126 271 -192h-132c-14 26 -57 76 -139 76c-99 0 -161 -82 -161 -181s62 -180 161 -180c89 0 127 52 140 76h131c-12 -58 -80 -193 -271 -193zM555 796l-139 -161h-118l-136 161h122l73 -83l73 83
h125z" />
    <glyph glyph-name="Ccedilla.sc" horiz-adv-x="684" 
d="M404 -156c0 18 -11 30 -36 30h-91v126c-128 33 -214 145 -214 287c0 171 123 297 294 297c185 0 258 -126 271 -192h-132c-14 26 -57 76 -139 76c-99 0 -161 -82 -161 -181s62 -180 161 -180c89 0 127 52 140 76h131c-12 -56 -76 -183 -251 -192v-40h9
c85 0 124 -43 124 -110c0 -68 -39 -117 -124 -117h-146v88h128c25 0 36 12 36 32z" />
    <glyph glyph-name="Ccircumflex.sc" horiz-adv-x="684" 
d="M357 -10c-171 0 -294 127 -294 297c0 171 123 297 294 297c185 0 258 -126 271 -192h-132c-14 26 -57 76 -139 76c-99 0 -161 -82 -161 -181s62 -180 161 -180c89 0 127 52 140 76h131c-12 -58 -80 -193 -271 -193zM430 635l-73 83l-73 -83h-125l139 161h118l136 -161
h-122z" />
    <glyph glyph-name="Cdotaccent.sc" horiz-adv-x="684" 
d="M357 -10c-171 0 -294 127 -294 297c0 171 123 297 294 297c185 0 258 -126 271 -192h-132c-14 26 -57 76 -139 76c-99 0 -161 -82 -161 -181s62 -180 161 -180c89 0 127 52 140 76h131c-12 -58 -80 -193 -271 -193zM291 637v152h132v-152h-132z" />
    <glyph glyph-name="Dcaron.sc" horiz-adv-x="714" 
d="M101 0v574h236c184 0 313 -100 313 -287c0 -184 -129 -287 -313 -287h-236zM335 462h-104v-349h104c109 0 182 65 182 174c0 114 -73 175 -182 175zM530 796l-139 -161h-118l-136 161h122l73 -83l73 83h125z" />
    <glyph glyph-name="Eacute.sc" horiz-adv-x="656" 
d="M101 0v574h476v-106h-346v-113h206v-110h-206v-135h379v-110h-509zM272 637l112 156h144l-120 -156h-136z" />
    <glyph glyph-name="Ebreve.sc" horiz-adv-x="656" 
d="M101 0v574h476v-106h-346v-113h206v-110h-206v-135h379v-110h-509zM339 724c42 0 60 30 60 63v11h101v-13c0 -86 -52 -155 -161 -155s-161 69 -161 155v13h101v-11c0 -32 18 -63 60 -63z" />
    <glyph glyph-name="Ecaron.sc" horiz-adv-x="656" 
d="M101 0v574h476v-106h-346v-113h206v-110h-206v-135h379v-110h-509zM537 796l-139 -161h-118l-136 161h122l73 -83l73 83h125z" />
    <glyph glyph-name="Ecircumflex.sc" horiz-adv-x="656" 
d="M101 0v574h476v-106h-346v-113h206v-110h-206v-135h379v-110h-509zM412 635l-73 83l-73 -83h-125l139 161h118l136 -161h-122z" />
    <glyph glyph-name="Edieresis.sc" horiz-adv-x="656" 
d="M101 0v574h476v-106h-346v-113h206v-110h-206v-135h379v-110h-509zM165 637v149h127v-149h-127zM386 637v149h127v-149h-127z" />
    <glyph glyph-name="Edotaccent.sc" horiz-adv-x="656" 
d="M101 0v574h476v-106h-346v-113h206v-110h-206v-135h379v-110h-509zM274 637v152h132v-152h-132z" />
    <glyph glyph-name="Egrave.sc" horiz-adv-x="656" 
d="M101 0v574h476v-106h-346v-113h206v-110h-206v-135h379v-110h-509zM419 637h-136l-120 156h144z" />
    <glyph glyph-name="Emacron.sc" horiz-adv-x="656" 
d="M101 0v574h476v-106h-346v-113h206v-110h-206v-135h379v-110h-509zM514 665h-350v100h350v-100z" />
    <glyph glyph-name="Eogonek.sc" horiz-adv-x="656" 
d="M101 0v574h476v-106h-346v-113h206v-110h-206v-135h379v-110h-78c-55 -43 -89 -66 -89 -92c0 -17 12 -25 32 -25h82v-96h-126c-77 0 -125 31 -125 92c0 53 45 84 98 121h-303z" />
    <glyph glyph-name="Gbreve.sc" horiz-adv-x="721" 
d="M639 71c-35 -30 -121 -82 -256 -82c-194 0 -320 121 -320 300c0 173 124 296 298 296c175 0 247 -102 264 -164h-135c-15 18 -53 52 -129 52c-103 0 -167 -78 -167 -184c0 -110 72 -188 191 -188c66 0 110 16 130 29v102h-187v105h311v-266zM361 724c42 0 60 30 60 63v11
h101v-13c0 -86 -52 -155 -161 -155s-161 69 -161 155v13h101v-11c0 -32 18 -63 60 -63z" />
    <glyph glyph-name="Gcircumflex.sc" horiz-adv-x="721" 
d="M639 71c-35 -30 -121 -82 -256 -82c-194 0 -320 121 -320 300c0 173 124 296 298 296c175 0 247 -102 264 -164h-135c-15 18 -53 52 -129 52c-103 0 -167 -78 -167 -184c0 -110 72 -188 191 -188c66 0 110 16 130 29v102h-187v105h311v-266zM434 635l-73 83l-73 -83h-125
l139 161h118l136 -161h-122z" />
    <glyph glyph-name="Gcommaaccent.sc" horiz-adv-x="721" 
d="M639 71c-35 -30 -121 -82 -256 -82c-194 0 -320 121 -320 300c0 173 124 296 298 296c175 0 247 -102 264 -164h-135c-15 18 -53 52 -129 52c-103 0 -167 -78 -167 -184c0 -110 72 -188 191 -188c66 0 110 16 130 29v102h-187v105h311v-266zM427 -322h-87
c21 38 37 86 40 114h-66v127h145v-101c0 -61 -16 -104 -32 -140z" />
    <glyph glyph-name="Gdotaccent.sc" horiz-adv-x="721" 
d="M639 71c-35 -30 -121 -82 -256 -82c-194 0 -320 121 -320 300c0 173 124 296 298 296c175 0 247 -102 264 -164h-135c-15 18 -53 52 -129 52c-103 0 -167 -78 -167 -184c0 -110 72 -188 191 -188c66 0 110 16 130 29v102h-187v105h311v-266zM295 637v152h132v-152h-132z
" />
    <glyph glyph-name="Hbar.sc" horiz-adv-x="751" 
d="M32 417v84h69v73h130v-73h289v73h130v-73h69v-84h-69v-417h-130v230h-289v-230h-130v417h-69zM231 345h289v72h-289v-72z" />
    <glyph glyph-name="Hcircumflex.sc" horiz-adv-x="751" 
d="M520 0v230h-289v-230h-130v574h130v-229h289v229h130v-574h-130zM448 635l-73 83l-73 -83h-125l139 161h118l136 -161h-122z" />
    <glyph glyph-name="Iacute.sc" horiz-adv-x="334" 
d="M102 0v574h130v-574h-130zM100 637l112 156h144l-120 -156h-136z" />
    <glyph glyph-name="Ibreve.sc" horiz-adv-x="334" 
d="M102 0v574h130v-574h-130zM167 724c42 0 60 30 60 63v11h101v-13c0 -86 -52 -155 -161 -155s-161 69 -161 155v13h101v-11c0 -32 18 -63 60 -63z" />
    <glyph glyph-name="Icircumflex.sc" horiz-adv-x="334" 
d="M102 0v574h130v-574h-130zM240 635l-73 83l-73 -83h-125l139 161h118l136 -161h-122z" />
    <glyph glyph-name="Idieresis.sc" horiz-adv-x="334" 
d="M102 0v574h130v-574h-130zM-7 637v149h127v-149h-127zM214 637v149h127v-149h-127z" />
    <glyph glyph-name="Idotaccent.sc" horiz-adv-x="334" 
d="M102 0v574h130v-574h-130zM101 637v152h132v-152h-132z" />
    <glyph glyph-name="Igrave.sc" horiz-adv-x="334" 
d="M102 0v574h130v-574h-130zM235 637h-136l-120 156h144z" />
    <glyph glyph-name="Imacron.sc" horiz-adv-x="334" 
d="M102 0v574h130v-574h-130zM342 665h-350v100h350v-100z" />
    <glyph glyph-name="Iogonek.sc" horiz-adv-x="334" 
d="M257 -117v-96h-126c-77 0 -125 31 -125 92c0 53 44 84 96 121v574h130v-574c-55 -43 -89 -66 -89 -92c0 -17 12 -25 32 -25h82z" />
    <glyph glyph-name="Itilde.sc" horiz-adv-x="334" 
d="M102 0v574h130v-574h-130zM169 671l-38 20c-14 7 -26 12 -35 12c-11 0 -16 -8 -16 -22v-48h-93v77c0 58 27 96 84 96c34 0 59 -15 94 -34l38 -19c14 -7 25 -13 34 -13c12 0 17 9 17 23v48h93v-77c0 -58 -28 -96 -84 -96c-36 0 -60 15 -94 33z" />
    <glyph glyph-name="Jcircumflex.sc" horiz-adv-x="606" 
d="M508 192c0 -125 -79 -202 -217 -202c-136 0 -209 78 -209 202v152h123v-143c0 -54 29 -93 86 -93s86 39 86 93v373h131v-382zM513 635l-73 83l-73 -83h-125l139 161h118l136 -161h-122z" />
    <glyph glyph-name="Kcommaaccent.sc" horiz-adv-x="691" 
d="M511 0l-280 259v-259h-130v574h130v-251l272 251h170l-303 -278l316 -296h-175zM399 -322h-87c21 38 37 86 40 114h-66v127h145v-101c0 -61 -16 -104 -32 -140z" />
    <glyph glyph-name="Lacute.sc" horiz-adv-x="617" 
d="M574 116v-116h-473v574h130v-458h343zM100 637l112 156h144l-120 -156h-136z" />
    <glyph glyph-name="Lcaron.sc" horiz-adv-x="617" 
d="M574 116v-116h-473v574h130v-458h343zM297 428l53 194h115l-61 -194h-107z" />
    <glyph glyph-name="Lcommaaccent.sc" horiz-adv-x="617" 
d="M574 116v-116h-473v574h130v-458h343zM382 -322h-87c21 38 37 86 40 114h-66v127h145v-101c0 -61 -16 -104 -32 -140z" />
    <glyph glyph-name="Ldot.sc" horiz-adv-x="617" 
d="M574 116v-116h-473v574h130v-458h343zM399 259v170h153v-170h-153z" />
    <glyph glyph-name="Lslash.sc" horiz-adv-x="623" 
d="M580 116v-116h-473v171l-81 -37v105l81 37v298h130v-238l204 95v-108l-204 -93v-114h343z" />
    <glyph glyph-name="Nacute.sc" horiz-adv-x="756" 
d="M655 574v-576h-105l-323 409v-407h-126v574h148l282 -363v363h124zM313 637l112 156h144l-120 -156h-136z" />
    <glyph glyph-name="Ncaron.sc" horiz-adv-x="756" 
d="M655 574v-576h-105l-323 409v-407h-126v574h148l282 -363v363h124zM577 796l-139 -161h-118l-136 161h122l73 -83l73 83h125z" />
    <glyph glyph-name="Ncommaaccent.sc" horiz-adv-x="756" 
d="M655 574v-576h-105l-323 409v-407h-126v574h148l282 -363v363h124zM425 -322h-87c21 38 37 86 40 114h-66v127h145v-101c0 -61 -16 -104 -32 -140z" />
    <glyph glyph-name="Ntilde.sc" horiz-adv-x="756" 
d="M655 574v-576h-105l-323 409v-407h-126v574h148l282 -363v363h124zM382 671l-38 20c-14 7 -26 12 -35 12c-11 0 -16 -8 -16 -22v-48h-93v77c0 58 27 96 84 96c34 0 59 -15 94 -34l38 -19c14 -7 25 -13 34 -13c12 0 17 9 17 23v48h93v-77c0 -58 -28 -96 -84 -96
c-36 0 -60 15 -94 33z" />
    <glyph glyph-name="Oacute.sc" horiz-adv-x="735" 
d="M367 -10c-173 0 -304 123 -304 297c0 177 133 297 304 297c173 0 305 -120 305 -297c0 -174 -132 -297 -305 -297zM367 106c104 0 173 81 173 181c0 101 -69 181 -173 181c-103 0 -172 -80 -172 -181s69 -181 172 -181zM300 637l112 156h144l-120 -156h-136z" />
    <glyph glyph-name="Obreve.sc" horiz-adv-x="735" 
d="M367 -10c-173 0 -304 123 -304 297c0 177 133 297 304 297c173 0 305 -120 305 -297c0 -174 -132 -297 -305 -297zM367 106c104 0 173 81 173 181c0 101 -69 181 -173 181c-103 0 -172 -80 -172 -181s69 -181 172 -181zM367 724c42 0 60 30 60 63v11h101v-13
c0 -86 -52 -155 -161 -155s-161 69 -161 155v13h101v-11c0 -32 18 -63 60 -63z" />
    <glyph glyph-name="Ocircumflex.sc" horiz-adv-x="735" 
d="M367 -10c-173 0 -304 123 -304 297c0 177 133 297 304 297c173 0 305 -120 305 -297c0 -174 -132 -297 -305 -297zM367 106c104 0 173 81 173 181c0 101 -69 181 -173 181c-103 0 -172 -80 -172 -181s69 -181 172 -181zM440 635l-73 83l-73 -83h-125l139 161h118
l136 -161h-122z" />
    <glyph glyph-name="Odieresis.sc" horiz-adv-x="735" 
d="M367 -10c-173 0 -304 123 -304 297c0 177 133 297 304 297c173 0 305 -120 305 -297c0 -174 -132 -297 -305 -297zM367 106c104 0 173 81 173 181c0 101 -69 181 -173 181c-103 0 -172 -80 -172 -181s69 -181 172 -181zM193 637v149h127v-149h-127zM414 637v149h127v-149
h-127z" />
    <glyph glyph-name="Ograve.sc" horiz-adv-x="735" 
d="M367 -10c-173 0 -304 123 -304 297c0 177 133 297 304 297c173 0 305 -120 305 -297c0 -174 -132 -297 -305 -297zM367 106c104 0 173 81 173 181c0 101 -69 181 -173 181c-103 0 -172 -80 -172 -181s69 -181 172 -181zM435 637h-136l-120 156h144z" />
    <glyph glyph-name="Ohungarumlaut.sc" horiz-adv-x="735" 
d="M367 -10c-173 0 -304 123 -304 297c0 177 133 297 304 297c173 0 305 -120 305 -297c0 -174 -132 -297 -305 -297zM367 106c104 0 173 81 173 181c0 101 -69 181 -173 181c-103 0 -172 -80 -172 -181s69 -181 172 -181zM404 637l80 156h124l-86 -156h-118zM206 637
l77 156h125l-85 -156h-117z" />
    <glyph glyph-name="Omacron.sc" horiz-adv-x="735" 
d="M367 -10c-173 0 -304 123 -304 297c0 177 133 297 304 297c173 0 305 -120 305 -297c0 -174 -132 -297 -305 -297zM367 106c104 0 173 81 173 181c0 101 -69 181 -173 181c-103 0 -172 -80 -172 -181s69 -181 172 -181zM542 665h-350v100h350v-100z" />
    <glyph glyph-name="Otilde.sc" horiz-adv-x="735" 
d="M367 -10c-173 0 -304 123 -304 297c0 177 133 297 304 297c173 0 305 -120 305 -297c0 -174 -132 -297 -305 -297zM367 106c104 0 173 81 173 181c0 101 -69 181 -173 181c-103 0 -172 -80 -172 -181s69 -181 172 -181zM369 671l-38 20c-14 7 -26 12 -35 12
c-11 0 -16 -8 -16 -22v-48h-93v77c0 58 27 96 84 96c34 0 59 -15 94 -34l38 -19c14 -7 25 -13 34 -13c12 0 17 9 17 23v48h93v-77c0 -58 -28 -96 -84 -96c-36 0 -60 15 -94 33z" />
    <glyph glyph-name="Oslashacute.sc" horiz-adv-x="735" 
d="M672 287c0 -174 -133 -297 -305 -297c-60 0 -116 16 -164 45l-32 -35h-129l88 97c-42 50 -67 115 -67 190c0 177 131 297 304 297c58 0 115 -16 163 -44l31 34h131l-88 -97c42 -50 68 -114 68 -190zM192 287c0 -38 7 -72 21 -99l239 265c-24 12 -52 18 -85 18
c-107 0 -175 -80 -175 -184zM542 287c0 38 -7 71 -21 99l-241 -266c24 -12 54 -18 87 -18c107 0 175 81 175 185zM300 637l112 156h144l-120 -156h-136z" />
    <glyph glyph-name="Racute.sc" horiz-adv-x="704" 
d="M101 0v574h332c127 0 203 -60 203 -178c0 -79 -40 -134 -110 -159l131 -237h-137l-123 222h-166v-222h-130zM416 466h-185v-137h185c57 0 87 21 87 67c0 48 -30 70 -87 70zM275 637l112 156h144l-120 -156h-136z" />
    <glyph glyph-name="Rcaron.sc" horiz-adv-x="704" 
d="M101 0v574h332c127 0 203 -60 203 -178c0 -79 -40 -134 -110 -159l131 -237h-137l-123 222h-166v-222h-130zM416 466h-185v-137h185c57 0 87 21 87 67c0 48 -30 70 -87 70zM540 796l-139 -161h-118l-136 161h122l73 -83l73 83h125z" />
    <glyph glyph-name="Rcommaaccent.sc" horiz-adv-x="704" 
d="M101 0v574h332c127 0 203 -60 203 -178c0 -79 -40 -134 -110 -159l131 -237h-137l-123 222h-166v-222h-130zM416 466h-185v-137h185c57 0 87 21 87 67c0 48 -30 70 -87 70zM407 -322h-87c21 38 37 86 40 114h-66v127h145v-101c0 -61 -16 -104 -32 -140z" />
    <glyph glyph-name="Sacute.sc" horiz-adv-x="651" 
d="M304 480c-68 0 -106 -21 -106 -59c0 -33 30 -52 82 -58c33 -4 57 -6 93 -9c127 -11 214 -58 214 -182c0 -109 -85 -183 -252 -183c-194 0 -267 98 -287 180h138c14 -33 55 -75 149 -75c78 0 118 29 118 69c0 46 -35 62 -88 68c-34 4 -59 6 -94 9
c-124 12 -206 69 -206 176c0 109 98 169 239 169c186 0 252 -89 269 -162h-131c-15 25 -55 57 -138 57zM251 637l112 156h144l-120 -156h-136z" />
    <glyph glyph-name="Scaron.sc" horiz-adv-x="651" 
d="M304 480c-68 0 -106 -21 -106 -59c0 -33 30 -52 82 -58c33 -4 57 -6 93 -9c127 -11 214 -58 214 -182c0 -109 -85 -183 -252 -183c-194 0 -267 98 -287 180h138c14 -33 55 -75 149 -75c78 0 118 29 118 69c0 46 -35 62 -88 68c-34 4 -59 6 -94 9
c-124 12 -206 69 -206 176c0 109 98 169 239 169c186 0 252 -89 269 -162h-131c-15 25 -55 57 -138 57zM516 796l-139 -161h-118l-136 161h122l73 -83l73 83h125z" />
    <glyph glyph-name="Scedilla.sc" horiz-adv-x="651" 
d="M304 480c-68 0 -106 -21 -106 -59c0 -33 30 -52 82 -58c33 -4 57 -6 93 -9c127 -11 214 -58 214 -182c0 -108 -84 -181 -247 -183v-38h10c85 0 124 -43 124 -110c0 -68 -39 -117 -125 -117h-146v88h129c24 0 36 12 36 32c0 18 -12 30 -36 30h-91v124
c-125 26 -177 104 -193 171h138c14 -33 55 -75 149 -75c78 0 118 29 118 69c0 46 -35 62 -88 68c-34 4 -59 6 -94 9c-124 12 -206 69 -206 176c0 109 98 169 239 169c186 0 252 -89 269 -162h-131c-15 25 -55 57 -138 57z" />
    <glyph glyph-name="Scircumflex.sc" horiz-adv-x="651" 
d="M304 480c-68 0 -106 -21 -106 -59c0 -33 30 -52 82 -58c33 -4 57 -6 93 -9c127 -11 214 -58 214 -182c0 -109 -85 -183 -252 -183c-194 0 -267 98 -287 180h138c14 -33 55 -75 149 -75c78 0 118 29 118 69c0 46 -35 62 -88 68c-34 4 -59 6 -94 9
c-124 12 -206 69 -206 176c0 109 98 169 239 169c186 0 252 -89 269 -162h-131c-15 25 -55 57 -138 57zM391 635l-73 83l-73 -83h-125l139 161h118l136 -161h-122z" />
    <glyph glyph-name="Scommaaccent.sc" horiz-adv-x="651" 
d="M304 480c-68 0 -106 -21 -106 -59c0 -33 30 -52 82 -58c33 -4 57 -6 93 -9c127 -11 214 -58 214 -182c0 -109 -85 -183 -252 -183c-194 0 -267 98 -287 180h138c14 -33 55 -75 149 -75c78 0 118 29 118 69c0 46 -35 62 -88 68c-34 4 -59 6 -94 9
c-124 12 -206 69 -206 176c0 109 98 169 239 169c186 0 252 -89 269 -162h-131c-15 25 -55 57 -138 57zM378 -322h-87c21 38 37 86 40 114h-66v127h145v-101c0 -61 -16 -104 -32 -140z" />
    <glyph glyph-name="Tcaron.sc" horiz-adv-x="657" 
d="M43 460v114h571v-114h-221v-460h-129v460h-221zM527 796l-139 -161h-118l-136 161h122l73 -83l73 83h125z" />
    <glyph glyph-name="Tcommaaccent.sc" horiz-adv-x="657" 
d="M43 460v114h571v-114h-221v-460h-129v460h-221zM369 -322h-87c21 38 37 86 40 114h-66v127h145v-101c0 -61 -16 -104 -32 -140z" />
    <glyph glyph-name="uni021A.sc" horiz-adv-x="657" 
d="M43 460v114h571v-114h-221v-460h-129v460h-221zM369 -322h-87c21 38 37 86 40 114h-66v127h145v-101c0 -61 -16 -104 -32 -140z" />
    <glyph glyph-name="Tbar.sc" horiz-adv-x="657" 
d="M43 460v114h571v-114h-221v-124h148v-100h-148v-236h-129v236h-148v100h148v124h-221z" />
    <glyph glyph-name="Thorn.sc" horiz-adv-x="692" 
d="M437 115h-206v-115h-130v574h130v-103h207c126 0 199 -61 199 -177c0 -113 -73 -179 -200 -179zM423 360h-192v-133h192c54 0 80 26 80 67c0 43 -26 66 -80 66z" />
    <glyph glyph-name="Uacute.sc" horiz-adv-x="739" 
d="M371 109c90 0 142 61 142 151v314h129v-322c0 -147 -94 -263 -271 -263c-184 0 -274 115 -274 263v322h131v-314c0 -90 50 -151 143 -151zM293 637l112 156h144l-120 -156h-136z" />
    <glyph glyph-name="Ubreve.sc" horiz-adv-x="739" 
d="M371 109c90 0 142 61 142 151v314h129v-322c0 -147 -94 -263 -271 -263c-184 0 -274 115 -274 263v322h131v-314c0 -90 50 -151 143 -151zM370 724c42 0 60 30 60 63v11h101v-13c0 -86 -52 -155 -161 -155s-161 69 -161 155v13h101v-11c0 -32 18 -63 60 -63z" />
    <glyph glyph-name="Ucircumflex.sc" horiz-adv-x="739" 
d="M371 109c90 0 142 61 142 151v314h129v-322c0 -147 -94 -263 -271 -263c-184 0 -274 115 -274 263v322h131v-314c0 -90 50 -151 143 -151zM443 635l-73 83l-73 -83h-125l139 161h118l136 -161h-122z" />
    <glyph glyph-name="Udieresis.sc" horiz-adv-x="739" 
d="M371 109c90 0 142 61 142 151v314h129v-322c0 -147 -94 -263 -271 -263c-184 0 -274 115 -274 263v322h131v-314c0 -90 50 -151 143 -151zM196 637v149h127v-149h-127zM417 637v149h127v-149h-127z" />
    <glyph glyph-name="Ugrave.sc" horiz-adv-x="739" 
d="M371 109c90 0 142 61 142 151v314h129v-322c0 -147 -94 -263 -271 -263c-184 0 -274 115 -274 263v322h131v-314c0 -90 50 -151 143 -151zM447 637h-136l-120 156h144z" />
    <glyph glyph-name="Uhungarumlaut.sc" horiz-adv-x="739" 
d="M371 109c90 0 142 61 142 151v314h129v-322c0 -147 -94 -263 -271 -263c-184 0 -274 115 -274 263v322h131v-314c0 -90 50 -151 143 -151zM407 637l80 156h124l-86 -156h-118zM209 637l77 156h125l-85 -156h-117z" />
    <glyph glyph-name="Umacron.sc" horiz-adv-x="739" 
d="M371 109c90 0 142 61 142 151v314h129v-322c0 -147 -94 -263 -271 -263c-184 0 -274 115 -274 263v322h131v-314c0 -90 50 -151 143 -151zM545 665h-350v100h350v-100z" />
    <glyph glyph-name="Uogonek.sc" horiz-adv-x="739" 
d="M548 -117v-96h-126c-77 0 -126 30 -126 89c0 48 40 81 94 113h-19c-184 0 -274 115 -274 263v322h131v-314c0 -90 50 -151 143 -151c90 0 142 61 142 151v314h129v-322c0 -106 -46 -177 -116 -236c-67 -57 -92 -79 -92 -106c0 -18 13 -27 34 -27h80z" />
    <glyph glyph-name="Uring.sc" horiz-adv-x="739" 
d="M371 109c90 0 142 61 142 151v314h129v-322c0 -147 -94 -263 -271 -263c-184 0 -274 115 -274 263v322h131v-314c0 -90 50 -151 143 -151zM370 627c-79 0 -136 59 -136 133c0 75 58 132 136 132s137 -57 137 -132c0 -74 -58 -133 -137 -133zM370 699c35 0 60 26 60 61
s-24 61 -60 61s-60 -26 -60 -61s25 -61 60 -61z" />
    <glyph glyph-name="Utilde.sc" horiz-adv-x="739" 
d="M371 109c90 0 142 61 142 151v314h129v-322c0 -147 -94 -263 -271 -263c-184 0 -274 115 -274 263v322h131v-314c0 -90 50 -151 143 -151zM372 671l-38 20c-14 7 -26 12 -35 12c-11 0 -16 -8 -16 -22v-48h-93v77c0 58 27 96 84 96c34 0 59 -15 94 -34l38 -19
c14 -7 25 -13 34 -13c12 0 17 9 17 23v48h93v-77c0 -58 -28 -96 -84 -96c-36 0 -60 15 -94 33z" />
    <glyph glyph-name="Wacute.sc" horiz-adv-x="963" 
d="M618 -2l-135 391l-135 -391h-116l-193 576h142l120 -383l128 385h118l128 -386l120 384h129l-188 -576h-118zM418 637l112 156h144l-120 -156h-136z" />
    <glyph glyph-name="Wcircumflex.sc" horiz-adv-x="963" 
d="M618 -2l-135 391l-135 -391h-116l-193 576h142l120 -383l128 385h118l128 -386l120 384h129l-188 -576h-118zM558 635l-73 83l-73 -83h-125l139 161h118l136 -161h-122z" />
    <glyph glyph-name="Wdieresis.sc" horiz-adv-x="963" 
d="M618 -2l-135 391l-135 -391h-116l-193 576h142l120 -383l128 385h118l128 -386l120 384h129l-188 -576h-118zM311 637v149h127v-149h-127zM532 637v149h127v-149h-127z" />
    <glyph glyph-name="Wgrave.sc" horiz-adv-x="963" 
d="M618 -2l-135 391l-135 -391h-116l-193 576h142l120 -383l128 385h118l128 -386l120 384h129l-188 -576h-118zM553 637h-136l-120 156h144z" />
    <glyph glyph-name="Yacute.sc" horiz-adv-x="669" 
d="M408 241v-241h-136v241l-256 333h166l162 -214l162 214h147zM271 637l112 156h144l-120 -156h-136z" />
    <glyph glyph-name="Ycircumflex.sc" horiz-adv-x="669" 
d="M408 241v-241h-136v241l-256 333h166l162 -214l162 214h147zM417 635l-73 83l-73 -83h-125l139 161h118l136 -161h-122z" />
    <glyph glyph-name="Ydieresis.sc" horiz-adv-x="669" 
d="M408 241v-241h-136v241l-256 333h166l162 -214l162 214h147zM170 637v149h127v-149h-127zM391 637v149h127v-149h-127z" />
    <glyph glyph-name="Ygrave.sc" horiz-adv-x="669" 
d="M408 241v-241h-136v241l-256 333h166l162 -214l162 214h147zM417 637h-136l-120 156h144z" />
    <glyph glyph-name="Zacute.sc" horiz-adv-x="686" 
d="M636 114v-114h-576v74l335 387h-327v113h531v-73l-339 -387h376zM261 637l112 156h144l-120 -156h-136z" />
    <glyph glyph-name="Zcaron.sc" horiz-adv-x="686" 
d="M636 114v-114h-576v74l335 387h-327v113h531v-73l-339 -387h376zM532 796l-139 -161h-118l-136 161h122l73 -83l73 83h125z" />
    <glyph glyph-name="Zdotaccent.sc" horiz-adv-x="686" 
d="M636 114v-114h-576v74l335 387h-327v113h531v-73l-339 -387h376zM267 637v152h132v-152h-132z" />
    <glyph glyph-name="germandbls.sc" horiz-adv-x="1302" 
d="M304 480c-68 0 -106 -21 -106 -59c0 -33 30 -52 82 -58c33 -4 57 -6 93 -9c127 -11 214 -58 214 -182c0 -109 -85 -183 -252 -183c-194 0 -267 98 -287 180h138c14 -33 55 -75 149 -75c78 0 118 29 118 69c0 46 -35 62 -88 68c-34 4 -59 6 -94 9
c-124 12 -206 69 -206 176c0 109 98 169 239 169c186 0 252 -89 269 -162h-131c-15 25 -55 57 -138 57zM955 480c-68 0 -106 -21 -106 -59c0 -33 30 -52 82 -58c33 -4 57 -6 93 -9c127 -11 214 -58 214 -182c0 -109 -85 -183 -252 -183c-194 0 -267 98 -287 180h138
c14 -33 55 -75 149 -75c78 0 118 29 118 69c0 46 -35 62 -88 68c-34 4 -59 6 -94 9c-124 12 -206 69 -206 176c0 109 98 169 239 169c186 0 252 -89 269 -162h-131c-15 25 -55 57 -138 57z" />
    <glyph glyph-name="napostrophe.sc" horiz-adv-x="996" 
d="M895 574v-576h-105l-323 409v-407h-126v574h148l282 -363v363h124zM156 386h-92c34 59 63 127 65 195h-71v155h151v-138c0 -87 -24 -159 -53 -212z" />
    <glyph glyph-name="f.short" horiz-adv-x="504" 
d="M476 398h-181v-398h-128v398h-139v108h139v74c0 98 54 156 169 156h171v-102h-132c-56 0 -80 -28 -80 -79v-49h181v-108z" />
    <glyph glyph-name="f_f.short" horiz-adv-x="868" 
d="M532 0v398h-237v-398h-128v398h-139v108h139v74c0 98 54 156 169 156h136v-102h-97c-56 0 -80 -28 -80 -79v-49h237v74c0 98 54 156 168 156h172v-102h-132c-57 0 -81 -28 -81 -79v-49h182v-108h-182v-398h-127z" />
    <glyph glyph-name="four.denalt" horiz-adv-x="505" 
d="M470 119h-83v-119h-108v119h-208v316h108v-224h100v169h108v-169h83v-92z" />
    <glyph glyph-name="four.numalt" horiz-adv-x="505" 
d="M470 394h-83v-119h-108v119h-208v316h108v-224h100v169h108v-169h83v-92z" />
    <glyph glyph-name="four.oldalt" horiz-adv-x="729" 
d="M694 80h-153v-216h-132v216h-311v494h132v-376h179v286h132v-286h153v-118z" />
    <glyph glyph-name="four.subalt" horiz-adv-x="560" 
d="M522 9h-102v-139h-111v139h-233v361h110v-263h123v200h111v-200h102v-98z" />
    <glyph glyph-name="four.supalt" horiz-adv-x="560" 
d="M522 374h-102v-139h-111v139h-233v361h110v-263h123v200h111v-200h102v-98z" />
    <glyph glyph-name="four.tabalt" horiz-adv-x="650" 
d="M614 210h-114v-210h-129v210h-292v500h129v-384h163v285h129v-285h114v-116z" />
    <glyph glyph-name="uni200A" unicode="&#x200a;" horiz-adv-x="83" 
 />
    <glyph glyph-name="j.short" horiz-adv-x="296" 
d="M81 587v152h134v-152h-134zM212 -42c0 -117 -55 -171 -166 -171h-101v105h58c57 0 81 27 81 82v532h128v-548z" />
    <glyph glyph-name="ringacute" 
d="M241 871l95 154h131l-102 -154h-124zM300 569c-79 0 -136 59 -136 133c0 75 58 132 136 132s137 -57 137 -132c0 -74 -58 -133 -137 -133zM300 641c35 0 60 27 60 61c0 35 -24 61 -60 61s-60 -26 -60 -61c0 -34 25 -61 60 -61z" />
    <glyph glyph-name="ringacute.uc" 
d="M236 1064l103 144h141l-111 -144h-133zM300 763c-79 0 -136 59 -136 133c0 75 58 132 136 132s137 -57 137 -132c0 -74 -58 -133 -137 -133zM300 835c35 0 60 26 60 61s-24 61 -60 61s-60 -26 -60 -61s25 -61 60 -61z" />
    <glyph glyph-name="uni0192" unicode="&#x192;" horiz-adv-x="581" 
d="M483 328h-181l-81 -535h-128l80 535h-138v108h155l17 116c16 105 61 158 185 158h172v-107h-140c-63 0 -83 -21 -92 -79l-13 -88h164v-108z" />
    <glyph glyph-name="uni01FA.sc" horiz-adv-x="697" 
d="M531 0l-45 105h-283l-45 -105h-128l251 576h134l252 -576h-136zM250 212h189l-94 219zM284 928l103 144h141l-111 -144h-133zM348 627c-79 0 -136 59 -136 133c0 75 58 132 136 132s137 -57 137 -132c0 -74 -58 -133 -137 -133zM348 699c35 0 60 26 60 61s-24 61 -60 61
s-60 -26 -60 -61s25 -61 60 -61z" />
    <glyph glyph-name="uni0237" unicode="&#x237;" horiz-adv-x="295" 
d="M212 -42c0 -117 -55 -171 -166 -171h-157v105h114c57 0 81 27 81 82v532h128v-548z" />
    <glyph glyph-name="uni2009" unicode="&#x2009;" horiz-adv-x="166" 
 />
    <glyph glyph-name="exclam" unicode="!" horiz-adv-x="342" 
d="M107 235v475h127v-475h-127zM94 0v159h153v-159h-153z" />
    <glyph glyph-name="won" unicode="&#x20a9;" horiz-adv-x="1054" 
d="M650 -3l-70 311h-95l-69 -311h-136l-81 307h-144v102h117l-81 304h136l71 -309h98l68 312h136l69 -312h98l70 309h125l-75 -304h111v-102h-136l-77 -307h-135zM501 401h61l-31 149zM318 308l31 -148l28 148h-59zM688 308l29 -153l31 153h-60z" />
    </font>
</defs>
</svg>
